<svg id="Camada_1" data-name="Camada 1" xmlns="http://www.w3.org/2000/svg" viewBox="0 0 1000 700"><defs><style>.cls-1{fill:#e1e1e1;}.cls-2{fill:none;}.cls-3{fill:#ececec;fill-rule:evenodd;}.cls-4{fill:#375a64;}.cls-5{fill:#1a2e35;}.cls-6{fill:#c78976;}.cls-7{fill:#bf654e;}.cls-8{fill:#fff;}.cls-9{fill:#4c2a8e;}.cls-10{fill:#fafafa;}.cls-11{opacity:0.3;}.cls-12{fill:#c6ff00;}.cls-13{fill:#f5f5f5;}.cls-14{fill:#fdff58;}.cls-15{fill:#90cc00;}.cls-16{fill:#7d55bf;}</style></defs><path class="cls-1" d="M699.06,12.72a4.51,4.51,0,1,1-4.51-4.51A4.51,4.51,0,0,1,699.06,12.72Z"/><path class="cls-1" d="M722.74,316.52s0-.22,0-.63,0-1.06,0-1.85c0-1.65,0-4.05-.06-7.12,0-6.25-.07-15.26-.12-26.51,0-22.59-.08-54.11-.14-90.06l.09.25-19.3-23.35-8.65-10.48-.09-.11v-.14c.05-40.08.09-75.78.13-101.51.05-12.82.09-23.16.12-30.32,0-3.54.06-6.29.07-8.2,0-.91,0-1.62,0-2.13s0-.72,0-.72,0,.24,0,.72,0,1.22,0,2.13c0,1.91,0,4.66.07,8.2,0,7.16.07,17.5.12,30.32,0,25.73.08,61.43.13,101.51l-.09-.26,8.66,10.48L723,190.1l.09.11v.14c0,36-.1,67.47-.14,90.06,0,11.25-.09,20.26-.11,26.51,0,3.07-.06,5.47-.07,7.12,0,.79,0,1.4,0,1.85S722.74,316.52,722.74,316.52Z"/><path class="cls-2" d="M784.8,300.54a24.88,24.88,0,0,1-4.61,4.83l1.2,6.08L772,315.6l-3.7-5a24.85,24.85,0,0,1-6.68.17l-3.44,5.14-9.56-3.68.9-6.12a25,25,0,0,1-4.84-4.61l-6.07,1.2-4.16-9.36,5-3.7a25.27,25.27,0,0,1-.17-6.68l-5.14-3.44,3.68-9.56,6.13.89a24.83,24.83,0,0,1,4.6-4.83l-1.2-6.08,9.37-4.15,3.69,5a24.86,24.86,0,0,1,6.68-.17l3.45-5.14,9.55,3.68-.89,6.12a25.18,25.18,0,0,1,4.83,4.61l6.08-1.2,4.15,9.36-5,3.7a24.85,24.85,0,0,1,.16,6.68l5.14,3.44-3.68,9.56-6.12-.89ZM774.46,290.1a11,11,0,1,0-14.21,6.3A11,11,0,0,0,774.46,290.1Z"/><path class="cls-1" d="M774.46,290.1a8.46,8.46,0,0,1-1.19,2.45,11.08,11.08,0,0,1-11.1,4.65,11.22,11.22,0,0,1-5.36-2.55,11.3,11.3,0,0,1-3.5-5.55,11.23,11.23,0,0,1,4.81-12.46,10.51,10.51,0,0,1,3.09-1.37,10.8,10.8,0,0,1,3.22-.39,11.12,11.12,0,0,1,9.31,5.39,10.92,10.92,0,0,1,1.48,7.21,8.4,8.4,0,0,1-.76,2.62c-.08,0,.33-.93.52-2.65a11,11,0,0,0-1.62-6.95,10.82,10.82,0,0,0-3.52-3.47,10.69,10.69,0,0,0-5.42-1.57,10.31,10.31,0,0,0-3,.39,10,10,0,0,0-2.92,1.31,10.67,10.67,0,0,0-4.54,11.78,9.91,9.91,0,0,0,1.29,2.93,10,10,0,0,0,2,2.34,10.85,10.85,0,0,0,5.07,2.48,10.67,10.67,0,0,0,4.94-.22,10.88,10.88,0,0,0,5.87-4.07C774.08,291,774.39,290.06,774.46,290.1Z"/><path class="cls-1" d="M784.8,300.54l.38,0,1.17.14,4.59.62-.11.06,3.63-9.57.06.19-5.16-3.43-.09-.06v-.11a24.75,24.75,0,0,0-.19-6.62l0-.13.1-.07,5-3.72-.07.27c-1.32-2.94-2.71-6.07-4.18-9.35l.28.15-6.07,1.21-.16,0-.1-.13a24.81,24.81,0,0,0-4.79-4.54l-.13-.1,0-.16c.27-1.9.58-4,.89-6.13l.17.3-9.56-3.67.35-.11-3.44,5.14-.1.16-.18,0a24.53,24.53,0,0,0-6.6.17l-.18,0-.11-.15-3.7-5,.37.09-9.36,4.16.18-.35c.38,1.92.79,4,1.2,6.08l0,.18-.15.12a24.59,24.59,0,0,0-4.54,4.77h0l-.3.13h-.19l-.19,0-.38-.06-.77-.11-1.54-.22-3.05-.45.34-.2-3.69,9.56-.12-.37,5.14,3.45.16.1,0,.19a25,25,0,0,0,.16,6.59l0,.18-.15.11-5,3.7.1-.36c1.41,3.19,2.79,6.32,4.14,9.36l-.32-.17,6.08-1.19.16,0,.11.13a24.55,24.55,0,0,0,4.78,4.57l.13.09,0,.17c-.31,2.1-.61,4.13-.91,6.12l-.16-.29,9.55,3.71-.29.09c1.21-1.81,2.36-3.5,3.46-5.13l.07-.12.14,0a25,25,0,0,0,6.62-.15l.12,0,.08.1c1.33,1.81,2.54,3.44,3.68,5l-.23-.06,9.38-4.11-.08.15c-.46-2.43-.84-4.42-1.16-6.08v-.06l0,0a25.61,25.61,0,0,0,3.61-3.48l.79-1c.18-.22.26-.32.27-.31l-.23.34c-.16.23-.4.57-.75,1a24.69,24.69,0,0,1-3.56,3.57l0-.1c.34,1.66.75,3.65,1.24,6.07l0,.11-.1.05c-2.64,1.18-5.73,2.56-9.34,4.19l-.14.06-.09-.12-3.72-4.95.2.08a25.34,25.34,0,0,1-6.73.19l.21-.1-3.43,5.15-.11.16-.18-.07-9.56-3.67-.2-.07,0-.21c.29-2,.58-4,.89-6.12l.11.26a25.6,25.6,0,0,1-4.9-4.65l.28.1-6.08,1.2-.22.05-.1-.21q-2-4.58-4.16-9.36l-.1-.22.19-.14,5-3.71-.12.3A25.46,25.46,0,0,1,739,283l.14.29L734,279.81l-.21-.14.09-.24q1.81-4.71,3.68-9.55l.09-.24.25,0,3,.44,1.54.23.77.11.38.06.2,0,.09,0H744l-.3.13h0a26.2,26.2,0,0,1,4.66-4.89l-.11.31c-.41-2.09-.82-4.16-1.19-6.08l0-.24.23-.1,9.36-4.15.23-.1.14.2,3.7,5-.29-.12a25.64,25.64,0,0,1,6.75-.16l-.28.13,3.45-5.13.13-.2.22.08,9.55,3.7.21.08,0,.22c-.31,2.13-.62,4.23-.9,6.12l-.11-.26a25.63,25.63,0,0,1,4.88,4.67l-.26-.1,6.08-1.18.2,0,.08.18,4.13,9.37.07.17-.14.1-5,3.69.08-.2a25.51,25.51,0,0,1,.15,6.73l-.08-.18,5.12,3.47.11.07,0,.12c-1.52,3.88-2.78,7.1-3.73,9.54l0,.07h-.08l-4.54-.72-1.17-.19Z"/><path class="cls-3" d="M833.12,212.65a39.55,39.55,0,0,1-7.26,7.63l1.89,9.58L813,236.41l-5.83-7.83a39.42,39.42,0,0,1-10.53.26L791.18,237l-15.07-5.81,1.41-9.66a39.27,39.27,0,0,1-7.63-7.26l-9.58,1.89-6.55-14.77,7.83-5.84a39.83,39.83,0,0,1-.27-10.53l-8.11-5.43L759,164.46l9.66,1.41a39.91,39.91,0,0,1,7.27-7.63l-1.89-9.58,14.77-6.55,5.83,7.83a39.42,39.42,0,0,1,10.53-.26l5.44-8.11,15.07,5.81L824.29,157a39.57,39.57,0,0,1,7.63,7.26l9.58-1.89,6.55,14.77L840.22,183a39.83,39.83,0,0,1,.27,10.53l8.1,5.43-5.81,15.08-9.66-1.41Zm-16.31-16.47a17.33,17.33,0,1,0-22.4,9.94A17.33,17.33,0,0,0,816.81,196.18Z"/><circle class="cls-1" cx="248.54" cy="267.82" r="4.64"/><path class="cls-1" d="M248.54,415.16c-.22,0-.4-32.23-.4-72s.18-72,.4-72,.41,32.23.41,72S248.77,415.16,248.54,415.16Z"/><path class="cls-1" d="M422.13,44.36a4.64,4.64,0,1,1-4.64-4.64A4.63,4.63,0,0,1,422.13,44.36Z"/><path class="cls-1" d="M417.49,340.17c-.22,0-.4-65.47-.4-146.21s.18-146.23.4-146.23.4,65.46.4,146.23S417.71,340.17,417.49,340.17Z"/><path class="cls-1" d="M174.15,217.76a5,5,0,1,1-5-5A5,5,0,0,1,174.15,217.76Z"/><path class="cls-1" d="M169.46,217.76s0,.26,0,.77,0,1.3,0,2.29c0,2,0,5,.07,8.88,0,7.77.06,19.07.11,33.29,0,28.48.08,68.65.14,115.44v.13l-.07.1-22,30.49.08-.23v40.25c0,35.24,0,68.69,0,98.58l-.09-.23,26.66,32.33.07.09v.12c-.06,29.8-.11,54.31-.14,71.39,0,8.51-.07,15.17-.09,19.73,0,2.25,0,4-.05,5.17s-.05,1.76-.05,1.76,0-.6,0-1.76,0-2.92,0-5.17c0-4.56-.05-11.22-.09-19.73,0-17.08-.08-41.59-.14-71.39l.07.2L147.18,548l-.09-.11v-.13c0-29.89,0-63.34,0-98.58V408.79l.08-.11,22-30.47-.07.22c.06-46.79.11-87,.14-115.44.05-14.22.09-25.52.11-33.29,0-3.86,0-6.84.07-8.88,0-1,0-1.75,0-2.29S169.46,217.76,169.46,217.76Z"/><circle class="cls-1" cx="523.3" cy="149.04" r="5.59"/><circle class="cls-1" cx="492.61" cy="468.99" r="5.59"/><path class="cls-1" d="M524.12,149a3.14,3.14,0,0,1,0,.49c0,.35,0,.83,0,1.45,0,1.3,0,3.19.06,5.62,0,4.94.06,12.11.11,21.16,0,18.17.09,43.87.14,74.1V252l-.11.11-31.5,31.53.12-.28v17.53c0,45.53-.09,86.75-.12,116.63-.05,14.9-.09,27-.12,35.34,0,4.15-.06,7.38-.08,9.61,0,1.07,0,1.9,0,2.5s0,.85,0,.85,0-.29,0-.85,0-1.43,0-2.5c0-2.23,0-5.46-.08-9.61,0-8.38-.07-20.44-.13-35.34,0-29.88-.07-71.1-.11-116.63v-17.7l.12-.12,31.53-31.49-.11.26c.06-30.23.11-55.93.14-74.1.05-9,.09-16.22.11-21.16,0-2.43,0-4.32.06-5.62,0-.62,0-1.1,0-1.45A3.14,3.14,0,0,1,524.12,149Z"/><path class="cls-4" d="M206.14,465.94c-6.06-10.39-12.53-20.81-22.07-29.41-24.18-21.78-65.68-28.26-101-20.44-27.22,6-52.93,21.36-60.07,43-3.23,9.77-2.51,20-1.49,30.12,6.63,65.84,39.58,185.3,40.87,188.07l222.17-.9C271.52,603.72,245,532.58,206.14,465.94Z"/><path class="cls-5" d="M284.59,676.39s-.14-.57-.37-1.69-.56-2.8-1-5-.94-4.9-1.62-8.08-1.5-6.86-2.4-11a643,643,0,0,0-19.83-68.86,669.26,669.26,0,0,0-43.13-97l-3.61-6.63q-1.89-3.3-3.78-6.64c-2.53-4.45-5.1-9-7.89-13.38-5.54-8.83-12.05-17.49-20.65-24.14a32.45,32.45,0,0,0-3.26-2.43c-1.12-.76-2.22-1.58-3.38-2.31-2.38-1.34-4.66-2.88-7.18-4l-3.72-1.83-3.84-1.59L157,421l-2-.69-4-1.35a132.06,132.06,0,0,0-33.55-5.55,142.59,142.59,0,0,0-33.9,3,114.9,114.9,0,0,0-30.95,11.46,78.46,78.46,0,0,0-13.28,9.08,59.41,59.41,0,0,0-10.62,11.59c-.68,1.11-1.43,2.17-2.06,3.3s-1.18,2.29-1.76,3.44-.93,2.39-1.4,3.57a37.38,37.38,0,0,0-1.07,3.67,57.59,57.59,0,0,0-1.38,15c.14,5,.59,9.91,1.18,14.74s1.07,9.62,1.83,14.3c1.32,9.39,2.89,18.46,4.47,27.22,3.19,17.51,6.7,33.72,10,48.49,6.63,29.54,12.69,53.29,17,69.67,2.13,8.2,3.86,14.54,5,18.84q.9,3.19,1.37,4.88c.34,1.08.5,1.65.5,1.65s-.21-.54-.57-1.63-.82-2.73-1.46-4.86c-1.22-4.29-3-10.61-5.18-18.8C50.84,635.64,44.7,611.91,38,582.38c-3.32-14.78-6.87-31-10.08-48.5-1.6-8.76-3.19-17.84-4.53-27.24-.76-4.68-1.24-9.47-1.84-14.32s-1.06-9.78-1.2-14.8a58.4,58.4,0,0,1,1.38-15.19,37.82,37.82,0,0,1,1.09-3.73c.47-1.21.95-2.43,1.42-3.65s1.19-2.33,1.79-3.5,1.4-2.23,2.1-3.35a59.84,59.84,0,0,1,10.75-11.76,78.75,78.75,0,0,1,13.4-9.17,115.81,115.81,0,0,1,31.16-11.55,142.72,142.72,0,0,1,34.1-3,132.9,132.9,0,0,1,33.76,5.58l4,1.37,2,.69,1.94.8,3.88,1.61,3.75,1.84c2.54,1.15,4.85,2.71,7.25,4.06,1.16.74,2.27,1.56,3.41,2.34a33,33,0,0,1,3.29,2.45c8.7,6.73,15.26,15.48,20.81,24.35,2.8,4.45,5.37,8.95,7.89,13.42l3.78,6.64,3.61,6.64a663.14,663.14,0,0,1,43,97.22,622.52,622.52,0,0,1,19.6,69l2.34,11c.65,3.19,1.12,5.91,1.54,8.1s.7,3.85.91,5S284.59,676.39,284.59,676.39Z"/><path class="cls-5" d="M32,443.63a4.81,4.81,0,0,1-.06.62c-.06.45-.14,1.05-.25,1.81-.22,1.59-.48,3.95-.66,7a120.53,120.53,0,0,0,1.86,25.71c3.74,21.51,8.33,51.35,15,84,3.37,16.31,7.06,31.76,11,45.65s8,26.24,11.72,36.5,7.25,18.36,9.75,23.93l2.91,6.41.73,1.67a5.43,5.43,0,0,1,.23.58A311.81,311.81,0,0,1,70.07,645.1c-3.8-10.25-8-22.59-11.9-36.5s-7.66-29.36-11-45.69c-6.71-32.67-11.2-62.52-14.8-84.06A117.21,117.21,0,0,1,30.72,453,63.39,63.39,0,0,1,32,443.63Z"/><path class="cls-5" d="M60.78,496.16c0,.13-1.54.47-4,1.34A37.31,37.31,0,0,0,48,502.13c-6.44,4.54-9.56,10.33-9.78,10.15a13.65,13.65,0,0,1,2.09-3.65A31.76,31.76,0,0,1,56.65,497,14.07,14.07,0,0,1,60.78,496.16Z"/><path class="cls-5" d="M52,511c0,.24-2.94.14-6.41.95s-6.06,2.14-6.18,1.93,2.39-1.9,6-2.71S52.07,510.79,52,511Z"/><path class="cls-5" d="M45.71,586c-.09,0-.05-.43.28-1a3.79,3.79,0,0,1,1.89-1.44,3.74,3.74,0,0,1,2.37-.08c.59.19.86.47.82.56s-1.41-.29-2.92.28S45.91,586.05,45.71,586Z"/><path class="cls-5" d="M48.71,592.27c-.22,0-.09-1.59,1.34-2.72s3-.93,3-.71-1.28.38-2.45,1.34S48.93,592.33,48.71,592.27Z"/><path class="cls-6" d="M335.5,616.37S330.55,494.9,326,473.85c-5.82-26.78-28.37-43-28.37-43L289,639.8l9,5.38,5.28,2.78c2.38,8.88-2.53,11,21.77,17.3,1.95.5,40.75,6.63,40.75,6.63l3.81-39.42Z"/><path class="cls-6" d="M401.73,670.51s-14,1-19.75,3.28c-6.22,2.51-13.88,1.05-19.09-2.33a54.11,54.11,0,0,1-8.27-6.45l-19.12.1a23,23,0,0,1-4.23-23.61,25.63,25.63,0,0,1,4.22-7.55c2.22-2.51,3.23-4,9.41-5.19l25.35,3.84s35.13-3.25,41.45-.42c0,0,8,4.5,10.43,6.4.93.72,3.91,9.61-1.72,14.39,0,0,5.07,3.86,2.44,7.47l-1.26,1.6s3.45,4.27,1.77,6.19-16.56,11.06-22,9.07-1.65-6.46.7-7.42"/><path class="cls-7" d="M416.48,645.31a15.46,15.46,0,0,0-1.84.7c-1.18.48-2.89,1.16-5,1.89-1.07.37-2.25.74-3.53,1.11s-2.68.68-4.12,1.19a8.76,8.76,0,0,0-4.07,2.57,5.07,5.07,0,0,0-1,5.05,3.94,3.94,0,0,0,1.9,2,7.15,7.15,0,0,0,2.52.64,20.5,20.5,0,0,0,4.77-.35,41.68,41.68,0,0,0,7.72-2.19c2.13-.8,3.82-1.56,5-2.08a12.17,12.17,0,0,0,1.77-.89,12.31,12.31,0,0,0-1.87.66c-1.19.46-2.89,1.15-5,1.9a44.7,44.7,0,0,1-7.67,2,20.68,20.68,0,0,1-4.62.31,6.46,6.46,0,0,1-2.29-.59,3.4,3.4,0,0,1-1.61-1.65,4.52,4.52,0,0,1,.9-4.42,8.42,8.42,0,0,1,3.79-2.41c1.39-.5,2.79-.83,4.07-1.23s2.47-.8,3.54-1.19c2.14-.79,3.83-1.54,5-2.08A9.72,9.72,0,0,0,416.48,645.31Z"/><path class="cls-7" d="M414.91,634.51a11.11,11.11,0,0,0-1.84.71c-1.17.47-2.86,1.17-5,1.93s-4.69,1.58-7.58,2.34a10.54,10.54,0,0,0-4.4,1.89,3.77,3.77,0,0,0-1.26,2.33,4.88,4.88,0,0,0,.44,2.66,6.42,6.42,0,0,0,4,3.26,10.29,10.29,0,0,0,4.78.28,45.53,45.53,0,0,0,7.63-2.39l5-1.88a11.71,11.71,0,0,0,1.82-.77,12.77,12.77,0,0,0-1.9.54l-5.09,1.7a50.25,50.25,0,0,1-7.58,2.23,10.07,10.07,0,0,1-4.51-.29,5.88,5.88,0,0,1-3.61-2.94,3.54,3.54,0,0,1,.66-4.27,10,10,0,0,1,4.14-1.79,77.71,77.71,0,0,0,7.58-2.49c2.12-.82,3.8-1.57,4.94-2.12A12.54,12.54,0,0,0,414.91,634.51Z"/><path class="cls-7" d="M407.75,637.75c.18,0,.25-1.38.62-3s.86-2.93.7-3a5.21,5.21,0,0,0-1.31,2.87A5.29,5.29,0,0,0,407.75,637.75Z"/><path class="cls-6" d="M354.88,639.31l13.25-5.43s36.73-18.09,37.38-17.16,2.66.78,2.31,5.31-21.77,14.1-22.42,15.68.66,9.48-7.21,15.32-13.62,6.09-13.62,6.09"/><path class="cls-7" d="M364.57,659.12h.32a8,8,0,0,0,.92-.11,20.86,20.86,0,0,0,3.45-.9,30.52,30.52,0,0,0,5.13-2.37,30.21,30.21,0,0,0,6.06-4.39,16.06,16.06,0,0,0,4.39-7.9,35.74,35.74,0,0,0,.68-5,4.56,4.56,0,0,1,.12-.58,1.27,1.27,0,0,1,.35-.36,9.5,9.5,0,0,1,1.07-.72c.75-.47,1.53-.91,2.32-1.36,3.18-1.78,6.57-3.59,10-5.64,1.71-1,3.42-2.12,5.09-3.36a20,20,0,0,0,2.37-2.07,6.53,6.53,0,0,0,1-1.31,2.53,2.53,0,0,0,.29-.84,5.87,5.87,0,0,0,.06-.82,5.69,5.69,0,0,0-.64-3.21,3.58,3.58,0,0,0-1.2-1.16,2.64,2.64,0,0,1-.52-.43s0,0-.13-.13a.43.43,0,0,0-.26-.08,1.57,1.57,0,0,0-.27,0l-.4.1c-2,.66-3.82,1.51-5.65,2.31-3.63,1.62-7.1,3.26-10.4,4.82-6.6,3.14-12.5,6-17.46,8.49-1.24.6-2.41,1.22-3.53,1.72l-3.24,1.36-5.19,2.18-3.26,1.4-.85.38a1.35,1.35,0,0,0-.28.15,1.13,1.13,0,0,0,.31-.09l.86-.32,3.32-1.3,5.23-2.08,3.26-1.31c1.16-.5,2.32-1.11,3.57-1.7l17.51-8.36c3.3-1.55,6.77-3.17,10.4-4.78,1.82-.79,3.67-1.64,5.58-2.27l.34-.09h.12s0,0,0,0,0-.1,0-.16l0,0c-.41.29-.1.09-.19.16l0,.05a2.56,2.56,0,0,0,.66.56,3.23,3.23,0,0,1,1,1,5.33,5.33,0,0,1,.54,2.86,2.82,2.82,0,0,1-.28,1.39,6.15,6.15,0,0,1-.9,1.18,18.15,18.15,0,0,1-2.29,2c-1.63,1.22-3.33,2.31-5,3.33-3.39,2.06-6.77,3.87-9.95,5.67-.8.45-1.58.9-2.34,1.38a11.73,11.73,0,0,0-1.12.77,1.4,1.4,0,0,0-.51.6,3.18,3.18,0,0,0-.15.69,37.62,37.62,0,0,1-.64,5,15.78,15.78,0,0,1-4.2,7.71,31,31,0,0,1-5.93,4.4,32.29,32.29,0,0,1-5,2.44,23.79,23.79,0,0,1-3.4,1l-.9.17A1.24,1.24,0,0,0,364.57,659.12Z"/><path class="cls-7" d="M405.51,660a5,5,0,0,0-1.41.45,13.66,13.66,0,0,0-3.45,2.09,12.6,12.6,0,0,0-2,2,4.22,4.22,0,0,0-1,3.14,3.45,3.45,0,0,0,2.52,2.62,6.71,6.71,0,0,0,3.89-.2,71.36,71.36,0,0,0,12.19-5.2,38.91,38.91,0,0,0,3.42-2.12,6.05,6.05,0,0,0,1.16-.91,7.06,7.06,0,0,0-1.29.71c-.81.48-2,1.16-3.5,1.93a85,85,0,0,1-12.16,5,6.24,6.24,0,0,1-3.53.22,2.91,2.91,0,0,1-2.14-2.13,3.81,3.81,0,0,1,.87-2.75,13,13,0,0,1,1.84-2A21.61,21.61,0,0,1,405.51,660Z"/><path class="cls-5" d="M131.51,303.64c-3.43-.73-4.7-6-2-8.19-2.51-1.38-1.8-5.34.16-7.42s4.77-3.36,6.3-5.78a5.86,5.86,0,0,1-7-5.07,4.79,4.79,0,0,1-3-8.79c-2.68-.22-2.46-4.65-.22-6.14s5.19-1.38,7.63-2.53a31.64,31.64,0,0,1,16.8-9.86l-11-8.17a6.25,6.25,0,0,1-2.21-2.33c-.95-2.17.76-4.58,2.56-6.13a25.65,25.65,0,0,1,13.63-5.95c1.61-.19,3.66.05,4.17,1.58,3.41-1.6,7.35-1.43,11.11-1.23,2.11.11,4.42.31,5.92,1.79-.8-1.94-2.47-3.36-3.91-4.9s-2.75-3.47-2.54-5.56,2.74-3.9,4.48-2.72c-1.95-.92-1.69-4.05,0-5.42s4-1.49,6.14-1.54c1.5,0,3.41.22,3.82,1.66.68-3.36,6.42-3.83,7.64-.62a5.18,5.18,0,0,1,7.48.59,6.68,6.68,0,0,1,9.46,3.51q-2.93-4.89-5.83-9.78c-1.1-1.84-1.29-5.3.84-5.08-3.06,0-4.82-4.18-3.32-6.86s5-3.7,8-3.32l2.66,3.85a6.08,6.08,0,0,1,9.29,6.77c1.23-1.33,3.63-.6,4.61.92s.94,3.45.88,5.26c3-2.51,8.47.41,8.05,4.28a16.82,16.82,0,0,1,8.81-1.82,6,6,0,0,1,7.77-8.48,5.89,5.89,0,0,1,7.6-4.79c1-3.56,5.62-6.19,8.46-3.84s1.36,7.13-.44,10.49q-2.94,5.46-5.86,10.92l19.06-10.22a3.27,3.27,0,0,1,1.91-.56c.92.11,1.56,1,2.39,1.36,1.15.58,2.55.29,3.78.67,3.37,1,3.31,6.16,1,8.82s-5.83,3.93-8.44,6.3l8.47,1.6a8.67,8.67,0,0,1,11.18-5.86c1.15-3.13,5.34-3.53,8.67-3.39,3,.12,6.27.37,8.38,2.48,2.7,2.7,2.19,7.44-.08,10.5s-5.83,4.87-9.26,6.55c.57,2.54,3.86,3.32,6.43,2.94s5.25-1.38,7.68-.47c3.3,1.24,4.7,5.51,8,6.72a13.41,13.41,0,0,1,3,1c1.28.83,1.71,2.46,2,3.94.42,1.83.83,3.67,1.24,5.5a6.65,6.65,0,0,1,.23,2.76c-.61,3-4.78,3.64-7.6,2.49s-5.25-3.39-8.26-3.83c4,2,8.17,4.17,10.4,8s1.31,9.83-2.88,11.33-8.4-2.14-11.49-5.42-7.51-6.77-11.6-4.9"/><path class="cls-5" d="M137.63,301c-3.21-2.4-8.67.76-8.2,4.74a11.34,11.34,0,0,0-4.24,19.6c2.5,2.11,7.47,2.19,8-1.05a8.77,8.77,0,0,0,6.26,5.44,8.56,8.56,0,0,0,3.45,12.13c-5.09,3.5-4.13,12.74,1.58,15.11a7,7,0,1,0,12.75,5.69c1.1,2.62,2.31,5.38,4.65,7s6.18,1.31,7.37-1.27c1.29,5.62,8.73,8.75,13.65,5.76a6.21,6.21,0,0,0,12.2,2.15l16,1.22a57.1,57.1,0,0,0,10.62.15,28.59,28.59,0,0,0,12.64-4.59,9.82,9.82,0,0,1,3.88-1.92c1.66-.22,3.26.56,4.82,1.17a25.91,25.91,0,0,0,25-3.69,13,13,0,0,1,3.46-2.3,11.53,11.53,0,0,1,4.76-.24,46.74,46.74,0,0,0,11.75-.68c3.32-.61,6.86-1.8,8.65-4.66s.38-7.64-3-7.88A7.24,7.24,0,0,1,296,347c1.7-1.38,4.53-1.43,5.92.26s.31,4.88-1.88,5c3.4,2.8,9.31-.21,9.78-4.59s-3.58-8.39-8-8.8a20,20,0,0,0,1.08-9.63,7.12,7.12,0,0,0,9.57,1.93c1.6,2.95,4.17,5.56,7.43,6.37s7.17-.62,8.47-3.72-1.07-7.33-4.43-7.23c2.68-3.55-.38-9.63-4.82-9.6A9.85,9.85,0,0,0,314.07,306a5.18,5.18,0,0,0,7.59-2.2c1.76,3.38,6.77,3,10.21,1.38,2.7-1.28,5.35-3.22,4.92-7.13a7.77,7.77,0,0,0-2.44-4.79c-3.16-3-7.55-3.53-11.73-4a50.88,50.88,0,0,1-3.54-16.33c4.66.55,9.71-2.51,10.68-7.1l-23.13-14.38s-53.55-8.26-55.47-8.26-113.84,57.63-113.84,57.63c-2.58,2.71-7.64,1.49-9.54-1.74s-1.14-7.49.9-10.63,5.15-5.41,8.18-7.6c-3.58-.25-7.4-.58-10.06-3.18a5.72,5.72,0,0,1-1.53-6.19c1.29-3.09,4.86-2.88,7.15-4.63a13,13,0,0,0,2.94-4.08"/><path class="cls-6" d="M287.2,288.84C285.87,269.72,273,246.33,254,248.48l-59.41,15.45a11.22,11.22,0,0,0-10,11.44l6.58,128.36-14.32,6.85c-.14,0,14.82,8.32,14.68,8.35s13.74,40.41,53,27.87c7.78-2.49,11.3-11,12.81-19.82l.4,0c0-1,13-11,13-12,0,1-12.79-7.25-12.79-7.25l0-3.48c.06-11.59,0-16.34,0-16.23s24.41-4.23,29.25-36.15C289.66,336.07,288.69,310.08,287.2,288.84Z"/><path class="cls-5" d="M279.19,311.86a4.1,4.1,0,0,1-3.92,4.16,3.91,3.91,0,0,1-4.24-3.66,4.1,4.1,0,0,1,3.91-4.16A3.94,3.94,0,0,1,279.19,311.86Z"/><path class="cls-5" d="M281.66,302.4c-.51.54-3.62-1.74-8-1.69s-7.61,2.26-8.09,1.72c-.24-.23.27-1.2,1.67-2.23a11.23,11.23,0,0,1,6.47-2.05,10.84,10.84,0,0,1,6.39,2C281.44,301.2,281.9,302.16,281.66,302.4Z"/><path class="cls-5" d="M237.16,312a4.09,4.09,0,0,1-3.91,4.15,3.91,3.91,0,0,1-4.24-3.66,4.08,4.08,0,0,1,3.91-4.15A3.91,3.91,0,0,1,237.16,312Z"/><path class="cls-5" d="M238.41,303.52c-.5.53-3.62-1.74-8-1.7s-7.61,2.27-8.09,1.73c-.23-.24.27-1.2,1.67-2.23a11.27,11.27,0,0,1,6.48-2.05,10.8,10.8,0,0,1,6.38,2C238.19,302.31,238.66,303.27,238.41,303.52Z"/><path class="cls-5" d="M254.6,336c0-.25,2.71-.74,7.14-1.34,1.12-.12,2.18-.35,2.37-1.12s-.22-2-.77-3.33c-1.08-2.71-2.2-5.55-3.39-8.53-4.69-12.15-8.1-22.14-7.61-22.33s4.7,9.51,9.39,21.66c1.13,3,2.22,5.86,3.25,8.59.43,1.27,1.17,2.72.61,4.41a2.83,2.83,0,0,1-1.84,1.65,7.53,7.53,0,0,1-1.91.28C257.39,336.25,254.62,336.29,254.6,336Z"/><path class="cls-7" d="M258,388.09A81.11,81.11,0,0,1,215.22,377s10.51,21.83,42.4,18.63Z"/><path class="cls-7" d="M255.12,346a11.17,11.17,0,0,0-9.14-4.85,6.74,6.74,0,0,0-5.66,10.55,6.9,6.9,0,0,0,7.31,2.63c2.52-.62,4.59-2.37,6.54-4.12a5,5,0,0,0,1.4-1.7,2.35,2.35,0,0,0-.2-2.29"/><path class="cls-5" d="M241.67,339.17c.72-.05.76,4.73,4.87,8.09s9.19,2.8,9.23,3.47c.07.3-1.12.94-3.27,1a11.88,11.88,0,0,1-7.71-2.63,10.29,10.29,0,0,1-3.77-6.78C240.82,340.33,241.35,339.14,241.67,339.17Z"/><path class="cls-5" d="M240.34,293.36c-.43,1.2-4.83.66-10,1.32s-9.33,2.09-10,1c-.31-.51.41-1.64,2.08-2.81a16.9,16.9,0,0,1,7.42-2.65,16.63,16.63,0,0,1,7.82.87C239.56,291.86,240.52,292.79,240.34,293.36Z"/><path class="cls-5" d="M280,289.68c-.77,1-3.8,0-7.45,0s-6.73.72-7.44-.32c-.32-.51.16-1.51,1.5-2.47a10.78,10.78,0,0,1,12,.29C279.86,288.16,280.29,289.19,280,289.68Z"/><path class="cls-5" d="M184.48,308.07a5.33,5.33,0,0,0,1.52,6.1,3.68,3.68,0,0,0,5.23-1.44c1.39,1.87,4.59,0,4.15-2.47,1.72,1,4-1.35,3.44-3.52,2,.78,3.19-2.46,4.25-4.62a33.54,33.54,0,0,1,2.05-3.29,22.36,22.36,0,0,0,3.32-12c2.61-3,3.28-7.53,3.81-11.77.33-2.65.67-5.29,1-7.94l1.48-1.84a4.33,4.33,0,0,0,2.85,4.13,9.24,9.24,0,0,0,4.81-.06l4.75-.91,3,.87c-.87,2.47,0,5.27.85,7.74.6,1.7,1.31,3.56,2.73,4.32A2.24,2.24,0,0,0,236.8,279c1,1.2,2.92.73,3.85-.59a8.12,8.12,0,0,0,1.09-4.89A20.91,20.91,0,0,0,238,262l8.21,7.76a3.79,3.79,0,0,0,2,1.24,2.18,2.18,0,0,0,2.31,2.42,5.71,5.71,0,0,0,3.06-2.05c2-2.11,4.16-5.68,2.38-8.07.94-.17,1.42-1.75.8-2.61l9.33,7.16c-.93-.55-2,.9-1.77,2.11a5,5,0,0,0,1.93,2.78,7.36,7.36,0,0,0-1.09,4.44c-1.68-1.52-4.22,1.27-3.69,3.69a5.3,5.3,0,0,0,4.93,3.88c1.74.14,3.87-.68,4.19-2.71,2.05.45,4-2.37,3.31-4.69,1.48,1,2.8-1.67,2.89-3.68a29.09,29.09,0,0,0-1.58-10.88c-.06.52.51,1,.89.67a.8.8,0,0,0-.15-1.24q2.63,6.45,5.23,12.89c1.38,3.4,2.79,6.94,2.85,10.72,0,1.53.19,3.64,1.48,3.78a2,2,0,0,0,1-.26c3.72-1.81,6.6-5.55,8.48-9.78a14.75,14.75,0,0,0,1.31-4.51c.3-3.3-1.06-6.48-1.28-9.78a33.25,33.25,0,0,0-.27-4.36,13.23,13.23,0,0,0-3.36-5.7c-5-5.85-10.33-11.91-17.07-14.29-4.12-1.45-8.53-1.42-12.66-2.83a72,72,0,0,1-7.42-3.44c-10.19-4.81-21.45-5.46-32.39-4.56-6.11.51-12.26,1.5-18,4.17-6.26,2.93-11.74,7.78-16.89,12.9-7.7,7.66-15,16.22-19.88,26.61-3.78,8-6.11,17.3-4.8,26.32s6.89,17.49,14.44,19.38l3-3.41"/><path class="cls-6" d="M193.2,314.18c-.44-.21-17.75-5.7-17.59,12.09s18,14,18,13.46S193.2,314.18,193.2,314.18Z"/><path class="cls-7" d="M188.13,333c-.08-.06-.31.22-.83.46a3.09,3.09,0,0,1-2.32.07c-1.88-.67-3.49-3.64-3.61-6.85a10.28,10.28,0,0,1,.83-4.45,3.61,3.61,0,0,1,2.31-2.4,1.59,1.59,0,0,1,1.84.84c.24.49.13.85.23.88s.38-.3.23-1a2,2,0,0,0-.71-1.11,2.39,2.39,0,0,0-1.72-.44,4.36,4.36,0,0,0-3.21,2.79,10.55,10.55,0,0,0-1,5c.15,3.59,2,6.93,4.59,7.65a3.34,3.34,0,0,0,2.84-.5C188.1,333.47,188.19,333.07,188.13,333Z"/><path class="cls-4" d="M251.41,308.74a37.36,37.36,0,0,0-.81-5.11,21,21,0,0,0-7.7-11.43,20.72,20.72,0,0,0-19.64-2.92,20.66,20.66,0,0,0-9.61,7.22,20.61,20.61,0,0,0,0,24.47,20.87,20.87,0,0,0,9.62,7.23,20.75,20.75,0,0,0,19.65-2.92,21.07,21.07,0,0,0,7.69-11.43,37.36,37.36,0,0,0,.81-5.11,8.13,8.13,0,0,1,0,1.35,9.44,9.44,0,0,1-.13,1.63,14.37,14.37,0,0,1-.39,2.21,21.26,21.26,0,0,1-16.63,15.86A21.54,21.54,0,0,1,223,328.9a21.5,21.5,0,0,1-10-7.46,21.34,21.34,0,0,1,0-25.4,21.32,21.32,0,0,1,10-7.46,21.28,21.28,0,0,1,20.25,3.16,21,21,0,0,1,7.65,11.81,14.06,14.06,0,0,1,.39,2.2,9.54,9.54,0,0,1,.13,1.64A8.13,8.13,0,0,1,251.41,308.74Z"/><path class="cls-4" d="M301.62,308.74a37.36,37.36,0,0,0-.81-5.11,21.07,21.07,0,0,0-7.69-11.43,20.75,20.75,0,0,0-19.65-2.92,20.66,20.66,0,0,0-9.61,7.22,20.61,20.61,0,0,0,0,24.47,20.87,20.87,0,0,0,9.62,7.23,20.75,20.75,0,0,0,19.65-2.92,21.07,21.07,0,0,0,7.69-11.43,37.36,37.36,0,0,0,.81-5.11,8.13,8.13,0,0,1,0,1.35,10.39,10.39,0,0,1-.12,1.63,15.85,15.85,0,0,1-.4,2.21,21.26,21.26,0,0,1-16.63,15.86,21.54,21.54,0,0,1-11.27-.89,20.31,20.31,0,0,1-5.44-2.91,20,20,0,0,1-4.55-4.55,21.34,21.34,0,0,1,0-25.4,21.32,21.32,0,0,1,10-7.46,21.28,21.28,0,0,1,20.25,3.16,21,21,0,0,1,7.65,11.81,15.48,15.48,0,0,1,.4,2.2,10.51,10.51,0,0,1,.12,1.64A8.13,8.13,0,0,1,301.62,308.74Z"/><path class="cls-4" d="M260.35,303.79c-.1.22-2.13-.61-4.77-.69s-4.72.58-4.8.36,2-1.27,4.83-1.16S260.47,303.62,260.35,303.79Z"/><path class="cls-4" d="M209.06,310.83c.06.2-3.87,1.46-8.88,2.26s-9.14.86-9.15.65,4.05-.64,9-1.45S209,310.61,209.06,310.83Z"/><path class="cls-8" d="M249.18,305.42a11,11,0,0,1-.21,4,24.71,24.71,0,0,1-3.5,9,21.48,21.48,0,0,1-6.72,6.91c-2.22,1.29-3.94.94-3.88.85a9.28,9.28,0,0,0,3.59-1.34,23.83,23.83,0,0,0,6.33-6.85,28.38,28.38,0,0,0,3.62-8.65C249,306.93,249.05,305.41,249.18,305.42Z"/><path class="cls-8" d="M295.1,319a28,28,0,0,1,1.71-3.33,16.45,16.45,0,0,0,1.4-3.7,12.8,12.8,0,0,0,.08-4.8,25.37,25.37,0,0,0-2.51-8.48c-1.09-2-2.17-3-2.07-3.07s.34.16.82.61a10.81,10.81,0,0,1,1.74,2.17,22.35,22.35,0,0,1,2.82,8.66,12.83,12.83,0,0,1-.16,5.08,14.74,14.74,0,0,1-1.62,3.81A12.66,12.66,0,0,1,295.1,319Z"/><path class="cls-4" d="M180.64,339.13c0,.07-.46.22-1.16.74a5.74,5.74,0,0,0-2,3,5,5,0,0,0,1.07,5,6,6,0,0,0,5.92,1.74,6.41,6.41,0,0,0,3.21-9.75,7.76,7.76,0,0,0-2.71-2.47,13.51,13.51,0,0,1-1.24-.64,3.08,3.08,0,0,1,1.38.35,7.58,7.58,0,0,1,3,2.44,6.88,6.88,0,0,1,1.25,5.62,7.11,7.11,0,0,1-4.7,5.22,6.65,6.65,0,0,1-6.71-2,5.46,5.46,0,0,1-1.34-2.88,6,6,0,0,1,2.68-5.81A2.53,2.53,0,0,1,180.64,339.13Z"/><path class="cls-4" d="M254.46,257.69a4.43,4.43,0,0,0,1.2-2.29,3.14,3.14,0,0,0-.8-2.68,3.36,3.36,0,0,0-3.4-.88l-.74.25.32-.72a3.52,3.52,0,0,0-.94-3.94,3.43,3.43,0,0,0-4.42.16l-.59-.55a1.63,1.63,0,0,0,.25-.45,2,2,0,0,0-.29-1.68,2.3,2.3,0,0,0-1.45-.91,3.71,3.71,0,0,0-1.78.08,4.76,4.76,0,0,1-2,.44c-.86-.16-1.23-.79-1.67-1.07a6.42,6.42,0,0,0-1.38-.85,7.45,7.45,0,0,0-2.85-.66,7.73,7.73,0,0,0-4.15,1c-.89.51-1.3.94-1.35.88a3.42,3.42,0,0,1,1.18-1.15,7.63,7.63,0,0,1,4.33-1.3,8,8,0,0,1,3.11.61,7.4,7.4,0,0,1,1.55.91c.52.37.9.86,1.33.89a4.69,4.69,0,0,0,1.68-.44,4.49,4.49,0,0,1,2.16-.11,3,3,0,0,1,1.95,1.24,2.73,2.73,0,0,1,.38,2.37,2.32,2.32,0,0,1-.39.71l-.59-.55a4.09,4.09,0,0,1,6.54,4.66l-.42-.47a3.92,3.92,0,0,1,4,1.15,3.68,3.68,0,0,1-.2,5C254.72,257.62,254.48,257.71,254.46,257.69Z"/><path class="cls-4" d="M274.34,262.85a5.53,5.53,0,0,0,1.52-2.23,4,4,0,0,0-.19-3,4.13,4.13,0,0,0-3.12-2.28l-.58-.07.39-.44a4.94,4.94,0,0,0,1.36-4.35,2.67,2.67,0,0,0-1.6-1.8,2.1,2.1,0,0,0-2.35.32l-2.27,2.41,1.65-2.88a4.15,4.15,0,0,0,.23-3.47,3.83,3.83,0,0,0-2.75-2.36A4.06,4.06,0,0,0,264,243l-.93.45.38-1c.55-1.37-.84-3-2.23-3.14a6.79,6.79,0,0,0-4.22,1.05l-.76.41.24-.83a2.94,2.94,0,0,0-1-2.84,5.45,5.45,0,0,0-2.73-1.22,13.81,13.81,0,0,0-5.11.12,21.44,21.44,0,0,0-4.29,1.54,3.67,3.67,0,0,1,1-.7,13.09,13.09,0,0,1,3.19-1.26,13.63,13.63,0,0,1,5.31-.29,6,6,0,0,1,3.08,1.31,3.61,3.61,0,0,1,1.21,3.54l-.53-.42a7.51,7.51,0,0,1,4.7-1.18,3.73,3.73,0,0,1,2.33,1.4,2.85,2.85,0,0,1,.52,2.81l-.55-.51a4.83,4.83,0,0,1,3.2-.33,4.59,4.59,0,0,1,3.31,2.86,4.87,4.87,0,0,1-.3,4.14l-.61-.46a2.85,2.85,0,0,1,3.21-.46,3.4,3.4,0,0,1,2,2.31,5.54,5.54,0,0,1-1.6,4.93l-.18-.51a4.67,4.67,0,0,1,3.49,2.68,4.4,4.4,0,0,1-1.15,5.06A1.64,1.64,0,0,1,274.34,262.85Z"/><path class="cls-4" d="M317.19,266.56a3,3,0,0,0-1-2.18,3.82,3.82,0,0,0-2.65-1,11.37,11.37,0,0,0-3.8.9l-.45.16.06-.47c.19-1.42-1.11-2.93-2.8-3.36s-3.69.18-5.66.91l-2.49.93,2.13-1.59c1.17-.86.94-3-.21-4.07s-3.15-1.35-5-1.18l-.24,0-1.58.15,1.31-.88c1.61-1.08,1.22-3.9-.33-4.81a4.62,4.62,0,0,0-5.12.49l-1.64,1.3,1.09-1.78a6.89,6.89,0,0,0,0-7,6.46,6.46,0,0,0-4.72-3,7.26,7.26,0,0,0-3.77.49c-.82.35-1.21.66-1.25.61s.08-.1.26-.26a6.09,6.09,0,0,1,.89-.57,7.09,7.09,0,0,1,3.92-.71,6.85,6.85,0,0,1,5.19,3.13,7.49,7.49,0,0,1,.12,7.72l-.54-.48a5.31,5.31,0,0,1,6-.58,3.85,3.85,0,0,1,1.73,2.91,3.42,3.42,0,0,1-1.37,3.23l-.27-.74.26,0c1.91-.17,4.07,0,5.59,1.41a4.09,4.09,0,0,1,1.2,2.63,3,3,0,0,1-1.08,2.62l-.36-.66c2-.71,4.1-1.39,6.1-.86s3.45,2.29,3.2,4.09l-.38-.31a11.68,11.68,0,0,1,4-.81,4.1,4.1,0,0,1,2.86,1.19,2.89,2.89,0,0,1,.89,1.74C317.3,266.34,317.21,266.57,317.19,266.56Z"/><path class="cls-4" d="M294.74,225.76a2.3,2.3,0,0,1-1.05.38,13.88,13.88,0,0,1-3.12.16,9.4,9.4,0,0,0-4.48.67,2.86,2.86,0,0,0-1.56,1.95,2.06,2.06,0,0,0,.82,2.35l-.55.39c-.17-1-1.44-1.68-2.59-2.36a13.44,13.44,0,0,0-3.75-1.62,4.84,4.84,0,0,0-3.82.59,3.23,3.23,0,0,0-1.65,3l.13,1-.75-.66a8.91,8.91,0,0,0-5.23-2.15,10,10,0,0,0-4.49.64,12.82,12.82,0,0,0-3.44,2.2,3.4,3.4,0,0,1,.69-.88,8.41,8.41,0,0,1,2.57-1.74,10.11,10.11,0,0,1,4.71-.86,9.46,9.46,0,0,1,5.69,2.23l-.63.33a4,4,0,0,1,2-3.72,5.64,5.64,0,0,1,4.42-.71,14,14,0,0,1,4,1.72,17.11,17.11,0,0,1,1.74,1.12,3,3,0,0,1,1.19,1.82l.11.75-.66-.37a2.78,2.78,0,0,1-1.15-3.17,3.52,3.52,0,0,1,2-2.35,9.35,9.35,0,0,1,4.79-.57,17.19,17.19,0,0,0,3.06.06A10.33,10.33,0,0,1,294.74,225.76Z"/><path class="cls-4" d="M255,210.36a7.78,7.78,0,0,0-2.1.29,5.13,5.13,0,0,0-2,1.27,4.44,4.44,0,0,0-1.28,2.7l0,.43-.42-.14a2.66,2.66,0,0,0-2.93,1.65,8,8,0,0,0-.15,4.42l.24,1.58-1-1.29-.15-.21a3.44,3.44,0,0,0-2.76-1.14,3.79,3.79,0,0,0-2.62,1.14,6.05,6.05,0,0,0-1.61,4.74,11.22,11.22,0,0,0,.89,3.47,6.68,6.68,0,0,1,.5,1.25s-.35-.35-.78-1.12a9.92,9.92,0,0,1-1.18-3.55,6.53,6.53,0,0,1,1.65-5.31,4.47,4.47,0,0,1,6.53,0l.2.26-.73.28a8.49,8.49,0,0,1,.25-4.87,3.33,3.33,0,0,1,3.85-2l-.45.29a4.89,4.89,0,0,1,1.58-3,5.21,5.21,0,0,1,2.28-1.25,4.29,4.29,0,0,1,1.66-.09C254.8,210.25,255,210.33,255,210.36Z"/><path class="cls-4" d="M219.92,234.71a2.17,2.17,0,0,1-1-.24,6.73,6.73,0,0,1-2.42-1.71,7.14,7.14,0,0,1-1.83-4,3.74,3.74,0,0,0-.53-2.19c-.46-.56-1.44-.92-2-1.85a4,4,0,0,1,1-5.41l0,.58a12.92,12.92,0,0,1-3.43-4.76,5.3,5.3,0,0,1-.56-2.19,21.73,21.73,0,0,1,1,2,14.05,14.05,0,0,0,3.49,4.39l.39.32-.42.27a3.32,3.32,0,0,0-.77,4.36c.41.69,1.28,1,2,1.78a4.22,4.22,0,0,1,.67,2.64,6.75,6.75,0,0,0,1.52,3.71A10.24,10.24,0,0,0,219.92,234.71Z"/><path class="cls-4" d="M209.59,241.76s-.23.08-.67.1a8.77,8.77,0,0,1-1.9-.17,10.7,10.7,0,0,1-5.93-3.37h.52a6.87,6.87,0,0,1-4.72,2.5,7,7,0,0,1-3-.36,4.34,4.34,0,0,1-2.56-2,9.18,9.18,0,0,1-.32-1.16,1.63,1.63,0,0,0-.5-.74,5,5,0,0,0-1.85-.82,6.62,6.62,0,0,1-2.07-.85,2.3,2.3,0,0,1-1.14-2l.51.36a7.09,7.09,0,0,1-4.9.11,7.62,7.62,0,0,1-3.22-2,6.38,6.38,0,0,1-1.33-2.06c-.18-.54-.23-.84-.19-.85a9.78,9.78,0,0,0,1.83,2.6,7.5,7.5,0,0,0,3.09,1.75,6.61,6.61,0,0,0,4.43-.2l.54-.23,0,.58a1.54,1.54,0,0,0,.84,1.31,5.81,5.81,0,0,0,1.85.72,5.61,5.61,0,0,1,2.16,1,2.39,2.39,0,0,1,.75,1.11,9.69,9.69,0,0,0,.29,1.07,3.67,3.67,0,0,0,2.09,1.58,6.36,6.36,0,0,0,2.65.34,6.26,6.26,0,0,0,4.26-2.15l.26-.31.26.3a10.86,10.86,0,0,0,5.51,3.43C208.66,241.71,209.6,241.67,209.59,241.76Z"/><path class="cls-4" d="M146.18,266.45s-.05-.09-.1-.28a4.67,4.67,0,0,1-.13-.83,8.46,8.46,0,0,1,.39-3.2,18.36,18.36,0,0,1,2.16-4.5,17.17,17.17,0,0,1,1.78-2.55,4.9,4.9,0,0,1,1.4-1.07,2.11,2.11,0,0,1,2,0l-.51.33a5.35,5.35,0,0,1,8.71-4.65l-.64.32a3.66,3.66,0,0,1,1.49-3,3.54,3.54,0,0,1,3.43-.42,3.59,3.59,0,0,1,1.57,1.2l-.72.27a2.28,2.28,0,0,1,.85-1.89,3.15,3.15,0,0,1,1.81-.76,7.25,7.25,0,0,1,3.44.88l-.49.15a5.73,5.73,0,0,1,3.48-2.42,7.92,7.92,0,0,1,3.93,0,20.32,20.32,0,0,1,6.06,3l-.42.36a1.4,1.4,0,0,1,.16-1.4,2.54,2.54,0,0,1,1-.76,4.18,4.18,0,0,1,2.14-.32,11.57,11.57,0,0,1,3.2,1,10.09,10.09,0,0,1,1.81,1.07,2.43,2.43,0,0,1,.55.49c-.05.06-.83-.58-2.49-1.26a11.94,11.94,0,0,0-3.12-.81,3.7,3.7,0,0,0-1.87.34c-.61.27-1.13.85-.84,1.45l.44.88-.86-.52a20.39,20.39,0,0,0-5.91-2.83,7.36,7.36,0,0,0-3.58,0,5,5,0,0,0-3,2.11l-.18.29-.31-.14a6.62,6.62,0,0,0-3.06-.8c-1,.06-2,.88-1.92,1.79l.13,1.42-.85-1.15a3,3,0,0,0-1.23-.92,2.74,2.74,0,0,0-2.65.31A2.91,2.91,0,0,0,162,250l0,.87-.67-.56a4.72,4.72,0,0,0-5.3-.39,4.78,4.78,0,0,0-2.23,4.37l.06.66-.56-.34c-.86-.5-1.91.2-2.59.91a18.57,18.57,0,0,0-1.77,2.41,19.86,19.86,0,0,0-2.25,4.33A10.63,10.63,0,0,0,146.18,266.45Z"/><path class="cls-4" d="M150.66,290s-.16-.16-.4-.51a11.13,11.13,0,0,1-.94-1.61,5.72,5.72,0,0,1-.64-2.94,4.08,4.08,0,0,1,.6-1.84,3.05,3.05,0,0,1,1.77-1.36l-.17.44a3.8,3.8,0,0,1-.15-4,3.85,3.85,0,0,1,4.16-1.78l-.37.57a3,3,0,0,1,.12-3.57,4.46,4.46,0,0,1,3.43-1.6,15,15,0,0,0,1.79,0,1.51,1.51,0,0,0,1.11-1,6.68,6.68,0,0,1,1-1.73,3.47,3.47,0,0,1,1.9-1.05,20,20,0,0,1,4.28-.1,4.69,4.69,0,0,0,3.47-1,18.31,18.31,0,0,0,1.1-1.54,4,4,0,0,1,1.63-1.25,4.24,4.24,0,0,1,3.76.2l-.48.5a3.2,3.2,0,0,1,.44-3.7,4.53,4.53,0,0,1,3-1.49,14.15,14.15,0,0,1,5.26.66,16.89,16.89,0,0,1,3.15,1.26,3.78,3.78,0,0,1,1,.63,42.37,42.37,0,0,0-4.27-1.5,14.7,14.7,0,0,0-5.07-.48,4,4,0,0,0-2.59,1.33,2.54,2.54,0,0,0-.35,2.9l.85,1.26-1.32-.76a3.52,3.52,0,0,0-3.11-.12,3.18,3.18,0,0,0-1.31,1,16.05,16.05,0,0,1-1.15,1.62,4.21,4.21,0,0,1-1.91,1.06,9.57,9.57,0,0,1-2.12.2,20.63,20.63,0,0,0-4.1.09,2.67,2.67,0,0,0-1.49.81,5.9,5.9,0,0,0-.92,1.56,2.36,2.36,0,0,1-1.68,1.37,15,15,0,0,1-1.9,0,3.78,3.78,0,0,0-2.86,1.27,2.3,2.3,0,0,0-.15,2.68l.63.83-1-.26a3.17,3.17,0,0,0-3.42,1.4,3.24,3.24,0,0,0,.06,3.34l.22.34-.39.09a3.07,3.07,0,0,0-2.06,2.69,5.58,5.58,0,0,0,.48,2.77C150.23,289.19,150.73,290,150.66,290Z"/><path class="cls-4" d="M152,338.91a1.68,1.68,0,0,1-.78-.25,5.63,5.63,0,0,1-1.84-1.45,5.73,5.73,0,0,1-1.35-3.4,6.11,6.11,0,0,1,1.65-4.49l0,.43a11.17,11.17,0,0,1-2.1-4,4.54,4.54,0,0,1,.19-2.57,3.31,3.31,0,0,1,1.91-2l-.08.71a4.67,4.67,0,0,1-2-4.2,5.26,5.26,0,0,1,.83-2.62,4.43,4.43,0,0,1,2.08-1.66c.77-.34,1.12-.7,1.14-1.47a6.41,6.41,0,0,1,.55-2.36,8.18,8.18,0,0,1,3-3.21c1.08-.78,2.08-1.52,3-2.16a13.43,13.43,0,0,1,4.91-2.3,6.32,6.32,0,0,1,1.48-.13c.33,0,.51.06.51.09s-.72,0-1.92.34a14.66,14.66,0,0,0-4.66,2.47l-3,2.23a7.64,7.64,0,0,0-2.72,3,5.81,5.81,0,0,0-.45,2.12,2.37,2.37,0,0,1-.44,1.33,3.15,3.15,0,0,1-1.13.79,4.17,4.17,0,0,0-.82,7.1l.69.42-.77.29c-1.38.5-1.93,2.31-1.62,3.66a10.7,10.7,0,0,0,1.91,3.76l.15.23-.19.2a5.58,5.58,0,0,0-1.58,4,5.41,5.41,0,0,0,1.11,3.18A7.86,7.86,0,0,0,152,338.91Z"/><path class="cls-4" d="M177.17,318a3.14,3.14,0,0,1-1.1-.23,10.21,10.21,0,0,1-2.82-1.47,10.77,10.77,0,0,1-3.21-3.75,4.32,4.32,0,0,1-.54-3.1,2.12,2.12,0,0,1,1.23-1.37,1.72,1.72,0,0,1,2,.33l-.61.37a5.52,5.52,0,0,1-.55-3.09,2.64,2.64,0,0,1,1-1.52,2.14,2.14,0,0,1,1.84-.26,3.34,3.34,0,0,0,1.39.19c.29-.09.35-.46.32-1.06a5,5,0,0,1,1.36-3.41,5.32,5.32,0,0,1,5.46-1.56l-.51.48a4.57,4.57,0,0,1,.83-4.44,2.8,2.8,0,0,1,2.18-.68,2.05,2.05,0,0,1,1.79,1.31l-.68.14a11,11,0,0,1,1.37-5.86,11.26,11.26,0,0,1,3-3.53,10,10,0,0,1,2.59-1.47,3.38,3.38,0,0,1,1-.26,16.59,16.59,0,0,0-3.35,2.05,11.4,11.4,0,0,0-2.76,3.48,10.45,10.45,0,0,0-1.18,5.54l.19,2.92L186.5,295c-.3-1-2-1.1-2.79-.31a3.86,3.86,0,0,0-.59,3.69l.2.72-.71-.25a4.54,4.54,0,0,0-4.61,1.36,4.15,4.15,0,0,0-1.15,2.84,3.61,3.61,0,0,1-.07,1,1.26,1.26,0,0,1-.78.87,3.37,3.37,0,0,1-1.83-.17,1.36,1.36,0,0,0-1.22.13,1.82,1.82,0,0,0-.68,1.06,4.88,4.88,0,0,0,.48,2.66l.75,2-1.35-1.59c-.53-.63-1.85-.07-2,.76a3.78,3.78,0,0,0,.44,2.64,10.6,10.6,0,0,0,2.94,3.67A14.91,14.91,0,0,0,177.17,318Z"/><path class="cls-4" d="M217.45,268.43a6.12,6.12,0,0,1-2.38-.95,6.67,6.67,0,0,1-2.16-1.88,4.42,4.42,0,0,1-.78-3.49,3.06,3.06,0,0,1,.33-.84l.16.56a3.83,3.83,0,0,1-2-2.66,3.54,3.54,0,0,1,.51-2.61c.88-1.28,1.92-1.41,1.91-1.33s-.81.43-1.44,1.61a3.08,3.08,0,0,0-.28,2.18,3.2,3.2,0,0,0,1.64,2.09l.35.18-.18.38a2.51,2.51,0,0,0-.25.63,3.87,3.87,0,0,0,.62,2.89,7,7,0,0,0,1.85,1.81A12.66,12.66,0,0,1,217.45,268.43Z"/><path class="cls-4" d="M236.15,259.78a4.72,4.72,0,0,0,.57-2.94,3.32,3.32,0,0,0-1.9-2.52,3.6,3.6,0,0,0-3.84.6l-.5.47-.13-.68a6.57,6.57,0,0,0-.92-2.37,3.06,3.06,0,0,0-2-1.44c-1.29-.17-2.73,1-2.38,2.08l-.76.15a6.13,6.13,0,0,0-2.2-4,6,6,0,0,0-3.44-1.32,9.12,9.12,0,0,0-3.37.6s.23-.26.79-.53a6.21,6.21,0,0,1,2.59-.57,6.38,6.38,0,0,1,3.85,1.29,6.77,6.77,0,0,1,2.56,4.45l-.76.15a2.25,2.25,0,0,1,.79-2.33,3.22,3.22,0,0,1,2.42-.77,3.79,3.79,0,0,1,2.58,1.8,7.28,7.28,0,0,1,1,2.67l-.64-.21a4.24,4.24,0,0,1,4.64-.62,3.79,3.79,0,0,1,2.08,3,3.9,3.9,0,0,1-.47,2.36C236.42,259.62,236.17,259.8,236.15,259.78Z"/><path class="cls-9" d="M314.91,535.26l23.45-9.69s-3.94-29.88-14-57.78C315.88,444.48,302,434,297.7,431.18l-.09-.28-7-4.23-30.13-19.39c5.3,24.08-37.81,48.8-74.49-2.92l-60.61,24.51,15.86,171.65-15,75.93L277.86,676l0,1.46,32.26-.31-6.91-33.69c3-32.41,12.66-71.76,11.53-97.75C314.94,542.45,315,538.94,314.91,535.26Z"/><path class="cls-5" d="M308.12,602.76a8.18,8.18,0,0,0,.36-1.22l.88-3.54c.39-1.54.84-3.42,1.27-5.63s1-4.71,1.45-7.51,1-5.85,1.44-9.16.84-6.84,1.24-10.57c.68-7.47,1.13-15.7,1.14-24.36s-.53-16.89-1.23-24.35c-.41-3.73-.77-7.28-1.28-10.57s-1-6.37-1.47-9.15-1-5.3-1.48-7.51-.9-4.09-1.29-5.63-.67-2.65-.9-3.53a6.26,6.26,0,0,0-.37-1.22,9.37,9.37,0,0,0,.21,1.26c.19.89.44,2.07.75,3.56s.76,3.44,1.15,5.65.95,4.72,1.36,7.51,1,5.85,1.37,9.15.82,6.83,1.21,10.55c.66,7.44,1.12,15.65,1.16,24.28s-.44,16.84-1.07,24.29c-.38,3.72-.7,7.26-1.17,10.55s-.88,6.36-1.33,9.15-.93,5.31-1.33,7.52-.79,4.11-1.13,5.65-.56,2.68-.74,3.57A6.83,6.83,0,0,0,308.12,602.76Z"/><path class="cls-5" d="M308.48,601.54a3,3,0,0,1-.09.78l-.4,2.21c-.37,1.9-.88,4.67-1.46,8.09a166.32,166.32,0,0,0-2.48,27,124.47,124.47,0,0,0,.91,14.87,115.16,115.16,0,0,0,2.2,12c.35,1.7.82,3.2,1.17,4.53s.69,2.47,1,3.4.47,1.56.64,2.14a2.63,2.63,0,0,1,.17.77,3.66,3.66,0,0,1-.32-.71c-.21-.57-.47-1.26-.78-2.11s-.74-2-1.13-3.36-.89-2.83-1.29-4.53a105.74,105.74,0,0,1-2.38-12,119.47,119.47,0,0,1-1-15A148.6,148.6,0,0,1,306,612.52c.66-3.42,1.24-6.17,1.72-8.06.22-.87.4-1.59.54-2.17A2.79,2.79,0,0,1,308.48,601.54Z"/><path class="cls-9" d="M65,549.21l31.09-89S104.31,434,129,427.56l17.62,89-8.17,48.67Z"/><path class="cls-5" d="M152.64,493.22a2.52,2.52,0,0,1,0,.75c-.06.58-.13,1.28-.21,2.13-.2,1.85-.56,4.51-1.08,7.8-1,6.57-2.86,15.57-5.09,25.46S142,548.2,140.66,554.7c-.65,3.16-1.19,5.76-1.59,7.7-.18.83-.33,1.52-.46,2.09a2.37,2.37,0,0,1-.21.72,2.51,2.51,0,0,1,0-.75c.09-.57.19-1.27.31-2.11.28-1.84.75-4.49,1.34-7.76,1.21-6.53,3.12-15.52,5.35-25.41s4.16-18.84,5.32-25.38c.59-3.26,1-5.91,1.33-7.75q.21-1.24.36-2.1A2.45,2.45,0,0,1,152.64,493.22Z"/><path class="cls-10" d="M267.1,412.68a5.83,5.83,0,0,1,0,1.18c0,.38,0,.87-.12,1.43s-.21,1.21-.34,1.93-.4,1.5-.65,2.37a26.18,26.18,0,0,1-1.13,2.7,23.42,23.42,0,0,1-4,5.88c-3.55,4-9,7.47-15.44,10A44.16,44.16,0,0,1,223,440.79a53.76,53.76,0,0,1-21.22-7.65,76.21,76.21,0,0,1-14.15-11.85,115.91,115.91,0,0,1-8.11-9.43c-.9-1.16-1.58-2.07-2-2.7a6.16,6.16,0,0,1-.65-1,7.34,7.34,0,0,1,.78.89l2.14,2.61c1.87,2.25,4.6,5.5,8.28,9.22a78.29,78.29,0,0,0,14.13,11.62A53.73,53.73,0,0,0,223.15,440a43.81,43.81,0,0,0,22-2.48c6.41-2.5,11.76-5.9,15.29-9.72a23.91,23.91,0,0,0,4-5.7,27.47,27.47,0,0,0,1.17-2.63c.27-.84.51-1.61.71-2.32l.4-1.89c.11-.55.14-1,.2-1.41A6.56,6.56,0,0,1,267.1,412.68Z"/><g class="cls-11"><path d="M137.62,612.94c9.2-10.91,10.07-26.35,10.51-40.61.56-18.05.17-38.88.73-56.92-3.34,16-8.39,40.55-10.88,49.8,0,0,1.21,9.43,1.27,13.13.07,3.37-.23,7.06.09,10.41.81,8.68,2.17,18.26-2.85,25.39"/></g><path class="cls-10" d="M310.89,497.17a1.65,1.65,0,0,1-.39.15l-1.16.39-4.52,1.39c-2,.61-4.36,1.33-7.18,2.06s-6,1.66-9.6,2.45-7.48,1.76-11.73,2.56-8.77,1.63-13.56,2.43c-9.6,1.45-20.21,2.67-31.39,3.32s-21.88.57-31.58.19c-4.84-.27-9.45-.48-13.75-.92s-8.29-.82-11.93-1.27-6.92-1-9.81-1.4-5.35-.89-7.36-1.29l-4.64-.91-1.2-.26a1.86,1.86,0,0,1-.4-.11l.42,0,1.21.18,4.66.76c2,.36,4.49.77,7.38,1.15s6.16.93,9.81,1.28,7.62.88,11.92,1.18,8.89.59,13.72.84c9.68.34,20.34.35,31.5-.25s21.75-1.85,31.33-3.26c4.78-.78,9.33-1.47,13.54-2.35s8.16-1.65,11.73-2.46,6.78-1.63,9.61-2.33,5.25-1.36,7.22-1.92l4.55-1.25,1.19-.31C310.75,497.18,310.89,497.15,310.89,497.17Z"/><path class="cls-10" d="M327.71,477.94c.12.19-3.58,2.68-8.26,5.57s-8.57,5.08-8.68,4.89,3.58-2.68,8.26-5.57S327.6,477.75,327.71,477.94Z"/><path class="cls-10" d="M151,501.73a17.11,17.11,0,0,1-2.58-.14c-1.66-.14-4.06-.41-7-.81a200.51,200.51,0,0,1-22.84-4.56A196.71,196.71,0,0,1,96.44,489c-2.77-1.1-5-2-6.51-2.74a17.11,17.11,0,0,1-2.32-1.14,15.77,15.77,0,0,1,2.45.85c1.54.61,3.79,1.47,6.58,2.5,5.58,2.06,13.36,4.69,22.14,7s16.84,3.83,22.71,4.77c2.94.48,5.32.83,7,1.06A14.65,14.65,0,0,1,151,501.73Z"/><path class="cls-6" d="M195.08,623.46l23.58.49S254,611.18,261.28,612.4c6.55,1.1,30.52,17,35.22,20.17a3.07,3.07,0,0,1,1.14,1.45h0a5.15,5.15,0,0,1-2.86,6.53l-.5.21.22.71a8.75,8.75,0,0,1,.36,2.86,3.46,3.46,0,0,1-6.43,1.5l.91,1.6a4,4,0,0,1,.5,2.15l-.08,1.46a3.93,3.93,0,0,1-2.71,3.52h0a3.92,3.92,0,0,1-4.12-1.08c-3-3.35-9.6-10-14.05-10.78a103.5,103.5,0,0,0-14.51-.73,4.92,4.92,0,0,0-4.56,3.14h0c2.64.19,21,9.77,27.51,13.2a6.94,6.94,0,0,1,3.78,5.23c.24,2-.79,4.17-4.82,3.23-8.63-2-24.18-9.17-24.18-9.17s-8-2.29-13.21,1.38c-7.31,5.15-10.65,7-16.93,5a53.37,53.37,0,0,1-10.9-5.06l-22.67,1.32S176.6,639.66,195.08,623.46Z"/><path class="cls-7" d="M249.68,629.92c0,.14,2.51-.66,6.64-.92a34.24,34.24,0,0,1,28.58,12.2c2.67,3.16,3.81,5.5,3.93,5.43A9.14,9.14,0,0,0,288,645a29.45,29.45,0,0,0-2.78-4.09,33.22,33.22,0,0,0-29-12.37,30,30,0,0,0-4.88.83A7.94,7.94,0,0,0,249.68,629.92Z"/><path class="cls-7" d="M253.42,621.34a28.43,28.43,0,0,1,6.92-1.21,30.21,30.21,0,0,1,16.08,4.55,64.73,64.73,0,0,1,12.95,11l3.56,3.77a11.27,11.27,0,0,0,1.35,1.34,9.72,9.72,0,0,0-1.16-1.51c-.78-1-1.93-2.3-3.4-3.92a59.43,59.43,0,0,0-13-11.22,29.5,29.5,0,0,0-16.44-4.45,19.38,19.38,0,0,0-5.14.94,11.27,11.27,0,0,0-1.32.51C253.56,621.24,253.41,621.31,253.42,621.34Z"/><path class="cls-6" d="M74,551.18c0-.16-12.27,55.15-13.86,64.87-1.87,11.37-5,39,20.37,44.41s130.53-1.58,130.53-1.58l7.6-34.93-96.37-13.68L132.81,564Z"/><path class="cls-5" d="M77.12,76.52c0-4.71,2.47-7.52,5.9-7.52s5.91,2.81,5.91,7.52S86.44,84,83,84,77.12,81.23,77.12,76.52Zm10.25,0c0-4-1.77-6.13-4.35-6.13s-4.35,2.18-4.35,6.13,1.77,6.13,4.35,6.13S87.37,80.47,87.37,76.52Z"/><path class="cls-5" d="M91.1,76.52C91.1,71.81,93.57,69,97,69s5.91,2.81,5.91,7.52S100.42,84,97,84,91.1,81.23,91.1,76.52Zm10.25,0c0-4-1.78-6.13-4.35-6.13s-4.36,2.18-4.36,6.13,1.78,6.13,4.36,6.13S101.35,80.47,101.35,76.52Z"/><path class="cls-5" d="M109.14,69.13V83.91h-1.52V70.48h-3.49V69.13Z"/><path class="cls-5" d="M112.66,76.52c0-4.71,2.47-7.52,5.89-7.52s5.92,2.81,5.92,7.52S122,84,118.55,84,112.66,81.23,112.66,76.52Zm10.25,0c0-4-1.78-6.13-4.36-6.13s-4.35,2.18-4.35,6.13,1.78,6.13,4.35,6.13S122.91,80.47,122.91,76.52Z"/><path class="cls-5" d="M130.7,69.13V83.91h-1.53V70.48h-3.48V69.13Z"/><path class="cls-5" d="M62.57,97.5C62.57,92.79,65,90,68.46,90s5.92,2.81,5.92,7.52S71.89,105,68.46,105,62.57,102.21,62.57,97.5Zm10.25,0c0-4-1.78-6.13-4.36-6.13s-4.35,2.18-4.35,6.13,1.78,6.12,4.35,6.12S72.82,101.45,72.82,97.5Z"/><path class="cls-5" d="M76.55,97.5C76.55,92.79,79,90,82.44,90s5.92,2.81,5.92,7.52S85.87,105,82.44,105,76.55,102.21,76.55,97.5Zm10.25,0c0-4-1.78-6.13-4.36-6.13s-4.35,2.18-4.35,6.13,1.78,6.12,4.35,6.12S86.8,101.45,86.8,97.5Z"/><path class="cls-5" d="M94.58,90.1v14.79H93.06V91.46H89.58V90.1Z"/><path class="cls-5" d="M98.11,97.5c0-4.71,2.47-7.52,5.89-7.52s5.92,2.81,5.92,7.52S107.42,105,104,105,98.11,102.21,98.11,97.5Zm10.24,0c0-4-1.77-6.13-4.35-6.13s-4.35,2.18-4.35,6.13,1.77,6.12,4.35,6.12S108.35,101.45,108.35,97.5Z"/><path class="cls-5" d="M116.14,90.1v14.79h-1.52V91.46h-3.48V90.1Z"/><path class="cls-5" d="M123.77,90.1v14.79h-1.53V91.46h-3.48V90.1Z"/><path class="cls-5" d="M127.29,97.5c0-4.71,2.47-7.52,5.89-7.52s5.92,2.81,5.92,7.52-2.49,7.52-5.92,7.52S127.29,102.21,127.29,97.5Zm10.24,0c0-4-1.77-6.13-4.35-6.13s-4.35,2.18-4.35,6.13,1.78,6.12,4.35,6.12S137.53,101.45,137.53,97.5Z"/><path class="cls-5" d="M145.33,90.1v14.79H143.8V91.46h-3.48V90.1Z"/><path class="cls-5" d="M77.13,117.78c0-4.71,2.47-7.52,5.89-7.52s5.91,2.81,5.91,7.52S86.44,125.3,83,125.3,77.13,122.49,77.13,117.78Zm10.24,0c0-4-1.77-6.12-4.35-6.12s-4.35,2.17-4.35,6.12,1.77,6.13,4.35,6.13S87.37,121.73,87.37,117.78Z"/><path class="cls-5" d="M95.16,110.39v14.79H93.64V111.74H90.15v-1.35Z"/><path class="cls-5" d="M102.78,110.39v14.79h-1.52V111.74H97.78v-1.35Z"/><path class="cls-5" d="M110.41,110.39v14.79h-1.52V111.74H105.4v-1.35Z"/><path class="cls-5" d="M113.93,117.78c0-4.71,2.47-7.52,5.89-7.52s5.92,2.81,5.92,7.52-2.49,7.52-5.92,7.52S113.93,122.49,113.93,117.78Zm10.25,0c0-4-1.78-6.12-4.36-6.12s-4.35,2.17-4.35,6.12,1.78,6.13,4.35,6.13S124.18,121.73,124.18,117.78Z"/><path class="cls-5" d="M132,110.39v14.79h-1.52V111.74H127v-1.35Z"/><path class="cls-5" d="M161.73,150.82c0,.07-.71,0-1.94.25a8.61,8.61,0,0,0-4.48,2.66,8.18,8.18,0,0,0-1.79,3.11,7.14,7.14,0,0,0,0,4.07,7.83,7.83,0,0,0,14.59,1.68,7.18,7.18,0,0,0,.93-4,8.26,8.26,0,0,0-1-3.44,8.67,8.67,0,0,0-3.76-3.6c-1.13-.54-1.85-.63-1.83-.69a1.42,1.42,0,0,1,.51,0,2.47,2.47,0,0,1,.61.14,4.12,4.12,0,0,1,.81.28,8.5,8.5,0,0,1,4,3.61,8.32,8.32,0,0,1,1.16,3.62,7.6,7.6,0,0,1-.94,4.26,9,9,0,0,1-3.39,3.44,7.89,7.89,0,0,1-9.72-1.12,9,9,0,0,1-2.51-4.12,7.63,7.63,0,0,1,0-4.37,8.76,8.76,0,0,1,6.7-5.85,4.74,4.74,0,0,1,.85-.1,3.19,3.19,0,0,1,.63,0A1.46,1.46,0,0,1,161.73,150.82Z"/><path class="cls-5" d="M170.36,116s.06-.36.19-1,.33-1.74.59-3.08c.14-.67.29-1.43.45-2.26s.18-1.76.29-2.76.2-2.08.31-3.23a10.56,10.56,0,0,0,.07-1.79v-1.9a62.8,62.8,0,0,0-2.69-18.74A65.46,65.46,0,0,0,158.06,59l-2.22-2.75c-.8-.88-1.67-1.73-2.51-2.6L152,52.31A13.52,13.52,0,0,0,150.69,51l-2.89-2.43c-.49-.41-1-.83-1.47-1.23l-1.6-1.1-3.23-2.22c-1.11-.71-2.32-1.3-3.49-2l-1.77-1c-.3-.16-.59-.34-.9-.48l-.94-.4a60.65,60.65,0,0,0-7.79-3c-1.36-.4-2.7-.89-4.1-1.22l-4.25-.87c-.72-.13-1.43-.32-2.16-.41l-2.2-.22c-1.47-.13-3-.33-4.45-.4a69.59,69.59,0,0,0-9.1.3l-2.3.23-1.16.12L95.75,35l-4.61.93c-1.52.38-3,.89-4.56,1.34-.75.25-1.54.42-2.28.73l-2.22.92a73.94,73.94,0,0,0-8.78,4.27l-4.13,2.72-1,.68c-.33.25-.65.52-1,.78l-2,1.57-2,1.57-1.81,1.76L59.6,54.05l-.91.88-.83,1c-1.09,1.31-2.2,2.61-3.3,3.92l-2.93,4.26A69.87,69.87,0,0,0,43.2,83.25a70,70,0,0,0-1.88,20.86l.51,5.15c.34,1.68.67,3.36,1,5l.25,1.25.37,1.21.74,2.43.74,2.42,1,2.33,1,2.32.48,1.15.58,1.1,2.31,4.38a72.18,72.18,0,0,0,5.63,8l1.5,1.88c.5.63,1.1,1.16,1.65,1.75,1.12,1.13,2.19,2.3,3.34,3.37l3.59,3,.89.75c.31.23.64.44,1,.67l1.9,1.31a69.58,69.58,0,0,0,7.83,4.66c1.34.66,2.74,1.19,4.09,1.79l2,.87c.68.27,1.4.45,2.09.68l4.14,1.3c1.39.38,2.8.6,4.18.9a62.69,62.69,0,0,0,8.27,1.14l1,.1c.34,0,.68,0,1,0h2c1.34,0,2.68.05,4,0l3.91-.38,1.93-.19,1.88-.36,3.7-.74a13.56,13.56,0,0,0,1.8-.46l1.76-.53c1.16-.37,2.33-.68,3.46-1.07l3.27-1.34a65.23,65.23,0,0,0,20.78-13.88c.67-.65,1.33-1.27,1.95-1.91l1.71-2,1.63-1.93c.27-.32.55-.62.79-.94l.68-1,2.6-3.75c.79-1.21,1.39-2.45,2-3.58l.93-1.66a11.48,11.48,0,0,0,.8-1.61c.45-1.06.88-2,1.28-3s.79-1.77,1.09-2.56.49-1.54.7-2.2c.41-1.3.74-2.29,1-3s.34-1,.34-1-.08.35-.28,1l-.91,3c-.2.66-.42,1.4-.67,2.21s-.68,1.64-1.06,2.58l-1.26,3a11.5,11.5,0,0,1-.79,1.62c-.3.54-.6,1.1-.92,1.67-.64,1.14-1.24,2.39-2,3.61l-2.58,3.78-.69,1c-.23.33-.51.63-.78.95l-1.63,2-1.7,2c-.63.64-1.29,1.27-1.95,1.93a65.71,65.71,0,0,1-20.86,14L129,161.72c-1.14.39-2.31.71-3.48,1.08l-1.77.54a13.73,13.73,0,0,1-1.81.47l-3.73.75c-.63.12-1.26.26-1.89.37l-1.94.2-3.94.39c-1.32.1-2.67,0-4,0h-2c-.34,0-.68,0-1,0l-1-.1a61.77,61.77,0,0,1-8.34-1.12c-1.39-.31-2.82-.53-4.21-.91l-4.18-1.3c-.7-.23-1.42-.41-2.11-.68l-2-.88c-1.36-.6-2.77-1.13-4.13-1.8a68.26,68.26,0,0,1-7.89-4.69l-1.93-1.32c-.32-.22-.65-.43-1-.67l-.9-.76L62,148.28c-1.16-1.08-2.24-2.27-3.38-3.41-.54-.58-1.15-1.12-1.65-1.75l-1.53-1.9a73.86,73.86,0,0,1-5.68-8l-2.33-4.42-.59-1.11-.49-1.16-1-2.34-1-2.35-.75-2.44-.74-2.45-.37-1.23-.26-1.26c-.34-1.68-.68-3.38-1-5.07l-.51-5.19A70.32,70.32,0,0,1,42.61,83.1a70.44,70.44,0,0,1,8.51-19.35c1-1.44,2-2.87,3-4.29l3.33-4c.28-.32.55-.66.84-1l.92-.89L61,51.84l1.84-1.77,2-1.59,2-1.59c.33-.26.65-.53,1-.78l1-.69L73,42.68a74.47,74.47,0,0,1,8.86-4.3l2.25-.92c.74-.31,1.53-.49,2.3-.74,1.54-.45,3.06-1,4.6-1.35l4.65-.93,1.15-.23c.39-.05.78-.08,1.17-.12l2.32-.23a69,69,0,0,1,9.18-.29c1.51.07,3,.28,4.48.41l2.22.23c.73.09,1.45.28,2.17.41l4.29.88c1.41.34,2.76.84,4.13,1.24a63,63,0,0,1,7.84,3l.95.41c.31.14.6.32.9.48l1.79,1c1.18.67,2.39,1.27,3.51,2L145,45.89,146.62,47c.5.4,1,.83,1.48,1.24L151,50.7A11.77,11.77,0,0,1,152.36,52l1.29,1.33c.85.89,1.72,1.74,2.52,2.62s1.49,1.87,2.23,2.78a65.52,65.52,0,0,1,11.49,22.36,62.15,62.15,0,0,1,2.6,18.84v1.91a11.67,11.67,0,0,1-.09,1.79c-.12,1.15-.24,2.23-.34,3.24s-.18,1.93-.32,2.77-.33,1.58-.48,2.26c-.28,1.33-.5,2.36-.65,3.06S170.36,116,170.36,116Z"/><rect class="cls-10" x="513.55" y="299.88" width="295.11" height="182.76"/><path class="cls-5" d="M808.66,482.64s0-1.13,0-3.3,0-5.38,0-9.59c0-8.41,0-20.78-.08-36.64,0-31.69-.1-77.35-.17-133.23l.32.32-295.08.08h0l.41-.4c0,64.79,0,126.56,0,182.76l-.38-.37,212.43.18,60.86.1,16.21.05,4.18,0,1.43,0s-.46,0-1.39,0l-4.14,0-16.13,0-60.78.1L513.55,483h-.37v-.37c0-56.2,0-118,0-182.76v-.4h.43l295.08.08H809v.32c-.07,56-.13,101.68-.17,133.43,0,15.83-.06,28.17-.08,36.57,0,4.17,0,7.37,0,9.53S808.66,482.64,808.66,482.64Z"/><path class="cls-5" d="M808.51,317.71c0,.23-65.94.41-147.25.41S514,317.94,514,317.71s65.92-.4,147.26-.4S808.51,317.49,808.51,317.71Z"/><path class="cls-5" d="M529.24,309.64a2.42,2.42,0,1,1-2.42-2.42A2.42,2.42,0,0,1,529.24,309.64Z"/><path class="cls-5" d="M538,309.64a2.42,2.42,0,1,1-2.42-2.42A2.42,2.42,0,0,1,538,309.64Z"/><circle class="cls-5" cx="544.33" cy="309.64" r="2.42"/><path class="cls-5" d="M545.74,350.41l-7,2.7,7,2.71v1.64L536.9,354v-1.7l8.84-3.49Z"/><path class="cls-5" d="M553,343.4h1.72L548.23,362h-1.71Z"/><path class="cls-5" d="M564.19,352.26V354l-8.85,3.5v-1.64l7-2.71-7-2.7v-1.64Z"/><path class="cls-5" d="M566.43,358.78a1.32,1.32,0,0,1,1.34-1.34,1.29,1.29,0,0,1,1.3,1.34,1.31,1.31,0,0,1-1.3,1.36A1.33,1.33,0,0,1,566.43,358.78Z"/><path class="cls-5" d="M570.91,358.78a1.33,1.33,0,1,1,1.34,1.36A1.33,1.33,0,0,1,570.91,358.78Z"/><path class="cls-5" d="M575.39,358.78a1.32,1.32,0,0,1,1.35-1.34,1.29,1.29,0,0,1,1.3,1.34,1.31,1.31,0,0,1-1.3,1.36A1.34,1.34,0,0,1,575.39,358.78Z"/><path class="cls-12" d="M732.09,376.5c0,.23-43.62.41-97.43.41s-97.43-.18-97.43-.41,43.61-.4,97.43-.4S732.09,376.28,732.09,376.5Z"/><path class="cls-5" d="M763.91,377.08c0,.22-4.19.4-9.36.4s-9.36-.18-9.36-.4,4.19-.4,9.36-.4S763.91,376.86,763.91,377.08Z"/><path class="cls-5" d="M791.28,377.08c0,.22-4.58.4-10.23.4s-10.22-.18-10.22-.4,4.57-.4,10.22-.4S791.28,376.86,791.28,377.08Z"/><path class="cls-12" d="M661.31,392.92c0,.22-27.73.4-61.93.4s-61.93-.18-61.93-.4,27.73-.4,61.93-.4S661.31,392.7,661.31,392.92Z"/><path class="cls-12" d="M660.42,454.18c0,.23-27.72.41-61.92.41s-61.93-.18-61.93-.41,27.72-.4,61.93-.4S660.42,454,660.42,454.18Z"/><path class="cls-5" d="M706.31,392.92c0,.22-7.55.4-16.85.4s-16.85-.18-16.85-.4,7.54-.4,16.85-.4S706.31,392.7,706.31,392.92Z"/><path class="cls-5" d="M706,454.18c0,.23-7.54.41-16.85.41s-16.85-.18-16.85-.41,7.55-.4,16.85-.4S706,454,706,454.18Z"/><path class="cls-12" d="M545.58,401.27c0,.23-1.87.41-4.17.41s-4.18-.18-4.18-.41,1.87-.4,4.18-.4S545.58,401.05,545.58,401.27Z"/><path class="cls-5" d="M574.39,401.45c0,.22-4.07.4-9.08.4s-9.07-.18-9.07-.4,4.06-.41,9.07-.41S574.39,401.22,574.39,401.45Z"/><path class="cls-5" d="M592.82,401.45c0,.22-3.48.4-7.78.4s-7.77-.18-7.77-.4,3.48-.41,7.77-.41S592.82,401.22,592.82,401.45Z"/><path class="cls-5" d="M616.15,401.45c0,.22-3.55.4-7.92.4s-7.92-.18-7.92-.4,3.55-.41,7.92-.41S616.15,401.22,616.15,401.45Z"/><path class="cls-5" d="M636.6,401.45c0,.22-3.22.4-7.2.4s-7.2-.18-7.2-.4,3.22-.41,7.2-.41S636.6,401.22,636.6,401.45Z"/><path class="cls-5" d="M704.29,401.45c0,.22-14.19.4-31.68.4s-31.69-.18-31.69-.4,14.19-.41,31.69-.41S704.29,401.22,704.29,401.45Z"/><path class="cls-12" d="M544.43,411.93c0,.22-1.61.41-3.6.41s-3.6-.19-3.6-.41,1.61-.4,3.6-.4S544.43,411.71,544.43,411.93Z"/><path class="cls-12" d="M544.72,422.88c0,.22-1.68.4-3.75.4s-3.74-.18-3.74-.4,1.68-.41,3.74-.41S544.72,422.65,544.72,422.88Z"/><path class="cls-12" d="M544.72,435.26c0,.23-1.68.41-3.75.41s-3.74-.18-3.74-.41,1.68-.4,3.74-.4S544.72,435,544.72,435.26Z"/><path class="cls-5" d="M613,434.69c0,.22-12.51.4-27.94.4s-27.94-.18-27.94-.4,12.51-.41,27.94-.41S613,434.46,613,434.69Z"/><path class="cls-5" d="M608.09,422.88c0,.22-11.93.4-26.65.4s-26.64-.18-26.64-.4,11.93-.41,26.64-.41S608.09,422.65,608.09,422.88Z"/><path class="cls-5" d="M736.84,411.36c0,.22-40.63.4-90.73.4s-90.73-.18-90.73-.4S596,411,646.11,411,736.84,411.13,736.84,411.36Z"/><rect class="cls-10" x="549.08" y="52.85" width="124.34" height="213.59"/><path class="cls-5" d="M673.42,266.45s0-.36,0-1.05,0-1.71,0-3c0-2.68,0-6.63,0-11.76,0-10.26-.06-25.23-.1-44.11-.05-37.73-.11-91.08-.19-153.64l.38.38-124.33,0h0l.4-.41c0,81.5-.07,156.24-.09,213.6l-.31-.31,90.69.16,24.89.08,6.51,0,2.25,0-2.18,0-6.45,0-24.82.07-90.89.17h-.31v-.31c0-57.36-.06-132.1-.09-213.6v-.4h.42l124.33,0h.37v.37c-.07,62.66-.13,116.1-.18,153.89,0,18.84-.08,33.78-.1,44,0,5.09,0,9,0,11.68,0,1.31,0,2.31,0,3S673.42,266.45,673.42,266.45Z"/><circle class="cls-5" cx="557.85" cy="62.26" r="2.52"/><circle class="cls-5" cx="566.97" cy="62.26" r="2.52"/><path class="cls-5" d="M578.61,62.26a2.52,2.52,0,1,1-2.52-2.52A2.52,2.52,0,0,1,578.61,62.26Z"/><path class="cls-12" d="M639.24,120.51c0,.23-15.76.41-35.2.41s-35.21-.18-35.21-.41,15.76-.4,35.21-.4S639.24,120.29,639.24,120.51Z"/><path class="cls-9" d="M653.92,137.62c0,.22-19.18.4-42.84.4s-42.85-.18-42.85-.4,19.18-.41,42.85-.41S653.92,137.39,653.92,137.62Z"/><path class="cls-12" d="M657.41,201.43c0,.22-20.45.4-45.68.4s-45.68-.18-45.68-.4,20.45-.4,45.68-.4S657.41,201.21,657.41,201.43Z"/><path class="cls-9" d="M575.43,146.32c0,.22-1.94.4-4.35.4s-4.35-.18-4.35-.4,1.95-.41,4.35-.41S575.43,146.1,575.43,146.32Z"/><path class="cls-9" d="M605.44,146.5c0,.22-4.23.4-9.45.4s-9.45-.18-9.45-.4,4.23-.41,9.45-.41S605.44,146.28,605.44,146.5Z"/><path class="cls-12" d="M624.64,146.5c0,.22-3.63.4-8.1.4s-8.1-.18-8.1-.4,3.62-.41,8.1-.41S624.64,146.28,624.64,146.5Z"/><path class="cls-12" d="M574.23,157.42c0,.22-1.67.4-3.75.4s-3.75-.18-3.75-.4,1.68-.4,3.75-.4S574.23,157.2,574.23,157.42Z"/><path class="cls-12" d="M574.53,168.82c0,.22-1.74.4-3.9.4s-3.9-.18-3.9-.4,1.75-.4,3.9-.4S574.53,168.6,574.53,168.82Z"/><path class="cls-9" d="M574.53,181.72c0,.22-1.74.4-3.9.4s-3.9-.18-3.9-.4,1.75-.4,3.9-.4S574.53,181.5,574.53,181.72Z"/><path class="cls-9" d="M645.64,181.12c0,.22-13,.4-29.1.4s-29.1-.18-29.1-.4,13-.4,29.1-.4S645.64,180.9,645.64,181.12Z"/><path class="cls-12" d="M640.54,168.82c0,.22-12.42.4-27.75.4S585,169,585,168.82s12.42-.4,27.75-.4S640.54,168.6,640.54,168.82Z"/><path class="cls-12" d="M580.22,218.47c0,.22-1.75.4-3.9.4s-3.91-.18-3.91-.4,1.75-.41,3.91-.41S580.22,218.24,580.22,218.47Z"/><path class="cls-12" d="M580.22,231.37c0,.22-1.75.4-3.9.4s-3.91-.18-3.91-.4,1.75-.4,3.91-.4S580.22,231.15,580.22,231.37Z"/><path class="cls-12" d="M651.32,230.77c0,.22-13,.4-29.1.4s-29.1-.18-29.1-.4,13-.41,29.1-.41S651.32,230.55,651.32,230.77Z"/><path class="cls-12" d="M646.22,218.47c0,.22-12.42.4-27.75.4s-27.75-.18-27.75-.4,12.42-.41,27.75-.41S646.22,218.24,646.22,218.47Z"/><path class="cls-12" d="M661.18,156.82c0,.22-16.91.4-37.77.4s-37.77-.18-37.77-.4,16.9-.4,37.77-.4S661.18,156.6,661.18,156.82Z"/><path class="cls-5" d="M672.25,72.13c0,.22-27.3.41-61,.41s-61-.19-61-.41,27.3-.4,61-.4S672.25,71.91,672.25,72.13Z"/><path class="cls-9" d="M594.55,110.2c0,.22-5.76.4-12.88.4s-12.87-.18-12.87-.4,5.76-.4,12.87-.4S594.55,110,594.55,110.2Z"/><path class="cls-12" d="M580,86.87c0,.23-2.72.41-6.07.41s-6.08-.18-6.08-.41,2.72-.4,6.08-.4S580,86.65,580,86.87Z"/><path class="cls-4" d="M496.77,677.29H280.94l27.85-151.47a11.31,11.31,0,0,1,11.13-9.28H513.85A11.32,11.32,0,0,1,525,530Z"/><path class="cls-4" d="M280.94,677.29H199.07l.33-.25a44.33,44.33,0,0,1,25.25-8.83l58.54-1.72Z"/><path class="cls-5" d="M332.78,516.75c0,.06-.6-.11-1.75-.12a10.77,10.77,0,0,0-4.79,1.19,14.84,14.84,0,0,0-5.76,5.23,28.06,28.06,0,0,0-3.52,9.8c-.7,3.83-1.32,8.08-2.09,12.62s-1.61,9.38-2.57,14.47c-1.88,10.18-4.1,21.34-6.53,33-4.87,23.39-9.38,44.54-12.33,59.92-1.49,7.68-2.63,13.91-3.41,18.22-.38,2.1-.68,3.76-.9,5l-.25,1.29c-.07.29-.1.44-.12.43a2.09,2.09,0,0,1,0-.44c0-.34.1-.77.17-1.3l.75-5c.68-4.32,1.74-10.57,3.16-18.27,2.81-15.41,7.23-36.58,12.1-60,2.43-11.7,4.68-22.85,6.59-33,1-5.09,1.83-9.93,2.64-14.45s1.44-8.77,2.19-12.63a28,28,0,0,1,3.71-9.92,14.88,14.88,0,0,1,6-5.27,10.44,10.44,0,0,1,4.93-1.07A6.35,6.35,0,0,1,332.78,516.75Z"/><path class="cls-13" d="M423.93,593.51a10.44,10.44,0,1,1-10.44-10.44A10.44,10.44,0,0,1,423.93,593.51Z"/><path class="cls-5" d="M844.45,677.29c0,.22-157.54.4-351.82.4s-351.86-.18-351.86-.4,157.5-.4,351.86-.4S844.45,677.07,844.45,677.29Z"/><path class="cls-1" d="M937.82,565.86a1.41,1.41,0,0,0-.15-.34l-.52-.95a40.23,40.23,0,0,0-2.23-3.49,37.71,37.71,0,0,0-11.06-10.45,27,27,0,0,0-9.92-3.64,24.56,24.56,0,0,0-12.05,1.26,19.53,19.53,0,0,0-10.31,8.44c-2.37,4.14-3.14,9-4.52,13.64a24.75,24.75,0,0,1-2.88,6.5,19.72,19.72,0,0,1-4.9,4.83c-1.84,1.36-3.77,2.58-5.52,4a23.34,23.34,0,0,0-4.48,4.86,29.88,29.88,0,0,0-4.6,11.22,39.8,39.8,0,0,0-.61,10.55,79.17,79.17,0,0,0,2.7,15c.45,1.74.84,3.08,1.1,4a10.57,10.57,0,0,0,.45,1.37,9.27,9.27,0,0,0-.28-1.41c-.24-1-.56-2.33-1-4a86.69,86.69,0,0,1-2.42-15,39.47,39.47,0,0,1,.7-10.37A29.53,29.53,0,0,1,869.91,591a23.19,23.19,0,0,1,4.36-4.68c1.7-1.38,3.62-2.59,5.5-4a20.59,20.59,0,0,0,5.1-5,25.57,25.57,0,0,0,3-6.73c1.4-4.72,2.16-9.51,4.43-13.47a18.9,18.9,0,0,1,9.87-8.13,24,24,0,0,1,11.68-1.3,26.85,26.85,0,0,1,9.72,3.47,38.51,38.51,0,0,1,11.09,10.13c1.08,1.44,1.85,2.6,2.36,3.39A8.43,8.43,0,0,0,937.82,565.86Z"/><path class="cls-1" d="M877.12,582.88c1.27-1.19,1.9-.36,3.61,0a10.61,10.61,0,0,1,4.64,2.32,19.52,19.52,0,0,1,6.34,20.51,15.25,15.25,0,0,1-14-22.91"/><path class="cls-1" d="M929.62,559c.64-1.62,1.56-1.14,3.25-1.6a10.69,10.69,0,0,1,5.18.09,19.53,19.53,0,0,1,14.54,15.79,15.25,15.25,0,0,1-22.5-14.65"/><path class="cls-1" d="M865.55,615.23a17.6,17.6,0,0,1,27.68,1.34,21.76,21.76,0,0,1-14.35,5.66c-5.26,0-10.52-2.37-14.46-5.84"/><path class="cls-1" d="M869.86,591.07a17.85,17.85,0,0,1-18-21.29,16,16,0,0,1,18.61,21.11"/><path class="cls-1" d="M888.34,562.67a17.84,17.84,0,0,1-24.07-14.09,16,16,0,0,1,24.57,13.73"/><path class="cls-1" d="M894.54,553.4a17.84,17.84,0,0,1,24.07,14.09A16,16,0,0,1,894,553.76"/><path class="cls-1" d="M901.92,548.41a17.84,17.84,0,0,1-9.49-26.23,16,16,0,0,1,10.11,26.27"/><path class="cls-1" d="M920.85,549.31a17.82,17.82,0,0,1,14.56-23.78,16,16,0,0,1-14.21,24.29"/><polyline class="cls-5" points="844.56 677.24 834.47 613.96 911.74 614.89 904.12 676.41"/><path class="cls-14" d="M877.9,602.39c4.15,2.6,9,3,12.82,1.09s6.47-6.13,7-11.09a15.76,15.76,0,0,0-12.8-.65,15.59,15.59,0,0,0-8.52,9.52"/><path class="cls-14" d="M913.22,616c4.15,2.59,9,3,12.82,1.09s6.47-6.13,7-11.09a14.84,14.84,0,0,0-21.32,8.87"/><path class="cls-14" d="M893.39,585.59c2,4.44,5.88,7.46,10.12,8s8.77-1.56,12-5.41a14.83,14.83,0,0,0-22.68-4.31"/><path class="cls-14" d="M906.29,601.36c-4.9-.07-9.27,2.09-11.54,5.7s-2.36,8.6-.26,13.12a14.81,14.81,0,0,0,13.64-18.62"/><path class="cls-14" d="M918.73,626.27c-2.13,4.4-2,9.28.31,12.86s6.79,5.77,11.78,5.78a15.77,15.77,0,0,0-.73-12.8c-2-3.69-5.69-5.52-10.28-6.56"/><path class="cls-14" d="M939.27,629.2a9.19,9.19,0,0,0-3.06-2,13.23,13.23,0,0,0-4.19-.74,51.06,51.06,0,0,0-5.7.34,16.77,16.77,0,0,1-7-.6,10.73,10.73,0,0,1-5.79-5.6,32.2,32.2,0,0,1-2.5-8.55c-.6-3-1.25-6.11-3-8.77s-4.2-4.67-6.53-6.64a31.59,31.59,0,0,1-6.26-6.35,20.91,20.91,0,0,1-3.11-14.54,20.48,20.48,0,0,1,3.8-9.35,14.53,14.53,0,0,1,1.85-2,4,4,0,0,1,.73-.62,4.39,4.39,0,0,1-.61.74,20.17,20.17,0,0,0-1.71,2.11,20.93,20.93,0,0,0-3.47,9.24,20.53,20.53,0,0,0,3.16,14,31.62,31.62,0,0,0,6.14,6.15c2.33,2,4.9,4,6.72,6.82s2.48,6.08,3.07,9.06a31.54,31.54,0,0,0,2.39,8.36,10.12,10.12,0,0,0,5.34,5.3,16.29,16.29,0,0,0,6.74.66,47,47,0,0,1,5.76-.21,12.69,12.69,0,0,1,4.29.9,7.12,7.12,0,0,1,2.33,1.5,3.67,3.67,0,0,1,.47.54C939.23,629.12,939.28,629.19,939.27,629.2Z"/><path class="cls-14" d="M939.27,629.2a9.19,9.19,0,0,0-3.06-2,13.23,13.23,0,0,0-4.19-.74,51.06,51.06,0,0,0-5.7.34,16.77,16.77,0,0,1-7-.6,10.73,10.73,0,0,1-5.79-5.6,32.2,32.2,0,0,1-2.5-8.55c-.6-3-1.25-6.11-3-8.77s-4.2-4.67-6.53-6.64a31.59,31.59,0,0,1-6.26-6.35,20.91,20.91,0,0,1-3.11-14.54,20.48,20.48,0,0,1,3.8-9.35,14.53,14.53,0,0,1,1.85-2,4,4,0,0,1,.73-.62,4.39,4.39,0,0,1-.61.74,20.17,20.17,0,0,0-1.71,2.11,20.93,20.93,0,0,0-3.47,9.24,20.53,20.53,0,0,0,3.16,14,31.62,31.62,0,0,0,6.14,6.15c2.33,2,4.9,4,6.72,6.82s2.48,6.08,3.07,9.06a31.54,31.54,0,0,0,2.39,8.36,10.12,10.12,0,0,0,5.34,5.3,16.29,16.29,0,0,0,6.74.66,47,47,0,0,1,5.76-.21,12.69,12.69,0,0,1,4.29.9,7.12,7.12,0,0,1,2.33,1.5,3.67,3.67,0,0,1,.47.54C939.23,629.12,939.28,629.19,939.27,629.2Z"/><path class="cls-15" d="M791.77,635.68a19.56,19.56,0,0,0-26.46-19.26,32.6,32.6,0,0,0,25.76,19"/><path class="cls-15" d="M786.67,638.37c-3.78,4.15-3.54,10.83-.84,15.74s7.36,8.42,12,11.54a25.36,25.36,0,0,0-10.93-28.78"/><path class="cls-15" d="M805,618.92A22.56,22.56,0,0,0,830.61,639c-1.47-6.07-3.91-12.19-8.6-16.32s-12.09-5.65-17.28-2.18"/><path class="cls-15" d="M804.85,612.72c-1-5.53-6.4-9.54-12-10.06s-11.1,1.87-15.58,5.24a20.25,20.25,0,0,0,27.62,2.73"/><path class="cls-15" d="M776.06,659.74c-5.3,4.53-6.63,12.6-4.43,19.22s7.37,11.9,13.18,15.77c2.23-6.56,3.62-13.6,2.45-20.43s-5.29-13.42-11.64-16.2"/><path class="cls-15" d="M804,597.21a16.3,16.3,0,0,1,25.82-1.51,14.08,14.08,0,0,1-25.42.65"/><path class="cls-15" d="M810.49,581.27a21.19,21.19,0,0,1-27-16.58,48.72,48.72,0,0,1,12.77.19,20.75,20.75,0,0,1,11.3,5.57,11.21,11.21,0,0,1,3,10.82"/><path class="cls-15" d="M822.75,577.14a17.32,17.32,0,0,1-.11-26.73,36.27,36.27,0,0,1,7.58,16.15,13.64,13.64,0,0,1-.06,6.69,6.17,6.17,0,0,1-4.68,4.37"/><path class="cls-15" d="M843.94,616a2.44,2.44,0,0,1,0-.44c0-.33,0-.75.08-1.27.07-1.12.18-2.76.21-4.89a43.47,43.47,0,0,0-2.87-17.55,26.8,26.8,0,0,0-7.06-9.94,18.85,18.85,0,0,0-12.85-4.73A16.15,16.15,0,0,0,814.2,579a14.44,14.44,0,0,0-5.6,5.35c-2.8,4.62-3.49,10.42-3.25,16.14s1,11.45.39,17a25.83,25.83,0,0,1-2.12,7.87,16.44,16.44,0,0,1-4.75,6.23,23.75,23.75,0,0,1-6.62,3.39,33.26,33.26,0,0,0-6.24,2.83,22.55,22.55,0,0,0-8.19,8.93,21.58,21.58,0,0,0-2.37,9.76,22.83,22.83,0,0,0,1.24,7.55,28.38,28.38,0,0,0,2.92,5.88,1.79,1.79,0,0,1-.28-.33c-.17-.23-.45-.56-.75-1a21,21,0,0,1-2.2-4.4,22.91,22.91,0,0,1-1.4-7.65,21.9,21.9,0,0,1,2.31-10,23.1,23.1,0,0,1,8.35-9.25c3.82-2.54,8.87-3.18,12.75-6.23s5.94-8.28,6.53-13.6-.19-11-.4-16.86.44-11.77,3.38-16.6a15.18,15.18,0,0,1,5.93-5.63,16.82,16.82,0,0,1,7.61-1.88,19.5,19.5,0,0,1,13.32,5,27.3,27.3,0,0,1,7.15,10.23,36.93,36.93,0,0,1,2.43,10,54.88,54.88,0,0,1,.22,7.77c-.09,2.13-.24,3.78-.37,4.9-.07.51-.12.93-.16,1.26A1.24,1.24,0,0,1,843.94,616Z"/><path class="cls-14" d="M956.45,602.18a16.39,16.39,0,0,0,1.15-5.66,14.19,14.19,0,0,0-1.5-6.54,14,14,0,0,0-11.27-7.42,16,16,0,0,0-5.55.65c-3.79,1-7.53,3.15-12,4a14.06,14.06,0,0,1-7-.17,10.46,10.46,0,0,1-5.68-4.53c-2.69-4.18-3.46-9.43-6.71-13.29a13.26,13.26,0,0,0-6.11-4,17,17,0,0,0-7.13-.72,18.22,18.22,0,0,0-11.86,6.17,27.92,27.92,0,0,0-5.89,10.89,33,33,0,0,0-1.31,10.79,119.44,119.44,0,0,0,2,15.78c.31,1.81.56,3.23.74,4.28.07.45.12.82.17,1.12a1.81,1.81,0,0,1,0,.38s-.06-.12-.12-.37-.15-.65-.24-1.1l-.9-4.25A107.76,107.76,0,0,1,875,592.41a32.94,32.94,0,0,1,1.24-11,28.25,28.25,0,0,1,6-11.21,21,21,0,0,1,5.42-4.34,18.65,18.65,0,0,1,14.4-1.38,14.08,14.08,0,0,1,6.48,4.23c3.45,4.14,4.19,9.42,6.77,13.4a9.64,9.64,0,0,0,5.23,4.21,13.42,13.42,0,0,0,6.57.18c4.32-.83,8.08-3,12-4a16.68,16.68,0,0,1,5.78-.63,14.53,14.53,0,0,1,5.18,1.45,14.14,14.14,0,0,1,6.46,6.41,14.32,14.32,0,0,1,1.41,6.75,13.56,13.56,0,0,1-.83,4.29A7.09,7.09,0,0,1,956.45,602.18Z"/><path class="cls-14" d="M911.26,574.14c4.15,2.59,10,2.83,13.78.91s6.47-6.13,7-11.09a15.79,15.79,0,0,0-12.81-.65,15.61,15.61,0,0,0-8.51,9.52"/><path class="cls-14" d="M925.91,587.43c-.06,4.89,2.77,10,6.39,12.24s8.6,2.33,13.12.22a14.83,14.83,0,0,0-18.67-13.59"/><path class="cls-14" d="M951.32,584.48c4.4,2.14,10.22,1.75,13.8-.56s5.78-6.79,5.79-11.77a14.82,14.82,0,0,0-20.25,11.09"/><path class="cls-14" d="M889.92,565.34c-3.71-3.19-6.19-8.8-5.48-13s3.94-8,8.52-10a14.82,14.82,0,0,1-2.17,23"/><path class="cls-16" d="M790.7,547.15s0-.12.15-.34.3-.57.51-.95c.47-.82,1.2-2,2.24-3.49a37.65,37.65,0,0,1,11-10.45,27.11,27.11,0,0,1,9.92-3.64,24.61,24.61,0,0,1,12.06,1.26A19.57,19.57,0,0,1,836.94,538c2.37,4.14,3.13,9,4.52,13.64a24.73,24.73,0,0,0,2.87,6.5,20.07,20.07,0,0,0,4.9,4.83c1.85,1.36,3.77,2.58,5.52,4a23.67,23.67,0,0,1,4.49,4.86A29.86,29.86,0,0,1,863.83,583a40.25,40.25,0,0,1,.62,10.55,80.82,80.82,0,0,1-2.7,15c-.46,1.74-.85,3.08-1.11,4a8.89,8.89,0,0,1-.45,1.37,8.77,8.77,0,0,1,.29-1.41c.23-1,.55-2.33.95-4a85.72,85.72,0,0,0,2.42-15,39.47,39.47,0,0,0-.7-10.37,29.3,29.3,0,0,0-4.55-10.92,23.43,23.43,0,0,0-4.35-4.68c-1.71-1.38-3.63-2.6-5.51-4a20.59,20.59,0,0,1-5.1-5,25.9,25.9,0,0,1-3-6.73c-1.4-4.72-2.16-9.51-4.43-13.47a18.82,18.82,0,0,0-9.87-8.13,24,24,0,0,0-11.68-1.3,26.85,26.85,0,0,0-9.72,3.47,38.51,38.51,0,0,0-11.09,10.13c-1.07,1.44-1.84,2.6-2.36,3.39A10.58,10.58,0,0,1,790.7,547.15Z"/><path class="cls-16" d="M851.4,564.17c-1.28-1.19-1.9-.36-3.62,0a10.61,10.61,0,0,0-4.64,2.32A19.54,19.54,0,0,0,836.8,587a15.26,15.26,0,0,0,14-22.92"/><path class="cls-16" d="M798.89,540.27c-.64-1.62-1.56-1.14-3.25-1.6a10.69,10.69,0,0,0-5.18.09,19.54,19.54,0,0,0-14.54,15.79,15.25,15.25,0,0,0,22.5-14.65"/><path class="cls-16" d="M863,596.52a17.6,17.6,0,0,0-27.68,1.34,21.76,21.76,0,0,0,14.36,5.66c5.26.05,10.51-2.37,14.46-5.84"/><path class="cls-16" d="M858.65,572.36a17.85,17.85,0,0,0,18-21.29,16,16,0,0,0-18.61,21.11"/><path class="cls-16" d="M840.17,544a17.84,17.84,0,0,0,24.07-14.09,16,16,0,0,0-24.57,13.73"/><path class="cls-16" d="M834,534.69a17.84,17.84,0,0,0-24.07,14.09,16,16,0,0,0,24.57-13.73"/><path class="cls-16" d="M826.59,529.7a17.84,17.84,0,0,0,9.49-26.23A16,16,0,0,0,826,529.74"/><path class="cls-16" d="M807.66,530.6a17.82,17.82,0,0,0-14.56-23.78,16,16,0,0,0,14.21,24.29"/><polygon class="cls-5" points="833.49 669.91 839.4 677.24 912.12 677.24 917.07 669.91 833.49 669.91"/><path class="cls-4" d="M915.48,669.84c0,.23-17.87.42-39.91.42s-39.91-.19-39.91-.42,17.87-.42,39.91-.42S915.48,669.61,915.48,669.84Z"/><path class="cls-4" d="M907.3,642.23a2.55,2.55,0,0,1-.45.6,18.52,18.52,0,0,1-1.48,1.55,26.86,26.86,0,0,1-6.5,4.51,28.55,28.55,0,0,1-11.35,2.91,26.81,26.81,0,0,1-6.94-.58,41.62,41.62,0,0,1-7.08-2.34c-4.69-2-9-4.27-13.1-5.59a22.53,22.53,0,0,0-11.31-1.1,14.77,14.77,0,0,0-6.94,3.22c-1.38,1.22-1.91,2.12-2,2.07s.1-.24.36-.66a10.66,10.66,0,0,1,1.4-1.65,14.5,14.5,0,0,1,7-3.56,22.64,22.64,0,0,1,11.66.94c4.25,1.31,8.56,3.58,13.19,5.55a40.69,40.69,0,0,0,6.94,2.32,27,27,0,0,0,6.73.61,28.65,28.65,0,0,0,11.13-2.68C904.59,645.49,907.16,642.05,907.3,642.23Z"/><path class="cls-4" d="M908,636.55a2.8,2.8,0,0,1-.5.57,21,21,0,0,1-1.59,1.45,30.11,30.11,0,0,1-6.73,4.17,31.33,31.33,0,0,1-18.4,2.27,46.78,46.78,0,0,1-7.19-2c-4.8-1.74-9.2-3.74-13.41-4.92a26.57,26.57,0,0,0-11.41-1,17.14,17.14,0,0,0-7.2,2.75c-1.51,1.06-2.17,1.87-2.23,1.81a2.33,2.33,0,0,1,.45-.6,11.64,11.64,0,0,1,1.59-1.47,16.51,16.51,0,0,1,7.29-3.08,26.61,26.61,0,0,1,11.72.88c4.29,1.15,8.74,3.15,13.49,4.87a46,46,0,0,0,7.05,2,31.09,31.09,0,0,0,6.78.5A32.08,32.08,0,0,0,899,642.2C905.06,639.55,907.9,636.37,908,636.55Z"/></svg>