<svg id="Camada_1" data-name="Camada 1" xmlns="http://www.w3.org/2000/svg" viewBox="0 0 1000 700"><defs><style>.cls-1{fill:#f5f5f5;}.cls-2,.cls-6{fill:#e1e1e1;}.cls-3{fill:#ececec;}.cls-4{fill:#fafafa;}.cls-5{fill:none;}.cls-6{fill-rule:evenodd;}.cls-7{fill:#1a2e35;}.cls-8{fill:#fdff58;}.cls-9{fill:#fff;}.cls-10{fill:#375a64;}.cls-11{fill:#c6ff00;}.cls-12{fill:#170060;}.cls-13{fill:#90cc00;}.cls-14{fill:#c78976;}.cls-15{fill:#bf654e;}.cls-16{fill:#4c2a8e;}.cls-17{opacity:0.2;}</style></defs><rect class="cls-1" x="718.87" y="566.55" width="29.27" height="34.79"/><rect class="cls-2" x="587.62" y="564.28" width="132.26" height="39.25"/><path class="cls-2" d="M749,567.58H716.33v-3.3H749a1.65,1.65,0,0,1,1.65,1.65h0A1.65,1.65,0,0,1,749,567.58Z"/><path class="cls-2" d="M749,603.53H716.33v-3.3H749a1.65,1.65,0,0,1,1.65,1.65h0A1.65,1.65,0,0,1,749,603.53Z"/><rect class="cls-3" x="693.85" y="564.28" width="15.63" height="39.25"/><rect class="cls-3" x="600.2" y="564.71" width="15.63" height="39.25"/><path class="cls-2" d="M748.13,572.3c0,.1-6.33.18-14.14.18s-14.15-.08-14.15-.18,6.33-.17,14.15-.17S748.13,572.21,748.13,572.3Z"/><path class="cls-2" d="M748.13,577.52c0,.1-6.33.17-14.14.17s-14.15-.07-14.15-.17,6.33-.17,14.15-.17S748.13,577.42,748.13,577.52Z"/><path class="cls-2" d="M748.13,583.94c0,.1-6.33.18-14.14.18s-14.15-.08-14.15-.18,6.33-.17,14.15-.17S748.13,583.85,748.13,583.94Z"/><path class="cls-2" d="M748.13,590.37c0,.09-6.33.17-14.14.17s-14.15-.08-14.15-.17,6.33-.18,14.15-.18S748.13,590.27,748.13,590.37Z"/><path class="cls-2" d="M748.13,596.79c0,.1-6.33.18-14.14.18s-14.15-.08-14.15-.18,6.33-.17,14.15-.17S748.13,596.7,748.13,596.79Z"/><rect class="cls-3" x="625.95" y="580.41" width="59.5" height="7.07"/><rect class="cls-4" x="718.12" y="604.3" width="29.71" height="21.2"/><rect class="cls-1" x="592" y="603.53" width="126.46" height="22.74"/><path class="cls-1" d="M717.53,605.07h31.94a.77.77,0,0,0,.77-.77h0a.76.76,0,0,0-.77-.77H717.53Z"/><path class="cls-1" d="M717.53,624.73h32a.7.7,0,0,1,.7.7v.15a.7.7,0,0,1-.7.7h-32a0,0,0,0,1,0,0v-1.54A0,0,0,0,1,717.53,624.73Z"/><path class="cls-2" d="M747.84,608.32c0,.1-6.58.18-14.69.18s-14.7-.08-14.7-.18,6.58-.17,14.7-.17S747.84,608.23,747.84,608.32Z"/><path class="cls-2" d="M747.84,612.33c0,.1-6.58.18-14.69.18s-14.7-.08-14.7-.18,6.58-.17,14.7-.17S747.84,612.24,747.84,612.33Z"/><path class="cls-2" d="M747.84,616.35c0,.09-6.58.17-14.69.17s-14.7-.08-14.7-.17,6.58-.18,14.7-.18S747.84,616.25,747.84,616.35Z"/><path class="cls-2" d="M747.84,620.36c0,.09-6.58.17-14.69.17s-14.7-.08-14.7-.17,6.58-.18,14.7-.18S747.84,620.26,747.84,620.36Z"/><rect class="cls-3" x="722.01" y="628.29" width="30.33" height="57.47"/><rect class="cls-2" x="579.65" y="626.27" width="142.37" height="62.31"/><path class="cls-2" d="M754.72,688.58h-36.6v-4.05h36.6a2,2,0,0,1,2,2h0A2,2,0,0,1,754.72,688.58Z"/><path class="cls-2" d="M718.12,626.27h36.79a1.83,1.83,0,0,1,1.83,1.83v.39a1.83,1.83,0,0,1-1.83,1.83H718.12a0,0,0,0,1,0,0v-4A0,0,0,0,1,718.12,626.27Z"/><path class="cls-2" d="M752.34,636c0,.1-6.79.17-15.16.17S722,636.09,722,636s6.79-.17,15.17-.17S752.34,635.89,752.34,636Z"/><path class="cls-2" d="M752.34,643.36c0,.1-6.79.17-15.16.17s-15.17-.07-15.17-.17,6.79-.17,15.17-.17S752.34,643.26,752.34,643.36Z"/><path class="cls-2" d="M752.34,650.73c0,.1-6.79.17-15.16.17s-15.17-.07-15.17-.17,6.79-.17,15.17-.17S752.34,650.63,752.34,650.73Z"/><path class="cls-2" d="M752.34,658.1c0,.1-6.79.18-15.16.18S722,658.2,722,658.1s6.79-.17,15.17-.17S752.34,658,752.34,658.1Z"/><path class="cls-2" d="M752.34,665.47c0,.1-6.79.18-15.16.18s-15.17-.08-15.17-.18,6.79-.17,15.17-.17S752.34,665.38,752.34,665.47Z"/><path class="cls-2" d="M752.34,672.84c0,.1-6.79.18-15.16.18s-15.17-.08-15.17-.18,6.79-.17,15.17-.17S752.34,672.75,752.34,672.84Z"/><path class="cls-2" d="M752.34,680.21c0,.1-6.79.18-15.16.18s-15.17-.08-15.17-.18,6.79-.17,15.17-.17S752.34,680.12,752.34,680.21Z"/><path class="cls-3" d="M628.36,660.83v3.47c0,4.17-2.08,6.56-6.11,6.56s-6.11-2.39-6.11-6.56V650.73c0-4.18,2.08-6.56,6.11-6.56s6.11,2.38,6.11,6.56v2.53h-3.87v-2.79c0-1.87-.82-2.58-2.13-2.58s-2.12.71-2.12,2.58v14.09c0,1.86.82,2.53,2.12,2.53s2.13-.67,2.13-2.53v-3.73Z"/><path class="cls-3" d="M630.52,650.73c0-4.18,2.2-6.56,6.23-6.56s6.22,2.38,6.22,6.56V664.3c0,4.17-2.2,6.56-6.22,6.56s-6.23-2.39-6.23-6.56Zm4.1,13.83c0,1.86.82,2.57,2.13,2.57s2.12-.71,2.12-2.57V650.47c0-1.87-.82-2.58-2.12-2.58s-2.13.71-2.13,2.58Z"/><path class="cls-3" d="M645.62,644.46h4.1v22.37h6.75v3.73H645.62Z"/><path class="cls-3" d="M657.92,650.73c0-4.18,2.2-6.56,6.22-6.56s6.23,2.38,6.23,6.56V664.3c0,4.17-2.2,6.56-6.23,6.56s-6.22-2.39-6.22-6.56Zm4.1,13.83c0,1.86.82,2.57,2.12,2.57s2.13-.71,2.13-2.57V650.47c0-1.87-.82-2.58-2.13-2.58s-2.12.71-2.12,2.58Z"/><path class="cls-3" d="M676.93,644.46V664.6c0,1.86.82,2.53,2.12,2.53s2.13-.67,2.13-2.53V644.46h3.87v19.87c0,4.18-2.08,6.57-6.11,6.57s-6.11-2.39-6.11-6.57V644.46Z"/><path class="cls-3" d="M696.42,670.56a8.13,8.13,0,0,1-.37-3.21v-4.1c0-2.42-.82-3.31-2.69-3.31H692v10.62h-4.1v-26.1H694c4.25,0,6.07,2,6.07,6v2c0,2.68-.86,4.43-2.68,5.29,2.05.86,2.72,2.83,2.72,5.56v4a7.69,7.69,0,0,0,.45,3.17ZM692,648.19v8h1.6c1.53,0,2.46-.67,2.46-2.76v-2.57c0-1.87-.63-2.69-2.09-2.69Z"/><path class="cls-2" d="M627.48,612.48h-3l.15-.77h6.87l-.17.77h-3l-1.54,7.7h-.88Z"/><path class="cls-2" d="M637.27,613.81l-4.65,7.2c-.79,1.21-1.38,1.58-2.3,1.58a2.07,2.07,0,0,1-1.51-.57l.45-.63a1.5,1.5,0,0,0,1.13.46c.55,0,1-.25,1.47-1l.44-.67-1.58-6.34h.87l1.32,5.43,3.47-5.43Z"/><path class="cls-2" d="M644.35,616.45a3.59,3.59,0,0,1-3.61,3.79,2.37,2.37,0,0,1-2.42-1.39l-.73,3.68h-.86l1.73-8.72h.82l-.2,1a3.2,3.2,0,0,1,2.48-1.06A2.57,2.57,0,0,1,644.35,616.45Zm-.88,0a1.86,1.86,0,0,0-2.09-2,2.77,2.77,0,0,0-2.75,3,1.86,1.86,0,0,0,2.1,2A2.78,2.78,0,0,0,643.47,616.5Z"/><path class="cls-2" d="M645.35,617.54a3.61,3.61,0,0,1,3.68-3.77,2.61,2.61,0,0,1,2.89,2.68,3.62,3.62,0,0,1-3.68,3.79A2.62,2.62,0,0,1,645.35,617.54Zm5.71-1a1.86,1.86,0,0,0-2.09-2,2.79,2.79,0,0,0-2.76,3,1.85,1.85,0,0,0,2.09,2A2.79,2.79,0,0,0,651.06,616.5Z"/><path class="cls-2" d="M660.16,613.81l-1.11,5.6c-.45,2.25-1.64,3.18-3.71,3.18a4,4,0,0,1-2.83-1L653,621a3.34,3.34,0,0,0,2.38.85,2.49,2.49,0,0,0,2.76-2.28l.15-.7a3.3,3.3,0,0,1-2.54,1.09,2.52,2.52,0,0,1-2.81-2.57,3.51,3.51,0,0,1,3.63-3.6,2.44,2.44,0,0,1,2.48,1.45l.27-1.41Zm-1.45,2.56c0-1.16-.79-1.85-2.11-1.85a2.69,2.69,0,0,0-2.77,2.8c0,1.17.77,1.86,2.11,1.86A2.71,2.71,0,0,0,658.71,616.37Z"/><path class="cls-2" d="M665.77,613.77l-.15.83h-.25a2.52,2.52,0,0,0-2.58,2.36l-.64,3.23h-.86l1.26-6.37h.83l-.22,1.17A2.86,2.86,0,0,1,665.77,613.77Z"/><path class="cls-2" d="M673.07,613.81l-1.27,6.37H671l.2-1a3.27,3.27,0,0,1-2.48,1.06,2.56,2.56,0,0,1-2.77-2.7,3.57,3.57,0,0,1,3.59-3.77,2.38,2.38,0,0,1,2.42,1.38l.27-1.34Zm-1.43,2.69a1.86,1.86,0,0,0-2.09-2,2.79,2.79,0,0,0-2.76,3,1.85,1.85,0,0,0,2.09,2A2.79,2.79,0,0,0,671.64,616.5Z"/><path class="cls-2" d="M681.33,616.45a3.58,3.58,0,0,1-3.6,3.79,2.37,2.37,0,0,1-2.42-1.39l-.73,3.68h-.86l1.73-8.72h.82l-.2,1a3.2,3.2,0,0,1,2.48-1.06A2.57,2.57,0,0,1,681.33,616.45Zm-.87,0a1.86,1.86,0,0,0-2.09-2,2.77,2.77,0,0,0-2.75,3,1.85,1.85,0,0,0,2.09,2A2.78,2.78,0,0,0,680.46,616.5Z"/><path class="cls-2" d="M689,615.84a3.65,3.65,0,0,1-.07.72l-.73,3.62h-.86l.73-3.63a3.09,3.09,0,0,0,.06-.58c0-.91-.54-1.43-1.65-1.43a2.49,2.49,0,0,0-2.59,2.23l-.67,3.41h-.86l1.79-9h.86l-.72,3.57a3.12,3.12,0,0,1,2.44-1A2,2,0,0,1,689,615.84Z"/><path class="cls-2" d="M697.09,613.81l-4.65,7.2c-.79,1.21-1.38,1.58-2.3,1.58a2.07,2.07,0,0,1-1.51-.57l.46-.63a1.47,1.47,0,0,0,1.12.46c.55,0,1-.25,1.47-1l.45-.67-1.59-6.34h.87l1.32,5.43,3.47-5.43Z"/><path class="cls-3" d="M150.43,90.49s-3.76,5.51-4,7.77-7.26,20.29-9.52,24-29.55,31.57-29.55,31.57l-2.76,15.61H65.76l9.77-19.62s-2-29.51-.75-36.05,5.51-24.36,8.77-27.72,9.27,0,9.27,0,2.25-5.62,7.26-4.87,5.26,3.51,5.26,3.51,2.76-3.65,6.26-3.58,6.27,4.94,6.27,4.94l7-9a13.7,13.7,0,0,1,4.94-4h0a13.7,13.7,0,0,1,5.94-1.35h10.9s1.26,5.26-3,7-8.77,3.5-8.77,3.5l-5.51,13s-2.25,8.57,3,11.67c0,0,7.51-17.93,10.27-19.69S151.43,85.23,150.43,90.49Z"/><path class="cls-3" d="M161.62,109.85c-.13-.52-3.78-7.42-3.78-7.42l3.78-.65-10.54-5.2-.54,10.28,2.49-2.47,3.64,7.8Z"/><path class="cls-3" d="M130.44,52.68c.13.52,3.77,7.42,3.77,7.42l-3.77.65L141,66l.53-10.27L139,58.15l-3.65-7.81Z"/><path class="cls-3" d="M178.71,192.59s.54-.06,1.58-.13c.52,0,1.15-.18,1.92-.29a20.68,20.68,0,0,0,2.56-.77,17.48,17.48,0,0,0,11-12.9,29.92,29.92,0,0,0,.34-6.08c0-2.16,0-4.41,0-6.77q0-7.08,0-15.35c0-11,0-23.56-.07-37.42s0-29-.05-45.35q0-6.11,0-12.43c0-2.1,0-4.24,0-6.35a17.19,17.19,0,0,0-16.66-16.53c-2.24,0-4.53,0-6.82,0l-119.26,0A17.18,17.18,0,0,0,36.45,45.46c-.63,2.45-.45,5-.48,7.61V83.5c0,20,0,39.2,0,57.53q0,13.75,0,26.79v6.46a18.89,18.89,0,0,0,.89,6.15,17.19,17.19,0,0,0,7.45,9.31,17.67,17.67,0,0,0,5.5,2.16,29.45,29.45,0,0,0,5.87.34H67.2l21.76,0,65.67.14,17.86.08,4.64,0c1,0,1.58.05,1.58.05s-.54,0-1.58,0l-4.64,0-17.86.08L89,192.89l-21.76,0H55.63a30.62,30.62,0,0,1-6-.34,18.53,18.53,0,0,1-5.73-2.24,17.9,17.9,0,0,1-7.78-9.68,19.72,19.72,0,0,1-.94-6.39c0-2.14,0-4.29,0-6.46q0-13,0-26.79c0-18.33,0-37.58,0-57.53q0-15,0-30.43c0-2.54-.16-5.2.5-7.81A18,18,0,0,1,53.18,31.37l119.26,0c2.3,0,4.56,0,6.84,0a17.9,17.9,0,0,1,17.39,17.29c.07,2.16,0,4.27,0,6.38q0,6.32,0,12.43c0,16.3,0,31.49-.06,45.35s0,26.4-.06,37.42q0,8.26,0,15.35c0,2.36,0,4.61,0,6.77a30.6,30.6,0,0,1-.39,6.14,18.16,18.16,0,0,1-4.91,9,17.93,17.93,0,0,1-6.39,4,19,19,0,0,1-2.6.74c-.77.1-1.41.22-1.94.25C179.25,192.59,178.71,192.59,178.71,192.59Z"/><path class="cls-5" d="M660.27,19.64a23.74,23.74,0,0,1,4.34-4.55l-1.13-5.73,8.83-3.91,3.48,4.67a24.12,24.12,0,0,1,6.3-.15l3.25-4.85,9,3.47-.84,5.77a23.84,23.84,0,0,1,4.56,4.35l5.72-1.13,3.92,8.82L703,29.89a23.61,23.61,0,0,1,.16,6.29L708,39.43l-3.47,9-5.77-.85a23.51,23.51,0,0,1-4.34,4.56l1.13,5.73-8.83,3.91-3.48-4.68a23.69,23.69,0,0,1-6.3.16l-3.24,4.85-9-3.48.84-5.77A23.49,23.49,0,0,1,661,48.53l-5.72,1.13-3.92-8.82L656,37.35a23.61,23.61,0,0,1-.16-6.29L651,27.81l3.47-9,5.77.84ZM670,29.48a10.36,10.36,0,1,0,13.39-5.93A10.35,10.35,0,0,0,670,29.48Z"/><path class="cls-2" d="M670,29.48a7.8,7.8,0,0,1,1.12-2.31,10.44,10.44,0,0,1,10.46-4.38,10.58,10.58,0,0,1,5,2.4,10,10,0,0,1,2,2.32,9.81,9.81,0,0,1,1.3,2.91,10.56,10.56,0,0,1-4.53,11.75,10.2,10.2,0,0,1-2.91,1.29,9.94,9.94,0,0,1-3,.37,10.59,10.59,0,0,1-5.36-1.61,10.42,10.42,0,0,1-3.41-3.47,10.31,10.31,0,0,1-1.4-6.8,8,8,0,0,1,.72-2.47c.07,0-.31.87-.49,2.49a10.31,10.31,0,0,0,1.52,6.56,10.11,10.11,0,0,0,8.43,4.75,9.44,9.44,0,0,0,2.87-.37,9.73,9.73,0,0,0,2.76-1.23,10.05,10.05,0,0,0,4.28-11.11,9.52,9.52,0,0,0-1.22-2.76,9.09,9.09,0,0,0-1.88-2.2,10.11,10.11,0,0,0-4.78-2.34,10,10,0,0,0-4.65.21,10.22,10.22,0,0,0-5.53,3.83C670.37,28.63,670.09,29.52,670,29.48Z"/><path class="cls-2" d="M660.27,19.64a1.66,1.66,0,0,1-.36,0l-1.1-.13-4.32-.59.1-.06-3.42,9-.06-.18L656,30.91l.09.06v.11a23.55,23.55,0,0,0,.17,6.24l0,.11-.09.08L651.48,41l.06-.26q1.86,4.17,3.94,8.82l-.26-.14,5.72-1.14.15,0,.09.12a23.47,23.47,0,0,0,4.52,4.28l.13.1,0,.15c-.25,1.79-.54,3.76-.83,5.77l-.17-.28,9,3.46-.33.1,3.24-4.85.09-.14.17,0a23.77,23.77,0,0,0,6.22-.16l.17,0,.11.14L687,61.62l-.36-.09,8.83-3.92-.17.33c-.36-1.81-.74-3.76-1.13-5.73l0-.18.14-.11a23.31,23.31,0,0,0,4.29-4.5h0l.28-.12h.09l.09,0,.18,0,.36.06.73.1,1.45.21,2.87.42-.32.19q1.77-4.56,3.48-9l.11.35c-1.63-1.09-3.25-2.17-4.84-3.25l-.15-.1,0-.17a23.51,23.51,0,0,0-.15-6.22l0-.17.14-.1,4.68-3.49-.09.35q-2-4.53-3.91-8.83l.31.15L698.11,19,698,19l-.1-.13a23.43,23.43,0,0,0-4.5-4.3l-.13-.09,0-.15q.43-3,.85-5.77l.15.26-9-3.49.27-.08c-1.14,1.7-2.22,3.29-3.26,4.83l-.07.11h-.13a23.37,23.37,0,0,0-6.23.14l-.12,0-.07-.1-3.47-4.69.21.06-8.84,3.87.07-.15,1.1,5.74v0l-.05,0a24.22,24.22,0,0,0-3.4,3.28l-.75.91c-.16.21-.24.3-.25.29s.07-.12.21-.32.38-.53.71-.94A23.49,23.49,0,0,1,664.55,15l0,.09c-.32-1.56-.7-3.43-1.17-5.71l0-.11.1,0,8.81-4,.12,0,.09.11L676,10l-.19-.08a24.2,24.2,0,0,1,6.35-.18l-.2.1L685.15,5l.1-.15.17.07,9,3.45.19.07,0,.2q-.4,2.8-.83,5.77l-.11-.24a23.87,23.87,0,0,1,4.62,4.38l-.26-.1,5.72-1.13.22,0,.08.2q1.92,4.29,3.93,8.82l.09.2-.18.14-4.68,3.49.11-.28a23.79,23.79,0,0,1,.17,6.37l-.13-.27,4.85,3.24.19.13-.08.22-3.47,9-.09.23-.23,0-2.88-.42-1.45-.21-.72-.11-.37-.05-.18,0h-.17l.28-.12h0a23.6,23.6,0,0,1-4.4,4.61l.11-.28c.39,2,.77,3.91,1.13,5.72l0,.23-.21.1-8.83,3.91-.21.09-.14-.18L683,57.28l.27.12a24,24,0,0,1-6.37.15l.27-.12L674,62.27l-.13.18-.2-.08-9-3.48-.2-.08,0-.2c.3-2,.59-4,.86-5.77l.1.24a23.89,23.89,0,0,1-4.6-4.4l.24.09-5.73,1.12-.18,0-.08-.17-3.89-8.84-.07-.15.14-.1,4.68-3.48-.07.19A23.83,23.83,0,0,1,655.7,31l.08.16-4.84-3.27-.1-.06,0-.12c1.43-3.66,2.62-6.68,3.52-9l0-.07h.07l4.28.67,1.1.19Z"/><path class="cls-5" d="M824.07,339.32a14.47,14.47,0,0,1,2.61-2.74l-.68-3.45,5.31-2.35,2.1,2.81a14.46,14.46,0,0,1,3.78-.09l2-2.92,5.41,2.09-.5,3.47a15.09,15.09,0,0,1,2.74,2.61l3.44-.67,2.35,5.3-2.81,2.1a14.05,14.05,0,0,1,.09,3.78l2.92,2-2.09,5.41-3.47-.5a14.44,14.44,0,0,1-2.61,2.74l.68,3.44L840,364.66l-2.1-2.81a14.45,14.45,0,0,1-3.78.1l-2,2.91-5.42-2.09.51-3.47a13.87,13.87,0,0,1-2.74-2.61l-3.45.68-2.35-5.31,2.81-2.09a14.54,14.54,0,0,1-.09-3.79l-2.92-1.95,2.09-5.42,3.47.51Zm5.86,5.92a6.23,6.23,0,1,0,8.06-3.58A6.24,6.24,0,0,0,829.93,345.24Z"/><path class="cls-2" d="M829.93,345.24a4.94,4.94,0,0,1,.68-1.39,6.28,6.28,0,0,1,6.29-2.64,6.43,6.43,0,0,1,3,1.45,6,6,0,0,1,1.2,1.39,6.15,6.15,0,0,1,.78,1.75,6.37,6.37,0,0,1-2.72,7.06,6.35,6.35,0,0,1-3.58,1,6.32,6.32,0,0,1-3.22-1,6.4,6.4,0,0,1-2.06-2.09,6.19,6.19,0,0,1-.84-4.09,5,5,0,0,1,.43-1.48c.05,0-.18.52-.29,1.49a6.16,6.16,0,0,0,.92,3.94,6.08,6.08,0,0,0,5.07,2.86,5.69,5.69,0,0,0,1.72-.22,5.6,5.6,0,0,0,1.66-.74,6,6,0,0,0,2.57-6.68,5.38,5.38,0,0,0-.73-1.66,5.16,5.16,0,0,0-1.13-1.32,6.07,6.07,0,0,0-5.67-1.29,6.2,6.2,0,0,0-3.33,2.31C830.15,344.72,830,345.26,829.93,345.24Z"/><path class="cls-2" d="M824.07,339.32l-.21,0-.66-.08-2.61-.35.07,0-2.06,5.43,0-.11c.88.59,1.86,1.25,2.92,1.94l0,0v.06a14.52,14.52,0,0,0,.11,3.76V350l-.06,0-2.8,2.1,0-.15,2.36,5.3-.15-.08,3.44-.69h.09l0,.07a14,14,0,0,0,2.72,2.58l.07.05v.09c-.16,1.08-.33,2.27-.5,3.47l-.1-.17,5.42,2.08-.2.07,2-2.92.06-.08h.1a14.33,14.33,0,0,0,3.74-.1l.1,0,.06.09,2.1,2.81-.21-.06,5.31-2.35-.11.19c-.21-1.08-.44-2.26-.68-3.44l0-.1.09-.07a14.16,14.16,0,0,0,2.57-2.71h0l.18-.07h.1l.11,0,.22,0,.44.07.87.12,1.73.26-.2.11q1.07-2.74,2.09-5.42l.07.21-2.91-1.95-.09-.06v-.11a14.1,14.1,0,0,0-.09-3.73l0-.11.09-.06,2.81-2.09,0,.2c-.8-1.81-1.59-3.58-2.35-5.31l.18.1-3.44.67-.1,0-.06-.08a14.35,14.35,0,0,0-2.71-2.58l-.07-.06v-.09c.18-1.19.35-2.34.52-3.47l.09.16-5.41-2.1.16,0-2,2.91,0,.06h-.07a14.11,14.11,0,0,0-3.75.08h-.07l-.05-.06c-.75-1-1.44-1.94-2.08-2.82l.12,0L826,333.21l0-.09c.27,1.38.48,2.51.66,3.45v0l0,0a14.67,14.67,0,0,0-2.05,2l-.45.54a1,1,0,0,1-.15.18l.13-.2c.09-.13.23-.32.43-.56a13.32,13.32,0,0,1,2-2l0,.06-.7-3.44,0-.06.06,0,5.3-2.38.07,0,.06.07,2.1,2.8-.11,0a14.59,14.59,0,0,1,3.82-.11l-.12.06c.61-.93,1.26-1.89,1.94-2.92l.06-.09.1,0,5.43,2.07.11.05,0,.11c-.16,1.13-.33,2.29-.5,3.48l-.06-.15a14.63,14.63,0,0,1,2.77,2.63l-.15,0,3.44-.69.13,0,0,.12,2.36,5.3,0,.13-.1.08-2.82,2.1.07-.17a14.42,14.42,0,0,1,.1,3.83l-.08-.16,2.92,1.95.11.08,0,.13-2.08,5.42,0,.13-.15,0-1.73-.25-.87-.13-.43-.06-.22,0h-.22l.17-.07h0a14.59,14.59,0,0,1-2.64,2.78l.06-.18c.24,1.18.47,2.36.68,3.45l0,.14-.13.05-5.31,2.35-.13.06-.08-.11c-.72-1-1.44-1.93-2.09-2.82l.16.07a14.14,14.14,0,0,1-3.83.09l.16-.07-2,2.91-.08.11-.12-.05-5.42-2.09-.12-.05,0-.12c.18-1.21.36-2.4.51-3.47l.07.14a14,14,0,0,1-2.77-2.64l.14.05-3.44.68-.11,0-.05-.1-2.34-5.32,0-.09.08-.06,2.82-2.09,0,.11a14.43,14.43,0,0,1-.09-3.81l0,.1-2.91-2-.06,0,0-.06c.86-2.21,1.58-4,2.12-5.41l0,0h0l2.57.4.66.11Z"/><path class="cls-6" d="M608.94,47.11a19.29,19.29,0,0,1,3.6-3.78l-.94-4.75,7.32-3.25,2.89,3.88a19.8,19.8,0,0,1,5.22-.13l2.7-4,7.47,2.88-.7,4.79a19.3,19.3,0,0,1,3.78,3.6l4.75-.94,3.25,7.32-3.88,2.9a19.79,19.79,0,0,1,.13,5.22l4,2.69L645.67,71l-4.79-.7a19.58,19.58,0,0,1-3.6,3.78l.94,4.75-7.32,3.25L628,78.19a19.37,19.37,0,0,1-5.22.14l-2.69,4-7.48-2.88.7-4.78a19.63,19.63,0,0,1-3.78-3.61l-4.75.94-3.25-7.32,3.89-2.89a19,19,0,0,1-.13-5.22l-4-2.7,2.88-7.47,4.79.7ZM617,55.27a8.59,8.59,0,1,0,11.11-4.93A8.6,8.6,0,0,0,617,55.27Z"/><path class="cls-6" d="M640.48,91.73a30.9,30.9,0,0,1,5.65-5.93l-1.47-7.45,11.48-5.09,4.54,6.09a30.71,30.71,0,0,1,8.19-.21l4.22-6.31,11.72,4.52-1.09,7.51a31.19,31.19,0,0,1,5.93,5.65L697.09,89l5.1,11.48-6.09,4.54a30.23,30.23,0,0,1,.2,8.18l6.31,4.23-4.52,11.72-7.51-1.1a30.56,30.56,0,0,1-5.64,5.93l1.46,7.45-11.48,5.1-4.53-6.09a30.71,30.71,0,0,1-8.19.2L658,147l-11.72-4.52,1.1-7.51a30.6,30.6,0,0,1-5.93-5.65L634,130.78l-5.09-11.48,6.09-4.53a30.71,30.71,0,0,1-.21-8.19l-6.3-4.23L633,90.63l7.51,1.1Zm12.69,12.8a13.47,13.47,0,1,0,17.41-7.72A13.47,13.47,0,0,0,653.17,104.53Z"/><path class="cls-6" d="M805.84,381.17a20.78,20.78,0,0,1,3.82-4l-1-5.05,7.78-3.45,3.07,4.13a20.6,20.6,0,0,1,5.55-.14l2.86-4.27,7.94,3.06-.74,5.08a20.55,20.55,0,0,1,4,3.83l5-1,3.45,7.78-4.12,3.07a21,21,0,0,1,.14,5.55l4.27,2.86-3.06,7.94-5.09-.75a20.31,20.31,0,0,1-3.83,4l1,5.05-7.78,3.45-3.07-4.13a20.59,20.59,0,0,1-5.55.14l-2.86,4.27-7.94-3.06.75-5.08a20.9,20.9,0,0,1-4-3.83l-5.05,1L798,399.85l4.13-3.07a21,21,0,0,1-.14-5.55l-4.27-2.86,3.06-7.94,5.09.74Zm8.59,8.68a9.12,9.12,0,1,0,11.79-5.24A9.11,9.11,0,0,0,814.43,389.85Z"/><path class="cls-7" d="M871.74,688.68c0,.24-168.2.43-375.64.43s-375.67-.19-375.67-.43,168.16-.43,375.67-.43S871.74,688.44,871.74,688.68Z"/><path class="cls-8" d="M904.91,644.08c-12.56-7.28-19.28-24.22-19.78-38.08s5.27-28.32,16.64-36.27c12-8.37,29-8.22,41.33-.34s19.51,22.75,18.95,37.35-8.51,28.54-20.28,37.2"/><path class="cls-9" d="M925,645.42a16.49,16.49,0,0,1-.23-3.17c-.07-2.27-.15-5.17-.25-8.65-.18-7.3-.47-17.38-1-28.5s-1.09-21.2-1.54-28.49c-.21-3.47-.38-6.37-.52-8.63a15.84,15.84,0,0,1,0-3.18,17,17,0,0,1,.5,3.14c.25,2,.55,5,.89,8.61.66,7.28,1.4,17.35,1.89,28.5s.64,21.23.62,28.54c0,3.66-.06,6.61-.13,8.66A16.49,16.49,0,0,1,925,645.42Z"/><path class="cls-7" d="M888.85,602.86c0,.33-2,.43-4.47.23s-4.41-.63-4.38-1,2-.43,4.47-.23S888.87,602.54,888.85,602.86Z"/><path class="cls-7" d="M889.53,590.43c-.13.29-1.86-.18-3.85-1.07s-3.52-1.85-3.39-2.14,1.86.18,3.86,1.06S889.67,590.13,889.53,590.43Z"/><path class="cls-7" d="M895.93,581.19c-.16.27-2.11-.64-4.13-2.32s-3.28-3.4-3-3.62,1.85,1.1,3.8,2.72S896.11,580.91,895.93,581.19Z"/><path class="cls-7" d="M902.37,572.49c-.3.13-1.23-1.33-2.08-3.25s-1.3-3.6-1-3.73,1.23,1.33,2.08,3.25S902.67,572.35,902.37,572.49Z"/><path class="cls-7" d="M912.47,566.31c-.29.13-1.3-1.42-2-3.56s-.72-4-.41-4,.89,1.62,1.53,3.69S912.77,566.17,912.47,566.31Z"/><path class="cls-7" d="M929.31,559.34c.31.11.12,1.43-.41,2.95s-1.22,2.67-1.53,2.56-.12-1.43.42-3S929,559.23,929.31,559.34Z"/><path class="cls-7" d="M941.81,564.7c.22.24-.58,1.34-1.79,2.46s-2.37,1.83-2.59,1.59.58-1.33,1.79-2.45S941.59,564.46,941.81,564.7Z"/><path class="cls-7" d="M952.81,571.81c.19.26-.79,1.25-2.18,2.19s-2.66,1.48-2.84,1.21S948.58,574,950,573,952.63,571.54,952.81,571.81Z"/><path class="cls-7" d="M960.63,582.4c.12.3-1.42,1.24-3.44,2.11s-3.78,1.32-3.91,1,1.42-1.24,3.44-2.1S960.5,582.1,960.63,582.4Z"/><path class="cls-7" d="M963.7,594c0,.33-1.53.79-3.5,1s-3.6.18-3.64-.14,1.52-.78,3.5-1S963.66,593.63,963.7,594Z"/><path class="cls-7" d="M965.3,608.18c-.13.29-1.8-.15-3.73-1s-3.39-1.77-3.26-2.06,1.8.14,3.73,1S965.43,607.88,965.3,608.18Z"/><path class="cls-7" d="M963.89,620.38c-.1.3-2.21-.21-4.42-1.66s-3.52-3.17-3.29-3.38,1.84,1,3.94,2.4S964,620.07,963.89,620.38Z"/><path class="cls-7" d="M957.54,631.49c-.19.25-1.87-.74-3.49-2.48s-2.48-3.48-2.21-3.66,1.52,1.2,3.07,2.86S957.75,631.23,957.54,631.49Z"/><path class="cls-7" d="M897.2,632.79c.15.29-1.61,1.51-3.94,2.72s-4.33,2-4.48,1.67,1.61-1.5,3.94-2.71S897.05,632.51,897.2,632.79Z"/><path class="cls-7" d="M891.69,622.74c.14.3-1.28,1.23-3.16,2.08s-3.51,1.31-3.64,1,1.28-1.23,3.16-2.08S891.56,622.45,891.69,622.74Z"/><path class="cls-7" d="M887.64,613.84c.05.33-1.69.84-3.89,1.15s-4,.3-4,0,1.69-.83,3.89-1.14S887.6,613.52,887.64,613.84Z"/><path class="cls-7" d="M900.93,608.94c.1.3-1.6,1.1-3.87,1.35s-4.1-.14-4.07-.45,1.79-.47,3.94-.72S900.84,608.62,900.93,608.94Z"/><path class="cls-7" d="M912,598c.1.31-1.26,1-3.08,1.17s-3.29-.23-3.25-.54,1.44-.46,3.13-.63S911.87,597.64,912,598Z"/><path class="cls-7" d="M914.08,589.16c-.11.3-1.57.08-3.27-.51s-3-1.31-2.89-1.62,1.57-.08,3.27.51S914.18,588.85,914.08,589.16Z"/><path class="cls-7" d="M918.13,580.26c-.23.22-1.24-.44-2-1.69s-.79-2.45-.49-2.53.86.84,1.51,1.94S918.36,580,918.13,580.26Z"/><path class="cls-7" d="M913.25,616.69c.07.31-1.19.89-2.83,1.3a11.13,11.13,0,0,1-2.38.35l-.24-.69c.43-.08.7-.06.76.07s-.12.34-.46.6l-.24-.69a11.11,11.11,0,0,1,2.28-.79C911.78,616.44,913.17,616.37,913.25,616.69Z"/><path class="cls-7" d="M915.52,632.29c.12.3-1.5,1.22-3.61,2.05s-3.92,1.26-4,.95,1.5-1.22,3.61-2S915.4,632,915.52,632.29Z"/><path class="cls-7" d="M903.05,625.36c.11.31-1,.95-2.41,1.44s-2.68.63-2.78.33,1-1,2.4-1.45S903,625.05,903.05,625.36Z"/><path class="cls-7" d="M904,593.6c-.07.32-2,.13-4.12-.64s-3.74-1.8-3.6-2.09,1.89.24,4,1S904.08,593.28,904,593.6Z"/><path class="cls-7" d="M934.18,590.15c.18.27-.88,1.29-2.36,2.26s-2.83,1.55-3,1.28.88-1.28,2.36-2.26S934,589.88,934.18,590.15Z"/><path class="cls-7" d="M935.82,605.82c.07.32-1,.82-2.48,1.11s-2.65.29-2.72,0,1-.82,2.48-1.12S935.76,605.5,935.82,605.82Z"/><path class="cls-7" d="M937.73,623.43c-.14.3-1.74-.15-3.57-1s-3.22-1.78-3.08-2.08,1.73.16,3.57,1S937.87,623.14,937.73,623.43Z"/><path class="cls-7" d="M933.69,640.58c-.25.21-1.29-.64-2.32-1.89s-1.66-2.44-1.41-2.65,1.29.64,2.32,1.9S933.94,640.38,933.69,640.58Z"/><path class="cls-7" d="M932.87,578.62c.2.25-.49,1.11-1.67,1.7s-2.27.63-2.36.32.78-.84,1.84-1.37S932.67,578.36,932.87,578.62Z"/><path class="cls-7" d="M947.66,594.42c.1.3-1.26,1.05-3.14,1.31s-3.39-.09-3.37-.41,1.47-.51,3.21-.76S947.55,594.1,947.66,594.42Z"/><path class="cls-7" d="M944.71,580.23c.14.29-1.22,1.26-3.15,1.87s-3.6.62-3.64.31,1.45-.84,3.28-1.43S944.56,579.94,944.71,580.23Z"/><path class="cls-7" d="M950.88,616.39c0,.31-2.32.52-5.13,0s-4.9-1.51-4.8-1.8,2.31.16,5,.65S950.89,616.05,950.88,616.39Z"/><path class="cls-7" d="M945.39,637c-.2.25-1.91-.76-3.61-2.47s-2.71-3.43-2.46-3.63,1.64,1.14,3.29,2.8S945.59,636.73,945.39,637Z"/><path class="cls-9" d="M921.23,563.47c.17.25-4.7,2.22-10.32,8.15s-11.42,16-12.85,28.4a64,64,0,0,0,.78,17.4,131.3,131.3,0,0,0,3.26,14c1.13,3.93,2.16,7.08,2.86,9.26a21.74,21.74,0,0,1,1,3.43,19.49,19.49,0,0,1-1.42-3.27c-.83-2.14-2-5.26-3.23-9.18a118.27,118.27,0,0,1-3.53-14,62.53,62.53,0,0,1-.88-17.73c1.46-12.65,7.53-23.07,13.42-28.84a36.72,36.72,0,0,1,7.7-6,23.57,23.57,0,0,1,2.35-1.23C920.91,563.55,921.21,563.43,921.23,563.47Z"/><path class="cls-9" d="M937.27,644.84c-.25-.13,2.65-4.6,5.29-12.64a71.52,71.52,0,0,0,3.16-32.5,61.08,61.08,0,0,0-5-17.32,40.78,40.78,0,0,0-8.54-11.9,30.92,30.92,0,0,0-8.37-5.29c-2.18-.91-3.48-1.12-3.47-1.22a2.86,2.86,0,0,1,1,.07,16.87,16.87,0,0,1,2.66.72,29,29,0,0,1,8.76,5.09,40.29,40.29,0,0,1,9,12.06,60.15,60.15,0,0,1,5.2,17.63,69.24,69.24,0,0,1-3.54,32.93c-.67,2-1.52,3.77-2.16,5.34s-1.38,2.84-2,3.88A21.56,21.56,0,0,1,937.27,644.84Z"/><polygon class="cls-7" points="891.69 642.05 956.56 642.05 956.95 655.03 891.69 655.03 891.69 642.05"/><polygon class="cls-7" points="897.21 648.54 900.93 688.17 948.35 688.17 952.16 648.98 897.21 648.54"/><path class="cls-10" d="M957,655.19c0,.33-14.6.59-32.62.59s-32.62-.26-32.62-.59,14.6-.59,32.62-.59S957,654.87,957,655.19Z"/><path class="cls-10" d="M950.36,667.26a9.35,9.35,0,0,1-1.39,2.48,35.23,35.23,0,0,1-5,5.94l-.3.28-.29-.3a92.51,92.51,0,0,0-12.71-11.13l.72,0-5.64,4.94-6.66,5.8-.37.33-.37-.32-10.83-9.1.63-.07c-2.24,2.73-4.12,5-5.6,6.84a16.43,16.43,0,0,1-2.2,2.41,15.84,15.84,0,0,1,1.81-2.72l5.29-7.08.27-.36.36.3,11,8.91h-.74l6.64-5.83,5.65-4.93.35-.3.37.27A82.83,82.83,0,0,1,944,675.09l-.6,0C948.19,670.7,950.18,667.12,950.36,667.26Z"/><path class="cls-4" d="M519.75,211.65h-5.41a4,4,0,0,0-1.63.18,2.59,2.59,0,0,0-1.29,1.14,2.9,2.9,0,0,0-.3.87,5.07,5.07,0,0,0,0,1v1a4.52,4.52,0,0,1-.06,1,2.78,2.78,0,0,1-1.21,1.74,2.65,2.65,0,0,1-1.06.38c-.39,0-.76,0-1.15,0H488a2.59,2.59,0,0,1-.78-.08,2.55,2.55,0,0,1-1.35-.83,2.78,2.78,0,0,1-.66-1.47,5.49,5.49,0,0,1,0-.81V215a4.26,4.26,0,0,0-.16-1.6,2.6,2.6,0,0,0-1-1.27,2.55,2.55,0,0,0-1.55-.43H470a8.29,8.29,0,0,0-6.67,3,8.46,8.46,0,0,0-1.71,3.46c-.08.32-.11.65-.17,1s0,.56,0,.83V353.38a8.63,8.63,0,0,0,.33,2.63,8.31,8.31,0,0,0,3.21,4.43,8.53,8.53,0,0,0,5.3,1.46H487l21.79,0h10.62c1.75,0,3.5,0,5.23,0a8.22,8.22,0,0,0,4.68-1.81,9.14,9.14,0,0,0,1.69-1.88,8,8,0,0,0,1-2.29,8.61,8.61,0,0,0,.31-2.48v-2.53c0-3.36,0-6.69,0-10,0-26.26,0-49.91,0-69.77s0-35.94,0-47.05c0-1.39,0-2.7,0-3.93a8.42,8.42,0,0,0-.61-3.36,8.29,8.29,0,0,0-1.56-2.47,7.9,7.9,0,0,0-1.89-1.54,7.76,7.76,0,0,0-3.1-1.1,7.2,7.2,0,0,0-.85-.08l-.28,0h-4.46Z"/><path class="cls-4" d="M382.75,19.64h-5.41a4.33,4.33,0,0,0-1.63.18A2.57,2.57,0,0,0,374.42,21a2.84,2.84,0,0,0-.3.86,5.07,5.07,0,0,0,0,1v1a4.46,4.46,0,0,1-.06,1,2.76,2.76,0,0,1-1.21,1.75,2.63,2.63,0,0,1-1.06.37c-.39,0-.76,0-1.15,0H351a3,3,0,0,1-.78-.07,2.57,2.57,0,0,1-1.35-.84,2.72,2.72,0,0,1-.66-1.47,5.49,5.49,0,0,1,0-.81V23a4.3,4.3,0,0,0-.16-1.6,2.62,2.62,0,0,0-1-1.26,2.48,2.48,0,0,0-1.55-.43H333a8.49,8.49,0,0,0-3.64.69,8.18,8.18,0,0,0-4.74,5.73c-.08.31-.11.64-.17,1s0,.55,0,.83V161.36a8.63,8.63,0,0,0,.33,2.63,8.3,8.3,0,0,0,3.21,4.44,8.66,8.66,0,0,0,5.3,1.46h49.19c1.75,0,3.5,0,5.23,0a8.24,8.24,0,0,0,4.68-1.82,8.38,8.38,0,0,0,1.69-1.88,7.83,7.83,0,0,0,1-2.28,8.72,8.72,0,0,0,.31-2.49V158.9q0-5,0-10c0-26.26,0-49.92,0-69.78s0-35.93,0-47c0-1.39,0-2.7,0-3.93a8.36,8.36,0,0,0-2.17-5.84,8.4,8.4,0,0,0-5-2.64,6.74,6.74,0,0,0-.85-.07l-.28,0h-4.46Z"/><path class="cls-4" d="M382.06,211.82h-5.41A4.07,4.07,0,0,0,375,212a2.55,2.55,0,0,0-1.29,1.14,2.64,2.64,0,0,0-.3.87,5.07,5.07,0,0,0,0,1v1a5.2,5.2,0,0,1-.07,1,2.68,2.68,0,0,1-1.21,1.74,2.6,2.6,0,0,1-1.06.38c-.38,0-.76,0-1.14,0H350.3a3,3,0,0,1-.79-.07,2.63,2.63,0,0,1-1.35-.84,2.78,2.78,0,0,1-.65-1.47,5.49,5.49,0,0,1,0-.81v-.81a4.26,4.26,0,0,0-.17-1.6,2.62,2.62,0,0,0-1-1.27,2.58,2.58,0,0,0-1.56-.43H332.31a8.28,8.28,0,0,0-8.38,6.42c-.08.32-.1.65-.16,1s0,.55,0,.83V353.55a9,9,0,0,0,.33,2.63,8.35,8.35,0,0,0,3.22,4.44,8.54,8.54,0,0,0,5.29,1.45h16.78l21.79,0h10.62c1.75,0,3.51,0,5.23,0a8.18,8.18,0,0,0,4.69-1.81,8.89,8.89,0,0,0,1.69-1.88,8.32,8.32,0,0,0,1-2.29,8.61,8.61,0,0,0,.31-2.48v-12.5c0-26.26,0-49.91,0-69.77s0-35.94.05-47.05v-3.93a8.63,8.63,0,0,0-.6-3.36,8.24,8.24,0,0,0-1.57-2.47,8.07,8.07,0,0,0-1.88-1.54,8,8,0,0,0-3.11-1.1c-.37-.07-.65-.05-.84-.08l-.29,0h-4.46Z"/><rect class="cls-3" x="335.41" y="268.38" width="46.94" height="9.59"/><path class="cls-7" d="M386.68,211.75H387a5,5,0,0,1,.84.06,8.3,8.3,0,0,1,5,2.62,8.59,8.59,0,0,1,1.59,2.49,8.72,8.72,0,0,1,.62,3.39c0,1.23,0,2.54,0,3.93,0,11.11,0,27.18,0,47s0,43.52,0,69.78v12.49a9.19,9.19,0,0,1-.32,2.55,8.31,8.31,0,0,1-1.07,2.35,9.07,9.07,0,0,1-1.73,1.93,8.55,8.55,0,0,1-4.82,1.87c-1.75.05-3.48,0-5.24,0H332.73a8.77,8.77,0,0,1-5.43-1.5,8.53,8.53,0,0,1-3.31-4.56,9.32,9.32,0,0,1-.34-2.82v-14c0-7.38,0-14.66,0-21.8,0-14.3,0-28.08,0-41.21s0-25.62,0-37.29q0-8.76,0-16.9v-2c0-.33,0-.67.05-1s.08-.67.17-1a8.54,8.54,0,0,1,1.75-3.54,8.72,8.72,0,0,1,3.09-2.31,8.87,8.87,0,0,1,3.71-.7H345a2.66,2.66,0,0,1,1.64.46,2.79,2.79,0,0,1,1,1.33,4.45,4.45,0,0,1,.17,1.65v.81a5.3,5.3,0,0,0,0,.8,2.56,2.56,0,0,0,.62,1.39,2.45,2.45,0,0,0,1.27.8,3.13,3.13,0,0,0,.75.07h3.78l11,0h4.84c.39,0,.78,0,1.14,0a2.39,2.39,0,0,0,1-.35,2.69,2.69,0,0,0,1.17-1.68,4.37,4.37,0,0,0,.06-1c0-.33,0-.67,0-1a5.32,5.32,0,0,1,0-1,2.77,2.77,0,0,1,.31-.89,2.69,2.69,0,0,1,1.34-1.18,4.27,4.27,0,0,1,1.65-.17h8.74l1.13,0h-9.87a4.13,4.13,0,0,0-1.63.17,2.7,2.7,0,0,0-1.59,2,7.47,7.47,0,0,0,0,1v1a4.46,4.46,0,0,1-.06,1,2.76,2.76,0,0,1-1.21,1.75,2.45,2.45,0,0,1-1.06.37c-.39,0-.76,0-1.15,0H350.45a3.5,3.5,0,0,1-.78-.08,2.62,2.62,0,0,1-1.35-.83,2.78,2.78,0,0,1-.66-1.47,7.54,7.54,0,0,1,0-.82c0-.27,0-.54,0-.81a4.11,4.11,0,0,0-.16-1.6,2.6,2.6,0,0,0-1-1.26,2.51,2.51,0,0,0-1.56-.43H332.47a8.64,8.64,0,0,0-3.64.69,8.48,8.48,0,0,0-3,2.27,8.3,8.3,0,0,0-1.72,3.46c-.08.31-.11.65-.16,1s-.05.66-.05,1v18.93c0,11.67,0,24.15,0,37.29v41.21c0,7.14,0,14.42,0,21.8v14a8.8,8.8,0,0,0,.34,2.75,8.3,8.3,0,0,0,3.21,4.44,8.6,8.6,0,0,0,5.3,1.46h49.19c1.75,0,3.51,0,5.23,0a8.17,8.17,0,0,0,4.68-1.82,8.62,8.62,0,0,0,1.7-1.87,8.26,8.26,0,0,0,1-2.29,8.73,8.73,0,0,0,.32-2.49V341.07c0-26.26,0-49.91,0-69.78s0-35.93.05-47v-3.93a8.36,8.36,0,0,0-2.17-5.84,8.33,8.33,0,0,0-5-2.63,5.53,5.53,0,0,0-.85-.08Z"/><path class="cls-7" d="M388.29,225.25s-1.38.08-3.08.09-3.07,0-3.07,0,1.37-.07,3.07-.09S388.29,225.22,388.29,225.25Z"/><path class="cls-7" d="M388.3,226.83s-1.37.07-3.07.09-3.08,0-3.08,0,1.38-.08,3.08-.09S388.3,226.79,388.3,226.83Z"/><path class="cls-7" d="M388.32,228.4s-1.38.08-3.08.09-3.08,0-3.08,0,1.38-.07,3.08-.09S388.32,228.37,388.32,228.4Z"/><path class="cls-7" d="M332.3,230.2h.48l1.32,0,0,0c0-.3,0-.61,0-1a5,5,0,0,1,0-.55.49.49,0,0,1,.44-.4,4.41,4.41,0,0,1,.63,0,.51.51,0,0,1,.43.5c0,.45,0,.91,0,1.39l-.06-.06h1.66l-.06.06c0-.67,0-1.36,0-2.07v-.52a.51.51,0,0,0-.23-.39c-.24-.25-.49-.48-.72-.72l-.7-.69-.34-.33a.8.8,0,0,0-.34-.26.45.45,0,0,0-.38.07c-.11.09-.21.21-.31.31s-.41.4-.6.6c-.37.39-.76.74-1.05,1.08a1.17,1.17,0,0,0-.08.62v.58c0,.36,0,.67,0,.94v.6c0,.14,0,.22,0,.22a1.57,1.57,0,0,1,0-.2l0-.59c0-.27,0-.59,0-.95,0-.19,0-.39,0-.6s0-.21,0-.32a.73.73,0,0,1,.09-.35c.31-.38.68-.71,1.05-1.11l.6-.6a3.22,3.22,0,0,1,.32-.32.54.54,0,0,1,.48-.09.8.8,0,0,1,.39.28l.34.33.71.69c.23.24.48.47.72.71.06.07.13.12.19.2a.6.6,0,0,1,.08.28c0,.18,0,.36,0,.53,0,.71,0,1.4,0,2.07v.06h-1.79v-1.45a.41.41,0,0,0-.34-.4h-.6a.4.4,0,0,0-.36.32c0,.17,0,.36,0,.53v1H332.3Z"/><rect class="cls-3" x="335.51" y="282.68" width="46.94" height="9.59"/><rect class="cls-3" x="335.51" y="296.59" width="46.94" height="9.59"/><path class="cls-11" d="M371.17,325.23H347.61a4.79,4.79,0,0,1-4.79-4.8h0a4.78,4.78,0,0,1,4.79-4.79h23.56a4.78,4.78,0,0,1,4.79,4.79h0A4.79,4.79,0,0,1,371.17,325.23Z"/><path class="cls-7" d="M374,258.47c0,.24-6.59.43-14.73.43s-14.72-.19-14.72-.43,6.59-.43,14.72-.43S374,258.23,374,258.47Z"/><path class="cls-12" d="M356.43,368.08a1.61,1.61,0,0,1,0,.48c0,.37,0,.84,0,1.43,0,1.31,0,3.15.08,5.48s0,5.3.07,8.67c0,1.68,0,3.52.07,5.39a8.42,8.42,0,0,0,2.43,5.2,8.34,8.34,0,0,0,5.79,2.42l7.23,0,16,0,36.6,0,36.61,0,16,0,7.23,0a8.33,8.33,0,0,0,8.22-7.63c.08-1.87,0-3.71.07-5.39,0-3.36.05-6.26.07-8.66s.06-4.17.08-5.48c0-.59,0-1.06.05-1.43a2.2,2.2,0,0,1,0-.48,1.78,1.78,0,0,1,0,.48c0,.37,0,.84,0,1.43,0,1.31.05,3.14.08,5.48s0,5.3.07,8.66c0,1.7.06,3.48,0,5.44a8.94,8.94,0,0,1-8.76,8.25l-7.24,0-16,0-36.61,0-36.6,0-16,0-7.24,0a8.94,8.94,0,0,1-8.76-8.25c-.06-2,0-3.73,0-5.43,0-3.37.05-6.27.07-8.67s.06-4.17.08-5.48c0-.59,0-1.06.05-1.43A2.2,2.2,0,0,1,356.43,368.08Z"/><path class="cls-12" d="M354.46,368.08a2,2,0,1,1,2,2A2,2,0,0,1,354.46,368.08Z"/><path class="cls-7" d="M524.27,211.75h.28a5,5,0,0,1,.85.06,7.89,7.89,0,0,1,3.12,1.08,8.18,8.18,0,0,1,1.91,1.54,8.59,8.59,0,0,1,1.59,2.49,8.72,8.72,0,0,1,.62,3.39v3.93c0,11.11,0,27.18,0,47s0,43.52,0,69.78v12.49a8.83,8.83,0,0,1-.32,2.55,8.57,8.57,0,0,1-1.06,2.35,9.11,9.11,0,0,1-1.74,1.93,8.49,8.49,0,0,1-4.81,1.87c-1.75.05-3.49,0-5.24,0H470.32a8.77,8.77,0,0,1-5.43-1.5,8.53,8.53,0,0,1-3.31-4.56,9.33,9.33,0,0,1-.35-2.82v-2.81c0-3.75,0-7.46,0-11.15v-21.8c0-14.3,0-28.08,0-41.21s0-25.62,0-37.29q0-8.76,0-16.9v-2c0-.33,0-.67,0-1s.09-.67.17-1a8.56,8.56,0,0,1,1.76-3.54,8.72,8.72,0,0,1,3.09-2.31,8.81,8.81,0,0,1,3.71-.7h12.48a2.66,2.66,0,0,1,1.64.46,2.79,2.79,0,0,1,1,1.33,4.67,4.67,0,0,1,.17,1.65v.81a7.06,7.06,0,0,0,0,.8,2.71,2.71,0,0,0,.62,1.39,2.52,2.52,0,0,0,1.28.8,3.08,3.08,0,0,0,.75.07h3.78l11,0h4.85c.38,0,.77,0,1.14,0a2.48,2.48,0,0,0,1-.35,2.73,2.73,0,0,0,1.17-1.68,5,5,0,0,0,.06-1v-1a6.37,6.37,0,0,1,.05-1,2.77,2.77,0,0,1,.31-.89,2.67,2.67,0,0,1,1.33-1.18,4.32,4.32,0,0,1,1.66-.17h8.73l1.14,0H514.4a4.13,4.13,0,0,0-1.63.17,2.63,2.63,0,0,0-1.59,2,5,5,0,0,0,0,1v1a4.47,4.47,0,0,1-.07,1,2.75,2.75,0,0,1-1.2,1.75,2.49,2.49,0,0,1-1.06.37c-.39,0-.76,0-1.15,0H488a3.44,3.44,0,0,1-.78-.08,2.62,2.62,0,0,1-1.35-.83,2.78,2.78,0,0,1-.66-1.47,5.67,5.67,0,0,1,0-.82v-.81a4.52,4.52,0,0,0-.16-1.6,2.62,2.62,0,0,0-1-1.26,2.48,2.48,0,0,0-1.55-.43H470.06a8.61,8.61,0,0,0-3.64.69,8.52,8.52,0,0,0-3,2.27,8.4,8.4,0,0,0-1.71,3.46c-.09.31-.11.65-.17,1s0,.66,0,1V353.37a8.8,8.8,0,0,0,.34,2.75,8.3,8.3,0,0,0,3.21,4.44,8.56,8.56,0,0,0,5.3,1.46h49.19c1.75,0,3.5,0,5.22,0a8.17,8.17,0,0,0,4.69-1.82,8.84,8.84,0,0,0,1.69-1.87,8.29,8.29,0,0,0,1-2.29,8.72,8.72,0,0,0,.31-2.49V351c0-3.37,0-6.69,0-10,0-26.26,0-49.91,0-69.78s0-35.93,0-47c0-1.39,0-2.7,0-3.93A8.56,8.56,0,0,0,532,217a8.17,8.17,0,0,0-1.57-2.48,8.24,8.24,0,0,0-5-2.63,5.32,5.32,0,0,0-.84-.08Z"/><path class="cls-7" d="M525.88,225.25s-1.38.08-3.08.09-3.08,0-3.08,0,1.38-.07,3.08-.09S525.88,225.22,525.88,225.25Z"/><path class="cls-7" d="M525.89,226.83s-1.38.07-3.08.09-3.08,0-3.08,0,1.38-.08,3.08-.09S525.89,226.79,525.89,226.83Z"/><path class="cls-7" d="M525.9,228.4s-1.37.08-3.07.09-3.08,0-3.08,0,1.38-.07,3.08-.09S525.9,228.37,525.9,228.4Z"/><path class="cls-7" d="M469.88,230.2h.49l1.31,0,0,0c0-.3,0-.61,0-1,0-.17,0-.34,0-.55a.51.51,0,0,1,.44-.4,4.42,4.42,0,0,1,.63,0,.49.49,0,0,1,.43.5c0,.45,0,.91,0,1.39l-.06-.06h1.66l-.07.06c0-.67,0-1.36,0-2.07v-.52a.54.54,0,0,0-.23-.39l-.73-.72-.7-.69-.34-.33a.7.7,0,0,0-.34-.26.47.47,0,0,0-.38.07c-.1.09-.21.21-.31.31l-.59.6c-.38.39-.77.74-1.05,1.08a1.17,1.17,0,0,0-.08.62v.58c0,.36,0,.67,0,.94s0,.44,0,.6a.77.77,0,0,1,0,.22s0-.07,0-.2,0-.36,0-.59,0-.59,0-.95c0-.19,0-.39,0-.6v-.32a.73.73,0,0,1,.09-.35c.31-.38.67-.71,1-1.11l.59-.6c.11-.11.19-.21.32-.32a.55.55,0,0,1,.48-.09.83.83,0,0,1,.4.28l.34.33.7.69.73.71a1.71,1.71,0,0,1,.18.2.51.51,0,0,1,.09.28c0,.18,0,.36,0,.53,0,.71,0,1.4,0,2.07v.06H473v-.06c0-.48,0-.94,0-1.39a.4.4,0,0,0-.33-.4h-.61a.4.4,0,0,0-.35.32,4.69,4.69,0,0,0,0,.53v1h-1.84Z"/><circle class="cls-11" cx="497.92" cy="261.28" r="13.92" transform="translate(160.45 711.06) rotate(-80.81)"/><path class="cls-9" d="M502.69,266.89h-9.55v-1.17a4.78,4.78,0,0,1,4.78-4.78h0a4.77,4.77,0,0,1,4.77,4.78Z"/><circle class="cls-9" cx="497.92" cy="258.47" r="2.81"/><rect class="cls-3" x="473.1" y="291.15" width="46.94" height="9.59"/><rect class="cls-3" x="473.1" y="305.06" width="46.94" height="9.59"/><path class="cls-11" d="M508.75,333.7H485.2a4.8,4.8,0,0,1-4.8-4.79h0a4.8,4.8,0,0,1,4.8-4.8h23.55a4.8,4.8,0,0,1,4.8,4.8h0A4.8,4.8,0,0,1,508.75,333.7Z"/><path class="cls-7" d="M511.69,285.37c0,.24-6.6.43-14.73.43s-14.73-.19-14.73-.43,6.59-.43,14.73-.43S511.69,285.13,511.69,285.37Z"/><path class="cls-2" d="M479.58,298.05h-2.07a.37.37,0,0,1-.37-.36h0a1.38,1.38,0,0,1,1.38-1.39h.05a1.38,1.38,0,0,1,1.38,1.39h0A.36.36,0,0,1,479.58,298.05Z"/><circle class="cls-2" cx="478.55" cy="295.58" r="0.83"/><rect class="cls-2" x="477.31" y="310.01" width="2.47" height="1.75"/><path class="cls-2" d="M480.06,310.38h-.83v-.54a.7.7,0,1,0-1.4,0v.54H477v-.54a1.53,1.53,0,0,1,3.06,0Z"/><path class="cls-7" d="M387.27,19.56h.28a6.34,6.34,0,0,1,.85.06,7.89,7.89,0,0,1,3.12,1.08,8,8,0,0,1,1.91,1.55A8.4,8.4,0,0,1,395,24.74a8.75,8.75,0,0,1,.62,3.39v3.93c0,11.11,0,27.18,0,47.05s0,43.51,0,69.77v12.5a8.64,8.64,0,0,1-1.38,4.89,9.11,9.11,0,0,1-1.74,1.93,8.42,8.42,0,0,1-4.81,1.87c-1.75.05-3.49,0-5.24,0H333.32a8.9,8.9,0,0,1-5.43-1.5,8.55,8.55,0,0,1-3.31-4.57,9.29,9.29,0,0,1-.35-2.82v-2.81c0-3.74,0-7.46,0-11.15v-21.8c0-14.29,0-28.08,0-41.21s0-25.61,0-37.29q0-8.76,0-16.9V28c0-.34,0-.68,0-1s.09-.67.17-1a8.46,8.46,0,0,1,1.76-3.53,8.6,8.6,0,0,1,3.09-2.31,8.82,8.82,0,0,1,3.71-.71h12.48a2.66,2.66,0,0,1,1.64.46,2.77,2.77,0,0,1,1,1.34,4.59,4.59,0,0,1,.17,1.64v.82a6.89,6.89,0,0,0,0,.79,2.75,2.75,0,0,0,.62,1.4,2.5,2.5,0,0,0,1.28.79,2.69,2.69,0,0,0,.75.07h19.62c.38,0,.77,0,1.14,0a2.65,2.65,0,0,0,1-.36A2.7,2.7,0,0,0,374,24.75a5,5,0,0,0,.06-1v-1a6.18,6.18,0,0,1,.05-1,2.75,2.75,0,0,1,.31-.9,2.6,2.6,0,0,1,1.33-1.17,4.14,4.14,0,0,1,1.66-.18h5.41l3.32,0H377.4a4,4,0,0,0-1.63.18,2.51,2.51,0,0,0-1.29,1.14,2.9,2.9,0,0,0-.3.87,5.07,5.07,0,0,0,0,1v1a5.23,5.23,0,0,1-.06,1,2.78,2.78,0,0,1-1.21,1.74,2.65,2.65,0,0,1-1.06.38c-.39,0-.76,0-1.15,0H351a3,3,0,0,1-.78-.08,2.62,2.62,0,0,1-1.35-.83,2.78,2.78,0,0,1-.66-1.47,5.59,5.59,0,0,1,0-.81V22.9a4.45,4.45,0,0,0-.16-1.59,2.6,2.6,0,0,0-1-1.27,2.48,2.48,0,0,0-1.55-.43H333.06a8.61,8.61,0,0,0-3.64.69,8.52,8.52,0,0,0-3,2.27A8.4,8.4,0,0,0,324.68,26c-.09.32-.11.65-.17,1s0,.66,0,1V161.18a8.8,8.8,0,0,0,.34,2.75,8.3,8.3,0,0,0,3.21,4.44,8.58,8.58,0,0,0,5.3,1.46h49.19c1.75,0,3.5,0,5.22,0a8.17,8.17,0,0,0,4.69-1.82,8.84,8.84,0,0,0,1.69-1.87,8.16,8.16,0,0,0,1-2.29,8.65,8.65,0,0,0,.31-2.48v-2.53c0-3.36,0-6.69,0-10,0-26.26,0-49.91,0-69.77s0-35.94,0-47c0-1.39,0-2.7,0-3.93a8.6,8.6,0,0,0-.61-3.36,8.29,8.29,0,0,0-1.57-2.48,8.12,8.12,0,0,0-1.88-1.54,7.86,7.86,0,0,0-3.11-1.09,5.32,5.32,0,0,0-.84-.08Z"/><path class="cls-7" d="M388.88,33.06s-1.38.08-3.08.09-3.08,0-3.08,0,1.38-.08,3.08-.1S388.88,33,388.88,33.06Z"/><path class="cls-7" d="M388.89,34.64s-1.38.08-3.08.09-3.07,0-3.08,0,1.38-.08,3.08-.09S388.89,34.6,388.89,34.64Z"/><path class="cls-7" d="M388.9,36.21s-1.37.08-3.07.09-3.08,0-3.08,0,1.38-.08,3.08-.1S388.9,36.18,388.9,36.21Z"/><path class="cls-7" d="M332.89,38h.48l1.31,0,0,0c0-.29,0-.61,0-1,0-.17,0-.34,0-.54a.51.51,0,0,1,.45-.41c.21,0,.39,0,.62,0a.5.5,0,0,1,.43.5c0,.45,0,.91,0,1.4l-.06-.06,1.66,0-.07.06c0-.67,0-1.36,0-2.06v-.53a.54.54,0,0,0-.23-.39l-.73-.72-.7-.69-.34-.33c-.11-.11-.2-.23-.34-.26a.47.47,0,0,0-.38.08c-.1.08-.21.2-.31.3L334,34c-.38.39-.77.74-1.05,1.08a1.17,1.17,0,0,0-.08.62v.58c0,.36,0,.67,0,.94s0,.44,0,.61V38s0-.06,0-.2v-.59c0-.27,0-.59,0-.95l0-.59v-.33a.73.73,0,0,1,.09-.35c.31-.37.67-.71,1-1.11l.59-.6c.11-.11.2-.21.32-.32a.55.55,0,0,1,.48-.09.91.91,0,0,1,.4.28c.11.11.23.22.34.34l.7.68.73.72a.88.88,0,0,1,.18.2.47.47,0,0,1,.09.28c0,.17,0,.35,0,.53,0,.7,0,1.39,0,2.06V38H336V38c0-.49,0-1,0-1.39a.41.41,0,0,0-.33-.41h-.6a.42.42,0,0,0-.36.32,4.73,4.73,0,0,0,0,.53v1h-1.83Z"/><rect class="cls-3" x="337.86" y="92.66" width="46.94" height="9.59"/><rect class="cls-3" x="337.86" y="107.76" width="46.94" height="9.59"/><rect class="cls-3" x="337.86" y="122.86" width="46.94" height="9.59"/><path class="cls-11" d="M373.16,151.78H349.6a4.79,4.79,0,0,1-4.79-4.79h0a4.79,4.79,0,0,1,4.79-4.8h23.56A4.79,4.79,0,0,1,378,147h0A4.79,4.79,0,0,1,373.16,151.78Z"/><rect class="cls-3" x="337.86" y="77.55" width="46.94" height="9.59"/><rect class="cls-3" x="337.86" y="62.45" width="46.94" height="9.59"/><path class="cls-7" d="M376.06,53.55c0,.24-6.6.43-14.73.43s-14.73-.19-14.73-.43,6.6-.43,14.73-.43S376.06,53.31,376.06,53.55Z"/><path class="cls-12" d="M502.75,208.21a2,2,0,1,1-2-2A2,2,0,0,1,502.75,208.21Z"/><path class="cls-12" d="M639.42,208.21a2,2,0,1,1-2-2A2,2,0,0,1,639.42,208.21Z"/><path class="cls-12" d="M637.45,208.21a1.78,1.78,0,0,1-.05-.48c0-.37,0-.84,0-1.43,0-1.31-.05-3.15-.08-5.48s0-5.31-.08-8.67c0-1.68,0-3.52-.06-5.39a8.44,8.44,0,0,0-2.44-5.2,8.32,8.32,0,0,0-5.78-2.42l-7.24,0-16,0-36.6,0-36.6,0-16,0-7.24,0a8.33,8.33,0,0,0-8.21,7.62c-.09,1.87,0,3.71-.07,5.39,0,3.37-.06,6.27-.08,8.67s-.06,4.17-.08,5.48c0,.59,0,1.06,0,1.43a1.78,1.78,0,0,1-.05.48,3.51,3.51,0,0,1,0-.48c0-.37,0-.84,0-1.43,0-1.31-.05-3.15-.08-5.48s-.05-5.3-.08-8.67c0-1.7-.06-3.47,0-5.43a8.92,8.92,0,0,1,8.75-8.25l7.25,0,16,0,36.6,0,36.6,0,16,0,7.25,0a8.92,8.92,0,0,1,8.75,8.25c.07,2,0,3.73,0,5.43,0,3.36-.06,6.27-.08,8.67s-.06,4.17-.08,5.48c0,.59,0,1.06,0,1.43A2.2,2.2,0,0,1,637.45,208.21Z"/><circle class="cls-12" cx="774.12" cy="366.2" r="1.97"/><path class="cls-12" d="M635.47,366.2a2,2,0,1,1,2,2A2,2,0,0,1,635.47,366.2Z"/><circle class="cls-12" cx="627.64" cy="366.2" r="1.97"/><circle class="cls-12" cx="627.64" cy="422.36" r="1.97"/><circle class="cls-12" cx="664.87" cy="488.69" r="1.97"/><path class="cls-12" d="M637.45,366.2a2.37,2.37,0,0,1,0,.49c0,.37,0,.84,0,1.42,0,1.32.05,3.15.08,5.48s0,5.31.08,8.67c0,1.68,0,3.52.07,5.39a8.33,8.33,0,0,0,8.21,7.62h7.24l16,0,36.6,0,36.6,0,16,0h7.23a8.3,8.3,0,0,0,5.78-2.42,8.44,8.44,0,0,0,2.44-5.2c.08-1.87,0-3.71.06-5.39,0-3.36.06-6.27.08-8.67s.06-4.16.08-5.48c0-.59,0-1.05,0-1.42a1.91,1.91,0,0,1,0-.49,2.37,2.37,0,0,1,0,.49l0,1.42c0,1.32,0,3.15.08,5.48s.05,5.31.08,8.67c0,1.7.06,3.47,0,5.43a8.92,8.92,0,0,1-8.75,8.25l-7.24,0-16,0-36.6,0-36.6,0-16,0-7.25,0a8.92,8.92,0,0,1-8.75-8.25c-.07-1.95,0-3.73,0-5.43,0-3.36.06-6.27.08-8.67s.06-4.16.08-5.48c0-.59,0-1.05,0-1.42A1.91,1.91,0,0,1,637.45,366.2Z"/><path class="cls-12" d="M627.64,423.47c-.24,0-.44-12.82-.44-28.63s.2-28.64.44-28.64.43,12.82.43,28.64S627.88,423.47,627.64,423.47Z"/><path class="cls-12" d="M718.57,488.69c0,.24-12,.43-26.85.43s-26.85-.19-26.85-.43,12-.43,26.85-.43S718.57,488.45,718.57,488.69Z"/><path class="cls-7" d="M760.22,479.75s-.18.4-.66,1a15.25,15.25,0,0,1-2.32,2.26A18.66,18.66,0,0,1,737,485.06a15.31,15.31,0,0,1-2.72-1.76c-.59-.48-.88-.79-.84-.84s1.39,1,3.82,2.05a19.52,19.52,0,0,0,19.64-2C759,481,760.1,479.65,760.22,479.75Z"/><path class="cls-7" d="M737.84,481.79c0,.24-2.15.4-4.8.35H733l.44-.43c0,2.62-.2,4.73-.43,4.73s-.43-2.11-.43-4.73v-.44h.51C735.7,481.32,737.84,481.55,737.84,481.79Z"/><path class="cls-7" d="M728.88,467.4a3,3,0,0,1,.22-1.17,15.68,15.68,0,0,1,1.24-3,18.7,18.7,0,0,1,17.85-9.83,15.8,15.8,0,0,1,3.19.55c.73.22,1.12.39,1.11.45s-1.66-.34-4.33-.39a19.53,19.53,0,0,0-17.29,9.53C729.49,465.83,729,467.45,728.88,467.4Z"/><path class="cls-7" d="M748.67,456.76c-.09-.22,1.83-1.21,4.28-2.21l.06,0-.23.57c-1-2.41-1.68-4.43-1.46-4.52s1.22,1.77,2.25,4.18l.17.4-.4.17-.07,0C750.82,456.35,748.76,457,748.67,456.76Z"/><path class="cls-9" d="M790,519l-2.71-4s6.56-15.67,6.56-18.87V480.85s-1.12-2.08-2.72-1.92a12.74,12.74,0,0,0-2.88.64s-.64-4.64-3.2-4.8a3.63,3.63,0,0,0-3.52,1.76s-.48-4.32-2.88-4.16-4.31,2.72-4.31,2.72l-3.2-12.64-8.64-12.63s-3.36,1.55-2.24,4.91a86,86,0,0,0,3.36,8l1.92,14.4-.48,6.24s-2.56,4.95-4.8,4.79-10.08-9.43-14.71-9.75A3.91,3.91,0,0,0,741,482s6.64,4.3,10.07,8.47c3.23,3.93,5.28,9.44,7.52,12.32s8.64,12,8.64,12l2.71,7.32"/><path class="cls-7" d="M770,522.07a2.6,2.6,0,0,1-.22-.46c-.14-.36-.32-.82-.56-1.4l-2.08-5.4v0c-1.25-1.72-2.74-3.75-4.44-6.07L760,505.06c-.93-1.32-2-2.66-3-4.23-1.83-3.1-3.41-6.73-6-10a48.62,48.62,0,0,0-10.18-8.58l-.19-.13,0-.2a4.37,4.37,0,0,1,2-3.26,5.14,5.14,0,0,1,3.88-.44c2.52.81,4.56,2.48,6.61,4.11s4,3.53,6.16,5a1.6,1.6,0,0,0,1.55.31,4.37,4.37,0,0,0,1.49-1.13,16.4,16.4,0,0,0,2.31-3.34l0,.16c.15-2,.31-4.08.47-6.23v.08c-.62-4.6-1.27-9.45-1.93-14.39l0,.13c-.57-1.2-1.15-2.5-1.72-3.81a35.18,35.18,0,0,1-1.85-5,4,4,0,0,1,.56-2.81,5.24,5.24,0,0,1,2.1-1.86l.32-.17.21.31,8.63,12.65,0,.06v.07q1.65,6.51,3.19,12.64l-.72-.14a9.37,9.37,0,0,1,2.12-2,4.8,4.8,0,0,1,2.78-.9,2.19,2.19,0,0,1,1.44.65,4.53,4.53,0,0,1,.83,1.2,9.26,9.26,0,0,1,.73,2.65l-.72-.13a3.86,3.86,0,0,1,2.29-1.79,4.24,4.24,0,0,1,1.41-.18,2.53,2.53,0,0,1,1.41.44,4.73,4.73,0,0,1,1.62,2.2,10.81,10.81,0,0,1,.68,2.49l-.47-.29a11.45,11.45,0,0,1,3.36-.65,3.85,3.85,0,0,1,2.66,2.11l0,.06v.1c0,4.18,0,8.1,0,11.72,0,.9,0,1.79,0,2.66a9.18,9.18,0,0,1-.3,2.57c-.41,1.63-.93,3.11-1.42,4.52-2,5.62-3.82,9.87-5,12.64v-.11l2,3.08.48.76c.1.17.14.25.13.26a1.33,1.33,0,0,1-.19-.23l-.52-.72-2.1-3,0-.05,0-.06c1.1-2.8,2.83-7.08,4.78-12.7.46-1.41,1-2.9,1.35-4.49s.19-3.3.25-5.11c0-3.62,0-7.54,0-11.72l0,.16a3.22,3.22,0,0,0-2.12-1.74,11.06,11.06,0,0,0-3,.63l-.4.14-.08-.42c-.28-1.51-.78-3.29-2-4.17a2.66,2.66,0,0,0-2.21-.16,3.22,3.22,0,0,0-1.82,1.41l-.56,1-.16-1.12a8.59,8.59,0,0,0-.67-2.39c-.35-.73-.9-1.4-1.62-1.41-1.56,0-3.13,1.23-4.2,2.56l-.52.64-.19-.78c-1-4.08-2.12-8.3-3.22-12.63l.06.13q-4.2-6.15-8.65-12.63l.54.15a3.62,3.62,0,0,0-2.17,3.75,37.87,37.87,0,0,0,1.8,4.85c.55,1.3,1.14,2.59,1.7,3.78l0,.06v.07c.65,4.93,1.3,9.79,1.91,14.39v.09c-.16,2.15-.33,4.28-.48,6.24v.09l0,.07a16.81,16.81,0,0,1-2.45,3.52,5.15,5.15,0,0,1-1.79,1.33,1.94,1.94,0,0,1-1.24.09,3.64,3.64,0,0,1-1-.48c-2.32-1.59-4.2-3.46-6.23-5.1a21.16,21.16,0,0,0-6.31-4,4.41,4.41,0,0,0-3.28.34,3.63,3.63,0,0,0-1.65,2.68l-.16-.34a48.65,48.65,0,0,1,10.28,8.78c2.65,3.37,4.2,7,6,10.1.88,1.54,2,2.86,2.88,4.21l2.67,3.76,4.35,6.15v0l1.94,5.46c.2.59.36,1.05.48,1.42A2.19,2.19,0,0,1,770,522.07Z"/><path class="cls-12" d="M812,537.7s.34,0,1-.12a7.22,7.22,0,0,0,2.74-1,7.57,7.57,0,0,0,3.06-3.52c.83-1.73.51-4,.55-6.44,0-9.92-.07-24.22-.13-41.87,0-8.84,0-18.52-.06-28.91q0-3.9,0-7.93c0-1.33,0-2.72,0-4a7.12,7.12,0,0,0-4.3-6.13,8.84,8.84,0,0,0-4-.58h-8.65l-76,0a7.13,7.13,0,0,0-6.9,5.44,27.66,27.66,0,0,0-.2,4.86v5c0,6.56,0,13,0,19.4,0,12.71,0,25,0,36.67q0,8.77,0,17.08c0,1.38,0,2.76,0,4.12a7.48,7.48,0,0,0,.82,3.75,7.19,7.19,0,0,0,6.08,3.84l28.9.07,41.87.13,11.38.08,3,0c.67,0,1,0,1,0s-.34,0-1,0l-3,0-11.38.08-41.87.14-28.92,0a7.91,7.91,0,0,1-6.72-4.22,8.19,8.19,0,0,1-.9-4.09c0-1.36,0-2.74,0-4.12q0-8.31,0-17.08c0-11.69,0-24,0-36.67,0-6.36,0-12.84,0-19.4V445a9.94,9.94,0,0,1,.22-2.58,8,8,0,0,1,7.74-6.1l76,0h8.65a9.74,9.74,0,0,1,4.31.65,8,8,0,0,1,3.35,2.76,7.91,7.91,0,0,1,1.39,4c0,1.41,0,2.73,0,4.08q0,4,0,7.93c0,10.39,0,20.07-.05,28.91-.06,17.65-.11,32-.14,41.87,0,1.23,0,2.4,0,3.5a7.59,7.59,0,0,1-3.84,6.61,7.06,7.06,0,0,1-2.82.92A5.12,5.12,0,0,1,812,537.7Z"/><path class="cls-12" d="M770.29,170.37c.23,0,.43,9.24.43,20.63s-.2,20.63-.43,20.63-.44-9.23-.44-20.63S770.05,170.37,770.29,170.37Z"/><path class="cls-7" d="M745.84,87.83a2.91,2.91,0,0,1,0-1.52A6,6,0,0,1,748,82.79a6.3,6.3,0,0,1,6-1,6.4,6.4,0,0,1,0,12.07,6.3,6.3,0,0,1-6-1,6,6,0,0,1-2.17-3.52,2.86,2.86,0,0,1,0-1.51c.08,0,.08.53.35,1.43a6.08,6.08,0,0,0,2.21,3.12,5.76,5.76,0,0,0,5.39.73,5.64,5.64,0,0,0,0-10.57,5.74,5.74,0,0,0-5.39.74,6,6,0,0,0-2.21,3.11C745.92,87.29,745.92,87.83,745.84,87.83Z"/><path class="cls-9" d="M774.69,158l-3-6.66-16.8-13-9.65-21s-.58-3.08,1.5-4.08,4.65,1.66,5.65,2.91,7.9,14.14,7.9,14.14V127.1L749.72,89a2.82,2.82,0,0,1,2.07-3.5h0A2.82,2.82,0,0,1,755,87.18l9.75,23.62s-.58-5,3.58-5.41a5.73,5.73,0,0,1,5.74,3.41s-.83-3.33,3.41-3.74,5.65,4.74,5.65,4.74c-.25-2.83,3-3.16,3-3.16,2.83-.5,4.74,2,4.74,2,7.21,13.67,4.22,37.29,4.22,37.29L799,157l.12.34"/><path class="cls-7" d="M799.11,157.37a5.28,5.28,0,0,1-.31-.73c-.19-.53-.46-1.25-.8-2.18L795,146l0,0v-.05a108.94,108.94,0,0,0,.41-16.06,77.44,77.44,0,0,0-1.19-10.17,38.84,38.84,0,0,0-3.57-10.88l0,0a4.85,4.85,0,0,0-4.4-1.86h0a3.86,3.86,0,0,0-1.93.82,2.26,2.26,0,0,0-.73,2l.31,3.39-1-3.26c-.62-1.94-2-4.05-4.12-4.41a4.93,4.93,0,0,0-3.11.55,2.47,2.47,0,0,0-1.1,2.66l.7,3.34L773.74,109a5.94,5.94,0,0,0-2.09-2.42,5,5,0,0,0-3.16-.74,3.23,3.23,0,0,0-2.67,1.61,6,6,0,0,0-.61,3.35l.2,2.62-1-2.42-6.28-15.16-3.28-7.93a2.84,2.84,0,0,0-1.06-1.56,2.29,2.29,0,0,0-1.76-.39,2.38,2.38,0,0,0-1.95,2.73c3.73,13.45,7.3,26.38,10.62,38.35v5l-.76-1.41c-2.36-4.38-4.63-8.62-6.92-12.61-.29-.49-.59-1-.88-1.42a11.76,11.76,0,0,0-1.1-1.23,6.74,6.74,0,0,0-2.63-1.72,2.05,2.05,0,0,0-2.42.9,4.42,4.42,0,0,0-.4,2.85l0-.08c3.61,7.94,6.81,15,9.58,21.07l-.08-.1,16.71,13.08,0,0,0,0,2.18,5c.23.53.4.94.53,1.26a2.18,2.18,0,0,1,.15.43,3.25,3.25,0,0,1-.22-.4l-.59-1.23c-.53-1.14-1.3-2.78-2.31-5l0,.06-16.88-12.87-.05,0,0-.07c-2.81-6.06-6.06-13.09-9.72-21l0,0v0a5.18,5.18,0,0,1,.48-3.35,2.8,2.8,0,0,1,3.24-1.24,7.49,7.49,0,0,1,3,1.89,13.2,13.2,0,0,1,1.17,1.3c.37.52.64,1,1,1.5,2.32,4,4.6,8.24,7,12.62l-.76.19c0-1.07,0-2.15,0-3.24l0,.11c-3.33-12-6.93-24.95-10.68-38.43a3.26,3.26,0,0,1,2.65-3.73,3.23,3.23,0,0,1,2.4.54,3.78,3.78,0,0,1,1.37,1.94q1.65,4,3.27,7.93l6.26,15.18-.8.2a6.87,6.87,0,0,1,.73-3.85,4.07,4.07,0,0,1,3.31-2,5.79,5.79,0,0,1,3.66.88,6.61,6.61,0,0,1,2.4,2.79l-.76.25a3.61,3.61,0,0,1,.16-2,3.16,3.16,0,0,1,1.29-1.52,5.67,5.67,0,0,1,3.66-.64,5.16,5.16,0,0,1,3.08,1.89,9.12,9.12,0,0,1,1.62,3.08l-.73.13a3,3,0,0,1,1-2.56,4.59,4.59,0,0,1,2.35-1h0a4.89,4.89,0,0,1,2.91.43,6.69,6.69,0,0,1,2.16,1.72l0,0v0a39.42,39.42,0,0,1,3.58,11.08,77,77,0,0,1,1.12,10.26,104.26,104.26,0,0,1-.59,16.14v-.09l2.87,8.53c.3.94.54,1.67.72,2.21A5.06,5.06,0,0,1,799.11,157.37Z"/><path class="cls-12" d="M812,170.37s.34,0,1-.12a7,7,0,0,0,2.74-1,7.57,7.57,0,0,0,3.06-3.52c.83-1.73.51-4,.55-6.44,0-9.92-.07-24.21-.13-41.87,0-8.84,0-18.52-.06-28.91q0-3.9,0-7.93c0-1.33,0-2.71,0-4a7.11,7.11,0,0,0-4.3-6.14,8.84,8.84,0,0,0-4-.58h-8.65l-76,0a7.13,7.13,0,0,0-6.9,5.44,27.66,27.66,0,0,0-.2,4.86v5q0,9.85,0,19.4c0,12.72,0,25,0,36.67q0,8.78,0,17.08c0,1.39,0,2.76,0,4.12a7.48,7.48,0,0,0,.82,3.75,7.17,7.17,0,0,0,6.08,3.84l28.9.07,41.87.13,11.38.09,3,0c.67,0,1,0,1,0s-.34,0-1,0l-3,0-11.38.08-41.87.14-28.92,0a7.92,7.92,0,0,1-6.72-4.21,8.23,8.23,0,0,1-.9-4.1c0-1.36,0-2.73,0-4.12q0-8.31,0-17.08c0-11.69,0-24,0-36.67q0-9.54,0-19.4V77.71a9.94,9.94,0,0,1,.22-2.58A8,8,0,0,1,726.1,69l76,0h8.65a9.61,9.61,0,0,1,4.31.66,7.89,7.89,0,0,1,4.74,6.79c0,1.41,0,2.73,0,4.08q0,4,0,7.93c0,10.39,0,20.07-.05,28.91-.06,17.66-.11,31.95-.14,41.87,0,1.23,0,2.4,0,3.5a7.59,7.59,0,0,1-3.84,6.61,6.9,6.9,0,0,1-2.82.92A5.12,5.12,0,0,1,812,170.37Z"/><circle class="cls-12" cx="770.29" cy="211.84" r="1.97"/><path class="cls-4" d="M791.27,210.66h-5.5a4.22,4.22,0,0,0-1.65.18,2.55,2.55,0,0,0-1.31,1.14,2.66,2.66,0,0,0-.31.87,5.07,5.07,0,0,0,0,1v1a4.54,4.54,0,0,1-.07,1,2.7,2.7,0,0,1-1.22,1.74,2.79,2.79,0,0,1-1.08.38c-.4,0-.78,0-1.17,0H759a2.72,2.72,0,0,1-.8-.08,2.57,2.57,0,0,1-1.37-.83,2.73,2.73,0,0,1-.67-1.47,5.49,5.49,0,0,1,0-.81V214a4.26,4.26,0,0,0-.17-1.6,2.55,2.55,0,0,0-2.56-1.7H740.7a8.89,8.89,0,0,0-3.7.69,8.69,8.69,0,0,0-3.08,2.27,8.27,8.27,0,0,0-1.74,3.46c-.09.32-.11.65-.17,1s0,.55,0,.83V352.39a8.64,8.64,0,0,0,.34,2.63,8.34,8.34,0,0,0,3.27,4.44,8.79,8.79,0,0,0,5.38,1.45h17l22.16,0H791c1.78,0,3.57,0,5.32,0a8.44,8.44,0,0,0,4.76-1.81,9,9,0,0,0,1.72-1.88,8.09,8.09,0,0,0,1.06-2.29,8.61,8.61,0,0,0,.31-2.48v-2.53q0-5,0-10c0-26.26,0-49.91,0-69.77s0-35.94.05-47.05v-3.93a8.25,8.25,0,0,0-.62-3.36,8.09,8.09,0,0,0-1.59-2.47,8.18,8.18,0,0,0-1.91-1.54,8,8,0,0,0-3.16-1.1,7.51,7.51,0,0,0-.86-.08l-.29,0h-4.53Z"/><path class="cls-7" d="M795.89,210.69h.29a6.74,6.74,0,0,1,.85.07,8,8,0,0,1,3.17,1.09,8.23,8.23,0,0,1,1.93,1.57,8.33,8.33,0,0,1,1.61,2.52,8.77,8.77,0,0,1,.64,3.43v4c0,11.27,0,27.57,0,47.7s0,44.13,0,70.76V354.5a9,9,0,0,1-.32,2.58,8.81,8.81,0,0,1-1.08,2.38,9.07,9.07,0,0,1-1.76,2,8.55,8.55,0,0,1-4.89,1.9c-1.77.05-3.53,0-5.31,0H741.18a9,9,0,0,1-5.51-1.52,8.77,8.77,0,0,1-3.35-4.63,9.27,9.27,0,0,1-.35-2.86V340.14c0-7.48,0-14.86,0-22.1,0-14.5,0-28.48,0-41.79s0-26,0-37.81q0-8.9,0-17.14v-2.05c0-.34,0-.69.05-1s.09-.68.18-1a8.61,8.61,0,0,1,1.77-3.58,8.86,8.86,0,0,1,3.14-2.34,8.77,8.77,0,0,1,3.76-.71h12.65a2.69,2.69,0,0,1,1.67.47,2.79,2.79,0,0,1,1,1.36,4.31,4.31,0,0,1,.17,1.67v.82a5.3,5.3,0,0,0,0,.8,2.63,2.63,0,0,0,.63,1.42,2.44,2.44,0,0,0,1.29.8,3.22,3.22,0,0,0,.76.08H763l11.15,0h4.92c.39,0,.78,0,1.15,0a2.44,2.44,0,0,0,1-.36,2.69,2.69,0,0,0,1.19-1.71,5,5,0,0,0,.07-1v-1a5.43,5.43,0,0,1,0-1,3.18,3.18,0,0,1,.32-.91,2.73,2.73,0,0,1,1.35-1.19,4.26,4.26,0,0,1,1.68-.18l5.48,0h4.53l-1.15,0h-8.86a4.42,4.42,0,0,0-1.65.18,2.63,2.63,0,0,0-1.31,1.16,2.7,2.7,0,0,0-.3.88,6.31,6.31,0,0,0,0,1c0,.33,0,.67,0,1a5.25,5.25,0,0,1-.07,1,2.79,2.79,0,0,1-1.22,1.77,2.54,2.54,0,0,1-1.08.38c-.39,0-.77,0-1.16,0h-19.9a3.53,3.53,0,0,1-.79-.08,2.64,2.64,0,0,1-1.37-.85,2.82,2.82,0,0,1-.67-1.49c0-.27,0-.55,0-.82v-.82a4.17,4.17,0,0,0-.16-1.62,2.67,2.67,0,0,0-1-1.29,2.57,2.57,0,0,0-1.58-.43H740.92a8.57,8.57,0,0,0-3.69.7,8.38,8.38,0,0,0-4.81,5.8c-.08.33-.11.66-.17,1s0,.67,0,1V354.3a9,9,0,0,0,.34,2.79,8.44,8.44,0,0,0,3.26,4.5,8.74,8.74,0,0,0,5.37,1.48h49.88c1.77,0,3.55,0,5.3,0a8.3,8.3,0,0,0,4.75-1.84,8.94,8.94,0,0,0,1.72-1.91,8.31,8.31,0,0,0,1-2.31,8.94,8.94,0,0,0,.32-2.52V341.83c0-26.63,0-50.61,0-70.76s0-36.43,0-47.7v-4a8.35,8.35,0,0,0-2.2-5.91,8.51,8.51,0,0,0-5.06-2.68c-.37-.07-.66,0-.86-.08Z"/><path class="cls-7" d="M797.52,224.39s-1.4.08-3.12.09-3.12,0-3.12,0,1.39-.08,3.12-.09S797.52,224.35,797.52,224.39Z"/><path class="cls-7" d="M797.53,226s-1.39.07-3.12.09-3.12,0-3.12,0,1.4-.08,3.12-.09S797.53,226,797.53,226Z"/><path class="cls-7" d="M797.55,227.58s-1.4.08-3.12.09-3.13,0-3.13,0,1.4-.07,3.12-.09S797.55,227.55,797.55,227.58Z"/><path class="cls-7" d="M740.74,229.41h.13l.36,0,1.34,0,0,0c0-.29,0-.62,0-1,0-.18,0-.35,0-.55a.5.5,0,0,1,.44-.41c.22,0,.41,0,.64,0a.53.53,0,0,1,.44.52c0,.45,0,.92,0,1.41l-.06-.06,1.68,0-.06.07c0-.68,0-1.38,0-2.1v-.53a.52.52,0,0,0-.24-.4l-.74-.73-.7-.7-.35-.33c-.12-.12-.21-.24-.35-.26a.43.43,0,0,0-.38.07l-.31.31-.61.61c-.38.39-.77.75-1.06,1.09a1.13,1.13,0,0,0-.08.63c0,.21,0,.4,0,.59v1c0,.24,0,.44,0,.61a.82.82,0,0,1,0,.22s0-.07,0-.21,0-.36,0-.6,0-.59,0-1c0-.19,0-.39,0-.6v-.33a.77.77,0,0,1,.09-.36c.31-.38.68-.71,1.06-1.12l.6-.61c.11-.11.2-.22.33-.33a.55.55,0,0,1,.48-.09.88.88,0,0,1,.41.29l.34.34c.24.22.47.46.71.69l.74.73a1.23,1.23,0,0,1,.19.2.66.66,0,0,1,.09.28v.54c0,.72,0,1.42,0,2.09v.07h-1.81v-.06c0-.49,0-1,0-1.41a.41.41,0,0,0-.34-.41H743a.4.4,0,0,0-.36.33c0,.17,0,.36,0,.53v1h-1.86Z"/><rect class="cls-1" x="738.23" y="237.85" width="58.96" height="10.72" rx="4.52"/><path class="cls-7" d="M792.67,248.57l.34,0a4,4,0,0,0,1-.19,4.42,4.42,0,0,0,1.42-.74,4.31,4.31,0,0,0,1.34-1.71,4,4,0,0,0,.36-1.25,11.22,11.22,0,0,0,0-1.44,9.26,9.26,0,0,0-.07-1.57,4.4,4.4,0,0,0-.58-1.57,4.45,4.45,0,0,0-3-2.07,12.51,12.51,0,0,0-2-.08h-2.18l-46.52,0a4.43,4.43,0,0,0-4.4,4c0,.54,0,1.1,0,1.65a5.25,5.25,0,0,0,.17,1.59,4.42,4.42,0,0,0,1.83,2.5,4.13,4.13,0,0,0,1.43.61,6.63,6.63,0,0,0,1.55.12h9.16l20.92,0,14.1,0,3.83,0h0l-3.83,0-14.1,0-20.92,0h-9.16a7.24,7.24,0,0,1-1.6-.12,4.63,4.63,0,0,1-3.42-3.26,5.13,5.13,0,0,1-.17-1.65c0-.56,0-1.1,0-1.67a4.65,4.65,0,0,1,4.62-4.24l46.52,0h2.18a13,13,0,0,1,2.08.09,4.57,4.57,0,0,1,3.64,3.76,9.59,9.59,0,0,1,.07,1.59,11.64,11.64,0,0,1-.06,1.46,4.26,4.26,0,0,1-.37,1.27,4.5,4.5,0,0,1-1.38,1.72,4.74,4.74,0,0,1-1.45.74,4.89,4.89,0,0,1-1,.17Z"/><path class="cls-7" d="M793.58,243s0-.17-.1-.46a1.92,1.92,0,0,0-.71-1,1.89,1.89,0,0,0-1.76-.25,1.85,1.85,0,0,0,0,3.46,1.89,1.89,0,0,0,1.76-.24,2,2,0,0,0,.71-1c.08-.29.08-.47.1-.47s0,.05,0,.13a2,2,0,0,1,0,.36,2,2,0,0,1-.7,1.12,2,2,0,0,1-1.92.31,2,2,0,1,1,1.92-3.52,1.91,1.91,0,0,1,.74,1.48C793.59,242.91,793.59,243,793.58,243Z"/><path class="cls-7" d="M794.65,246.3a3.83,3.83,0,0,1-.95-.86,4,4,0,0,1-.79-1,7.77,7.77,0,0,1,1.74,1.88Z"/><path class="cls-2" d="M746.19,242.14h-1.05v-.28h2.42v.28h-1v2.72h-.32Z"/><path class="cls-2" d="M749.73,243.83h-1.89a.84.84,0,0,0,.89.78.89.89,0,0,0,.69-.3l.17.2a1.1,1.1,0,0,1-.87.37,1.12,1.12,0,0,1-1.18-1.15,1.1,1.1,0,1,1,2.19,0Zm-1.89-.23h1.6a.8.8,0,0,0-1.6,0Z"/><path class="cls-2" d="M751.72,244.86l-.72-1-.71,1h-.35l.89-1.16-.84-1.09h.34l.67.88.68-.88H752l-.84,1.09.89,1.16Z"/><path class="cls-2" d="M753.75,244.72a.71.71,0,0,1-.47.16.6.6,0,0,1-.66-.66v-1.36h-.4v-.25h.4v-.5h.3v.5h.69v.25h-.69v1.35a.36.36,0,0,0,.39.41.5.5,0,0,0,.34-.12Z"/><path class="cls-13" d="M778.45,258.78c0,.06-4.31.11-9.64.11s-9.63-.05-9.63-.11,4.31-.11,9.63-.11S778.45,258.72,778.45,258.78Z"/><path class="cls-7" d="M793.82,262.74c0,.06-7.75.11-17.32.11s-17.32-.05-17.32-.11,7.75-.11,17.32-.11S793.82,262.68,793.82,262.74Z"/><path class="cls-7" d="M793.41,265.57c0,.06-7.66.11-17.11.11s-17.12-.05-17.12-.11,7.66-.11,17.12-.11S793.41,265.5,793.41,265.57Z"/><path class="cls-7" d="M779.39,268.26c0,.06-4.52.11-10.11.11s-10.1-.05-10.1-.11,4.52-.11,10.1-.11S779.39,268.2,779.39,268.26Z"/><path class="cls-13" d="M778.45,280.33c0,.06-4.31.11-9.64.11s-9.63-.05-9.63-.11,4.31-.11,9.63-.11S778.45,280.27,778.45,280.33Z"/><path class="cls-7" d="M793.82,284.28c0,.06-7.75.11-17.32.11s-17.32-.05-17.32-.11,7.75-.11,17.32-.11S793.82,284.22,793.82,284.28Z"/><path class="cls-7" d="M793.41,287.11c0,.06-7.66.11-17.11.11s-17.12-.05-17.12-.11,7.66-.11,17.12-.11S793.41,287.05,793.41,287.11Z"/><path class="cls-7" d="M779.39,289.8c0,.06-4.52.11-10.11.11s-10.1-.05-10.1-.11,4.52-.11,10.1-.11S779.39,289.74,779.39,289.8Z"/><path class="cls-13" d="M779.49,302.78c0,.06-4.31.11-9.63.11s-9.64-.05-9.64-.11,4.31-.11,9.64-.11S779.49,302.71,779.49,302.78Z"/><path class="cls-7" d="M794.86,306.73c0,.06-7.75.11-17.32.11s-17.32,0-17.32-.11,7.75-.11,17.32-.11S794.86,306.67,794.86,306.73Z"/><path class="cls-7" d="M794.46,309.56c0,.06-7.67.11-17.12.11s-17.12-.05-17.12-.11,7.66-.11,17.12-.11S794.46,309.5,794.46,309.56Z"/><path class="cls-7" d="M780.43,312.25c0,.06-4.52.11-10.1.11s-10.11-.05-10.11-.11,4.52-.11,10.11-.11S780.43,312.19,780.43,312.25Z"/><path class="cls-13" d="M779.49,324.78c0,.06-4.31.11-9.63.11s-9.64-.05-9.64-.11,4.31-.11,9.64-.11S779.49,324.71,779.49,324.78Z"/><path class="cls-7" d="M794.86,328.73c0,.06-7.75.11-17.32.11s-17.32,0-17.32-.11,7.75-.11,17.32-.11S794.86,328.67,794.86,328.73Z"/><path class="cls-7" d="M794.46,331.56c0,.06-7.67.11-17.12.11s-17.12-.05-17.12-.11,7.66-.11,17.12-.11S794.46,331.5,794.46,331.56Z"/><path class="cls-7" d="M780.43,334.25c0,.06-4.52.11-10.1.11s-10.11-.05-10.11-.11,4.52-.11,10.11-.11S780.43,334.19,780.43,334.25Z"/><path class="cls-13" d="M779.49,345.78c0,.06-4.31.11-9.63.11s-9.64-.05-9.64-.11,4.31-.11,9.64-.11S779.49,345.71,779.49,345.78Z"/><path class="cls-7" d="M794.86,349.73c0,.06-7.75.11-17.32.11s-17.32,0-17.32-.11,7.75-.11,17.32-.11S794.86,349.67,794.86,349.73Z"/><path class="cls-7" d="M794.46,352.56c0,.06-7.67.11-17.12.11s-17.12-.05-17.12-.11,7.66-.11,17.12-.11S794.46,352.5,794.46,352.56Z"/><path class="cls-7" d="M780.43,355.25c0,.06-4.52.11-10.1.11s-10.11-.05-10.11-.11,4.52-.11,10.11-.11S780.43,355.19,780.43,355.25Z"/><rect class="cls-11" x="740.45" y="256.72" width="11.8" height="15.7" transform="translate(477.63 1009.44) rotate(-89.68)"/><polygon class="cls-13" points="738.47 270.43 743.99 263.12 747.37 267.73 749.68 265.29 754.17 270.51 738.47 270.43"/><path class="cls-13" d="M748.84,262.25a1.25,1.25,0,0,1-1.25,1.23,1.24,1.24,0,0,1,0-2.47A1.24,1.24,0,0,1,748.84,262.25Z"/><rect class="cls-11" x="740.64" y="277.66" width="11.8" height="15.7" transform="translate(456.87 1030.45) rotate(-89.68)"/><polygon class="cls-13" points="738.66 291.37 744.18 284.07 747.55 288.67 749.87 286.23 754.36 291.46 738.66 291.37"/><path class="cls-13" d="M749,283.19a1.24,1.24,0,0,1-2.48,0,1.24,1.24,0,0,1,2.48,0Z"/><rect class="cls-11" x="740.64" y="299.66" width="11.8" height="15.7" transform="translate(434.87 1052.33) rotate(-89.68)"/><polygon class="cls-13" points="738.66 313.37 744.18 306.07 747.55 310.67 749.87 308.23 754.36 313.46 738.66 313.37"/><path class="cls-13" d="M749,305.19a1.24,1.24,0,0,1-2.48,0,1.24,1.24,0,0,1,2.48,0Z"/><rect class="cls-11" x="740.64" y="321.66" width="11.8" height="15.7" transform="translate(412.87 1074.21) rotate(-89.68)"/><polygon class="cls-13" points="738.66 335.37 744.18 328.07 747.55 332.67 749.87 330.23 754.36 335.46 738.66 335.37"/><path class="cls-13" d="M749,327.19a1.24,1.24,0,0,1-2.48,0,1.24,1.24,0,0,1,2.48,0Z"/><rect class="cls-11" x="740.64" y="342.66" width="11.8" height="15.7" transform="translate(391.87 1095.09) rotate(-89.68)"/><polygon class="cls-13" points="738.66 356.37 744.18 349.07 747.55 353.67 749.87 351.23 754.36 356.46 738.66 356.37"/><path class="cls-13" d="M749,348.19a1.24,1.24,0,0,1-2.48,0,1.24,1.24,0,0,1,2.48,0Z"/><path class="cls-4" d="M657.37,211.82H652a4.07,4.07,0,0,0-1.62.18,2.55,2.55,0,0,0-1.29,1.14,2.91,2.91,0,0,0-.31.87,7.55,7.55,0,0,0,0,1v1a5.2,5.2,0,0,1-.07,1,2.68,2.68,0,0,1-1.21,1.74,2.6,2.6,0,0,1-1.06.38c-.38,0-.76,0-1.14,0H625.61a3,3,0,0,1-.79-.07,2.63,2.63,0,0,1-1.35-.84,2.78,2.78,0,0,1-.65-1.47,5.49,5.49,0,0,1,0-.81v-.81a4.26,4.26,0,0,0-.17-1.6,2.5,2.5,0,0,0-2.52-1.7H607.62a8.67,8.67,0,0,0-3.64.69,8.48,8.48,0,0,0-3,2.27,8.36,8.36,0,0,0-1.72,3.46c-.08.32-.1.65-.16,1s0,.55,0,.83V353.55a9,9,0,0,0,.33,2.63,8.3,8.3,0,0,0,3.22,4.44,8.54,8.54,0,0,0,5.29,1.45h16.78l21.79,0h10.62c1.75,0,3.51,0,5.23,0a8.25,8.25,0,0,0,4.69-1.81,8.89,8.89,0,0,0,1.69-1.88,8.32,8.32,0,0,0,1-2.29,9,9,0,0,0,.31-2.48v-12.5c0-26.26,0-49.91,0-69.77s0-35.94,0-47.05v-3.93a8.6,8.6,0,0,0-.6-3.36,8.44,8.44,0,0,0-1.57-2.47,8.07,8.07,0,0,0-1.88-1.54,7.85,7.85,0,0,0-3.11-1.1c-.37-.07-.66-.05-.84-.08l-.29,0h-4.46Z"/><path class="cls-7" d="M661.89,211.75h.29a5,5,0,0,1,.84.06,8.3,8.3,0,0,1,5,2.62,8.59,8.59,0,0,1,1.59,2.49,8.72,8.72,0,0,1,.62,3.39c0,1.23,0,2.54,0,3.93,0,11.11,0,27.18,0,47s0,43.52,0,69.78v12.49a9.19,9.19,0,0,1-.32,2.55,8.31,8.31,0,0,1-1.07,2.35,9.07,9.07,0,0,1-1.73,1.93,8.55,8.55,0,0,1-4.82,1.87c-1.75.05-3.48,0-5.24,0H607.94a8.77,8.77,0,0,1-5.43-1.5,8.53,8.53,0,0,1-3.31-4.56,9.32,9.32,0,0,1-.34-2.82v-14c0-7.38,0-14.66,0-21.8,0-14.3,0-28.08,0-41.21s0-25.62,0-37.29q0-8.76,0-16.9v-2c0-.33,0-.67.05-1s.08-.67.17-1a8.54,8.54,0,0,1,1.75-3.54,8.72,8.72,0,0,1,3.09-2.31,8.87,8.87,0,0,1,3.71-.7h12.48a2.66,2.66,0,0,1,1.64.46,2.79,2.79,0,0,1,1,1.33,4.67,4.67,0,0,1,.17,1.65v.81a5.3,5.3,0,0,0,0,.8,2.56,2.56,0,0,0,.62,1.39,2.45,2.45,0,0,0,1.27.8,3.13,3.13,0,0,0,.75.07h3.78l11,0h4.84c.39,0,.78,0,1.14,0a2.39,2.39,0,0,0,1-.35,2.69,2.69,0,0,0,1.17-1.68,4.37,4.37,0,0,0,.06-1c0-.33,0-.67,0-1a5.32,5.32,0,0,1,0-1,2.77,2.77,0,0,1,.31-.89,2.69,2.69,0,0,1,1.34-1.18,4.27,4.27,0,0,1,1.65-.17h8.74l1.13,0H652a4.13,4.13,0,0,0-1.63.17,2.7,2.7,0,0,0-1.59,2,7.47,7.47,0,0,0,0,1v1a4.46,4.46,0,0,1-.06,1,2.76,2.76,0,0,1-1.21,1.75,2.45,2.45,0,0,1-1.06.37c-.39,0-.76,0-1.15,0H625.66a3.5,3.5,0,0,1-.78-.08,2.62,2.62,0,0,1-1.35-.83,2.78,2.78,0,0,1-.66-1.47,7.54,7.54,0,0,1,0-.82c0-.27,0-.54,0-.81a4.11,4.11,0,0,0-.16-1.6,2.6,2.6,0,0,0-1-1.26,2.51,2.51,0,0,0-1.56-.43H607.68a8.64,8.64,0,0,0-3.64.69,8.48,8.48,0,0,0-3,2.27,8.3,8.3,0,0,0-1.72,3.46c-.08.31-.11.65-.16,1s0,.66,0,1v18.93c0,11.67,0,24.15,0,37.29v41.21c0,7.14,0,14.42,0,21.8v14a8.8,8.8,0,0,0,.34,2.75,8.3,8.3,0,0,0,3.21,4.44,8.6,8.6,0,0,0,5.3,1.46h49.19c1.75,0,3.51,0,5.23,0a8.17,8.17,0,0,0,4.68-1.82,8.62,8.62,0,0,0,1.7-1.87,8.26,8.26,0,0,0,1-2.29,8.73,8.73,0,0,0,.32-2.49V341.07c0-26.26,0-49.91,0-69.78s0-35.93,0-47v-3.93a8.36,8.36,0,0,0-2.17-5.84,8.33,8.33,0,0,0-5-2.63,5.53,5.53,0,0,0-.85-.08Z"/><path class="cls-7" d="M663.5,225.25s-1.38.08-3.08.09-3.07,0-3.07,0,1.37-.07,3.07-.09S663.5,225.22,663.5,225.25Z"/><path class="cls-7" d="M663.51,226.83s-1.37.07-3.07.09-3.08,0-3.08,0,1.38-.08,3.08-.09S663.51,226.79,663.51,226.83Z"/><path class="cls-7" d="M663.53,228.4s-1.38.08-3.08.09-3.08,0-3.08,0,1.38-.07,3.08-.09S663.53,228.37,663.53,228.4Z"/><path class="cls-7" d="M607.51,230.2H608l1.32,0,0,0c0-.3,0-.61,0-1a5,5,0,0,1,0-.55.49.49,0,0,1,.44-.4,4.41,4.41,0,0,1,.63,0,.51.51,0,0,1,.43.5c0,.45,0,.91,0,1.39l-.06-.06h1.66l-.06.06,0-2.07v-.52a.51.51,0,0,0-.23-.39c-.24-.25-.49-.48-.72-.72l-.7-.69-.34-.33a.8.8,0,0,0-.34-.26.48.48,0,0,0-.39.07c-.1.09-.2.21-.3.31s-.41.4-.6.6c-.37.39-.76.74-1,1.08a1.17,1.17,0,0,0-.08.62v.58c0,.36,0,.67,0,.94v.6c0,.14,0,.22,0,.22a1.57,1.57,0,0,1,0-.2c0-.16,0-.36,0-.59s0-.59,0-.95c0-.19,0-.39,0-.6v-.32a.73.73,0,0,1,.09-.35c.31-.38.68-.71,1.05-1.11l.6-.6a3.22,3.22,0,0,1,.32-.32.54.54,0,0,1,.48-.09.8.8,0,0,1,.39.28l.34.33.71.69c.23.24.48.47.72.71.06.07.13.12.19.2a.6.6,0,0,1,.08.28c0,.18,0,.36,0,.53,0,.71,0,1.4,0,2.07v.06h-1.79v-1.45a.41.41,0,0,0-.34-.4h-.6a.4.4,0,0,0-.36.32c0,.17,0,.36,0,.53v1h-1.83Z"/><path class="cls-11" d="M641,238.82a5.56,5.56,0,1,1-5.56-5.55A5.56,5.56,0,0,1,641,238.82Z"/><path class="cls-9" d="M637.38,241.07h-3.81v-.47a1.9,1.9,0,0,1,1.9-1.91h0a1.9,1.9,0,0,1,1.91,1.91Z"/><path class="cls-9" d="M636.59,237.7a1.12,1.12,0,1,1-1.12-1.12A1.12,1.12,0,0,1,636.59,237.7Z"/><path class="cls-7" d="M649.31,253.51c0,.24-6.59.44-14.73.44s-14.73-.2-14.73-.44,6.6-.43,14.73-.43S649.31,253.28,649.31,253.51Z"/><rect class="cls-11" x="607.64" y="265.06" width="19.11" height="25.43" transform="translate(335.98 893.42) rotate(-89.68)"/><polygon class="cls-13" points="604.43 287.26 613.38 275.43 618.84 282.9 622.59 278.94 629.86 287.41 604.43 287.26"/><path class="cls-13" d="M621.22,274a2,2,0,1,1-2-2A2,2,0,0,1,621.22,274Z"/><rect class="cls-11" x="611.62" y="286.02" width="44.19" height="58.79" transform="translate(314.77 947.37) rotate(-89.68)"/><polygon class="cls-13" points="604.2 337.35 624.88 310 637.51 327.25 646.19 318.11 662.99 337.68 604.2 337.35"/><path class="cls-13" d="M643,306.73a4.63,4.63,0,1,1-4.6-4.65A4.63,4.63,0,0,1,643,306.73Z"/><rect class="cls-11" x="641.21" y="265.06" width="19.11" height="25.43" transform="translate(369.37 926.99) rotate(-89.68)"/><polygon class="cls-13" points="638 287.26 646.95 275.43 652.41 282.9 656.17 278.94 663.43 287.41 638 287.26"/><path class="cls-13" d="M654.8,274a2,2,0,1,1-2-2A2,2,0,0,1,654.8,274Z"/><path class="cls-4" d="M648.4,421.52H643a4.13,4.13,0,0,0-1.63.17,2.53,2.53,0,0,0-1.29,1.15,2.82,2.82,0,0,0-.31.87,7.39,7.39,0,0,0,0,.95v1a4.46,4.46,0,0,1-.06,1,2.76,2.76,0,0,1-1.21,1.75,2.49,2.49,0,0,1-1.07.37c-.38,0-.76,0-1.15,0H616.52a3.53,3.53,0,0,1-.79-.08,2.62,2.62,0,0,1-1.35-.83,2.78,2.78,0,0,1-.66-1.47,5.67,5.67,0,0,1,0-.82v-.81a4.52,4.52,0,0,0-.16-1.6,2.68,2.68,0,0,0-1-1.26,2.51,2.51,0,0,0-1.56-.43H598.47a8.53,8.53,0,0,0-3.65.69,8.64,8.64,0,0,0-3,2.27,8.3,8.3,0,0,0-1.72,3.46,9.81,9.81,0,0,0-.16,1c0,.28,0,.55,0,.83V563.24a8.59,8.59,0,0,0,.33,2.63,8.28,8.28,0,0,0,3.23,4.44,8.61,8.61,0,0,0,5.31,1.46H648.1c1.76,0,3.52,0,5.25,0a8.27,8.27,0,0,0,4.7-1.82,8.45,8.45,0,0,0,1.7-1.88,8.1,8.1,0,0,0,1-2.28,8.72,8.72,0,0,0,.31-2.49c0-.84,0-1.68,0-2.52v-10c0-26.26,0-49.91,0-69.78s0-35.93.05-47v-3.93a8.39,8.39,0,0,0-.61-3.36,8.37,8.37,0,0,0-6.58-5.12,6.74,6.74,0,0,0-.85-.07l-.28,0H648.4Z"/><path class="cls-7" d="M653,421.61h.29a6.62,6.62,0,0,1,.84.07,7.61,7.61,0,0,1,3.13,1.08,7.94,7.94,0,0,1,1.9,1.54,8.33,8.33,0,0,1,1.59,2.49,8.52,8.52,0,0,1,.62,3.38c0,1.23,0,2.55,0,3.93,0,11.11,0,27.19,0,47.05s0,43.51,0,69.77v12.5a8.72,8.72,0,0,1-.32,2.54,8.19,8.19,0,0,1-1.07,2.35,8.83,8.83,0,0,1-1.73,1.93,8.47,8.47,0,0,1-4.82,1.87c-1.75,0-3.48,0-5.24,0H599a8.77,8.77,0,0,1-5.43-1.5,8.49,8.49,0,0,1-3.3-4.57,9,9,0,0,1-.35-2.82v-14q0-11.07,0-21.8c0-14.29,0-28.08,0-41.21s0-25.61,0-37.29q0-8.76,0-16.9v-2c0-.34,0-.68,0-1s.08-.67.17-1a8.56,8.56,0,0,1,1.75-3.53,8.49,8.49,0,0,1,6.8-3h12.48a2.66,2.66,0,0,1,1.64.46,2.75,2.75,0,0,1,1,1.34,4.23,4.23,0,0,1,.17,1.65v.81a5.12,5.12,0,0,0,0,.79,2.59,2.59,0,0,0,.62,1.4,2.47,2.47,0,0,0,1.27.79,2.73,2.73,0,0,0,.75.07h3.78l11,0h4.85c.38,0,.77,0,1.13,0a2.4,2.4,0,0,0,1-.36,2.64,2.64,0,0,0,1.17-1.68,4.86,4.86,0,0,0,.07-1v-1a5.25,5.25,0,0,1,0-1,2.71,2.71,0,0,1,.32-.89,2.59,2.59,0,0,1,1.33-1.18,4.1,4.1,0,0,1,1.65-.18l5.41,0H643.1a4.14,4.14,0,0,0-1.63.18,2.57,2.57,0,0,0-1.28,1.14,2.91,2.91,0,0,0-.31.87,7.55,7.55,0,0,0,0,1v1a4.52,4.52,0,0,1-.06,1,2.68,2.68,0,0,1-1.21,1.74,2.6,2.6,0,0,1-1.06.38c-.38,0-.76,0-1.14,0H616.74a3,3,0,0,1-.78-.07,2.63,2.63,0,0,1-1.35-.84,2.87,2.87,0,0,1-.66-1.47,7.3,7.3,0,0,1,0-.81V425a4.26,4.26,0,0,0-.17-1.6,2.5,2.5,0,0,0-2.52-1.7H598.76a8.53,8.53,0,0,0-3.64.7,8.25,8.25,0,0,0-4.74,5.72c-.08.32-.11.65-.16,1s0,.65-.05,1v2q0,8.13,0,16.9v100.3c0,3.69,0,7.41,0,11.15v2.81a9.13,9.13,0,0,0,.34,2.76,8.3,8.3,0,0,0,3.22,4.44,8.54,8.54,0,0,0,5.29,1.45H615.8l21.79,0h10.62c1.75,0,3.51,0,5.23,0a8.21,8.21,0,0,0,4.69-1.81,8.89,8.89,0,0,0,1.69-1.88,8,8,0,0,0,1-2.29,8.62,8.62,0,0,0,.32-2.48v-12.5c0-26.26,0-49.91,0-69.77s0-35.94,0-47.05v-3.93a8.19,8.19,0,0,0-2.17-5.83,8.32,8.32,0,0,0-5-2.64c-.37-.07-.66,0-.84-.08Z"/><path class="cls-7" d="M654.58,435.12s-1.37.07-3.07.09-3.08,0-3.08,0,1.37-.08,3.07-.09S654.58,435.08,654.58,435.12Z"/><path class="cls-7" d="M654.6,436.69s-1.38.08-3.08.09-3.08,0-3.08,0,1.38-.07,3.08-.09S654.6,436.66,654.6,436.69Z"/><path class="cls-7" d="M654.61,438.27s-1.38.07-3.08.09-3.08,0-3.08,0,1.38-.08,3.08-.09S654.61,438.23,654.61,438.27Z"/><path class="cls-7" d="M598.59,440.07h.48l1.32,0,0,0c0-.29,0-.61,0-.95a5,5,0,0,1,0-.55.51.51,0,0,1,.44-.41h.63a.52.52,0,0,1,.43.51c0,.44,0,.91,0,1.39l-.06-.06,1.66,0-.06.07c0-.67,0-1.36,0-2.07v-.53a.52.52,0,0,0-.24-.39l-.72-.71-.7-.69-.34-.34c-.12-.11-.21-.23-.34-.25a.43.43,0,0,0-.38.07c-.1.08-.21.2-.31.3l-.6.6c-.37.39-.76.75-1,1.08a1.19,1.19,0,0,0-.09.62v.59c0,.35,0,.67,0,.94v.6c0,.14,0,.21,0,.22a1.57,1.57,0,0,1,0-.2l0-.6c0-.27,0-.58,0-.94v-.6c0-.11,0-.22,0-.33a.61.61,0,0,1,.1-.34c.3-.38.67-.71,1-1.11l.59-.61a3.17,3.17,0,0,1,.32-.31.55.55,0,0,1,.48-.1.9.9,0,0,1,.4.29l.34.33.7.69.72.71a1.23,1.23,0,0,1,.19.2.66.66,0,0,1,.09.28V438c0,.71,0,1.4,0,2.06v.07h-1.79v-1.45a.4.4,0,0,0-.34-.4h-.6a.39.39,0,0,0-.36.32c0,.16,0,.36,0,.53v1h-1.84Z"/><path class="cls-7" d="M640.39,495.24c0,.24-6.59.43-14.73.43s-14.72-.19-14.72-.43,6.59-.44,14.72-.44S640.39,495,640.39,495.24Z"/><rect class="cls-11" x="611.41" y="452.04" width="28.6" height="38.05" transform="translate(151.17 1094.14) rotate(-89.68)"/><polygon class="cls-13" points="606.61 485.25 620 467.55 628.16 478.72 633.78 472.8 644.65 485.46 606.61 485.25"/><path class="cls-13" d="M631.73,465.44a3,3,0,1,1-3-3A3,3,0,0,1,631.73,465.44Z"/><path class="cls-7" d="M651.86,505.76c0,.24-11.7.43-26.12.43s-26.11-.19-26.11-.43,11.69-.43,26.11-.43S651.86,505.52,651.86,505.76Z"/><path class="cls-7" d="M651.86,513c0,.24-11.7.43-26.12.43s-26.11-.19-26.11-.43,11.69-.43,26.11-.43S651.86,512.8,651.86,513Z"/><path class="cls-7" d="M651.86,520.32c0,.24-11.7.44-26.12.44s-26.11-.2-26.11-.44,11.69-.43,26.11-.43S651.86,520.08,651.86,520.32Z"/><path class="cls-7" d="M651.86,527.6c0,.24-11.7.44-26.12.44s-26.11-.2-26.11-.44,11.69-.43,26.11-.43S651.86,527.37,651.86,527.6Z"/><path class="cls-7" d="M651.86,534.88c0,.24-11.7.44-26.12.44s-26.11-.2-26.11-.44,11.69-.43,26.11-.43S651.86,534.65,651.86,534.88Z"/><path class="cls-7" d="M640.62,541.53a22.12,22.12,0,0,1-4.39.31c-2.71.08-6.46.12-10.6.12s-7.89,0-10.6-.12a22.12,22.12,0,0,1-4.39-.31,22.7,22.7,0,0,1,4.39-.3c2.71-.08,6.46-.13,10.6-.13s7.89,0,10.6.13A22.7,22.7,0,0,1,640.62,541.53Z"/><path class="cls-12" d="M359.37,215.34c-.24,0-.43-9.07-.43-20.26s.19-20.26.43-20.26.43,9.07.43,20.26S359.61,215.34,359.37,215.34Z"/><path class="cls-12" d="M361.35,174.82a2,2,0,1,1-2-2A2,2,0,0,1,361.35,174.82Z"/><path class="cls-12" d="M361.35,214.79a2,2,0,1,1-2-2A2,2,0,0,1,361.35,214.79Z"/><circle class="cls-12" cx="401.81" cy="97.45" r="1.97"/><path class="cls-12" d="M492.76,208.21a2.42,2.42,0,0,1,0-.5c0-.38,0-.87,0-1.48,0-1.36-.05-3.26-.09-5.68,0-5-.08-12.12-.13-20.9,0-17.7-.08-42.05-.13-68.95a18.62,18.62,0,0,0-.34-4.88,10.38,10.38,0,0,0-2.15-4.2,10.62,10.62,0,0,0-8.2-3.75l-18.3,0-31-.1-20.9-.13-5.68-.08-1.48-.05a2.42,2.42,0,0,1-.5,0,1.77,1.77,0,0,1,.5,0l1.48,0,5.68-.08,20.9-.14,31-.09,18.3,0a11.46,11.46,0,0,1,8.86,4,11.3,11.3,0,0,1,2.33,4.54,19.54,19.54,0,0,1,.36,5.09c-.05,26.9-.09,51.25-.12,69-.06,8.78-.11,15.9-.14,20.9,0,2.42-.06,4.32-.08,5.68,0,.61,0,1.1,0,1.48A2,2,0,0,1,492.76,208.21Z"/><circle class="cls-12" cx="492.76" cy="208.21" r="1.97"/><polyline class="cls-4" points="194.09 426.02 225.13 560.07 213.62 688.68 107.23 688.68 103.63 620.95 103.63 425.41 125.52 416.45 177.68 420.93"/><path class="cls-14" d="M333.41,508,356.1,400.24l1.19-17.81s5-40,5-43.87c0-4.51,2.16-5.6,3.82-5.48,2.59.17,4.43,3.36,4.55,7.22.05,1.34-.12,22.46-.12,22.46a50.33,50.33,0,0,1,4.09-5.7c3.12-3.95,10.46-6.21,18-6s9.61,1,9.65,3.9a3.71,3.71,0,0,1-1.47,2.84,7.36,7.36,0,0,1-5,1.71c-12.06-.22-15.3,6.23-15.3,6.23l-.16,2.33s7.33-5.24,13.17-3a7.26,7.26,0,0,1,2.33,1.44,9.43,9.43,0,0,1,8.17,14.07c-.78,1.39-2.22,2.68-3.79,2.37a5,5,0,0,1-2.13-1.3,8.2,8.2,0,0,0-1.07-.79l-1.35,6.47s-3.81,14.36-4.76,20.8l-5.21,106.64a26.48,26.48,0,0,1-28.2,25.12h0A26.47,26.47,0,0,1,333.41,508Z"/><path class="cls-14" d="M359.57,398.79c2.21.6,4.48-1,5.68-3s1.69-4.26,2.74-6.3c3.14-6.1,10.74-9,13.58-15.26.4-.87.62-2.07-.15-2.64s-1.71-.11-2.49.32l-19.88,11"/><path class="cls-15" d="M359.05,382.94a8.7,8.7,0,0,1,2-1.41c1.35-.84,3.32-2,5.77-3.43l8.63-4.94,2.5-1.41c.83-.39,1.74-1.26,3.28-.93a1.91,1.91,0,0,1,1.31,1.7,3.89,3.89,0,0,1-.33,1.83,14.88,14.88,0,0,1-1.71,2.88c-2.76,3.58-6.31,5.83-8.88,8.44a17.31,17.31,0,0,0-3.15,4c-.75,1.41-1.23,2.89-1.8,4.21-1,2.72-3,4.52-4.62,5a2.87,2.87,0,0,1-2.5-.09,6.74,6.74,0,0,0,2.33-.38,7.78,7.78,0,0,0,3.94-4.84,43.66,43.66,0,0,1,1.7-4.35,17.57,17.57,0,0,1,3.25-4.39c2.64-2.75,6.16-5.06,8.69-8.37a14,14,0,0,0,1.56-2.6c.38-.86.33-1.74-.17-1.83s-1.45.32-2.3.8l-2.52,1.38-8.77,4.69c-2.5,1.32-4.54,2.37-6,3.07A9,9,0,0,1,359.05,382.94Z"/><path class="cls-15" d="M380.11,368.21a9.22,9.22,0,0,1,1.38-4.06,7.23,7.23,0,0,1,3.67-2.67,18.44,18.44,0,0,1,5.71-.82,30.62,30.62,0,0,0,6-.52,9.46,9.46,0,0,0,4.43-2.22,3.68,3.68,0,0,0,1.19-3.12,2.15,2.15,0,0,0-.39-1.16c-.08,0,.06.44.07,1.18a3.5,3.5,0,0,1-1.27,2.67,9.46,9.46,0,0,1-4.2,1.89,31.75,31.75,0,0,1-5.82.44,18,18,0,0,0-5.94.94,7.54,7.54,0,0,0-3.9,3.06,6.75,6.75,0,0,0-1,3.18C379.94,367.79,380.06,368.22,380.11,368.21Z"/><path class="cls-15" d="M370.61,338.81a23.67,23.67,0,0,0-.06,4.2c0,2.88.07,6.32.11,10.11s0,7.23,0,10.11a23.65,23.65,0,0,0,.09,4.19,18.57,18.57,0,0,0,.5-4.17c.18-2.59.3-6.17.29-10.13s-.16-7.55-.36-10.13A19,19,0,0,0,370.61,338.81Z"/><path class="cls-15" d="M384.87,373a5.35,5.35,0,0,0,1.23-.48,3.89,3.89,0,0,1,3.24-.15,2.08,2.08,0,0,1,1.1,1.75,11.63,11.63,0,0,1-.2,2.73,4.72,4.72,0,0,0,.5,3.31A4,4,0,0,0,394,381.8a4.53,4.53,0,0,0,3.3-1.44,5.61,5.61,0,0,0,1.56-2.93,18.48,18.48,0,0,0-.08-5.41,11,11,0,0,0-1.08-3.47c-.43-.76-.83-1.06-.86-1s.25.41.57,1.17a12.69,12.69,0,0,1,.78,3.41,19.86,19.86,0,0,1-.09,5.19c-.34,1.74-2,3.7-4.08,3.67a3.23,3.23,0,0,1-2.56-1.29,4,4,0,0,1-.41-2.76,11,11,0,0,0,.11-2.92,2.71,2.71,0,0,0-1.52-2.19,4.08,4.08,0,0,0-3.64.4C385.21,372.63,384.85,372.92,384.87,373Z"/><path class="cls-15" d="M396.92,379.72s-.16.45.11,1.2a3.65,3.65,0,0,0,2.45,2.16,4.86,4.86,0,0,0,4.63-1.43,7.94,7.94,0,0,0,2.06-5.55,9.61,9.61,0,0,0-1.81-5.64,9.18,9.18,0,0,0-3.76-3,8.44,8.44,0,0,0-3.16-.74c-.76,0-1.18.06-1.17.11a15.13,15.13,0,0,1,4.07,1.17,8.93,8.93,0,0,1,3.39,2.93,9.15,9.15,0,0,1,1.6,5.19,7.39,7.39,0,0,1-1.78,5,4.35,4.35,0,0,1-3.93,1.39,3.5,3.5,0,0,1-2.29-1.73C397,380.15,397,379.72,396.92,379.72Z"/><path class="cls-15" d="M382.38,393.84a3.39,3.39,0,0,0-2,0,7.91,7.91,0,0,0-4.39,2.66l.7.21a23.91,23.91,0,0,0-.46-2.82c-1.23-5.44-4.22-9-4.36-8.81s2.37,3.76,3.54,9a27.06,27.06,0,0,1,.49,2.72l.12.94.59-.74a8.36,8.36,0,0,1,3.9-2.68C381.64,394,382.38,394,382.38,393.84Z"/><path class="cls-15" d="M382.77,357.9c-.2.1.62,1.61,2.47,2.41s3.51.37,3.45.16-1.51-.21-3.12-.93S383,357.75,382.77,357.9Z"/><path class="cls-7" d="M91.47,348.11c-2.55-4.47-6.48-8.32-11.35-10s-10.72-.87-14.46,2.67-4.77,9.88-1.72,14a15.24,15.24,0,1,0,7.13,26.86,11.37,11.37,0,0,0,18.37,6.1c7.48-6.27,5.26-20.19,13.64-25.19"/><path class="cls-7" d="M169.24,432.74a39.49,39.49,0,0,0,35.4,4.57c3.69-1.36,6.79-3.09,8.56-5.06a21.24,21.24,0,0,0,2.29-24.57c-2.94-4.83-7.86-8.47-9.73-13.81-2-5.8,0-12.15.21-18.31a31.67,31.67,0,0,0-17.09-28.82L161.5,375.79l5.44,55.42Z"/><path class="cls-7" d="M95.24,357.45c3.83,7.27,7.72,14.71,9,22.83s-.67,17.2-6.87,22.59c-5.11,4.45-12.28,5.78-17.76,9.77-8.07,5.87-11.14,16.44-12.17,26.37s-.59,20.16-3.87,29.59C59.28,480.76,49.21,490.45,46.16,503a33.54,33.54,0,0,0,12.1,33.91,33.53,33.53,0,0,0,35.92,2.29c15.88-9,21.24-28.94,25.15-46.79,10.86-49.54,21.75-100.88,11.38-150.53"/><path class="cls-7" d="M104,282.57c2.89-8.94,17.75-17,25.9-21.71,12.18-7,23.48-5.6,30.44.63,12.58-10.56,29.14-20.7,45-16.54s28.78,20.42,25.89,36.58c-1.71,9.53-8.31,18.07-7.92,27.74.26,6.59,3.75,12.54,6.53,18.52s4.92,12.95,2.44,19.07c-2.3,5.68-8.06,9.23-11.16,14.53-2.53,4.31-3.11,9.46-4.73,14.19-6,17.54-26.69,27.36-45,24.28S138,383,129.37,366.63s-11.48-35.21-12.48-53.72"/><path class="cls-14" d="M117.67,295.26l3.64,146.17c1.31,16.76,21.12,41.5,39.05,40h0c18.11-1.55,27.57-29.07,26.53-46C185.8,417.6,185,398.85,185,398.85s22.67-5.28,25.49-35.48c1.44-15.48-1.07-40.83-3.7-61A30,30,0,0,0,172,276.71"/><path class="cls-15" d="M184.78,398.47a76.22,76.22,0,0,1-40.72-8.1s11.32,20.12,41.06,15.4Z"/><path class="cls-7" d="M163.17,306.91c-.34,1.14-4.49.88-9.29,1.77s-8.64,2.47-9.34,1.51c-.32-.47.29-1.56,1.8-2.75a16.42,16.42,0,0,1,14.19-2.5C162.35,305.54,163.31,306.36,163.17,306.91Z"/><path class="cls-7" d="M201.36,307.91c-.67,1-3.57.2-7,.37s-6.27,1-7,.1c-.33-.45.07-1.42,1.28-2.39a10.15,10.15,0,0,1,11.27-.38C201.19,306.5,201.65,307.44,201.36,307.91Z"/><path class="cls-15" d="M165.37,340.6a1.1,1.1,0,1,1-1.1-1.1A1.09,1.09,0,0,1,165.37,340.6Z"/><path class="cls-15" d="M196.34,335.23a1.1,1.1,0,1,1-1.09-1.09A1.09,1.09,0,0,1,196.34,335.23Z"/><path class="cls-15" d="M202.39,338.09a1.1,1.1,0,1,1-1.09-1.1A1.09,1.09,0,0,1,202.39,338.09Z"/><path class="cls-15" d="M204.23,333.51a1.1,1.1,0,1,1-1.09-1.1A1.09,1.09,0,0,1,204.23,333.51Z"/><path class="cls-15" d="M160.36,345.44a1.1,1.1,0,1,1-1.1-1.1A1.09,1.09,0,0,1,160.36,345.44Z"/><path class="cls-15" d="M156.25,341a1.1,1.1,0,1,1-1.09-1.1A1.09,1.09,0,0,1,156.25,341Z"/><path class="cls-7" d="M170.4,272.06c-2.7,23.81-20.36,45.26-43.21,52.48,7.37,10.63,2.73,30.84,2.92,47.71.17,15.69.17,20.18-10,28.17-8.4,2-13.24-21-19.48-27.41s-12.21-14.35-11.75-23.3c.21-4.18,1.85-8.19,2.08-12.37.25-4.64-1.23-9.17-2-13.75-3.64-20.23,6.85-42,24.48-52.58s41.15-9.86,58.64,1"/><path class="cls-10" d="M91.66,335.09a5.61,5.61,0,0,1-.75-.84,8.81,8.81,0,0,1-1.39-2.92c-.8-2.73-.43-7,1.74-11.6A23,23,0,0,1,96,313.05a45.46,45.46,0,0,1,7.17-6.11,38.16,38.16,0,0,1,9.32-4.66c3.42-1.17,7-2.08,10.73-3s7.3-1.84,10.68-3a66.62,66.62,0,0,0,9.45-4.11,70.11,70.11,0,0,0,22.27-18.66c.87-1.08,1.5-2,1.94-2.56a6.7,6.7,0,0,1,.69-.88,7.21,7.21,0,0,1-.58,1c-.4.62-1,1.53-1.84,2.64a65.32,65.32,0,0,1-7.9,8.83,68.85,68.85,0,0,1-14.29,10.23,65.11,65.11,0,0,1-9.52,4.18c-3.41,1.2-7,2.13-10.73,3.05s-7.3,1.83-10.69,3a37.59,37.59,0,0,0-9.17,4.56,45.41,45.41,0,0,0-7.13,6,22.75,22.75,0,0,0-4.73,6.5c-2.18,4.45-2.63,8.65-1.92,11.32A10.33,10.33,0,0,0,91.66,335.09Z"/><path class="cls-10" d="M168.28,270.05a4.64,4.64,0,0,1-.61.75c-.42.49-1.07,1.18-1.9,2.06a84,84,0,0,1-7.61,6.93,52.92,52.92,0,0,1-13.07,7.88,49.63,49.63,0,0,1-8.73,2.37c-3.07.61-6.27,1.09-9.54,1.59-6.54,1-12.77,2-18.18,3.82a39.93,39.93,0,0,0-13.15,7.28,25.76,25.76,0,0,0-6.35,7.89,24.23,24.23,0,0,0-1.1,2.55,5.1,5.1,0,0,1-.37.9,4.35,4.35,0,0,1,.24-.94,17.68,17.68,0,0,1,1-2.63,25.17,25.17,0,0,1,6.27-8.14,39.67,39.67,0,0,1,13.27-7.51c5.47-1.89,11.74-2.93,18.28-3.9,3.27-.5,6.46-1,9.51-1.57a50.17,50.17,0,0,0,8.63-2.3,54,54,0,0,0,13-7.67,97.43,97.43,0,0,0,7.72-6.74l2-2A5.65,5.65,0,0,1,168.28,270.05Z"/><path class="cls-10" d="M201.75,244c0,.15-2.57.24-6.56,1.3a29.3,29.3,0,0,0-3.2,1,38,38,0,0,0-3.56,1.5,39.69,39.69,0,0,0-13.74,10.92,37.29,37.29,0,0,0-2.26,3.12,29.33,29.33,0,0,0-1.73,2.89c-1.93,3.65-2.6,6.15-2.75,6.1a9.35,9.35,0,0,1,.46-1.75,14.52,14.52,0,0,1,.71-2,23.5,23.5,0,0,1,1.15-2.57,28,28,0,0,1,1.68-3,34.29,34.29,0,0,1,2.24-3.22,42.78,42.78,0,0,1,6.34-6.37,41.79,41.79,0,0,1,7.63-4.73,38.38,38.38,0,0,1,3.64-1.46,29,29,0,0,1,3.27-1,23.89,23.89,0,0,1,2.77-.54,13.1,13.1,0,0,1,2.1-.24A8.58,8.58,0,0,1,201.75,244Z"/><path class="cls-10" d="M223,357.79s.06-.1.2-.26l.62-.74c.55-.64,1.38-1.58,2.32-2.88a15.86,15.86,0,0,0,2.65-5.13,9,9,0,0,0,.28-3.54,9.85,9.85,0,0,0-1.36-3.75c-1.42-2.47-3.76-4.62-5.9-7.28a42.42,42.42,0,0,1-8.89-20.83,88.15,88.15,0,0,1-.32-12.85,44.84,44.84,0,0,0-1.16-12.64,25.33,25.33,0,0,0-5.71-10.19,25.67,25.67,0,0,0-8.58-6.24,24.42,24.42,0,0,0-9-2.08A26.62,26.62,0,0,0,175,272.26a28.88,28.88,0,0,0-3.16,1.9l-.78.56a1.12,1.12,0,0,1-.29.17,19.06,19.06,0,0,1,4.11-2.87,26.27,26.27,0,0,1,13.21-3.12,24.7,24.7,0,0,1,9.24,2,26.49,26.49,0,0,1,14.71,16.77,45.39,45.39,0,0,1,1.2,12.83,88.08,88.08,0,0,0,.3,12.76,42.22,42.22,0,0,0,8.67,20.56c2.08,2.62,4.43,4.82,5.87,7.38a10.38,10.38,0,0,1,1.37,3.94,9.39,9.39,0,0,1-.34,3.71,16.05,16.05,0,0,1-2.8,5.18,35.57,35.57,0,0,1-2.43,2.82l-.68.68C223.07,357.72,223,357.8,223,357.79Z"/><path class="cls-7" d="M93.22,336.77a1.17,1.17,0,0,1-.32-.14l-.92-.48a24.74,24.74,0,0,1-3.27-2.26,27.62,27.62,0,0,1-8.47-11.81,27.44,27.44,0,0,1,9.27-31.16,38.37,38.37,0,0,1,12.37-6.06,69.41,69.41,0,0,1,13.55-2.47c4.43-.42,8.7-.61,12.76-.9a110.07,110.07,0,0,0,11.47-1.28,51.69,51.69,0,0,0,9.66-2.62,34.41,34.41,0,0,0,12.2-7.68,30.49,30.49,0,0,0,2.55-3l.6-.84c.14-.19.21-.28.22-.27a20.61,20.61,0,0,1-3.18,4.31A33.86,33.86,0,0,1,149.5,278a51.66,51.66,0,0,1-9.74,2.73,108.16,108.16,0,0,1-11.52,1.35c-8.11.65-17.17.71-26.16,3.4a37.84,37.84,0,0,0-12.16,5.93,26.35,26.35,0,0,0-8,9.65,26.82,26.82,0,0,0-1.26,20.82,28,28,0,0,0,8.19,11.76A27.44,27.44,0,0,0,92.06,336l.87.54C93.13,336.69,93.23,336.76,93.22,336.77Z"/><path class="cls-10" d="M87.66,443.91a12.71,12.71,0,0,1,.89-2.07c.68-1.48,1.59-3.42,2.71-5.83,2.28-5.08,5.83-12.44,9.35-21.67a23.08,23.08,0,0,0-.59-15.6A32,32,0,0,0,95.71,391a32.49,32.49,0,0,0-3-3.53,34.19,34.19,0,0,1-3.29-3.76,35.71,35.71,0,0,1-7-19.66,34.27,34.27,0,0,1,6.32-21.45,35.62,35.62,0,0,1,17.94-13.35c6.89-2.41,13.79-3.48,19.85-5.92a66.83,66.83,0,0,0,27.8-20.2,69.24,69.24,0,0,0,11.65-20.29c1.85-5.25,2.37-8.31,2.56-8.27a11.46,11.46,0,0,1-.35,2.22,53.69,53.69,0,0,1-1.62,6.25A68.41,68.41,0,0,1,127,324.7c-6.22,2.53-13.16,3.64-19.85,6A34.21,34.21,0,0,0,90,343.51,32.83,32.83,0,0,0,83.94,364a34.54,34.54,0,0,0,6.64,18.85,32.72,32.72,0,0,0,3.12,3.61,34.53,34.53,0,0,1,7.57,11.86,24.2,24.2,0,0,1,.42,16.41c-3.73,9.39-7.4,16.55-9.86,21.59-1.26,2.5-2.28,4.42-3,5.7A11.69,11.69,0,0,1,87.66,443.91Z"/><path class="cls-7" d="M200.65,324.5a3.82,3.82,0,0,1-3.48,4.05,3.65,3.65,0,0,1-4.12-3.24,3.83,3.83,0,0,1,3.47-4.05A3.67,3.67,0,0,1,200.65,324.5Z"/><path class="cls-7" d="M200.13,320.05c-.44.52-3.45-1.46-7.57-1.24s-7,2.45-7.49,2c-.23-.21.21-1.14,1.47-2.16a10.47,10.47,0,0,1,6-2.19,10,10,0,0,1,6.05,1.6C199.88,318.94,200.36,319.81,200.13,320.05Z"/><path class="cls-7" d="M159.75,327.33a3.85,3.85,0,0,1-3.49,4.06,3.67,3.67,0,0,1-4.12-3.24,3.83,3.83,0,0,1,3.48-4.06A3.67,3.67,0,0,1,159.75,327.33Z"/><path class="cls-7" d="M159.74,323c-.44.52-3.46-1.47-7.57-1.24s-7,2.45-7.49,2c-.23-.22.2-1.14,1.47-2.17a10.53,10.53,0,0,1,6-2.19,10.09,10.09,0,0,1,6.06,1.61C159.49,321.85,160,322.73,159.74,323Z"/><path class="cls-7" d="M176.29,352.68c0-.24,2.5-.81,6.62-1.56,1-.17,2-.43,2.16-1.16s-.29-1.88-.86-3.07l-3.53-7.83c-4.92-11.16-8.54-20.36-8.09-20.55s4.8,8.69,9.72,19.85l3.4,7.88c.47,1.18,1.22,2.49.77,4.1a2.6,2.6,0,0,1-1.65,1.62,6.81,6.81,0,0,1-1.77.35C178.9,352.75,176.32,352.91,176.29,352.68Z"/><path class="cls-15" d="M175.08,362.68a7.42,7.42,0,0,0-6.79-2.4,6.76,6.76,0,0,0-4.54,2.76,4.29,4.29,0,0,0-.07,4.92c1.2,1.5,3.53,1.74,5.47,1.07a15.66,15.66,0,0,0,5.09-3.41,4.66,4.66,0,0,0,1.11-1.28,1.38,1.38,0,0,0-.09-1.53"/><path class="cls-7" d="M164.34,356.16c.66-.07.91,4.39,4.9,7.36s8.72,2.22,8.78,2.85c.08.27-1,.92-3,1.08a11.15,11.15,0,0,1-7.31-2.12,9.69,9.69,0,0,1-3.83-6.19C163.59,357.29,164,356.15,164.34,356.16Z"/><path class="cls-16" d="M240.58,525.58l104.2,48.94a32.43,32.43,0,0,0,12.41,2.06h0c.63,0,1.25-.05,1.87-.11C375.92,575,388.35,560,387.72,543l5.84-127.74H349.85l-18.14,90.06L230.12,436.51a43.78,43.78,0,0,0-16.43-6.78L194.09,426"/><path class="cls-16" d="M194.09,426s24.15,94.9,20.26,132.78-7.54,129.88-7.54,129.88h27.82s10.67.79,8.12-16.81c-3.39-23.38-2.43-51.28-2.43-51.28s0-27.08,1.62-52.26c.67-10.44-.33-36.58-.33-36.58L236.51,501l5-46.46Z"/><path class="cls-7" d="M212.69,631.88a2,2,0,0,1,.13-.52l.47-1.48,1.88-5.67c1.59-4.94,4-12.06,6.14-21.08a116.69,116.69,0,0,0,2.52-14.91,137.43,137.43,0,0,0,.55-17.36c-.16-6.12-.6-12.55-1.19-19.19s-1.27-13.52-2.11-20.55a579.69,579.69,0,0,0-13.23-71.23c-2.24-9-4.32-16.22-5.72-21.22-.71-2.44-1.27-4.37-1.67-5.73-.17-.63-.3-1.12-.41-1.5a1.9,1.9,0,0,1-.11-.52,2.32,2.32,0,0,1,.19.49l.5,1.47c.43,1.36,1.05,3.27,1.82,5.7,1.5,5,3.68,12.17,6,21.16A547.12,547.12,0,0,1,221.94,531c.83,7,1.56,13.91,2.1,20.58s1,13.09,1.13,19.24a136.55,136.55,0,0,1-.62,17.45,114.38,114.38,0,0,1-2.65,15c-2.2,9-4.72,16.14-6.41,21.05-.87,2.4-1.55,4.28-2,5.62l-.56,1.45A3.65,3.65,0,0,1,212.69,631.88Z"/><path class="cls-7" d="M230.43,478.05a3.71,3.71,0,0,1,.38.87l.91,2.55c.8,2.21,1.83,5.46,3,9.5a221.66,221.66,0,0,1,6.6,32.21A220.11,220.11,0,0,1,243,556c-.11,4.2-.29,7.61-.5,10-.1,1.09-.18,2-.25,2.7a4.41,4.41,0,0,1-.14.93,3.87,3.87,0,0,1,0-1c0-.71,0-1.6.08-2.7.11-2.35.2-5.75.23-9.94a249.81,249.81,0,0,0-2-32.72,248,248,0,0,0-6.33-32.15c-1.08-4.06-2-7.33-2.72-9.57-.3-1.05-.56-1.91-.76-2.6A4.07,4.07,0,0,1,230.43,478.05Z"/><path class="cls-7" d="M337.65,532.05a13.32,13.32,0,0,1-2.35-3.45,35.55,35.55,0,0,1-3.52-9.44,36.16,36.16,0,0,1-.73-10.06,14.12,14.12,0,0,1,.71-4.11c.3,0-.83,6.37.87,14S337.91,531.92,337.65,532.05Z"/><g class="cls-17"><path d="M220.9,634.3c2.19-1.69,3.53-6.25,4.08-9,5.31-26,6.16-55.4-2-80.6,4.78,34.38.66,60.33-10.24,86.89"/></g><g class="cls-17"><path d="M330.34,504.73c-5.44,1.07-8.79,7.17-8.37,12.7s3.71,10.43,7.47,14.51c1.06,1.15,2.76,2.33,4,1.41a3.11,3.11,0,0,0,.87-2.8c-.23-4.4-1.88-8.59-3.08-12.83s-1.94-8.87-.4-13"/></g><polygon class="cls-4" points="120.61 413.04 172.55 475.69 185.99 419.48 194.09 426.02 202.23 461.3 170.9 489.1 149.07 493.39 128.19 485.84 113.19 421.5 120.61 413.04"/><path class="cls-7" d="M213.82,569.49a5.69,5.69,0,0,1-.27-1.08c-.15-.79-.35-1.82-.6-3.1s-.57-3-1-4.89-.87-4.07-1.5-6.44c-.31-1.19-.62-2.43-.95-3.73s-.76-2.62-1.16-4c-.75-2.78-1.77-5.69-2.75-8.78-2.12-6.12-4.68-12.77-7.72-19.6s-6.36-13.14-9.53-18.79c-1.65-2.79-3.15-5.48-4.72-7.89l-2.23-3.53-2.16-3.18c-1.34-2.05-2.66-3.83-3.81-5.41s-2.13-2.93-3-4l-1.91-2.51a5.81,5.81,0,0,1-.63-.92,4.58,4.58,0,0,1,.76.81l2.05,2.41c.89,1,1.94,2.36,3.11,3.92s2.54,3.31,3.93,5.35l2.21,3.16,2.27,3.51c1.61,2.41,3.13,5.1,4.82,7.88,3.21,5.65,6.52,12,9.62,18.84s5.59,13.54,7.68,19.7c1,3.1,2,6,2.69,8.83.38,1.39.76,2.74,1.11,4s.61,2.56.9,3.76c.6,2.38,1,4.57,1.39,6.48s.68,3.57.86,4.93.33,2.33.45,3.14A5,5,0,0,1,213.82,569.49Z"/><path class="cls-7" d="M194.67,484.94c.15.18-3.35,3.28-7.82,6.91s-8.2,6.42-8.36,6.24,3.35-3.28,7.82-6.91S194.51,484.75,194.67,484.94Z"/><path class="cls-7" d="M195.74,493.09c.12.23-3.17,2-6.63,4.94s-5.75,5.9-6,5.74,1.82-3.38,5.4-6.4S195.66,492.89,195.74,493.09Z"/><path class="cls-16" d="M49.83,513.12s44.31,91.25,41.4,118.44L80.34,688.68h41l16.89-.1c.46-24.3-2.37-90.37-3.86-136S114.89,419,114.89,419l-15.12,6.59c-21.66,1.07-50.78,14-56.54,46.07Z"/><path class="cls-16" d="M43.92,468,24.35,570.15,22.09,594A46.51,46.51,0,0,0,62,644.43l125,22.06,25.48-39.92-126.55-42L102.59,510Z"/><path class="cls-7" d="M64.45,644.86s.2,0,.59.07l1.74.27,6.73,1.12,25.31,4.35,88.26,15.42-.41.18,25.45-39.93.23.64-19.59-6.51L85.83,584.86l-.28-.09,0-.29c3.66-23.94,6.67-43.64,8.77-57.4,1.07-6.83,1.91-12.19,2.48-15.87.29-1.79.52-3.18.68-4.15s.26-1.42.26-1.42,0,.49-.16,1.44-.32,2.36-.57,4.16c-.53,3.69-1.31,9.06-2.29,15.9-2,13.77-4.94,33.49-8.48,57.44l-.23-.38,107,35.45,19.59,6.51.52.18-.29.46-25.5,39.91-.15.23-.26-.05-88.2-15.73-25.27-4.58-6.72-1.25L65,645A5.21,5.21,0,0,1,64.45,644.86Z"/><path class="cls-7" d="M87.76,584.86c0,.14-1.35,0-3.46.31a22.36,22.36,0,0,0-14.22,7.64c-1.38,1.61-2,2.77-2.17,2.7a8.85,8.85,0,0,1,1.69-3.08,20,20,0,0,1,14.65-7.87A8.73,8.73,0,0,1,87.76,584.86Z"/><path class="cls-7" d="M97.46,473.33c-.17,0-.5-2.48-2-6.19a31.73,31.73,0,0,0-23-19.25C68.56,447,66,447.15,66,447a5.84,5.84,0,0,1,1.77-.14,25.58,25.58,0,0,1,4.8.44A30.58,30.58,0,0,1,96,466.92a28,28,0,0,1,1.27,4.65A6.62,6.62,0,0,1,97.46,473.33Z"/><path class="cls-7" d="M131.54,599.43a2.13,2.13,0,0,1-.21-.4l-.53-1.22q-.72-1.72-2-4.74c-1.66-4.13-4.09-10.12-6.51-17.72a102.32,102.32,0,0,1-5.09-27.52c-.4-10.61,1.51-22.12,2.37-34.2a148.12,148.12,0,0,0-1.87-34,272.46,272.46,0,0,0-6.09-27.25c-2.1-7.68-4-13.85-5.22-18.12-.62-2.09-1.1-3.74-1.45-4.92-.14-.53-.26-.95-.35-1.29a2,2,0,0,1-.1-.45,1.48,1.48,0,0,1,.18.42l.44,1.26c.38,1.18.92,2.81,1.6,4.88,1.37,4.24,3.31,10.38,5.49,18.05a259,259,0,0,1,6.29,27.29,146.16,146.16,0,0,1,1.94,34.23c-.87,12.15-2.79,23.61-2.44,34.11a103.89,103.89,0,0,0,4.88,27.37c2.34,7.6,4.68,13.61,6.24,17.78l1.82,4.79c.19.51.34.93.46,1.26A1.63,1.63,0,0,1,131.54,599.43Z"/><g class="cls-17"><path d="M118.32,595.49c-3-11.18-6-22.45-6.73-34s1-23.55,6.81-33.53c-3.74,24.59,2.79,50.37,14.67,72.23"/></g><g class="cls-17"><polygon points="85.28 662.75 138.31 661.2 138.47 657.92 88.01 649.16 85.28 662.75"/></g><g class="cls-17"><polygon points="95.85 518.52 92.24 586.63 85.94 584.53 95.85 518.52"/></g><polygon class="cls-14" points="210.31 630.98 239.73 640.64 250.1 631.83 288.98 646.23 284.7 675.41 279.49 675.45 273.82 660.23 247.18 670.5 236.04 673.59 190.69 662.03 210.31 630.98"/><path class="cls-7" d="M138.59,688.68v-3.24a6.56,6.56,0,0,1,6.56-6.56h88.34l38.25-111.34a10.71,10.71,0,0,1,10.14-7.25H449.29a1.11,1.11,0,0,1,1,1.48L405.59,688.68Z"/><circle class="cls-9" cx="348.95" cy="624.49" r="10.09"/><path class="cls-6" d="M914.86,92.07a20.59,20.59,0,0,1,3.83-4l-1-5,7.78-3.45,3.07,4.12a21,21,0,0,1,5.55-.14L937,79.27l7.94,3.06-.75,5.09a20.31,20.31,0,0,1,4,3.83l5.05-1L956.66,98l-4.13,3.07a20.94,20.94,0,0,1,.14,5.54l4.27,2.87-3.06,7.94-5.08-.75a21.2,21.2,0,0,1-3.83,4l1,5-7.78,3.45-3.07-4.13a21,21,0,0,1-5.55.14l-2.86,4.27-7.94-3.06.74-5.09a20.5,20.5,0,0,1-4-3.82l-5,1L907,110.75l4.12-3.08a20.93,20.93,0,0,1-.14-5.54l-4.26-2.86,3-7.94,5.09.74Zm8.59,8.67a9.13,9.13,0,1,0,11.8-5.23A9.12,9.12,0,0,0,923.45,100.74Z"/></svg>