<svg id="Camada_1" data-name="Camada 1" xmlns="http://www.w3.org/2000/svg" viewBox="0 0 1000 700"><defs><style>.cls-1{fill:#fafafa;}.cls-2{fill:#bcbcbc;}.cls-3{fill:#ececec;}.cls-26,.cls-4{fill:#fff;}.cls-5{fill:#f0f0f0;}.cls-6{fill:#e1e1e1;}.cls-7{fill:#e7e7e7;}.cls-8{fill:#f5f5f5;}.cls-9{fill:#170060;}.cls-10{fill:#8fca03;}.cls-11{fill:#1a2e35;}.cls-12{fill:#375a64;}.cls-13{fill:#ffaaa8;}.cls-14{fill:#2b454e;}.cls-15,.cls-25{fill:#d268cc;}.cls-16{fill:#4c2a8e;}.cls-17{opacity:0.3;}.cls-18{fill:#ff9090;}.cls-19{fill:#c76668;}.cls-20{fill:#fdff58;}.cls-21{fill:#90cc00;}.cls-22{fill:#c6ff00;}.cls-23,.cls-25{opacity:0.6;}.cls-24{opacity:0.4;}.cls-26{opacity:0.2;}.cls-27{fill:#ffbea7;}.cls-28{fill:#ff9a79;}</style></defs><path id="Floor" class="cls-1" d="M240.94,623.93c-143.07-82.61-143.07-216.54,0-299.14s375-82.6,518.12,0,143.07,216.53,0,299.14S384,706.53,240.94,623.93Z"/><path class="cls-2" d="M585.79,636.22,398.1,534.35q.42-214.69.85-429.4L585.79,207.6Z"/><path id="Shadow" class="cls-3" d="M773.58,492.63c-16.89,9.75-16.89,25.57,0,35.32s44.29,9.76,61.18,0,16.9-25.56,0-35.32S790.48,482.88,773.58,492.63Z"/><path id="Shadow-2" data-name="Shadow" class="cls-3" d="M220.23,501.72c13.15,7.67,13.15,20.12,0,27.79s-34.46,7.68-47.6,0-13.15-20.12,0-27.79S207.09,494,220.23,501.72Z"/><ellipse id="Shadow-3" data-name="Shadow" class="cls-3" cx="850.66" cy="635.3" rx="110.03" ry="63.53"/><ellipse id="Shadow-4" data-name="Shadow" class="cls-3" cx="225.45" cy="606.47" rx="110.03" ry="63.53"/><path id="Shadow-5" data-name="Shadow" class="cls-3" d="M409.65,518,621.08,640c2.32,1.34,2.32,3.51,0,4.86L590,662.69a9.22,9.22,0,0,1-8.4,0l-211.43-122c-2.33-1.34-2.33-3.51,0-4.85L401.24,518A9.3,9.3,0,0,1,409.65,518Z"/><g id="Picture"><g id="Frame"><polygon class="cls-1" points="334.28 211.62 336.94 213.2 391.54 181.68 388.88 180.1 334.28 211.62"/><polygon class="cls-4" points="388.88 180.1 336.94 210.07 336.95 48.86 388.88 18.9 388.88 180.1"/><path class="cls-5" d="M396.56,8.64,331.93,46V221.9l64.63-37.32Zm-5,173L337,213.2V48.86l54.59-31.52Z"/><polygon class="cls-6" points="391.54 181.68 388.88 180.1 388.88 18.9 391.54 17.34 391.54 181.68"/><polygon class="cls-1" points="396.56 8.64 393.86 7.1 329.22 44.41 331.93 45.96 396.56 8.64"/><polygon class="cls-6" points="329.22 44.41 331.93 45.96 331.93 221.9 329.22 220.35 329.22 44.41"/></g><g id="Land"><polygon class="cls-5" points="384.98 176.99 340.84 202.47 340.84 53.55 384.98 28.07 384.98 176.99"/></g><g id="Land-2" data-name="Land"><polygon class="cls-5" points="384.98 176.99 340.84 202.47 340.84 53.55 384.98 28.07 384.98 176.99"/></g><path class="cls-1" d="M340.84,159.67a41.54,41.54,0,0,0,6.31-.06,79.55,79.55,0,0,0,21.5-4.67c5.34-2,10.68-4.53,16.33-4.69V177l-6,3.45a20.1,20.1,0,0,0-8.19-4.55c-8.51-2.24-17.23,2-26,3a35.6,35.6,0,0,1-4,.2Z"/><path class="cls-1" d="M340.84,107.15c9.88-2.92,20-5.35,27.06-12.6,5.68-5.84,8.35-13.93,10.22-21.86s3.16-16.12,6.75-23.43c0-.07.08-.14.11-.21v79.58c-.55.83-1.1,1.65-1.69,2.45-6.49,8.79-16,16.13-27,16.7-5.13.26-10.42-.94-15.5-.92Z"/><path class="cls-1" d="M340.84,77.78c7.57-6.68,11.63-17.4,9.78-27.38-.14-.74-.31-1.48-.5-2.21l17-9.8c-.06,1.12-.12,2.23-.15,3.35-.18,6.48.05,13-1.39,19.37a38,38,0,0,1-19.35,25,36.64,36.64,0,0,1-5.37,2.24Z"/></g><g id="Picture-2" data-name="Picture"><g id="Frame-2" data-name="Frame"><polygon class="cls-1" points="668.68 89.64 666.37 91.02 619.16 63.76 621.46 62.38 668.68 89.64"/><polygon class="cls-4" points="621.46 62.38 666.37 88.31 666.37 41.27 621.46 15.36 621.46 62.38"/><path class="cls-5" d="M614.81,66.26l55.91,32.28V38.77L614.81,6.49ZM619.16,14l47.21,27.26V91L619.16,63.76Z"/><polygon class="cls-6" points="619.16 63.76 621.46 62.38 621.46 15.36 619.16 14.01 619.16 63.76"/><polygon class="cls-1" points="614.81 6.49 617.15 5.16 673.05 37.43 670.72 38.77 614.81 6.49"/><polygon class="cls-6" points="673.05 37.43 670.72 38.77 670.72 98.54 673.05 97.2 673.05 37.43"/></g><g id="Land-3" data-name="Land"><polygon class="cls-5" points="623.21 60.98 664.62 84.89 664.62 72.93 654.27 49.02 647.82 55 650.14 65.02 635.84 34.44 623.21 49.02 623.21 60.98"/><path class="cls-5" d="M648.21,37.48a6.77,6.77,0,0,1,3.06,5.3c0,2-1.37,2.75-3.06,1.77a6.77,6.77,0,0,1-3.07-5.3C645.14,37.29,646.52,36.5,648.21,37.48Z"/></g></g><g id="Picture-3" data-name="Picture"><g id="Frame-3" data-name="Frame"><polygon class="cls-1" points="720.41 199.74 718.11 201.12 670.89 173.85 673.19 172.48 720.41 199.74"/><polygon class="cls-4" points="673.19 172.48 718.11 198.41 718.1 151.37 673.19 125.46 673.19 172.48"/><path class="cls-5" d="M666.54,176.36l55.91,32.27V148.87l-55.91-32.28Zm4.35-52.25,47.21,27.26v49.74l-47.22-27.26Z"/><polygon class="cls-6" points="670.89 173.85 673.19 172.48 673.19 125.46 670.89 124.11 670.89 173.85"/><polygon class="cls-1" points="666.54 116.59 668.88 115.25 724.78 147.53 722.45 148.87 666.54 116.59"/><polygon class="cls-6" points="724.78 147.53 722.45 148.87 722.45 208.63 724.78 207.3 724.78 147.53"/></g><g id="Land-4" data-name="Land"><polygon class="cls-5" points="674.94 171.07 716.35 194.98 716.35 183.03 706 159.12 699.55 165.1 701.87 175.12 687.57 144.54 674.94 159.12 674.94 171.07"/><path class="cls-5" d="M699.94,147.58a6.76,6.76,0,0,1,3.06,5.3c0,2-1.37,2.75-3.06,1.77a6.77,6.77,0,0,1-3.06-5.3C696.88,147.39,698.25,146.6,699.94,147.58Z"/></g></g><g id="Window"><g id="Window-2" data-name="Window"><g id="Frame-4" data-name="Frame"><polygon class="cls-1" points="38.22 328.41 41.41 330.31 149.84 267.7 146.66 265.8 38.22 328.41"/><polygon class="cls-4" points="146.66 265.8 41.41 326.56 41.41 84.1 146.66 23.36 146.66 265.8"/><path class="cls-5" d="M155.86,11.07,35.39,80.62V340.73l120.47-69.55Zm-6,256.63L41.41,330.31V84.1L149.84,21.49Z"/><polygon class="cls-6" points="149.84 267.7 146.66 265.8 146.66 23.36 149.84 21.49 149.84 267.7"/><polygon class="cls-1" points="41.41 242.2 41.41 245.94 149.84 183.34 146.66 181.44 41.41 242.2"/><polygon class="cls-1" points="41.41 157.8 41.41 161.54 149.84 98.93 146.66 97.03 41.41 157.8"/><polygon class="cls-1" points="155.86 11.07 152.62 9.22 32.16 78.77 35.39 80.62 155.86 11.07"/><polygon class="cls-6" points="32.16 78.77 35.39 80.62 35.39 340.73 32.16 338.87 32.16 78.77"/><polygon class="cls-6" points="87.79 57.32 91.03 55.45 91.03 301.67 87.79 299.82 87.79 57.32"/></g><polygon class="cls-5" points="97.04 51.99 91.03 55.45 91.03 301.67 97.04 298.19 97.04 51.99"/><polygon class="cls-5" points="155.86 95.46 155.86 102.4 35.39 171.95 35.39 165.01 155.86 95.46"/><polygon class="cls-5" points="155.86 179.85 155.86 186.79 35.39 256.34 35.39 249.4 155.86 179.85"/><polygon class="cls-1" points="91.03 132.89 87.79 131.02 41.41 157.8 41.41 161.54 91.03 132.89"/><polygon class="cls-1" points="91.03 217.26 87.79 215.39 41.41 242.16 41.41 245.91 91.03 217.26"/></g></g><g id="Window-3" data-name="Window"><path class="cls-7" d="M961.82,125.5c0-36.83-24.25-80.69-54.17-98-15.84-9.14-30.09-9-40-1.38-12.32,5.11-20.2,19.28-20.2,40.27V280L955.8,342.6l6-3.47Z"/><path class="cls-8" d="M955.8,342.6V129c0-36.84-24.25-80.7-54.17-98s-54.18-1.42-54.18,35.41V280Z"/><path class="cls-6" d="M949.88,129V332.34l-96.5-55.73V66.42c0-18.4,6.47-31.1,17.36-35.1a22.34,22.34,0,0,1,7.9-1.37c6.17,0,12.9,2.08,20,6.2C926.91,52.45,949.88,94.09,949.88,129Z"/><polygon class="cls-3" points="853.38 276.62 859.5 273.09 949.88 325.28 949.88 332.34 853.38 276.62"/><path class="cls-4" d="M949.88,129v196.3L859.5,273.09l0-210.21c0-14.62,4.11-25.65,11.26-31.56a22.34,22.34,0,0,1,7.9-1.37c6.17,0,12.9,2.08,20,6.2C926.91,52.45,949.88,94.09,949.88,129Z"/><polygon class="cls-8" points="904.59 306.19 898.66 302.76 898.66 34.01 904.59 34.01 904.59 306.19"/><path class="cls-6" d="M910.52,44.71V302.77l-5.93,3.41V40C906.61,41.44,908.58,43,910.52,44.71Z"/><polygon class="cls-8" points="853.38 234.81 898.66 260.96 898.66 267.91 853.38 241.77 853.38 234.81"/><polygon class="cls-3" points="859.5 231.28 853.38 234.81 898.66 260.96 898.66 254 859.5 231.28"/><polygon class="cls-8" points="904.59 264.37 949.88 290.52 949.88 297.47 904.59 271.33 904.59 264.37"/><polygon class="cls-3" points="910.71 260.84 904.59 264.37 949.88 290.52 949.88 283.57 910.71 260.84"/><polygon class="cls-8" points="853.38 79.62 898.66 105.77 898.66 112.72 853.38 86.58 853.38 79.62"/><polygon class="cls-3" points="859.5 76.09 853.38 79.62 898.66 105.77 898.66 98.82 859.5 76.09"/><polygon class="cls-8" points="904.59 109.18 949.88 135.33 949.88 142.28 904.59 116.14 904.59 109.18"/><polygon class="cls-3" points="910.71 105.66 904.59 109.18 949.88 135.33 949.88 128.38 910.71 105.66"/></g><path class="cls-9" d="M76.26,516.28c-11.1-17-10.67-41.82,2.59-57.18,4.12-4.77,9.87-8.91,16.15-8.37s11.6,6.06,13.56,12.2,1.27,12.81.13,19.16c-1.61,8.88-4.31,18-10.47,24.58s-14,13.94-22,9.61"/><path class="cls-10" d="M81.21,597.48a25.4,25.4,0,0,1,7.08-28.83c2.55-2.08,5.89-3.7,9.08-2.85s5.43,4.17,5.88,7.52-.5,6.71-1.67,9.88c-1.63,4.43-3.85,8.87-7.62,11.71s-9,5.52-12.75,2.57"/><path class="cls-9" d="M54.43,591.65c3.06-15.06-4.88-31.68-18.51-38.77-4.23-2.2-9.44-3.5-13.71-1.37S15.75,559,16.09,563.9s2.69,9.36,5.28,13.51c3.62,5.8,8.06,11.44,14.25,14.35s14.45,5.15,18.81-.11"/><path class="cls-10" d="M56.36,550.93c5.31-17.16-3.7-38-18.73-47.81-4.66-3.06-10.57-5.18-15.78-3.2s-8.4,8-8.57,13.69,2,11.21,4.56,16.33c3.53,7.17,8,14.25,14.88,18.37s18,8.23,23.64,2.62"/><path class="cls-11" d="M67,634.79a3,3,0,0,1-.18-.83c-.09-.62-.21-1.41-.35-2.39-.08-.53-.16-1.1-.24-1.73s-.26-1.31-.4-2c-.28-1.46-.57-3.14-1.05-4.95L64.13,620l-.9-3.06c-.57-2.13-1.41-4.34-2.21-6.68a127.34,127.34,0,0,0-6.62-14.69,129.56,129.56,0,0,0-8.58-13.64c-1.52-2-2.89-3.88-4.34-5.54l-2.06-2.44-2-2.15c-1.25-1.41-2.48-2.57-3.55-3.61l-1.48-1.46-1.31-1.16-1.8-1.62a3.36,3.36,0,0,1-.59-.6,4.06,4.06,0,0,1,.69.49l1.89,1.52,1.35,1.11,1.53,1.42c1.1,1,2.36,2.16,3.64,3.55l2.05,2.14c.67.78,1.37,1.59,2.1,2.42,1.48,1.65,2.88,3.57,4.42,5.53A122.24,122.24,0,0,1,55,595.22,121.19,121.19,0,0,1,61.65,610c.78,2.37,1.61,4.59,2.16,6.74l.87,3.09c.22,1,.44,2,.65,2.88.45,1.84.7,3.52.94,5,.12.73.23,1.42.34,2.06s.12,1.21.18,1.74c.09,1,.16,1.79.22,2.42A4.44,4.44,0,0,1,67,634.79Z"/><path class="cls-11" d="M66.64,637.88a1.48,1.48,0,0,1,0-.34c0-.27,0-.6.08-1,.08-.93.2-2.2.35-3.81.08-.83.17-1.75.27-2.75s.1-2.11.17-3.29c.08-2.35.31-5,.23-8,0-1.48,0-3,0-4.66s-.17-3.3-.25-5c-.12-3.49-.59-7.19-1-11.09a174.67,174.67,0,0,0-5.26-24.95A174.87,174.87,0,0,0,52,549.14c-1.78-3.5-3.4-6.86-5.2-9.85-.89-1.51-1.67-3-2.54-4.37L41.74,531c-1.55-2.54-3.2-4.66-4.56-6.59-.7-1-1.32-1.86-1.93-2.67s-1.21-1.5-1.73-2.16l-2.37-3c-.24-.32-.44-.58-.61-.79a1,1,0,0,1-.18-.29s.09.07.24.24l.66.75,2.48,2.92,1.78,2.12c.63.79,1.27,1.69,2,2.63,1.4,1.92,3.08,4,4.66,6.55l2.57,3.91c.89,1.36,1.69,2.85,2.59,4.36,1.83,3,3.48,6.35,5.28,9.86a169.42,169.42,0,0,1,9.28,23.88,168.45,168.45,0,0,1,5.23,25.07c.41,3.92.86,7.64,1,11.15.07,1.75.21,3.44.21,5.06s0,3.19,0,4.68c0,3-.21,5.67-.34,8-.08,1.18-.13,2.28-.22,3.29s-.24,1.92-.34,2.75c-.21,1.6-.37,2.87-.49,3.8-.06.4-.1.72-.14,1S66.66,637.88,66.64,637.88Z"/><path class="cls-11" d="M95.56,471.24a1.33,1.33,0,0,1-.15.32c-.12.24-.28.53-.47.89-.47.82-1.1,2-1.9,3.39-.41.73-.9,1.53-1.37,2.44s-1,1.92-1.49,3-1.1,2.22-1.71,3.43-1.13,2.56-1.74,3.93-1.26,2.82-1.88,4.34-1.21,3.13-1.84,4.78l-1,2.53c-.3.86-.59,1.74-.9,2.64l-1.85,5.51c-2.36,7.62-4.59,16.09-6.47,25.09s-3.11,17.7-4,25.61-1.41,15.09-1.57,21.12c-.16,3-.19,5.73-.2,8.13s0,4.46,0,6.14,0,2.94.06,3.89c0,.41,0,.74,0,1a1.35,1.35,0,0,1,0,.35s0-.12-.05-.35,0-.6-.07-1c0-.95-.11-2.25-.19-3.89s-.13-3.75-.13-6.15,0-5.13.08-8.15c.1-6,.65-13.22,1.42-21.17s2.18-16.64,4-25.68,4.15-17.53,6.55-25.15c.64-1.89,1.28-3.73,1.89-5.52l.91-2.65q.51-1.28,1-2.52c.66-1.65,1.29-3.25,1.89-4.78s1.32-3,1.93-4.34,1.2-2.69,1.79-3.92,1.22-2.34,1.77-3.41,1.07-2,1.54-3,1-1.7,1.43-2.42l2-3.33.54-.85C95.48,471.33,95.55,471.23,95.56,471.24Z"/><path class="cls-11" d="M91.78,575.47a14.51,14.51,0,0,1-1.18,2.07c-.81,1.3-1.93,3.22-3.23,5.62s-2.76,5.33-4.21,8.64a114.59,114.59,0,0,0-4.08,11,116.35,116.35,0,0,0-2.85,11.4c-.66,3.55-1.13,6.78-1.39,9.5s-.44,4.94-.5,6.47a14.69,14.69,0,0,1-.2,2.37,14.78,14.78,0,0,1-.09-2.38c0-1.54.06-3.76.27-6.5s.62-6,1.25-9.58a108.63,108.63,0,0,1,2.81-11.5,106.87,106.87,0,0,1,4.17-11.07,94.84,94.84,0,0,1,4.37-8.62c1.37-2.38,2.56-4.26,3.44-5.52A15.93,15.93,0,0,1,91.78,575.47Z"/><polygon class="cls-12" points="45.22 627.15 94.01 627.15 88.11 676.98 51.3 676.98 45.22 627.15"/><polygon class="cls-11" points="47 671.6 51.15 676.98 88.11 676.98 92.37 671.77 47 671.6"/><path class="cls-1" d="M92.11,641.8c0,.2-10.13.37-22.61.37s-22.61-.17-22.61-.37,10.12-.36,22.61-.36S92.11,641.6,92.11,641.8Z"/><path class="cls-1" d="M92.11,645.12c0,.2-10.13.36-22.61.36s-22.61-.16-22.61-.36,10.12-.36,22.61-.36S92.11,644.92,92.11,645.12Z"/><path class="cls-1" d="M91.5,648.33c0,.2-9.77.37-21.82.37s-21.82-.17-21.82-.37,9.77-.36,21.82-.36S91.5,648.13,91.5,648.33Z"/><path class="cls-11" d="M52.68,519.76a2.5,2.5,0,0,1,0,.48c0,.36-.07.81-.11,1.35-.13,1.25-.3,2.93-.5,5-.45,4.18-1.1,10-1.84,16.35l-.09.72,0,.21h-.22c-6.27.1-11.91.16-16,.18H29.09l-1.31,0a1.48,1.48,0,0,1-.45,0,2.23,2.23,0,0,1,.45-.05l1.31-.07,4.81-.15c4.08-.11,9.72-.23,16-.33l-.24.22.09-.72c.74-6.38,1.45-12.16,2-16.34.27-2,.49-3.7.66-4.94.08-.54.15-1,.2-1.34A1.89,1.89,0,0,1,52.68,519.76Z"/><path class="cls-11" d="M41.58,504.86a1.72,1.72,0,0,1,0,.49c0,.38,0,.84,0,1.4,0,1.29,0,3,0,5.14-.06,4.34-.18,10.34-.34,17,0,.27,0,.53,0,.78v.26l-.26,0a153.3,153.3,0,0,0-16.4-.37c-2.09.07-3.78.15-4.95.21l-1.34.07a2.1,2.1,0,0,1-.47,0,1.5,1.5,0,0,1,.46-.09c.31,0,.76-.1,1.34-.15,1.16-.12,2.85-.26,4.94-.37a127.84,127.84,0,0,1,16.46.22l-.27.24c0-.25,0-.51,0-.78.16-6.62.34-12.62.49-17,.08-2.11.15-3.85.2-5.14,0-.55.06-1,.08-1.39A3.26,3.26,0,0,1,41.58,504.86Z"/><path class="cls-11" d="M28.6,499.79a7.59,7.59,0,0,1,.31,1.43c.18,1,.43,2.33.72,3.92.63,3.31,1.62,7.87,3,12.87l.15.53-.49-.24-.59-.29a42.36,42.36,0,0,0-13-3.8c-1.73-.21-3.15-.29-4.12-.33a9.66,9.66,0,0,1-1.52-.08s.13,0,.39,0,.64,0,1.13-.06a35.79,35.79,0,0,1,4.16.17,39.5,39.5,0,0,1,13.17,3.71l.6.29-.35.28a124.8,124.8,0,0,1-2.88-12.94c-.27-1.67-.46-3-.57-4A8.62,8.62,0,0,1,28.6,499.79Z"/><path class="cls-11" d="M97.49,590.62c0,.08-1.41-.07-3.69-.16a63.27,63.27,0,0,0-8.87.29c-.7.08-1.39.16-2,.25l-.23,0,0-.23c-.53-2.95-1-5.55-1.27-7.42a21,21,0,0,1-.38-3,20.35,20.35,0,0,1,.7,3c.38,1.85.88,4.44,1.42,7.39l-.27-.2,2.06-.26a49.76,49.76,0,0,1,8.94-.14c1.14.08,2.06.2,2.7.29A4.4,4.4,0,0,1,97.49,590.62Z"/><path class="cls-11" d="M102.1,581.47c0,.08-1.37-.24-3.57-.51a38.68,38.68,0,0,0-8.66-.09c-.53,0-1,.12-1.53.19l-.25,0,0-.25c-.31-3-.55-5.72-.71-7.65a21,21,0,0,1-.16-3.11,21,21,0,0,1,.48,3.08c.25,1.92.56,4.6.88,7.63l-.28-.22c.49-.07,1-.14,1.55-.19a33.87,33.87,0,0,1,8.76.23c1.1.18,2,.39,2.6.55A3.4,3.4,0,0,1,102.1,581.47Z"/><path class="cls-11" d="M105.41,494.73a3.05,3.05,0,0,1-.49.25l-1.42.64-5.28,2.24L80.74,505.1l-.94.39-.22.09-.1-.22C76.6,498.84,74,493,72.1,488.68c-.9-2.08-1.64-3.79-2.17-5l-.57-1.38a2.05,2.05,0,0,1-.17-.49,2,2,0,0,1,.26.45c.17.36.38.8.65,1.34.57,1.24,1.35,2.92,2.31,5l7.52,16.62-.32-.13,1-.39,17.53-7.1,5.33-2.1,1.46-.55A2,2,0,0,1,105.41,494.73Z"/><path class="cls-11" d="M109.68,473.66a2.42,2.42,0,0,1-.43.31l-1.28.83-4.76,3-15.89,9.69-.26.15-.1-.28-.29-.77c-2.59-7-4.93-13.31-6.66-18-.81-2.26-1.48-4.11-2-5.47-.21-.6-.38-1.1-.51-1.49a1.91,1.91,0,0,1-.15-.53,1.81,1.81,0,0,1,.24.49c.16.39.35.87.6,1.47l2.11,5.41,6.79,17.91.29.77-.36-.13,16-9.56,4.84-2.83,1.33-.75A1.72,1.72,0,0,1,109.68,473.66Z"/><path class="cls-11" d="M108.28,462.41a7,7,0,0,1-1,.62c-.68.38-1.67.94-2.88,1.68a51.76,51.76,0,0,0-8.84,6.92l-.61.6.2-.83c.22-.88.41-1.8.57-2.74a32,32,0,0,0-.69-13,39.55,39.55,0,0,0-1.25-3.78,10.1,10.1,0,0,1-.53-1.38,7.7,7.7,0,0,1,.7,1.3,28.35,28.35,0,0,1,1.41,3.76,30.37,30.37,0,0,1,.84,13.18c-.15,1-.35,1.89-.57,2.78l-.41-.24a46.38,46.38,0,0,1,9-6.84c1.23-.72,2.25-1.23,3-1.57A6.73,6.73,0,0,1,108.28,462.41Z"/><path class="cls-11" d="M52.61,571.8a7.06,7.06,0,0,1-.22,1.26c-.17.8-.42,2-.68,3.43A83,83,0,0,0,50.4,588v.22l-.22,0-1.1.06c-4.84.29-9.22.53-12.39.68l-3.76.15a6.76,6.76,0,0,1-1.38,0,8.92,8.92,0,0,1,1.37-.18l3.75-.3c3.17-.24,7.55-.53,12.38-.82l1.1-.07-.24.24a72.61,72.61,0,0,1,1.47-11.6c.32-1.45.61-2.61.84-3.41A5.9,5.9,0,0,1,52.61,571.8Z"/><path class="cls-11" d="M43,558.05a7,7,0,0,1-.08,1.27c-.11.91-.24,2.07-.4,3.47-.35,2.94-.88,7-1.49,11.58l0,.2h-.2l-1.57.11c-5,.33-9.43.84-12.66,1.27l-3.82.51a7.38,7.38,0,0,1-1.41.14,7.81,7.81,0,0,1,1.38-.33c.89-.18,2.19-.42,3.8-.67,3.22-.51,7.7-1.08,12.67-1.42l1.58-.1-.23.22c.62-4.57,1.21-8.64,1.65-11.56l.54-3.45A5.77,5.77,0,0,1,43,558.05Z"/><path class="cls-11" d="M31.74,552.13c.07,0-.22,1.34-.57,3.52a63.42,63.42,0,0,0-.79,8.64v.27l-.28,0-.81-.1a76.74,76.74,0,0,0-9.22-.55l-2.8,0a4.36,4.36,0,0,1-1,0,3.88,3.88,0,0,1,1-.17c.66-.07,1.62-.14,2.81-.19a58.81,58.81,0,0,1,9.28.41l.82.11-.28.23a50.89,50.89,0,0,1,.94-8.68c.22-1.09.44-2,.6-2.55A4.17,4.17,0,0,1,31.74,552.13Z"/><path class="cls-11" d="M96,565.88a42.38,42.38,0,0,1-2.17,5,43.5,43.5,0,0,1-2.35,4.87A36.89,36.89,0,0,1,96,565.88Z"/><path class="cls-11" d="M102.15,572.37a52.58,52.58,0,0,0-5.55,1.13,49.74,49.74,0,0,0-5.21,2.21A12.77,12.77,0,0,1,96.45,573,12.89,12.89,0,0,1,102.15,572.37Z"/><g id="Character"><g id="Bottom"><path class="cls-13" d="M814.19,576.69c.24-12.71-1-69.34-1-69.34l37.46.39c-5.36,47.75-7.71,63.9-8.59,69l-.35,2.39a8.1,8.1,0,0,1,.18,1.8c.35,8.4-9.21,13.44-16.57,19.43-2.91,2.37-11.36,9.35-20,14.12-5.41,3-16.64,3.81-18.19.43A156.21,156.21,0,0,0,809,593.64C812.38,589.72,814,585,814.19,576.69Z"/><path d="M767.55,626.2c-.51,0-1,5.49,1.84,7.65,3.3,2.5,12.83,6.39,25.09,4.2s18.76-6.23,23.51-10.49,11.4-10.27,16.92-11.76c5.13-1.37,10.65-3.94,12.24-5.58s1-8.54,1-8.54Z"/><path class="cls-14" d="M804.12,594c.75-.82,1.49-1.65,2.2-2.49a20.6,20.6,0,0,0,1.79-2.46,6.13,6.13,0,0,1,.56-.84,3.14,3.14,0,0,0,.5-1l1.08-2.79c.65-1.68,1.44-3.51,3.07-4.27a6.84,6.84,0,0,1,3.94-.17,100.91,100.91,0,0,1,9.89,2.06,4.26,4.26,0,0,1,2.16,1c1.22,1.36.3,3.46-.17,5.22-.19.7-.06,1.72.66,1.74a1.19,1.19,0,0,0,.75-.35c2.27-1.91,3.24-5.17,5.77-6.72,1.74-1.06,4.23-2.1,5.4-3.76l.37-2.52a2.4,2.4,0,0,1,2,.77,6.67,6.67,0,0,1,.95,3.32c.22,1.94.32,3.68.65,5.61.51,3,1.49,4.77,2.16,7.39a23.54,23.54,0,0,1,.76,8.72,5.15,5.15,0,0,1-1.73,3.32,17.08,17.08,0,0,1-5.08,3.57c-2.57,1.25-5.25,2.26-7.88,3.39-5.42,2.32-11.6,6.85-17,11.62-5.58,4.93-17.55,10.21-25.58,10.74-12.26.81-21.09-2.75-23.74-6.9-.41-2.9-.78-5.91.41-8.07,3.85-7,13.26-9.86,20.67-14.09a84.46,84.46,0,0,0,9.26-6.43A50.31,50.31,0,0,0,804.12,594Z"/><path class="cls-1" d="M811.17,612.3a1.13,1.13,0,0,1-1.39-.19c-5.34-5.38-15.41-8.6-18.83-7.38,0,0,.42-1.66,3.81-2.64,0,0,8.92-.85,17.7,7.7a1.18,1.18,0,0,1-.21,1.84Z"/><path class="cls-1" d="M799.33,598.57c3.7-1.41,12.6,2.61,17,7a1.06,1.06,0,0,0,1.41.12l1.09-.84a1.1,1.1,0,0,0,.09-1.68c-2.49-2.33-9.63-8.31-16.55-7.37C802.36,595.8,799.62,597.19,799.33,598.57Z"/><path class="cls-1" d="M806.32,591.5c2.64-.61,9.63.93,15.45,5.6a.94.94,0,0,0,1.46-.3l.52-1a1,1,0,0,0-.25-1.23c-2-1.64-8.81-6.57-15.25-5.73A6.32,6.32,0,0,0,806.32,591.5Z"/><path class="cls-15" d="M784.13,608.49c15.31,3.36,21.18,13.37,24,21.58-5.49,2.7-11.84,4.79-16.74,5.11-12.26.81-21.09-2.75-23.74-6.9-.41-2.9-.78-5.91.41-8.07C771.11,614.55,777.79,611.62,784.13,608.49Z"/><path class="cls-1" d="M784.13,608.49c12.35.12,23.82,10.62,24,21.58-5.49,2.7-11.84,4.79-16.74,5.11-12.26.81-21.09-2.75-23.74-6.9-.41-2.9-.78-5.91.41-8.07C771.11,614.55,777.79,611.62,784.13,608.49Z"/><path class="cls-13" d="M882,524.26l35.52-4.52c2.6,21.79,5,52,7,72.3l.58,7.7s5.81,27.34,4.58,35.57c-1.86,12.37-20.74,9.59-22,2.28s-5.66-21.09-9.21-40.42C897,590.15,882.2,525.41,882,524.26Z"/><path d="M902.65,647.17l10.68-28.67c3.16-2.15,6.81-6.39,10.58-4.38a16.2,16.2,0,0,1,3.67,2.39c2.88,2.72,3.35,6.88,4.35,10.59s3.69,7,4.46,10.84c1.46,7.26,2,11.88.52,18.73s-7.37,11-13.38,13.27c-5,1.89-11.61.81-14.72-3.68C904.9,660.61,903.32,655,902.65,647.17Z"/><path class="cls-14" d="M902.65,647.17C907,640.1,930.27,636,937,641.71c-.12-.89-.26-1.85-.42-2.85-1.51-9.27-2.33-10.82-5-19.3a84.36,84.36,0,0,1-2.93-12c-.74-4.22-1.38-9-1.8-12-.58-4.12-2.36-3.52-2.36-3.52l.58,7.7s-.54.21-.89-1.35-.32-3.84-1.76-4.54c-3.48-1.72-18.33,2.09-21.12,4.95-.54.54-1.22,1-.59,4.13.4,2,.45,2.77-.34,3.08l-1.91-8.84c-1.35.43-1.72,2.15-1.13,5.22,1.53,7.91,3.39,11.35,4,17.94.52,5.85.36,10.81.68,17.52A68.92,68.92,0,0,0,902.65,647.17Z"/><path class="cls-1" d="M928.57,628c-6.53-.6-16.84,1.55-21.41,4.12a.61.61,0,0,1-.88-.55l-.11-1.56a.62.62,0,0,1,.29-.59c1.66-1,9.76-5.61,21.79-4.1a.65.65,0,0,1,.54.51l.42,1.38A.62.62,0,0,1,928.57,628Z"/><path class="cls-1" d="M926.57,619.32c-6.48-.43-14.25.79-20,4.12a.58.58,0,0,1-.87-.49l-.08-1.32a.62.62,0,0,1,.31-.56c1.67-1,8.53-5.14,20.47-4a.6.6,0,0,1,.53.46l.27,1A.62.62,0,0,1,926.57,619.32Z"/><path class="cls-1" d="M924.83,610.4c-6.48-.43-13.53.58-19.25,3.9a.57.57,0,0,1-.86-.49l-.08-1.31a.61.61,0,0,1,.3-.56c1.67-1,7.81-4.94,19.75-3.77a.6.6,0,0,1,.53.45l.27,1A.62.62,0,0,1,924.83,610.4Z"/><path class="cls-1" d="M936.93,641.8c.55,6.59.26,11.12-2.71,16.25-3.8,6.55-18.77,13.36-25.88,4.37-3.53-4.47-5.09-9.75-5.69-15.25C906.61,639.94,930.27,636,936.93,641.8Z"/><path class="cls-16" d="M904.92,347.86c3.7,38.64,5.57,66,7.54,94.54,1.72,24.82,1.82,31.66,4.48,52.47,4.35,34,6.41,78.43,6.41,78.43s-12.1,8.21-29.65,5.5c0,0-13.63-44.68-19.93-77.16C868,472,859.66,424.76,859.66,424.76L854.58,466s.51,6.25-1.93,31.48c-1.21,12.52-7.71,67.43-7.71,67.43s-17.72,4.21-31.41-1.94c0,0-2.4-79.33-2.75-90.84-.5-16.31-2.13-127-2.45-139.35Z"/><path class="cls-14" d="M812.91,565.75c14,6.29,32,1.67,32,1.67l1.17-10s-4.13,2.38-15,2.24a52.69,52.69,0,0,1-18.21-3.24Z"/><path class="cls-17" d="M859.66,424.76l-7-40.43a34,34,0,0,1-23.79-11.5c4.78,12,19.44,16.1,19.44,16.1L855.71,428l-1.13,38Z"/><path class="cls-14" d="M894,582.39c15.16,2.38,30.08-6.12,30.08-6.12l-.52-10.07S920.46,569,910,571.76a52.81,52.81,0,0,1-18.43,1.67Z"/></g><g id="Top"><path class="cls-13" d="M721,316.61c9.92.47,28.34,1.14,44.08,1.59,16.53.48,19.9,1.52,27.79-8.24s22.34-32.23,22.34-32.23,12.61-34.21,9.35-47.37c-12.68-.78-20.72,4.4-25.16,10.87-5.83,8.49-30.95,48.82-30.95,48.82s-37.23,3.77-46.24,3-11.7-2.61-15.69-5.59c-6-4.49-8.89-4.38-14-10.31-2.46-2.82-4.26,1.11-3.71,3.76,1.12,5.33,6.07,9.34,5.77,11.34-.2,1.28-2.26,1.33-5.93.42-7-1.73-13.43-4.49-20.38-6.35-2.67-.71-6.13-.83-8.14,1.58a1,1,0,0,0-.28.51,1.15,1.15,0,0,0,.41.88,11.73,11.73,0,0,0,1.91,1.67c.49.35,2,1.29,2,1.29s-2,1.66-1.41,2.79a9.2,9.2,0,0,0,4.37,3.71c-.16,1.44.2,4.21,4.78,5.76-.37,1.11,1.22,3.94,7,6.55A83.46,83.46,0,0,0,696.19,316C704.79,317.47,711.08,316.13,721,316.61Z"/><path class="cls-11" d="M826.14,226.19c-13.17.65-20.59,3.74-29.16,17.47-8.73,14-19.53,31.56-19.53,31.56a84.33,84.33,0,0,1,15.2,5.8c8,4,12.17,12.92,12.17,12.92l11.12-16.15C822.9,260.64,827.42,241.2,826.14,226.19Z"/><path class="cls-18" d="M695.66,296.64c2.23,4.05,11.32,9.14,19.15,7.08-4.67,3.26-10.33,1.46-13.06.32A11.86,11.86,0,0,1,695.66,296.64Z"/><g id="Chest"><path class="cls-14" d="M902.38,233.76a66.63,66.63,0,0,1,5,26.1c-.27,13.75-2.22,32.79-3.18,54.16-.68,15.29,2.58,46.83,2.58,46.83-15.7,13.34-82.86,17.24-98.93-2.8,0,0-.22-33.77.32-59.71.36-17.38,1.07-36.53,2.73-45.79,3.87-21.43,11-23.24,15.2-26.36,8.12-2,17-4.38,17-4.38s3-2.11,20.36-.07C878.63,223.52,902.38,233.76,902.38,233.76Z"/></g><g id="Head"><path class="cls-11" d="M874.83,210.46c5.68-10.37,11.14-17.08,14.93-28.4,1.53-4.59,3.72-15.08,1.1-21-1.82-4.15-4.5-7.38-9-7.35,1-5.9-1.83-9.36-4.32-11.8a9.33,9.33,0,0,0-9.71-2A8,8,0,0,0,854,135.58a8.45,8.45,0,0,0-8.42-4.31,9.22,9.22,0,0,0-7.81,6.25,14.68,14.68,0,0,0-9-3.57c-3.3,0-6.7,1.87-7.92,4.94s-.18,6.35.87,9.39A4.84,4.84,0,0,0,814.1,153c.21,1.23.89,2.41.75,3.65a2.85,2.85,0,0,1-5,1.61,6,6,0,0,0,7.15,7.19A4.6,4.6,0,0,0,818.9,170a5.45,5.45,0,0,0,3.87.67Z"/><path class="cls-13" d="M824,201.05c1.78,8.19,5.08,11.95,10.67,13.87,3.82,1.31,9.22.86,9.22.86l-.35,8c-2.88,6.32-2.42,10.43-.2,24.64,8.55-11.25,22.76-7.72,31.4-22.56l.25-27.12s3.51,4.11,9.46.36c4.08-2.58,7.08-9.35,4.24-15.67s-8.71-3.75-10.54-1.9-3.9,5-5.47,4.81c-2.42-.2-3-2.23-3.57-3.75-1-2.66-1.7-6.08-1.72-12-1.62-.85-3.84-1.67-4.52-3.6-2.47-7-.07-9.12,1.3-12.15-6.31-4.25-15.65,3.44-22.71,4.34-8.08,1-9.91-3.6-14.31-3a39.73,39.73,0,0,0-3.91,14.18C822.26,179.69,821.52,189.86,824,201.05Z"/><path class="cls-18" d="M843.84,215.78c6.47-.27,19.5-3.09,23-6.64S872,198.23,872,198.23s-.66,9.31-3.39,13.38-9.53,5.76-13.64,6.72a101.21,101.21,0,0,1-11.26,1.54Z"/><path class="cls-19" d="M849.69,196.75l-8.23,2.44a4.21,4.21,0,0,0,5.26,3A4.49,4.49,0,0,0,849.69,196.75Z"/><path class="cls-18" d="M849.13,198.63a4.7,4.7,0,0,0-4.79,3.58,4,4,0,0,0,2.38,0,4.4,4.4,0,0,0,3-3.51A4.34,4.34,0,0,0,849.13,198.63Z"/><path class="cls-11" d="M826.61,172.85l6-2.69a3.16,3.16,0,0,0-4.25-1.75A3.47,3.47,0,0,0,826.61,172.85Z"/><path class="cls-11" d="M856.16,172.64l-6.31-2.2a3.2,3.2,0,0,1,4.14-2.12A3.52,3.52,0,0,1,856.16,172.64Z"/><path class="cls-11" d="M833.2,179.1a2.84,2.84,0,0,1-2.59,3,2.66,2.66,0,0,1-2.91-2.49,2.83,2.83,0,0,1,2.6-2.94A2.65,2.65,0,0,1,833.2,179.1Z"/><path class="cls-11" d="M853.41,179.36a2.84,2.84,0,0,1-2.6,2.95,2.66,2.66,0,0,1-2.9-2.49,2.84,2.84,0,0,1,2.59-2.95A2.66,2.66,0,0,1,853.41,179.36Z"/><path class="cls-18" d="M831.51,190.66l8.86,3.57,2.88-17.33C840.06,176.16,834.78,184.69,831.51,190.66Z"/></g><path class="cls-11" d="M843.29,248.46c1.37-1.75,6.66-7.1,11.89-3.8a36.59,36.59,0,0,1,8.3,7.13s11.66-8.85,17.16-19.53c2.27-4.42,1.9-5.3,0-9.21a24.37,24.37,0,0,0-4.55-6.88,1.87,1.87,0,0,0-1.31-.36l0,3.15a32.67,32.67,0,0,1-9.46,14.47C857.84,240.15,846.56,239,843.29,248.46Z"/><path class="cls-11" d="M843.29,248.46a71.92,71.92,0,0,1-.43-15.74c.47-3.72.63-8.9.63-8.9l.25-5.88a9.45,9.45,0,0,0-4,3.52c-1.61,2.27-4.28,5.06-6.55,11.34s-2.33,8.79-2.44,10.91c1.78-2.22,6.9-4,8.45-1.73S843.29,248.46,843.29,248.46Z"/><path class="cls-13" d="M836.85,353.21c9.69-2.2,27.21-4.38,42.51-8.15,16-4,17.79-5.31,22.77-16.82s7.25-17.94,12.92-37.37,13.48-47.48-12.67-55.54c-5.86,5.2-9.79,17.19-12.33,24.61-3.34,9.74-16.76,54.11-16.76,54.11s-34.86,14.81-43.73,16.52-12,.61-16.62-1.19c-7-2.71-9.73-1.84-16.29-6.17-3.13-2.07-3.81,2.21-2.57,4.61,2.51,4.84,9.31,6.47,7.71,8.58-.84,1.11-3.53,1.89-7.11,2-7.24.31-14.2-.18-21.94,1.44-3.86.8-5.86,1.7-7.16,4.56a1.39,1.39,0,0,0-.13.56c0,2,5.19,2,5.19,2a3.45,3.45,0,0,0-.6,3.62c.55,1.26,3.18,2.27,5.2,2.41.23,1.43.58,3.41,5.41,3.68-.06,1.17,3.42,3.69,9.67,4.67,4.86.76,14.61-.2,19.85-.93C819.54,359.13,827.17,355.41,836.85,353.21Z"/><path class="cls-11" d="M902.38,233.76c10.48,4.12,17.06,9.41,19.15,16s.28,19.52-3.67,33.29C914.37,295.24,910,308.4,910,308.4s-2-6.95-13.62-11.73c-10.19-4.19-17-3.9-17-3.9s8.29-27.74,10.4-34.32S895.09,239.22,902.38,233.76Z"/></g></g><g id="Mobile"><g id="Mobile-2" data-name="Mobile"><path class="cls-20" d="M577.13,609.22l-150.61-87c-5.21-3-9.46-10.36-9.46-16.4V131.19l.75.43c29.06,16.87,131.22,75.63,149.77,86.46a14.45,14.45,0,0,1,2.91,2.18c3.86,3.6,6.64,9.38,6.64,14.26Zm29.18-409.14a27.75,27.75,0,0,0-12.52-21.7L416.7,76.14c-6.92-4-14.94-2.28-19.8.53s-10.35,5.84-10.35,16.88V525.64a26,26,0,0,0,1.69,9.6,23.82,23.82,0,0,0,10.84,12.1L576.16,649.58c6.91,4,15.4.92,20.28-1.89s9.87-7.52,9.87-15.51Z"/><path class="cls-21" d="M606.31,200.08v432.1c0,8-5,12.7-9.87,15.51s-13.37,5.88-20.28,1.89L399.07,547.34a23.82,23.82,0,0,1-10.84-12.1l.71-.4,1.95-1.12c1.74,4.33,4.91,8.4,8.52,10.48L572.27,644c7.44,4.3,13.52.79,13.52-7.78V207.6a18.18,18.18,0,0,0-2.56-8.64l19.41-11.22A25.58,25.58,0,0,1,606.31,200.08Z"/><path class="cls-22" d="M577.13,609.22l-150.61-87c-5.21-3-9.46-10.36-9.46-16.4V131.19l.75.43c29.06,16.87,131.22,75.63,149.77,86.46a14.45,14.45,0,0,1,2.91,2.18c3.86,3.6,6.64,9.38,6.64,14.26Zm8.66-401.62a19.38,19.38,0,0,0-8.8-15.22L399.41,89.85c-5.49-3.17-10-.58-10,5.75V526.94a18.2,18.2,0,0,0,1.46,6.78c1.74,4.33,4.91,8.4,8.52,10.48L572.27,644c7.44,4.3,13.52.79,13.52-7.78Z"/><path class="cls-22" d="M591.6,249.59a10.59,10.59,0,0,1,4.63-8.37,3.07,3.07,0,0,1,3.17-.27c.59.36,2.87,1.63,3.48,2a3.63,3.63,0,0,1,1.42,3.29v58a10.57,10.57,0,0,1-4.63,8.37,3.14,3.14,0,0,1-3,.33c-.64-.34-3-1.69-3.58-2a3.61,3.61,0,0,1-1.44-3.29Z"/><path class="cls-21" d="M595.05,251.57v58c0,3.14,2.07,4.5,4.62,3a10.57,10.57,0,0,0,4.63-8.37v-58c0-3.15-2.07-4.5-4.63-3A10.61,10.61,0,0,0,595.05,251.57Z"/></g><path class="cls-15" d="M469.26,143.24c-1.62-.93-2.93-.18-2.93,1.69a6.42,6.42,0,0,0,2.93,5.06c1.62.95,2.92.18,2.92-1.68A6.47,6.47,0,0,0,469.26,143.24Zm36.4,22.15L481.59,151.5c-1.42-.81-2.59-.23-2.59,1.32a5.61,5.61,0,0,0,2.59,4.32L505.66,171c1.43.83,2.59.24,2.59-1.32A5.59,5.59,0,0,0,505.66,165.39Z"/><path class="cls-23" d="M469.26,143.24c-1.62-.93-2.93-.18-2.93,1.69a6.42,6.42,0,0,0,2.93,5.06c1.62.95,2.92.18,2.92-1.68A6.47,6.47,0,0,0,469.26,143.24Zm36.4,22.15L481.59,151.5c-1.42-.81-2.59-.23-2.59,1.32a5.61,5.61,0,0,0,2.59,4.32L505.66,171c1.43.83,2.59.24,2.59-1.32A5.59,5.59,0,0,0,505.66,165.39Z"/><path class="cls-24" d="M577.13,609.22v11c0,6-4.23,8.49-9.46,5.46L407.56,533.19c-5.21-3-9.46-10.36-9.46-16.4V134.06c0-7.62,5.39-10.72,12-6.92l2.91,1.69,1,.57,1.42.83,1.21.7.44.26V505.85c0,6,4.25,13.41,9.46,16.4Z"/><path class="cls-25" d="M418.14,527.49c-5-2.89-9.11-10-9.11-15.8V129a13.29,13.29,0,0,1,.19-2.25,13.34,13.34,0,0,0-1.31-.57,14.7,14.7,0,0,0-.26,2.82V511.69c0,6.27,4.4,13.89,9.8,17L577.1,620.87c0-.23,0-.45,0-.69v-.89Z"/><path class="cls-26" d="M418.14,527.49c-5-2.89-9.11-10-9.11-15.8V129a13.29,13.29,0,0,1,.19-2.25,13.34,13.34,0,0,0-1.31-.57,14.7,14.7,0,0,0-.26,2.82V511.69c0,6.27,4.4,13.89,9.8,17L577.1,620.87c0-.23,0-.45,0-.69v-.89Z"/></g><g id="Character-2" data-name="Character"><g id="Bottom-2" data-name="Bottom"><path class="cls-14" d="M158.09,557.06c-.67,3.8-1.94,8.21-3,16s.65,8.08-4.3,27.58c-3,11.71-2.37,16.35,4.84,26.14,7.73,10.48,15.7,8.29,20.82-3.45,4.37-10,4.07-14.68,4-25s0-13.37.44-21.59c.36-7.24-.28-12.18.13-17.73Z"/><path class="cls-27" d="M156,585.46c1.35-10.05,1.61-20.45,2.08-27.23,1.05-15.21-2.26-45.22-.26-68.08l38.48-4.2c-1.22,8.92-11.57,49.3-15.25,73.65,0,0-1.27,33-3.29,47.56a2.79,2.79,0,0,1-3.89,2.2,25.31,25.31,0,0,0-17.44-1,2.79,2.79,0,0,1-3.75-2.63C152.68,600.36,154.93,593,156,585.46Z"/><path class="cls-27" d="M264.43,485c.54,32.65,1.48,61.55,2.82,70s1.89,11.29,4.19,17.17,6.09,13.69,9.42,17.44c0,0,9.54,9.75,7.48,10.82S266.79,604,258,601.56s-9.89-9.86-13.16-23.34S238.58,545,238.58,545a8.43,8.43,0,0,0,.86-2.31c1.07-3.93-2.08-17.21-3.81-26Z"/><path class="cls-11" d="M230.32,565.41c.64,3.15,3.44,6.67,4.75,11.57A87.92,87.92,0,0,1,238,594.05c.53,7.05.61,8.06.61,8.06l2.19-.17s-.78-10.19-1.12-14.66-.15-7.78,2-8.42C241.62,578.86,240.89,564.6,230.32,565.41Z"/><path class="cls-14" d="M238.9,543.16c-1.34,3.77-6,9.13-8,12.74a13.53,13.53,0,0,0-1.54,6.17,6.43,6.43,0,0,0,2,4.76,72.46,72.46,0,0,1,7,7.38c2.74,3.53,7.94,11.8,9.45,17.68s2.44,11.08,7.58,13.91c4,2.2,20.33,5.05,28.56,5.4,11.25.48,14-5,9.75-9.21s-11.59-11.45-12.89-12.35a20.46,20.46,0,0,0-10.41,1.68c-6.22,2.84-8.15,6.54-14.83,3.38-6-2.85-8.65-13.86-8.48-29.77C247.33,546.86,238.9,543.16,238.9,543.16Z"/><path class="cls-14" d="M178.44,282.87a18.17,18.17,0,0,1-2,7.56c-5.15,10.5-16.49,25.73-16.78,47.45-.19,13.41,1.19,61.21,2.07,104.08-.42,4.64-4.08,15.86-4.92,42.34-.67,21.1.31,53.93.31,53.93s15.07,7.52,28.28,2.64c5.43-20.1,14.63-68.43,20-91.43,5.67-24.24,9.07-47.53,9.07-47.53l8.09,35.42a123.24,123.24,0,0,0,0,27.43c1.5,14.11,15.23,65.42,15.23,65.42s16.74,5.33,28.14-2.44c0,0,1.26-73.38,1.47-88.9s1.57-105.55-7.67-146.19c-.43-1.89-.49-9.43-.49-9.43C248.08,292.3,193.16,293,178.44,282.87Z"/><path class="cls-12" d="M158.92,536.52c0-.2-.21-20,0-45.48.15-20.1,2.86-30.62,5-39.07a85.08,85.08,0,0,0,2.63-13c.93-9,1-23.88,1.12-44.48,0-9.91.11-21.15.28-33.4.51-36.4,7-50.65,17.59-69.8l1.21.67c-10.5,19-16.91,33.08-17.41,69.15-.17,12.25-.23,23.48-.29,33.39-.11,20.64-.19,35.56-1.12,44.61a86,86,0,0,1-2.67,13.16c-2.16,8.39-4.85,18.82-5,38.74-.19,25.45,0,45.26,0,45.45Z"/><path class="cls-12" d="M246.62,527.91c-.69-3.72-1.55-8.22-2.5-13.14-3.45-18-7.75-40.36-8.6-51.89a149.11,149.11,0,0,1-.18-18.34,121.39,121.39,0,0,0-.06-14.24c-.83-11.63-9.79-77.14-9.89-77.8l1.38-.19c.09.66,9.06,66.22,9.89,77.89a119.66,119.66,0,0,1,.06,14.39,148.5,148.5,0,0,0,.18,18.18c.84,11.46,5.14,33.79,8.58,51.74,1,4.92,1.81,9.42,2.5,13.14Z"/><path class="cls-12" d="M156.93,530.93c5.7,5.32,23.31,6.85,30.25,3.22l-2.23,11s-4.59,3-14.6,2.06-13.16-5-13.16-5Z"/><path class="cls-12" d="M236.21,523.2c5.95,2,23.71,1.24,30.27-2.72l-.4,9.42s-3.71,3.48-13.72,4.41S238,532.4,238,532.4Z"/><path class="cls-11" d="M214.51,401.91l9.66-57.53a32.87,32.87,0,0,0,26.41-12.32s.27,13-21.17,18.7L218.55,400.6l4,36.73Z"/><path class="cls-11" d="M259.64,291.9s-9.06,11.26-46.79,9c-25.37-1.51-34.14-8-36.39-10.49h0a21.65,21.65,0,0,0,1.79-6.6c0-.39.15-.72.19-1,14.72,10.08,69.64,9.43,80.83.35,0,0,.05,6.07.37,8.68Z"/></g><g id="Top-2" data-name="Top"><g id="Hair"><path class="cls-14" d="M226.32,169.17c1-2.86,1.73-6,3.57-8.51s4.52-4,6.76-5.94l7.23-6.33c8.84-6.88,10.39-20.81,6.38-26.7C241,108.08,221.88,106,211.91,107.16c-18.9,2.18-27.22,8.57-27.49,18.6-5.76,1-8.63,4.26-11,8.84-1.74,3.39-2.13,7.29-2.22,11-.13,6,3.89,13.39-1.79,18.16-2.76,2.33-6,2.6-9.14,4a13.09,13.09,0,0,0-6,5.74c-1.36,2.57-1.07,5.22-1.38,8a12,12,0,0,1-3.93,7.7c-2,1.78-4.12,2.9-5.7,5.1-4.15,5.79-4.32,9.93-3.47,15.51a19.58,19.58,0,0,0,4.31,9.36c5.65,6.8,14.49,10.68,22.55,13.76a44.8,44.8,0,0,0,13.6,2.71c5.24.32,11.72,0,16.74-1.55,5.25-1.67,11.92-4.29,15.45-8.77,3.19-4.06,3.34-10.79,3-15.7-.39-5.86-2.81-11.17-3.75-16.87a15.89,15.89,0,0,1,.31-6.69c1-3.33,2.12-7.52,5.44-9S225.08,172.81,226.32,169.17Z"/><path class="cls-11" d="M222,131.85c0-9.19,9.06-19.46,21.42-14.81s13.29,21.17,10.39,28.89,7.32,11.88,8.52,19.55-6,13.74-2.06,17.71,7.75-1,6.4-3.58c2.8,2,2.43,6.23-.43,8.43a9.64,9.64,0,0,1-8.52,1.48c4,1.35,9.25,6.29,10.56,10.31a12.1,12.1,0,0,1-1.1,9.56c-1.15,2.27-2.57,4.85-2.12,7.52s2.42,4.73,2.83,7.54c.54,3.74-.71,6.84-2.78,9.89-3.92,5.8-12.57,8.22-19.25,7.88-4.45-.22-7.87-2.91-11.2-5.64-4.4-3.59-8.81-4.39-14.4-4.11a47.26,47.26,0,0,1-9.14-.33c-5.25-.75-9.78-4.09-14.36-6.58a18.57,18.57,0,0,1-9.08-10.15c-4.18-11.8,9.09-18.73,16.38-24.71,4.34-3.57,9.06-7.31,12.66-11.65,5.8-7,4.22-17.67,4.47-26.11Q221.52,142.39,222,131.85Z"/></g><path class="cls-28" d="M234,197.21c8.77,1.53,12.44,1.27,20.56,7S296.51,272,296.51,272s-6.7,3.78-16.39,1.07-24.22-11.87-24.22-11.87Z"/><path class="cls-16" d="M174.06,200s12.29-3.24,20.4-4.87c7.29-1.47,17.83-1.5,24.86-.56a122.3,122.3,0,0,1,14.44,2.5,234.52,234.52,0,0,1,20.55,23.64c9.12,12.33,10.85,16.62,10.1,27.12-.56,7.88-5.63,14.1-5.63,14.1.37,7.51.64,15.72,1.22,24-16.34,12-66.3,12.5-81.75-2.09.86-14.18,1.1-21.7-3.41-36.77C170.21,231.61,166.17,207.88,174.06,200Z"/><path class="cls-27" d="M240.93,136.39c2.35,5.4,3.71,16.38,4,21.33,1,18.67-4.23,24.73-8.71,27.65-2.79,1.82-7.68,3-13.71,2.62l-.35,8.59s15.61,14.36.85,16.9c-19.18,3.3-29.8-17.3-29.8-17.3l.88-20.26c-1.94,1.74-5.35,1.32-7.58-.13-3.37-2.2-5.66-7.58-5.8-10.11a8.9,8.9,0,0,1,1.45-6,6.55,6.55,0,0,1,5.42-2.45c2.95.33,3.93,1.57,5.24,3.09,1.74,2,1.89,5.07,4.65,3.3,2.25-1.43,1.62-4.45,1.81-7.22a9.86,9.86,0,0,1,.8-3.3,37.15,37.15,0,0,0,1.65-3.35,22.73,22.73,0,0,0,1-7.11c.15-4.81-.37-9.5,4.66-11.86a13,13,0,0,1,6.72-1,65.68,65.68,0,0,1,7.93,2.14C228.41,121.79,236.32,125.76,240.93,136.39Z"/><path class="cls-18" d="M216.33,157c.42,2.07-2,4.31-5.3,5s-6.42-.43-6.85-2.5,1.95-4.3,5.31-5S215.91,154.9,216.33,157Z"/><path class="cls-18" d="M248.19,153.22c0,2.11-2.77,3.83-6.2,3.83s-6.2-1.72-6.2-3.83,2.78-3.82,6.2-3.82S248.19,151.11,248.19,153.22Z"/><path class="cls-19" d="M217.73,168.44l10.72,3.17a5.5,5.5,0,0,1-6.84,4A5.86,5.86,0,0,1,217.73,168.44Z"/><path class="cls-18" d="M217.83,171.85a4.71,4.71,0,0,1,6.77,3.72,5.24,5.24,0,0,1-3,0A5.73,5.73,0,0,1,217.83,171.85Z"/><path class="cls-11" d="M218.11,152.86a2.78,2.78,0,1,1-3.12-2.39A2.78,2.78,0,0,1,218.11,152.86Z"/><path class="cls-11" d="M237.81,149.52a2.78,2.78,0,1,1-3.12-2.39A2.78,2.78,0,0,1,237.81,149.52Z"/><path class="cls-11" d="M240,144.38l-6.74-3.06a3.55,3.55,0,0,1,4.79-1.92A3.88,3.88,0,0,1,240,144.38Z"/><path class="cls-11" d="M214.31,143.36l-5.6,4.84a3.54,3.54,0,0,1,.26-5.15A3.89,3.89,0,0,1,214.31,143.36Z"/><polygon class="cls-28" points="224.21 147.64 227.43 167.41 237.31 162.06 224.21 147.64"/><path class="cls-28" d="M222.49,188c-14.85-1.51-20.62-5.18-24.47-12.19,0,0,1.31,9.13,8.19,12.26,7.22,3.29,16.13,3.78,16.13,3.78Z"/><path class="cls-27" d="M174.06,200c-6,1.63-14.31,5.62-15.65,16.62-.91,7.47,1.13,25.64,4.19,40.14,2.43,11.54,5.5,25.63,12.45,26.79S190,262.08,190,262.08s-3.32-23.64-4.85-36.39C183.88,215.18,180.34,205.31,174.06,200Z"/><path class="cls-28" d="M185.56,229c-6.74,10.33-18.89,28-15.23,38.53-.9-8.82,9.91-23,15.82-33.86C185.94,232.08,185.74,230.52,185.56,229Z"/><path class="cls-27" d="M217.58,194.89h0c-1-2.56-2.71-4.25-4.72-6.15-2.54-2.4-8.12-10.41-9-11.56s-2-5.45-3-8.28-1.73-4.66-4.58-3.79c0-.17-.09-.6-.26-1.56-.38-2.25-1.16-3-2.2-3.23a3.39,3.39,0,0,0-1.5,0,4.23,4.23,0,0,0-1.14-2.15c-1.06-1-2.06-1-2.54-.47s-.33,2-.28,5.41a50.51,50.51,0,0,0,.41,7.7,5.48,5.48,0,0,0-.46,3.22c.29,1.86.87,9.92,2.49,13,1,1.81,6.92,10.19,8.45,13.31,1.86,3.45-1,8.42-4.43,14.63-4,7.16-6.5,15.06-14.4,28.13a91,91,0,0,0-7.7,15.12,37.09,37.09,0,0,0-2.12,20.62c1.21,7,9.68,5.77,17.46,1.31,9.22-5.28,12.33-10.5,15-15.64,4.12-8,7-22.63,9.45-32.89,3.52-14.51,4.53-19,5-21.87C218.52,204.24,219.29,199.19,217.58,194.89Z"/><path class="cls-28" d="M190.83,187.09c1.12,1.8,2.46,3.67,3.7,5.5s2.48,3.66,3.66,5.53a19,19,0,0,1,1.59,2.95,6.89,6.89,0,0,1,.21,3.37,21.25,21.25,0,0,1-2.4,6.23c-1.07,1.94-14.58,28.88-17.14,32.49,2.43-3.7,15.69-30.77,16.74-32.71a20.68,20.68,0,0,0,2.4-6.07,6.57,6.57,0,0,0-.17-3.18,21.16,21.16,0,0,0-1.52-2.9C195.62,194.52,191.65,188.78,190.83,187.09Z"/><path class="cls-28" d="M196.29,165.12a1.58,1.58,0,0,0-.17,1.22c.07.42.19.84.3,1.26l.62,2.54c.4,1.69.75,3.38,1.09,5.08.17.84.29,1.75.5,2.52s.62,1.57,1,2.36l2.21,4.73a39.38,39.38,0,0,1-2.84-4.41,20.52,20.52,0,0,1-1.14-2.41,11.24,11.24,0,0,1-.31-1.31l-.26-1.28c-.32-1.71-.64-3.43-.9-5.16-.14-.86-.25-1.72-.36-2.58,0-.43-.1-.87-.11-1.32A1.59,1.59,0,0,1,196.29,165.12Z"/><path class="cls-28" d="M192.35,160.37c-.54.22-.56.8-.49,1.28s.18,1,.28,1.53c.18,1,.34,2.06.48,3.09.27,2.06.43,4.14.69,6.17a23.25,23.25,0,0,0,1.88,5.8c.79,1.9,1.7,3.78,2.54,5.68a52.79,52.79,0,0,1-3.13-5.41,18.88,18.88,0,0,1-2.17-5.94c-.29-2.09-.4-4.16-.54-6.23,0-1-.12-2.07-.21-3.1,0-.52-.08-1-.07-1.57a2.53,2.53,0,0,1,.12-.81A.9.9,0,0,1,192.35,160.37Z"/><path class="cls-28" d="M188.88,170.64c.17.94.56,2,.93,3.37s.84,2.78,1.38,4.84a34.89,34.89,0,0,0,1.3,4.52,4,4,0,0,1-1-2c-.46-1.38-.6-1.9-1.23-3.93s-.87-2.69-1.11-3.79A10.61,10.61,0,0,1,188.88,170.64Z"/><path class="cls-28" d="M212.5,231.68c1.43-6.09,2.86-12.19,4.2-18.3a93.24,93.24,0,0,0,1.55-9.24,19.39,19.39,0,0,0-.83-9.18l.21.09h0l-.15.05-.05-.15a12.85,12.85,0,0,0-2.55-3.93c-1-1.18-2.3-2.18-3.35-3.41-2.09-2.42-4-5-5.85-7.56l-1.4-1.93c-.24-.33-.46-.62-.7-1a6.64,6.64,0,0,1-.55-1.1c-.6-1.5-1-3-1.52-4.55s-.9-3.06-1.52-4.49a3.33,3.33,0,0,0-1.42-1.7,3,3,0,0,0-2.19,0l-.2.06,0-.21a12.34,12.34,0,0,0-.83-3.46,2.21,2.21,0,0,0-1.22-1.11,2.86,2.86,0,0,0-1.69,0l-.17,0,0-.17a3.93,3.93,0,0,0-1-2,2.31,2.31,0,0,0-1.89-.87.9.9,0,0,0-.72.62,3.57,3.57,0,0,0-.15,1.1c0,.76,0,1.54.05,2.31l.09,4.64a31.56,31.56,0,0,0,.33,4.58v.05l0,0a6.93,6.93,0,0,0-.35,4c.12,1.15.53,4.42.69,5.55a34.26,34.26,0,0,0,1.14,5.59,31.56,31.56,0,0,1-1.31-5.51c-.34-1.9-.51-4.07-.69-5.59a7.08,7.08,0,0,1,.32-4.13v.09a30.46,30.46,0,0,1-.37-4.65l-.11-4.63c0-.77-.07-1.54-.06-2.33a3.79,3.79,0,0,1,.16-1.19,1.21,1.21,0,0,1,.94-.82,2.6,2.6,0,0,1,2.18.95,4.3,4.3,0,0,1,1.08,2.12l-.21-.13a3.21,3.21,0,0,1,1.89,0,2.55,2.55,0,0,1,1.42,1.26,6.31,6.31,0,0,1,.57,1.77l.31,1.8-.24-.15a3.4,3.4,0,0,1,2.47,0,3.65,3.65,0,0,1,1.6,1.87,46,46,0,0,1,1.56,4.54c.48,1.51.94,3,1.54,4.5a7.05,7.05,0,0,0,.51,1c.2.3.47.64.69,1l1.39,1.94c1.87,2.57,3.74,5.15,5.79,7.56,1,1.2,2.27,2.2,3.33,3.41a13.21,13.21,0,0,1,2.59,4.05l-.2-.1h0l.15,0,.06.15a19.75,19.75,0,0,1,.8,9.34,93.3,93.3,0,0,1-1.6,9.26C215.57,219.54,214,225.6,212.5,231.68Z"/><path class="cls-28" d="M257,185.47s-.77-.49-.81-2.27.25-3,.23-4.94-.47-5.31-2.23-5.85-3.11,3.47-3.55,6.79-.69,5.28-3.33,8.79-5,8.13-3.23,12.59Z"/><path class="cls-27" d="M269.69,180.22c-.62-3.36-.05-7.44-.11-10.07a28.33,28.33,0,0,0-1.39-7.6c-.78-2.69-1.23-6.15-2.12-6.59s-2.56.43-2.71,2.48c0,0-1-1.63-1.91-3.3s-1.35-3.7-2.77-4.2-2.37,1.74-2,3.41.64,2.64.64,2.64-1.49.5-.55,3.54a14.86,14.86,0,0,0,1.65,3.47c.24,2.29.21,3.4,1.11,5.35a26.69,26.69,0,0,0,1.32,5.82c-.68,1.48-2.11,3.17-2.37,5.83s.09,3.33-3.3,6.2c-2.29,1.93-6.07,4-8.32,6.77s-3.91,5.75-1.81,9.85,3.77,7.07,5.7,11.36c1.45,3.24,2.8,7.46,8.67,22.69,4.55,11.84,5.54,15.48,7.49,19.83,2.82,6.34,5.62,8.71,12.26,12,9.64,4.82,21.09,4.79,20.44-3.67-.77-10.14-3.15-18.09-6.86-24-2.34-3.75-4.24-5.19-9-11.77-3.93-5.48-5.43-6.91-10.76-13.95s-8.75-13.57-8.51-15.75c.4-3.67,2.6-8.82,3.69-11.47C269.83,185.08,270.47,185.29,269.69,180.22Z"/><path class="cls-19" d="M244.07,200.58c.26,2.06,1.52,3.73,2.38,5.59s1.81,3.67,2.67,5.53,1.72,3.71,2.53,5.59,1.63,4.57,2.39,6.47c-.94-1.82-1.85-4.47-2.74-6.31s-1.76-3.69-2.65-5.53L246,206.37l-1.31-2.77A7.37,7.37,0,0,1,244.07,200.58Z"/><path class="cls-28" d="M263.36,158.44a15.73,15.73,0,0,0,.49,2.74c.22.89.49,1.78.79,2.62l.05.13-.05.18a10.66,10.66,0,0,0-.26,1.45,12.3,12.3,0,0,0,0,1.49,9.28,9.28,0,0,0,.57,2.9l.08.24-.1.17a7.37,7.37,0,0,0-.52,1,8.63,8.63,0,0,0-.4,1.11,8.41,8.41,0,0,0-.29,1.15,11.57,11.57,0,0,0-.15,1.2,6.82,6.82,0,0,1-.13-2.47,7.36,7.36,0,0,1,.25-1.24,6.65,6.65,0,0,1,.46-1.21l0,.4a8.84,8.84,0,0,1-.72-4.88,7.53,7.53,0,0,1,.38-1.63v.3a15.06,15.06,0,0,1-.52-2.82A9.33,9.33,0,0,1,263.36,158.44Z"/><path class="cls-28" d="M257.29,157a7.58,7.58,0,0,0,.86,1.33,9.55,9.55,0,0,0,1.06,1.13l.07.07,0,.15a12.57,12.57,0,0,0,.94,3.17,8.86,8.86,0,0,0,1.8,2.66l.24.24-.11.32a11.24,11.24,0,0,0-.39,1.77,16.79,16.79,0,0,0-.11,1.88,17.33,17.33,0,0,0,.12,1.91c0,.65.19,1.28.3,1.93a11.57,11.57,0,0,1-1.18-3.78,11.46,11.46,0,0,1-.07-2,8,8,0,0,1,.36-2.05l.13.56a7.55,7.55,0,0,1-1.18-1.41,8.55,8.55,0,0,1-.83-1.62,10.37,10.37,0,0,1-.5-1.73,8.84,8.84,0,0,1-.18-1.79l.09.22a6.88,6.88,0,0,1-.9-1.39A5.44,5.44,0,0,1,257.29,157Z"/><path class="cls-28" d="M261.21,178.82a7.73,7.73,0,0,1-1.25,3.32,11.1,11.1,0,0,1-2.4,2.62c.3-.51.65-1,1-1.47s.67-.95,1-1.43A26.36,26.36,0,0,0,261.21,178.82Z"/><path class="cls-28" d="M249.67,191.09a14.78,14.78,0,0,0-1.41,6.15,11.53,11.53,0,0,0,.46,3.07,25.41,25.41,0,0,0,1.14,3,8.69,8.69,0,0,1-1.92-2.74,8.51,8.51,0,0,1-.74-3.34A8.63,8.63,0,0,1,249.67,191.09Z"/></g></g><path id="Heart" class="cls-16" d="M261.61,91.22l3.33,4.21,5.22-1.25c3.87-.93,14.15-3.4,17-11.73a8.43,8.43,0,0,0-15.51-6.52,8.42,8.42,0,0,0-16.21-4.45C252.58,79.81,259.14,88.1,261.61,91.22Z"/><circle class="cls-9" cx="494.37" cy="346.65" r="58.86"/><circle class="cls-16" cx="492.39" cy="342.6" r="56.92"/></svg>