<svg id="Camada_1" data-name="Camada 1" xmlns="http://www.w3.org/2000/svg" viewBox="0 0 1000 700"><defs><style>.cls-1{fill:#fafafa;}.cls-2{fill:#e0e0e0;}.cls-3{fill:#e8505b;}.cls-4{opacity:0.3;}.cls-5{fill:#f5f5f5;}.cls-6{fill:#ebebeb;}.cls-7{fill:#fff;}.cls-8{fill:#263238;}.cls-9{fill:#7d55bf;}.cls-10{fill:#455a64;}.cls-11{fill:#c6ff00;}.cls-12{fill:#170060;}.cls-13{fill:#90cc00;}.cls-14{fill:#ffbe9d;}.cls-15{fill:#eb996e;}.cls-16{fill:#4c2a8e;}.cls-17{fill:#b78876;}.cls-18{fill:#aa6550;}</style></defs><path class="cls-1" d="M592,615V651.6h5.73v4H592v24.48H484.85V657.78h7.94v-4.85h-7.94v-7.28h-3.53v-3.31h4.19V615Z"/><polygon class="cls-2" points="513.31 615.14 513.31 679.64 484.85 679.64 484.85 657.37 492.79 657.37 492.79 652.93 484.85 653.08 484.85 645.8 481.25 645.81 481.32 642.05 485.51 641.94 485.51 615.03 513.31 615.14"/><path class="cls-2" d="M511.28,655.05c0,.22,19.39.4,43.31.4s43.31-.18,43.31-.4-19.39-.41-43.31-.41S511.28,654.83,511.28,655.05Z"/><path class="cls-2" d="M511.28,651.33c0,.23,19.39.41,43.31.41s43.31-.18,43.31-.41-19.39-.4-43.31-.4S511.28,651.11,511.28,651.33Z"/><path class="cls-2" d="M505.72,641.34c0,.22,19.39.4,43.31.4s43.31-.18,43.31-.4-19.39-.41-43.31-.41S505.72,641.11,505.72,641.34Z"/><path class="cls-2" d="M505.18,668.58c0,.22,19.39.41,43.31.41s43.31-.19,43.31-.41-19.39-.4-43.31-.4S505.18,668.36,505.18,668.58Z"/><path class="cls-3" d="M455.09,591.26l-2.36,43.35a2.92,2.92,0,0,1-2.9,2.76l-78,.57a2.91,2.91,0,0,1-2.95-2.9l-.25-33.74a2.92,2.92,0,0,1,2.93-2.94l48-.05a3,3,0,0,0,2.07-.85l8.28-8.28a2.9,2.9,0,0,1,2-.85l20.22-.15A2.93,2.93,0,0,1,455.09,591.26Z"/><g class="cls-4"><path d="M455.09,591.26l-2.36,43.35a2.92,2.92,0,0,1-2.9,2.76l-78,.57a2.91,2.91,0,0,1-2.95-2.9l-.25-33.74a2.92,2.92,0,0,1,2.93-2.94l48-.05a3,3,0,0,0,2.07-.85l8.28-8.28a2.9,2.9,0,0,1,2-.85l20.22-.15A2.93,2.93,0,0,1,455.09,591.26Z"/></g><rect class="cls-5" x="368.77" y="592.94" width="85.22" height="50.92" transform="translate(827.28 1233.78) rotate(179.58)"/><path class="cls-6" d="M460.61,597.15,454.5,650.3a1.89,1.89,0,0,1-1.86,1.67l-83.05.61a1.9,1.9,0,0,1-1.89-1.72l-4.57-53.08a1.89,1.89,0,0,1,1.86-2l93.74-.69A1.89,1.89,0,0,1,460.61,597.15Z"/><path class="cls-2" d="M478,583.09l-2.35,43.34a2.94,2.94,0,0,1-2.9,2.77l-78,.57a2.93,2.93,0,0,1-2.94-2.91l-.25-33.73a2.92,2.92,0,0,1,2.92-3l48,0a2.94,2.94,0,0,0,2.07-.86l8.27-8.27a2.93,2.93,0,0,1,2.05-.86l20.22-.15A2.93,2.93,0,0,1,478,583.09Z"/><rect class="cls-5" x="391.72" y="584.77" width="85.22" height="50.92" transform="translate(873.11 1217.26) rotate(179.58)"/><path class="cls-2" d="M483.56,589l-6.12,53.14a1.88,1.88,0,0,1-1.85,1.67l-83,.61a1.88,1.88,0,0,1-1.89-1.72l-4.57-53.07a1.87,1.87,0,0,1,1.86-2l93.74-.69A1.88,1.88,0,0,1,483.56,589Z"/><path class="cls-6" d="M503.89,593.24l-2.35,43.34a3,3,0,0,1-2.9,2.77l-78,.57A2.93,2.93,0,0,1,417.7,637l-.25-33.73a2.92,2.92,0,0,1,2.92-2.95l48-.05a2.93,2.93,0,0,0,2.07-.85l8.27-8.27a2.88,2.88,0,0,1,2.05-.86l20.22-.15A2.93,2.93,0,0,1,503.89,593.24Z"/><rect class="cls-1" x="417.58" y="594.92" width="85.22" height="50.92" transform="translate(924.9 1237.37) rotate(179.58)"/><path class="cls-6" d="M509.42,599.12l-6.12,53.15a1.88,1.88,0,0,1-1.85,1.67l-83.05.61a1.88,1.88,0,0,1-1.89-1.72l-4.57-53.07a1.88,1.88,0,0,1,1.86-2l93.73-.68A1.88,1.88,0,0,1,509.42,599.12Z"/><path class="cls-5" d="M411.93,606.35v73.73H518.29V606.35Zm34.72,13.27a5.45,5.45,0,0,1,5.44-5.45h26a5.45,5.45,0,0,1,0,10.89h-26A5.45,5.45,0,0,1,446.65,619.62Z"/><path class="cls-2" d="M354.59,606.35v73.73h57.34V606.35Z"/><rect class="cls-2" x="41" y="78.64" width="146.32" height="152.52"/><rect class="cls-1" x="31.09" y="78.64" width="146.32" height="152.52"/><path class="cls-2" d="M177.46,231.21H31.05V78.59H177.46Zm-146.32-.1H177.37V78.68H31.14Z"/><rect class="cls-1" x="50.76" y="99.14" width="106.98" height="111.52"/><path class="cls-2" d="M50.76,211.4a17.37,17.37,0,0,1-2.64,3.07c-1.71,1.8-4.11,4.24-6.8,6.89s-5.16,5-7,6.69a17.14,17.14,0,0,1-3.09,2.58,16.77,16.77,0,0,1,2.63-3.06c1.71-1.8,4.11-4.25,6.81-6.91s5.18-5,7-6.7A16.6,16.6,0,0,1,50.76,211.4Z"/><path class="cls-2" d="M157.74,211.12a18.06,18.06,0,0,1,3.07,2.64c1.8,1.71,4.24,4.11,6.9,6.8s5,5.17,6.69,7a17.12,17.12,0,0,1,2.57,3.1,17.6,17.6,0,0,1-3.06-2.63c-1.8-1.71-4.25-4.12-6.9-6.82s-5-5.17-6.71-7A16.56,16.56,0,0,1,157.74,211.12Z"/><path class="cls-2" d="M157.45,99.44a17,17,0,0,1,2.64-3.07c1.71-1.8,4.11-4.24,6.8-6.9s5.16-5,7-6.69A17.3,17.3,0,0,1,177,80.21a17.6,17.6,0,0,1-2.63,3.06c-1.7,1.8-4.11,4.24-6.81,6.9s-5.18,5-7,6.71A17.37,17.37,0,0,1,157.45,99.44Z"/><path class="cls-2" d="M50.47,99.71a17,17,0,0,1-3.07-2.64c-1.8-1.71-4.24-4.11-6.89-6.8s-5-5.16-6.69-7a17.14,17.14,0,0,1-2.58-3.09,17.17,17.17,0,0,1,3.06,2.63c1.8,1.7,4.25,4.11,6.91,6.81s5,5.18,6.7,7A17.37,17.37,0,0,1,50.47,99.71Z"/><path class="cls-2" d="M157.45,210.66a3.44,3.44,0,0,1,0-.55c0-.38,0-.89,0-1.55,0-1.4,0-3.41-.05-6,0-5.28-.06-13-.1-22.73-.05-19.53-.13-47.35-.21-80.67l.41.41-106.68.06h0l.48-.47c0,40.93-.05,79.22-.07,111.52l-.41-.41,77.25.21,21.7.1,5.74.05,1.48,0,.52,0-.47,0-1.44,0-5.66.05-21.61.11-77.51.2h-.4v-.4c0-32.3,0-70.59-.07-111.52v-.47h.48l106.68.06h.41v.41c-.08,33.42-.16,61.34-.21,80.93,0,9.72-.08,17.38-.11,22.64,0,2.58,0,4.56,0,5.94,0,.64,0,1.14,0,1.51A4.55,4.55,0,0,1,157.45,210.66Z"/><rect class="cls-6" x="86.4" y="137.05" width="35.7" height="35.7"/><rect class="cls-2" x="915.39" y="87.67" width="12.36" height="61.52" transform="translate(-0.62 4.94) rotate(-0.31)"/><rect class="cls-6" x="808.21" y="87.88" width="32.02" height="33.96" transform="translate(-0.55 4.41) rotate(-0.31)"/><rect class="cls-5" x="840.07" y="87.71" width="32.02" height="33.96" transform="translate(-0.55 4.59) rotate(-0.31)"/><path class="cls-2" d="M808.16,97.34q31.92.27,63.89-.29a.34.34,0,0,0,0-.68c-21.27-.12-42.6,0-63.88.39a.29.29,0,0,0,0,.58Z"/><rect class="cls-6" x="788.23" y="121.35" width="58.17" height="27.68" transform="translate(-0.71 4.38) rotate(-0.31)"/><rect class="cls-5" x="846.12" y="121.04" width="58.17" height="27.68" transform="translate(-0.71 4.69) rotate(-0.31)"/><path class="cls-2" d="M788.19,129.2c38.65.44,77.43.05,116.07-.57a.34.34,0,0,0,0-.68c-38.65-.21-77.43-.18-116.07.67a.29.29,0,0,0,0,.58Z"/><rect class="cls-2" x="766.44" y="149.18" width="225.37" height="9.92"/><rect class="cls-2" x="803.34" y="153.95" width="9.15" height="33.83"/><rect class="cls-2" x="939.91" y="153.95" width="9.15" height="33.83"/><rect class="cls-6" x="927.52" y="64.72" width="12.36" height="84.61" transform="translate(-0.56 5) rotate(-0.31)"/><rect class="cls-5" x="939.95" y="80.49" width="19.21" height="68.57" transform="translate(-0.6 5.1) rotate(-0.31)"/><path class="cls-2" d="M958.84,93.65c0,.19-4.3.34-9.6.34s-9.61-.15-9.61-.34,4.3-.33,9.61-.33S958.84,93.47,958.84,93.65Z"/><path class="cls-2" d="M958.84,90.77c0,.19-4.3.33-9.6.33s-9.61-.14-9.61-.33,4.3-.33,9.61-.33S958.84,90.59,958.84,90.77Z"/><path class="cls-2" d="M958.84,138.7c0,.18-4.3.33-9.6.33s-9.61-.15-9.61-.33,4.3-.34,9.61-.34S958.84,138.51,958.84,138.7Z"/><path class="cls-2" d="M958.84,135.81c0,.19-4.3.34-9.6.34s-9.61-.15-9.61-.34,4.3-.33,9.61-.33S958.84,135.63,958.84,135.81Z"/><path class="cls-2" d="M949.55,129.53c-.19,0-.34-6.92-.34-15.45s.15-15.45.34-15.45.33,6.91.33,15.45S949.73,129.53,949.55,129.53Z"/><rect class="cls-6" x="959.05" y="97.28" width="20.91" height="51.76"/><path class="cls-1" d="M970.1,135.61a4.48,4.48,0,0,1-4.67-4.65,4,4,0,0,1,1.69-3.49l.47.65a3.36,3.36,0,0,0-1.37,2.84,3.88,3.88,0,0,0,7.76,0,3.35,3.35,0,0,0-1.38-2.84l.48-.65a4.09,4.09,0,0,1,1.69,3.49A4.49,4.49,0,0,1,970.1,135.61Z"/><path class="cls-1" d="M973.59,126.18l-.71-.4a5.38,5.38,0,0,0,1.12-3.32c0-1.94-.69-2.71-1.73-2.71-2.68,0-.71,6.1-4.32,6.1-1.4,0-2.52-1.17-2.52-3.49a5.7,5.7,0,0,1,.89-3.16l.71.41a4.75,4.75,0,0,0-.83,2.76c0,1.8.74,2.6,1.73,2.6,2.77,0,.81-6.11,4.32-6.11,1.5,0,2.52,1.29,2.52,3.64A5.77,5.77,0,0,1,973.59,126.18Z"/><path class="cls-1" d="M973.59,117.76l-.71-.41A5.35,5.35,0,0,0,974,114c0-1.93-.69-2.71-1.73-2.71-2.68,0-.71,6.1-4.32,6.1-1.4,0-2.52-1.16-2.52-3.49a5.72,5.72,0,0,1,.89-3.16l.71.41a4.76,4.76,0,0,0-.83,2.77c0,1.79.74,2.59,1.73,2.59,2.77,0,.81-6.1,4.32-6.1,1.5,0,2.52,1.28,2.52,3.63A5.8,5.8,0,0,1,973.59,117.76Z"/><path class="cls-2" d="M936.84,79.14a3.55,3.55,0,1,1-3.55-3.56A3.55,3.55,0,0,1,936.84,79.14Z"/><rect class="cls-2" x="932.19" y="88.91" width="2.2" height="50.34"/><rect class="cls-6" x="813.71" y="444.73" width="104.66" height="8.12"/><rect class="cls-2" x="889.63" y="444.73" width="28.74" height="8.12"/><path class="cls-5" d="M800.42,452.84v36.58h-5.74v4h5.74v24.48H907.58V495.59h-7.93v-4.85h7.93v-7.28h3.53v-3.31h-4.19V452.84Z"/><polygon class="cls-2" points="879.13 452.95 879.13 517.45 907.58 517.45 907.58 495.18 899.64 495.18 899.64 490.74 907.58 490.74 907.58 483.46 911.11 483.46 911.11 479.75 906.92 479.75 906.92 452.85 879.13 452.95"/><path class="cls-2" d="M881.15,492.86c0,.22-19.39.4-43.3.4s-43.32-.18-43.32-.4,19.39-.41,43.32-.41S881.15,492.64,881.15,492.86Z"/><path class="cls-2" d="M881.15,489.14c0,.23-19.39.41-43.3.41s-43.32-.18-43.32-.41,19.39-.4,43.32-.4S881.15,488.92,881.15,489.14Z"/><path class="cls-2" d="M886.72,479.15c0,.22-19.4.4-43.31.4s-43.31-.18-43.31-.4,19.38-.41,43.31-.41S886.72,478.92,886.72,479.15Z"/><path class="cls-2" d="M887.25,506.39c0,.22-19.39.41-43.31.41s-43.31-.19-43.31-.41,19.39-.4,43.31-.4S887.25,506.17,887.25,506.39Z"/><path class="cls-5" d="M812.57,525.61v36.57h-5.73v4h5.73v24.48H919.74V568.35H911.8V563.5h7.94v-7.27h3.53v-3.31h-4.19V525.61Z"/><polygon class="cls-2" points="891.28 525.72 891.28 590.22 919.74 590.22 919.74 567.95 911.8 567.95 911.8 563.5 919.74 563.65 919.74 556.38 923.34 556.38 923.27 552.62 919.08 552.51 919.08 525.61 891.28 525.72"/><path class="cls-2" d="M893.31,565.62c0,.23-19.39.41-43.31.41s-43.31-.18-43.31-.41,19.39-.4,43.31-.4S893.31,565.4,893.31,565.62Z"/><path class="cls-2" d="M893.31,561.91c0,.22-19.39.4-43.31.4s-43.31-.18-43.31-.4,19.39-.41,43.31-.41S893.31,561.69,893.31,561.91Z"/><path class="cls-2" d="M898.87,551.91c0,.22-19.39.41-43.31.41s-43.31-.19-43.31-.41,19.39-.4,43.31-.4S898.87,551.69,898.87,551.91Z"/><path class="cls-2" d="M899.41,579.15c0,.23-19.39.41-43.31.41s-43.31-.18-43.31-.41,19.39-.4,43.31-.4S899.41,578.93,899.41,579.15Z"/><path class="cls-5" d="M811,379.71v36.57h-5.73v4H811v24.48H918.19V422.45h-7.94V417.6h7.94v-7.27h3.52V407h-4.19V379.71Z"/><polygon class="cls-2" points="889.73 379.81 889.73 444.32 918.18 444.32 918.18 422.05 910.25 422.05 910.25 417.6 918.18 417.75 918.18 410.48 921.78 410.48 921.71 406.72 917.52 406.61 917.52 379.71 889.73 379.81"/><path class="cls-2" d="M891.75,419.72c0,.23-19.39.41-43.3.41s-43.32-.18-43.32-.41,19.39-.4,43.32-.4S891.75,419.5,891.75,419.72Z"/><path class="cls-2" d="M891.75,416c0,.22-19.39.4-43.3.4s-43.32-.18-43.32-.4,19.39-.41,43.32-.41S891.75,415.79,891.75,416Z"/><path class="cls-2" d="M897.32,406c0,.22-19.39.41-43.31.41s-43.31-.19-43.31-.41,19.39-.4,43.31-.4S897.32,405.79,897.32,406Z"/><path class="cls-2" d="M897.85,433.26c0,.22-19.39.4-43.31.4s-43.31-.18-43.31-.4,19.39-.41,43.31-.41S897.85,433,897.85,433.26Z"/><rect class="cls-6" x="806.69" y="517.49" width="104.66" height="8.12"/><rect class="cls-2" x="882.61" y="517.49" width="28.74" height="8.12"/><rect class="cls-7" x="157.98" y="7.74" width="704.15" height="424.73"/><path class="cls-8" d="M862.13,432.48c0-2.37-.11-164.51-.29-424.74l.29.3L158,8.12H158l.38-.38c0,150.48,0,294.07,0,424.74l-.35-.35,704.15.35L158,432.82h-.35v-.34c0-130.67,0-274.26,0-424.74V7.37H158l704.09.08h.3v.29C862.25,268,862.14,430.11,862.13,432.48Z"/><path class="cls-2" d="M250.11,79.79s-3.79,34.64,1.08,53.6l46.29-2s-9.92-34.17-3.83-49.31Z"/><path class="cls-9" d="M249.76,79.82s.32,37.39,2.22,48.8l46.9-2.21s-4.12-36.77-2.53-46.59Z"/><path class="cls-7" d="M289.28,95.53c0,.2-7,.79-15.72,1.32s-15.74.78-15.76.57,7-.8,15.72-1.32S289.27,95.32,289.28,95.53Z"/><path class="cls-7" d="M289.29,103.45c0,.2-7,.8-15.71,1.32s-15.75.78-15.76.57,7-.8,15.71-1.32S289.28,103.24,289.29,103.45Z"/><path class="cls-7" d="M281.32,111.22c0,.21-4,.62-8.95.92s-9,.37-9,.16,4-.61,8.94-.91S281.31,111,281.32,111.22Z"/><path class="cls-9" d="M249,135.74s.32,37.4,2.22,48.81l46.91-2.22s-4.12-36.77-2.54-46.59Z"/><path class="cls-7" d="M288.47,151.45c0,.2-7,.8-15.71,1.32s-15.75.78-15.76.57,7-.8,15.71-1.32S288.46,151.24,288.47,151.45Z"/><path class="cls-7" d="M288.48,159.37c0,.21-7,.8-15.71,1.32s-15.75.78-15.76.57,7-.8,15.71-1.32S288.47,159.16,288.48,159.37Z"/><path class="cls-7" d="M280.51,167.15c0,.2-4,.61-8.94.91s-9,.37-9,.16,4-.61,8.94-.91S280.5,166.94,280.51,167.15Z"/><path class="cls-8" d="M249,199.08s.32,37.4,2.22,48.81l46.91-2.22s-4.12-36.77-2.54-46.59Z"/><path class="cls-7" d="M288.47,214.79c0,.2-7,.8-15.71,1.32s-15.75.78-15.76.57,7-.8,15.71-1.32S288.46,214.58,288.47,214.79Z"/><path class="cls-7" d="M288.48,222.71c0,.21-7,.8-15.71,1.32s-15.75.78-15.76.57,7-.8,15.71-1.32S288.47,222.5,288.48,222.71Z"/><path class="cls-7" d="M280.51,230.49c0,.2-4,.61-8.94.91s-9,.37-9,.16,4-.61,8.94-.91S280.5,230.28,280.51,230.49Z"/><path class="cls-10" d="M243.48,273.16s.32,37.4,2.22,48.81l46.9-2.22s-4.12-36.76-2.53-46.59Z"/><path class="cls-7" d="M283,288.87c0,.21-7,.8-15.71,1.32s-15.75.78-15.77.57,7-.8,15.72-1.32S283,288.66,283,288.87Z"/><path class="cls-7" d="M283,296.79c0,.21-7,.8-15.71,1.32s-15.75.78-15.76.57,7-.79,15.71-1.32S283,296.58,283,296.79Z"/><path class="cls-7" d="M275,304.57c0,.21-4,.61-8.94.91s-9,.37-9,.17,4-.62,8.94-.92S275,304.36,275,304.57Z"/><path class="cls-8" d="M305.66,273.48s.31,37.4,2.21,48.81l46.91-2.22s-4.12-36.76-2.53-46.59Z"/><path class="cls-7" d="M345.18,289.19c0,.21-7,.8-15.72,1.32s-15.75.78-15.76.58,7-.8,15.72-1.32S345.16,289,345.18,289.19Z"/><path class="cls-7" d="M345.19,297.11c0,.21-7,.8-15.72,1.33s-15.75.78-15.76.57,7-.8,15.72-1.32S345.18,296.91,345.19,297.11Z"/><path class="cls-7" d="M337.22,304.89c0,.21-4,.62-9,.92s-9,.37-9,.16,4-.62,9-.91S337.2,304.69,337.22,304.89Z"/><path class="cls-11" d="M357.67,276.17s.31,37.39,2.21,48.8l46.91-2.21s-4.12-36.77-2.54-46.59Z"/><path class="cls-11" d="M397.18,291.88c0,.2-7,.79-15.71,1.32s-15.75.78-15.76.57,7-.8,15.71-1.32S397.17,291.67,397.18,291.88Z"/><path class="cls-11" d="M397.2,299.8c0,.2-7,.8-15.72,1.32s-15.75.78-15.76.57,7-.8,15.72-1.32S397.18,299.59,397.2,299.8Z"/><path class="cls-11" d="M389.22,307.57c0,.21-4,.62-8.94.92s-9,.37-9,.16,4-.61,8.95-.91S389.21,307.37,389.22,307.57Z"/><path class="cls-10" d="M296.89,340.11s.32,37.4,2.22,48.81L346,386.7s-4.12-36.76-2.54-46.59Z"/><path class="cls-7" d="M336.41,355.82c0,.21-7,.8-15.71,1.32s-15.75.78-15.76.57,7-.8,15.71-1.32S336.4,355.61,336.41,355.82Z"/><path class="cls-7" d="M336.43,363.74c0,.21-7,.8-15.72,1.32s-15.75.78-15.76.57,7-.8,15.72-1.32S336.41,363.53,336.43,363.74Z"/><path class="cls-7" d="M328.45,371.52c0,.2-4,.61-8.94.91s-9,.37-9,.17,4-.62,8.94-.92S328.44,371.31,328.45,371.52Z"/><path class="cls-8" d="M447.44,254.22s.31,37.4,2.22,48.81l46.9-2.22s-4.12-36.76-2.53-46.59Z"/><path class="cls-7" d="M487,269.93c0,.21-7,.8-15.72,1.32s-15.75.78-15.76.57,7-.8,15.72-1.32S486.94,269.72,487,269.93Z"/><path class="cls-7" d="M487,277.85c0,.21-7,.8-15.72,1.32s-15.74.78-15.76.57,7-.8,15.72-1.32S487,277.64,487,277.85Z"/><path class="cls-7" d="M479,285.63c0,.2-4,.61-8.95.91s-9,.37-9,.17,4-.62,8.95-.92S479,285.42,479,285.63Z"/><path class="cls-10" d="M549.27,342s.31,37.39,2.22,48.8l46.9-2.21s-4.12-36.77-2.53-46.59Z"/><path class="cls-7" d="M588.79,357.72c0,.2-7,.79-15.72,1.32s-15.75.78-15.76.57,7-.8,15.72-1.32S588.77,357.51,588.79,357.72Z"/><path class="cls-7" d="M588.8,365.64c0,.2-7,.8-15.72,1.32s-15.74.78-15.76.57,7-.8,15.72-1.32S588.79,365.43,588.8,365.64Z"/><path class="cls-7" d="M580.83,373.41c0,.21-4,.62-9,.92s-9,.37-9,.16,4-.61,9-.91S580.81,373.21,580.83,373.41Z"/><path class="cls-10" d="M607.16,342.8s.31,37.4,2.21,48.81l46.91-2.22s-4.12-36.76-2.54-46.59Z"/><path class="cls-7" d="M646.67,358.51c0,.21-7,.8-15.71,1.32s-15.75.78-15.76.58,7-.8,15.72-1.33S646.66,358.31,646.67,358.51Z"/><path class="cls-7" d="M646.69,366.43c0,.21-7,.8-15.72,1.32s-15.75.78-15.76.58,7-.8,15.72-1.32S646.68,366.23,646.69,366.43Z"/><path class="cls-7" d="M638.71,374.21c0,.21-4,.62-8.94.91s-9,.38-9,.17,4-.62,9-.91S638.7,374,638.71,374.21Z"/><path class="cls-8" d="M665,343.6s.32,37.4,2.22,48.81l46.91-2.22s-4.12-36.76-2.54-46.59Z"/><path class="cls-7" d="M704.56,359.31c0,.21-7,.8-15.71,1.32s-15.75.78-15.76.57,7-.8,15.71-1.32S704.55,359.1,704.56,359.31Z"/><path class="cls-7" d="M704.58,367.23c0,.21-7,.8-15.72,1.32s-15.75.78-15.76.57,7-.8,15.72-1.32S704.56,367,704.58,367.23Z"/><path class="cls-7" d="M696.6,375c0,.2-4,.61-8.94.91s-9,.37-9,.17,4-.62,9-.92S696.59,374.8,696.6,375Z"/><path class="cls-10" d="M734.64,341.42s.32,37.39,2.22,48.8L783.77,388s-4.12-36.77-2.54-46.59Z"/><path class="cls-7" d="M774.16,357.13c0,.2-7,.79-15.71,1.32s-15.75.78-15.76.57,7-.8,15.71-1.32S774.15,356.92,774.16,357.13Z"/><path class="cls-7" d="M774.17,365.05c0,.2-7,.8-15.71,1.32s-15.75.78-15.76.57,7-.8,15.71-1.32S774.16,364.84,774.17,365.05Z"/><path class="cls-7" d="M766.2,372.82c0,.21-4,.62-8.94.92s-9,.37-9,.16,4-.61,8.94-.91S766.19,372.62,766.2,372.82Z"/><path class="cls-10" d="M785.1,346.81s.31,37.4,2.21,48.81l46.91-2.22s-4.12-36.76-2.54-46.59Z"/><path class="cls-7" d="M824.61,362.52c0,.21-7,.8-15.71,1.32s-15.75.78-15.76.57,7-.79,15.71-1.32S824.6,362.31,824.61,362.52Z"/><path class="cls-7" d="M824.63,370.44c0,.21-7,.8-15.72,1.32s-15.75.78-15.76.58,7-.8,15.72-1.33S824.61,370.24,824.63,370.44Z"/><path class="cls-7" d="M816.65,378.22c0,.21-4,.62-8.94.91s-9,.38-9,.17,4-.62,8.95-.92S816.64,378,816.65,378.22Z"/><path class="cls-10" d="M549.06,274s.31,37.4,2.21,48.81l46.91-2.22s-4.12-36.76-2.54-46.59Z"/><path class="cls-7" d="M588.57,289.75c0,.21-7,.8-15.71,1.32s-15.75.78-15.76.57,7-.79,15.72-1.32S588.56,289.54,588.57,289.75Z"/><path class="cls-7" d="M588.59,297.67c0,.21-7,.8-15.72,1.32s-15.75.78-15.76.58,7-.8,15.72-1.33S588.57,297.46,588.59,297.67Z"/><path class="cls-7" d="M580.61,305.45c0,.21-4,.62-8.94.91s-9,.37-9,.17,4-.62,9-.92S580.6,305.24,580.61,305.45Z"/><path class="cls-11" d="M610.29,274.22s.32,37.4,2.22,48.81l46.91-2.22s-4.12-36.76-2.54-46.59Z"/><path class="cls-11" d="M649.81,289.93c0,.21-7,.8-15.71,1.32s-15.75.78-15.77.57,7-.79,15.72-1.32S649.8,289.72,649.81,289.93Z"/><path class="cls-11" d="M649.82,297.85c0,.21-7,.8-15.71,1.32s-15.75.78-15.76.58,7-.8,15.71-1.33S649.81,297.65,649.82,297.85Z"/><path class="cls-11" d="M641.85,305.63c0,.21-4,.62-8.94.91s-9,.38-9,.17,4-.62,8.94-.92S641.84,305.42,641.85,305.63Z"/><path class="cls-10" d="M731,274.25s.32,37.39,2.22,48.8l46.91-2.21s-4.12-36.77-2.54-46.59Z"/><path class="cls-7" d="M770.49,290c0,.2-7,.79-15.71,1.32s-15.75.78-15.76.57,7-.8,15.71-1.32S770.48,289.75,770.49,290Z"/><path class="cls-7" d="M770.51,297.88c0,.2-7,.8-15.72,1.32S739,300,739,299.77s7-.8,15.72-1.32S770.49,297.67,770.51,297.88Z"/><path class="cls-7" d="M762.53,305.65c0,.21-4,.62-8.94.92s-9,.37-9,.16,4-.61,8.94-.91S762.52,305.45,762.53,305.65Z"/><path class="cls-8" d="M321.77,199.08s.32,37.4,2.22,48.81l46.9-2.22s-4.12-36.77-2.53-46.59Z"/><path class="cls-7" d="M361.29,214.79c0,.2-7,.8-15.72,1.32s-15.75.78-15.76.57,7-.8,15.72-1.32S361.28,214.58,361.29,214.79Z"/><path class="cls-7" d="M361.3,222.71c0,.21-7,.8-15.71,1.32s-15.75.78-15.77.57,7-.8,15.72-1.32S361.29,222.5,361.3,222.71Z"/><path class="cls-7" d="M353.33,230.49c0,.2-4,.61-8.95.91s-9,.37-9,.16,4-.61,8.95-.91S353.32,230.28,353.33,230.49Z"/><path class="cls-11" d="M303.13,79.82s.32,37.39,2.22,48.8l46.91-2.21s-4.12-36.77-2.54-46.59Z"/><path class="cls-11" d="M342.65,95.53c0,.2-7,.79-15.71,1.32s-15.75.78-15.76.57,7-.8,15.71-1.32S342.64,95.32,342.65,95.53Z"/><path class="cls-11" d="M342.66,103.45c0,.2-7,.8-15.71,1.32s-15.75.78-15.76.57,7-.8,15.72-1.32S342.65,103.24,342.66,103.45Z"/><path class="cls-11" d="M334.69,111.22c0,.21-4,.62-8.94.92s-9,.37-9,.16,4-.61,8.94-.91S334.68,111,334.69,111.22Z"/><path class="cls-11" d="M304.16,136s.32,37.4,2.22,48.8l46.9-2.21s-4.12-36.77-2.53-46.59Z"/><path class="cls-11" d="M343.68,151.66c0,.2-7,.79-15.72,1.32s-15.74.78-15.76.57,7-.8,15.72-1.32S343.67,151.45,343.68,151.66Z"/><path class="cls-11" d="M343.69,159.58c0,.2-7,.8-15.71,1.32s-15.75.78-15.76.57,7-.8,15.71-1.32S343.68,159.37,343.69,159.58Z"/><path class="cls-11" d="M335.72,167.35c0,.21-4,.62-8.94.92s-9,.37-9,.16,4-.61,8.94-.91S335.71,167.15,335.72,167.35Z"/><path class="cls-9" d="M361.59,79.82s.32,37.39,2.22,48.8l46.9-2.21s-4.12-36.77-2.53-46.59Z"/><path class="cls-7" d="M401.11,95.53c0,.2-7,.79-15.72,1.32s-15.75.78-15.76.57,7-.8,15.72-1.32S401.09,95.32,401.11,95.53Z"/><path class="cls-7" d="M401.12,103.45c0,.2-7,.8-15.71,1.32s-15.75.78-15.77.57,7-.8,15.72-1.32S401.11,103.24,401.12,103.45Z"/><path class="cls-7" d="M393.15,111.22c0,.21-4,.62-8.95.92s-9,.37-9,.16,4-.61,9-.91S393.13,111,393.15,111.22Z"/><path class="cls-9" d="M420,79.82s.32,37.39,2.22,48.8l46.91-2.21s-4.12-36.77-2.54-46.59Z"/><path class="cls-7" d="M459.56,95.53c0,.2-7,.79-15.71,1.32s-15.75.78-15.76.57,7-.8,15.71-1.32S459.55,95.32,459.56,95.53Z"/><path class="cls-7" d="M459.58,103.45c0,.2-7,.8-15.72,1.32s-15.75.78-15.76.57,7-.8,15.72-1.32S459.56,103.24,459.58,103.45Z"/><path class="cls-7" d="M451.6,111.22c0,.21-4,.62-8.94.92s-9,.37-9,.16,4-.61,8.94-.91S451.59,111,451.6,111.22Z"/><path class="cls-11" d="M478.5,79.82s.32,37.39,2.22,48.8l46.9-2.21s-4.12-36.77-2.53-46.59Z"/><path class="cls-11" d="M518,95.53c0,.2-7,.79-15.72,1.32s-15.75.78-15.76.57,7-.8,15.72-1.32S518,95.32,518,95.53Z"/><path class="cls-11" d="M518,103.45c0,.2-7,.8-15.71,1.32s-15.75.78-15.77.57,7-.8,15.72-1.32S518,103.24,518,103.45Z"/><path class="cls-11" d="M510.06,111.22c0,.21-4,.62-8.95.92s-9,.37-9,.16,4-.61,8.95-.91S510.05,111,510.06,111.22Z"/><path class="cls-11" d="M556.63,88.1s.32,37.4,2.22,48.81l46.91-2.22s-4.12-36.77-2.54-46.59Z"/><path class="cls-11" d="M596.15,103.81c0,.21-7,.8-15.71,1.32s-15.75.78-15.76.57,7-.8,15.71-1.32S596.14,103.6,596.15,103.81Z"/><path class="cls-11" d="M596.16,111.73c0,.21-7,.8-15.71,1.32s-15.75.78-15.76.57,7-.8,15.71-1.32S596.15,111.52,596.16,111.73Z"/><path class="cls-11" d="M588.19,119.51c0,.2-4,.61-8.94.91s-9,.37-9,.17,4-.62,8.94-.92S588.18,119.3,588.19,119.51Z"/><path class="cls-11" d="M609,88.9s.32,37.4,2.22,48.81l46.9-2.22S654,98.73,655.56,88.9Z"/><path class="cls-11" d="M648.49,104.61c0,.21-7,.8-15.72,1.32s-15.75.78-15.76.57,7-.8,15.72-1.32S648.48,104.4,648.49,104.61Z"/><path class="cls-11" d="M648.5,112.53c0,.21-7,.8-15.71,1.32s-15.75.78-15.77.57,7-.8,15.72-1.32S648.49,112.32,648.5,112.53Z"/><path class="cls-11" d="M640.53,120.31c0,.2-4,.61-8.95.91s-9,.37-9,.17,4-.62,8.95-.92S640.52,120.1,640.53,120.31Z"/><path class="cls-9" d="M666.77,90.58s.32,37.39,2.22,48.8l46.91-2.22s-4.12-36.76-2.54-46.58Z"/><path class="cls-7" d="M706.29,106.28c0,.21-7,.8-15.71,1.33s-15.75.77-15.76.57,7-.8,15.71-1.32S706.28,106.08,706.29,106.28Z"/><path class="cls-7" d="M706.31,114.21c0,.2-7,.79-15.72,1.32s-15.75.78-15.76.57,7-.8,15.72-1.32S706.29,114,706.31,114.21Z"/><path class="cls-7" d="M698.33,122c0,.21-4,.62-8.94.92s-9,.37-9,.16,4-.61,8.94-.91S698.32,121.78,698.33,122Z"/><path class="cls-9" d="M735.48,88.64s.32,37.4,2.22,48.81l46.9-2.22s-4.12-36.77-2.53-46.59Z"/><path class="cls-7" d="M775,104.35c0,.2-7,.8-15.72,1.32s-15.75.78-15.76.57,7-.8,15.72-1.32S775,104.14,775,104.35Z"/><path class="cls-7" d="M775,112.27c0,.21-7,.8-15.71,1.32s-15.75.78-15.77.57,7-.8,15.72-1.32S775,112.06,775,112.27Z"/><path class="cls-7" d="M767,120.05c0,.2-4,.61-8.95.91s-9,.37-9,.16,4-.61,8.95-.91S767,119.84,767,120.05Z"/><path class="cls-11" d="M741.19,149.6s.32,37.4,2.22,48.81l46.91-2.22s-4.12-36.76-2.54-46.59Z"/><path class="cls-11" d="M780.71,165.31c0,.21-7,.8-15.71,1.32s-15.75.78-15.76.58,7-.8,15.71-1.33S780.7,165.11,780.71,165.31Z"/><path class="cls-11" d="M780.73,173.23c0,.21-7,.8-15.72,1.33s-15.75.77-15.76.57,7-.8,15.72-1.32S780.71,173,780.73,173.23Z"/><path class="cls-11" d="M772.75,181c0,.21-4,.62-8.94.92s-9,.37-9,.16,4-.62,8.94-.91S772.74,180.8,772.75,181Z"/><path class="cls-10" d="M776.69,93.87s.32,37.39,2.22,48.8l46.91-2.22s-4.12-36.76-2.54-46.58Z"/><path class="cls-7" d="M816.21,109.57c0,.21-7,.8-15.71,1.33s-15.75.77-15.77.57,7-.8,15.72-1.32S816.2,109.37,816.21,109.57Z"/><path class="cls-7" d="M816.22,117.5c0,.2-7,.79-15.71,1.32s-15.75.78-15.76.57,7-.8,15.71-1.32S816.21,117.29,816.22,117.5Z"/><path class="cls-7" d="M808.25,125.27c0,.21-4,.62-8.94.92s-9,.37-9,.16,4-.61,8.94-.91S808.24,125.07,808.25,125.27Z"/><path class="cls-10" d="M569.31,118.64s.31,37.39,2.21,48.8l46.91-2.22s-4.12-36.76-2.54-46.58Z"/><path class="cls-7" d="M608.82,134.34c0,.21-7,.8-15.71,1.33s-15.75.77-15.76.57,7-.8,15.71-1.32S608.81,134.14,608.82,134.34Z"/><path class="cls-7" d="M608.84,142.27c0,.2-7,.79-15.72,1.32s-15.75.78-15.76.57,7-.8,15.72-1.32S608.82,142.06,608.84,142.27Z"/><path class="cls-7" d="M600.86,150c0,.21-4,.62-8.94.92s-9,.37-9,.16,4-.62,9-.91S600.85,149.84,600.86,150Z"/><path class="cls-9" d="M563.4,201.63s.32,37.4,2.22,48.81l46.91-2.22s-4.12-36.76-2.54-46.59Z"/><path class="cls-7" d="M602.92,217.34c0,.21-7,.8-15.71,1.32s-15.75.78-15.76.58,7-.8,15.71-1.33S602.91,217.14,602.92,217.34Z"/><path class="cls-7" d="M602.94,225.26c0,.21-7,.8-15.72,1.33s-15.75.77-15.76.57,7-.8,15.72-1.32S602.92,225.06,602.94,225.26Z"/><path class="cls-7" d="M595,233c0,.21-4,.62-8.94.92s-9,.37-9,.16,4-.62,8.94-.91S595,232.83,595,233Z"/><path class="cls-6" d="M416.41,120.4S420.2,155,415.32,174L369,172s9.92-34.16,3.83-49.3Z"/><path class="cls-10" d="M368.79,114.53s-2.91,39.28-5.45,47.2l42.15,4.44,6.34-6s4.49-34.64,3.85-44.47Z"/><polygon class="cls-8" points="406.44 159.83 405.49 166.17 411.83 160.15 406.44 159.83"/><path class="cls-7" d="M406.92,134.37a32,32,0,0,1-4.73-.56l-11.34-1.6-11.37-1.42a32.08,32.08,0,0,1-4.71-.69,28.18,28.18,0,0,1,4.76.16c2.93.22,7,.61,11.42,1.2s8.45,1.27,11.33,1.83A26.93,26.93,0,0,1,406.92,134.37Z"/><path class="cls-7" d="M405.08,143a25.75,25.75,0,0,1-4.55-.16c-2.81-.21-6.68-.59-10.94-1.12s-8.11-1.14-10.88-1.64a25.48,25.48,0,0,1-4.46-1,30.7,30.7,0,0,1,4.54.46L389.68,141l10.9,1.34A27.65,27.65,0,0,1,405.08,143Z"/><path class="cls-7" d="M402.45,151c0,.2-6.37-.48-14.17-1.53s-14.1-2.06-14.07-2.26,6.37.47,14.17,1.52S402.48,150.79,402.45,151Z"/><path class="cls-10" d="M268.54,161.87s-2.92,39.28-5.45,47.2l42.15,4.44,6.34-6s4.49-34.65,3.85-44.48Z"/><polygon class="cls-8" points="306.19 207.17 305.24 213.51 311.58 207.49 306.19 207.17"/><path class="cls-7" d="M306.67,181.71a32,32,0,0,1-4.73-.56l-11.34-1.6-11.37-1.42a31.78,31.78,0,0,1-4.71-.69,28.18,28.18,0,0,1,4.76.16c2.93.22,7,.61,11.42,1.2s8.45,1.27,11.33,1.83A27.26,27.26,0,0,1,306.67,181.71Z"/><path class="cls-7" d="M304.83,190.37a25.86,25.86,0,0,1-4.56-.16c-2.8-.21-6.68-.58-10.94-1.12s-8.1-1.14-10.87-1.64a25.48,25.48,0,0,1-4.46-1,30.7,30.7,0,0,1,4.54.46l10.89,1.41,10.9,1.34A27.65,27.65,0,0,1,304.83,190.37Z"/><path class="cls-7" d="M302.2,198.34c0,.2-6.37-.48-14.17-1.53s-14.1-2.06-14.07-2.26,6.37.47,14.17,1.52S302.23,198.13,302.2,198.34Z"/><rect class="cls-11" x="188.99" y="87.47" width="35.22" height="8.05"/><rect class="cls-8" x="188.99" y="279.74" width="35.22" height="8.05"/><rect class="cls-8" x="188.99" y="344.8" width="35.22" height="8.05"/><rect class="cls-2" x="323.39" y="39.94" width="121.58" height="8.05"/><rect class="cls-2" x="565.57" y="39.94" width="121.58" height="8.05"/><rect class="cls-2" x="746.11" y="39.94" width="58.07" height="8.05"/><path class="cls-8" d="M819.7,74.45c0,.21-142.55.38-318.36.38S183,74.66,183,74.45s142.52-.37,318.38-.37S819.7,74.24,819.7,74.45Z"/><path class="cls-8" d="M819.7,265.84c0,.21-142.55.37-318.36.37S183,266.05,183,265.84s142.52-.38,318.38-.38S819.7,265.63,819.7,265.84Z"/><path class="cls-8" d="M819.7,397.2c0,.21-142.55.38-318.36.38S183,397.41,183,397.2s142.52-.37,318.38-.37S819.7,397,819.7,397.2Z"/><path class="cls-8" d="M819.7,333.16c0,.21-142.55.37-318.36.37S183,333.37,183,333.16s142.52-.38,318.38-.38S819.7,333,819.7,333.16Z"/><path class="cls-8" d="M236.92,398.93c-.21,0-.38-81.34-.38-181.65s.17-181.68.38-181.68.37,81.33.37,181.68S237.13,398.93,236.92,398.93Z"/><path class="cls-8" d="M531.1,400.82c-.2,0-.37-81.21-.37-181.36s.17-181.38.37-181.38.38,81.19.38,181.38S531.31,400.82,531.1,400.82Z"/><path class="cls-8" d="M721.62,402.72c-.21,0-.37-81.22-.37-181.38s.16-181.4.37-181.4.38,81.2.38,181.4S721.83,402.72,721.62,402.72Z"/><path class="cls-8" d="M604.6,193.63a4.17,4.17,0,0,1,.57.21l1.66.69a32,32,0,0,1,5.88,3.61,34.23,34.23,0,0,1,7.45,8,38.16,38.16,0,0,1,3.28,6,37.13,37.13,0,0,1,2.2,7.35,34.12,34.12,0,0,1-1.52,17.38,37.74,37.74,0,0,1-11.45,16.42,36.72,36.72,0,0,1-20.47,8.23,40.09,40.09,0,0,1-23.16-5,39.35,39.35,0,0,1-16-17.45,34.3,34.3,0,0,1-2.61-21.87,34.68,34.68,0,0,1,9.67-17.5,29.75,29.75,0,0,1,7.47-5.28,31.84,31.84,0,0,1,8-2.82,49.79,49.79,0,0,1,14.43-.91,93,93,0,0,1,10.82,1.46c2.94.56,5.21,1.08,6.74,1.44l1.74.43a3.51,3.51,0,0,1,.59.18,4,4,0,0,1-.61-.1l-1.75-.36c-1.54-.31-3.82-.79-6.76-1.3a94.32,94.32,0,0,0-10.8-1.33,50,50,0,0,0-14.28,1A32.39,32.39,0,0,0,567.8,195a29.44,29.44,0,0,0-7.3,5.22,34,34,0,0,0-9.42,17.19,33.61,33.61,0,0,0,2.6,21.42,38.63,38.63,0,0,0,15.73,17.1,39.35,39.35,0,0,0,22.73,4.88,36,36,0,0,0,20.09-8,37.25,37.25,0,0,0,11.3-16.1,33.68,33.68,0,0,0,1.59-17.08A36.79,36.79,0,0,0,623,212.3a38.3,38.3,0,0,0-3.19-6,34.19,34.19,0,0,0-13-11.69l-1.63-.75A3.3,3.3,0,0,1,604.6,193.63Z"/><path class="cls-8" d="M619.76,198.13c-.13-.17,5.64-5,12.88-10.74s13.23-10.31,13.36-10.14-5.64,5-12.89,10.73S619.89,198.29,619.76,198.13Z"/><path class="cls-8" d="M642.54,199a9.36,9.36,0,0,1-1.85.26l-5.08.44c-4.29.34-10.24.76-16.85,1.18l-.54,0,.16-.52c.06-.2.13-.41.19-.63A66.21,66.21,0,0,1,625.83,184c1.2-1.88,2.26-3.33,3-4.31a8.59,8.59,0,0,1,1.27-1.46,11.52,11.52,0,0,1-1,1.63c-.69,1-1.68,2.52-2.8,4.42a72.79,72.79,0,0,0-7,15.72c-.06.21-.13.42-.19.61l-.38-.48c6.6-.41,12.55-.75,16.86-.95l5.09-.21A9.06,9.06,0,0,1,642.54,199Z"/><path class="cls-8" d="M804.8,289c-.06,0,.44-1.1,1.25-3.06a54.08,54.08,0,0,0-14.71-62,56.5,56.5,0,0,0-7.22-5.32c-1.81-1.11-2.84-1.68-2.81-1.74a4.27,4.27,0,0,1,.79.35c.49.26,1.26.59,2.17,1.14a48.9,48.9,0,0,1,7.42,5.17,53.41,53.41,0,0,1,17.58,54,49.66,49.66,0,0,1-2.95,8.55c-.42,1-.84,1.7-1.09,2.2A3.81,3.81,0,0,1,804.8,289Z"/><path class="cls-8" d="M818.16,280.85a31.2,31.2,0,0,1-3.81,3.33l-4.26,3.44-2.53,2c-.87.64-1.78,1.64-3.27,1.65a2.1,2.1,0,0,1-1.69-1.16,7.18,7.18,0,0,1-.59-1.7c-.27-1.08-.54-2.13-.8-3.13L799.9,280a34,34,0,0,1-1-5,33.44,33.44,0,0,1,1.54,4.81c.44,1.57.93,3.35,1.47,5.28l.84,3.12c.26,1.06.64,2.26,1.62,2.3s1.89-.8,2.76-1.47l2.56-2,4.36-3.32A35,35,0,0,1,818.16,280.85Z"/><path class="cls-8" d="M450.56,193.22c.05.2-14.33,4-32.12,8.56s-32.25,8-32.3,7.83,14.33-4,32.12-8.56S450.51,193,450.56,193.22Z"/><path class="cls-8" d="M459.86,200.86c.06.2-15.75,4.78-35.3,10.23s-35.44,9.7-35.5,9.5,15.75-4.78,35.3-10.23S459.81,200.66,459.86,200.86Z"/><path class="cls-8" d="M465.54,213.5c0,.2-15.07,4-33.76,8.47s-33.89,7.94-33.94,7.74,15.07-4,33.76-8.47S465.49,213.3,465.54,213.5Z"/><polygon class="cls-6" points="385.62 345.57 397.09 406.16 511.64 384.48 491.73 325.48 385.62 345.57"/><rect class="cls-7" x="387.35" y="335.27" width="110.43" height="54.64" transform="translate(-59.72 88.65) rotate(-10.72)"/><path class="cls-8" d="M501.9,379.16s-.09-.33-.22-1-.32-1.59-.56-2.8c-.48-2.48-1.19-6.08-2.1-10.71-1.79-9.28-4.37-22.66-7.56-39.15l.32.22L383.31,346.39h0l.3-.44c3.58,18.92,7,37.08,10.14,53.69l-.41-.29,77.91-14.57,22.51-4.17,6-1.09,1.57-.28.55-.08s-.16,0-.5.12l-1.52.31-5.94,1.17-22.4,4.34-78.08,14.95-.35.07-.06-.35-10.19-53.68-.07-.37.37-.07h0l108.51-20.44.28-.06.05.28c3.07,16.58,5.57,30,7.3,39.37.84,4.61,1.5,8.2,1.95,10.67.21,1.2.37,2.12.49,2.77S501.9,379.16,501.9,379.16Z"/><rect class="cls-7" x="398.85" y="352.71" width="30.53" height="30.53" transform="translate(-61.22 83.45) rotate(-10.72)"/><path class="cls-8" d="M432,380.14s-.06-.21-.15-.58l-.34-1.63c-.3-1.48-.72-3.54-1.25-6.12-1-5.29-2.5-12.72-4.26-21.61l.38.26-30,5.73c-.07.09.56-.83.29-.44h0v.05l0,.06,0,.13.05.26.1.51.19,1c.13.68.26,1.36.38,2,.26,1.35.51,2.69.76,4q.75,4,1.46,7.76c.94,5,1.83,9.79,2.64,14.16l-.38-.26,21.68-3.94,6.15-1.08,1.64-.27a3.53,3.53,0,0,1,.59-.07,2.8,2.8,0,0,1-.51.13l-1.57.34-6,1.23L402,386.14l-.32.06-.06-.32c-.83-4.37-1.75-9.12-2.71-14.15-.48-2.52-1-5.1-1.48-7.75-.25-1.32-.51-2.66-.76-4l-.39-2-.19-1-.1-.51-.05-.26,0-.13v-.11h0c-.27.39.36-.54.3-.44l30-5.63.32-.06.06.32c1.64,9,3,16.52,4,21.88.44,2.56.8,4.6,1.06,6.07.11.65.19,1.17.26,1.58A2.46,2.46,0,0,1,432,380.14Z"/><path class="cls-8" d="M432,380.14c-.06,0-.17-.78-.59-2.15a10.59,10.59,0,0,0-3.18-5l0,0a11.28,11.28,0,0,0-3.72-2.26,11.73,11.73,0,0,0-5.05-.58l-.67.07.36-.57a7.59,7.59,0,0,0,.28-7.19,6.78,6.78,0,0,0-2.66-3,7.1,7.1,0,0,0-4.07-.95,7.63,7.63,0,0,0-4.4,1.64,6.56,6.56,0,0,0-2.33,3.78,7.69,7.69,0,0,0,2.47,7.49l.36.29-.39.24a13,13,0,0,0-4.53,4.61,14.12,14.12,0,0,0-1.73,4.72,18.65,18.65,0,0,0-.11,4.41,4.34,4.34,0,0,1-.27-1.14,12.59,12.59,0,0,1,0-3.33,14.1,14.1,0,0,1,1.65-4.92,13.54,13.54,0,0,1,4.65-4.9l0,.52a8.29,8.29,0,0,1-2.78-8.14,7.22,7.22,0,0,1,2.57-4.21,8.3,8.3,0,0,1,4.82-1.81,7.85,7.85,0,0,1,4.49,1.06,7.56,7.56,0,0,1,2.94,3.31,8.23,8.23,0,0,1-.38,7.85l-.31-.5a12.12,12.12,0,0,1,5.31.68,11.53,11.53,0,0,1,3.85,2.45l0,0a10.33,10.33,0,0,1,3.15,5.37,10.53,10.53,0,0,1,.31,1.64A2.13,2.13,0,0,1,432,380.14Z"/><path class="cls-7" d="M437.72,349.08l26-4.92"/><path class="cls-8" d="M463.73,344.16c0,.2-5.75,1.47-12.93,2.83s-13,2.3-13.08,2.09,5.75-1.47,12.94-2.83S463.69,344,463.73,344.16Z"/><path class="cls-7" d="M438.86,355.13l5.26-1"/><path class="cls-8" d="M444.12,354.13c0,.21-1.11.59-2.56.87s-2.66.33-2.7.13,1.11-.6,2.56-.87S444.08,353.93,444.12,354.13Z"/><path class="cls-8" d="M487.36,356.83c0,.21-10.34,2.34-23.18,4.77s-23.29,4.24-23.33,4,10.34-2.34,23.19-4.77S487.32,356.63,487.36,356.83Z"/><path class="cls-8" d="M488.62,362c0,.2-10.4,2.35-23.32,4.79s-23.41,4.27-23.45,4.06,10.4-2.35,23.31-4.79S488.58,361.83,488.62,362Z"/><path class="cls-8" d="M489,368.23a8.89,8.89,0,0,1-1.78.49l-4.9,1c-4.15.85-9.89,2-16.24,3.18s-12.1,2.25-16.28,3l-4.95.82a8,8,0,0,1-1.83.19,8.84,8.84,0,0,1,1.78-.48l4.91-1.05c4.14-.85,9.88-2,16.23-3.19s12.11-2.24,16.28-3l4.95-.81A8.5,8.5,0,0,1,489,368.23Z"/><path class="cls-11" d="M441.68,343.19s.09-.07.28-.18l.88-.45a30.76,30.76,0,0,1,3.5-1.4,32.14,32.14,0,0,1,13.77-1.28,29.44,29.44,0,0,1,9.25,2.66,12.68,12.68,0,0,1,4.26,3.35,6.44,6.44,0,0,1,1.29,5.6,9.41,9.41,0,0,1-3.56,4.89,29.57,29.57,0,0,1-5.38,3.19,50.38,50.38,0,0,1-12.38,4.24,29.81,29.81,0,0,1-13.07-.18,19.06,19.06,0,0,1-5.81-2.39,9.58,9.58,0,0,1-3.95-4.59,6.76,6.76,0,0,1,.63-5.72,14.07,14.07,0,0,1,3.69-4,36.36,36.36,0,0,1,8.45-4.59,37.41,37.41,0,0,1,13.63-2.43,36,36,0,0,1,3.76.28l1,.16c.22,0,.33.06.33.08a1.26,1.26,0,0,1-.34,0l-1-.08c-.86-.07-2.12-.14-3.75-.13a38.31,38.31,0,0,0-13.44,2.62,36.47,36.47,0,0,0-8.26,4.6,13.38,13.38,0,0,0-3.49,3.8,6,6,0,0,0-.56,5.15,8.84,8.84,0,0,0,3.69,4.22,18.5,18.5,0,0,0,5.6,2.29,29.27,29.27,0,0,0,12.75.15,50.3,50.3,0,0,0,12.2-4.16,29.91,29.91,0,0,0,5.26-3.09,8.76,8.76,0,0,0,3.33-4.5,5.78,5.78,0,0,0-1.14-5,12.29,12.29,0,0,0-4-3.2,29.57,29.57,0,0,0-9-2.69,33,33,0,0,0-13.61,1c-1.56.48-2.74.93-3.53,1.26l-.9.38A1,1,0,0,1,441.68,343.19Z"/><path class="cls-11" d="M472.8,342.4c-.13-.16,3.32-3.18,7.7-6.75s8.05-6.32,8.18-6.16-3.32,3.18-7.7,6.75S472.93,342.56,472.8,342.4Z"/><path class="cls-11" d="M482.52,341.09c.05.2-4,1.2-9,2.23l-1.09.22-.58.12.14-.57c1.11-4.55,3.12-7.61,3.26-7.51s-1.5,3.25-2.53,7.68l-.44-.45,1.09-.22C478.39,341.56,482.48,340.89,482.52,341.09Z"/><path class="cls-11" d="M466.35,347.65c0,.2-6.37,1.36-14.28,2.57s-14.36,2-14.39,1.83,6.36-1.36,14.27-2.57S466.31,347.44,466.35,347.65Z"/><path class="cls-9" d="M433.82,336.12a6.66,6.66,0,1,1-7.78-5.31A6.65,6.65,0,0,1,433.82,336.12Z"/><path class="cls-8" d="M427.26,344.06a6.72,6.72,0,0,1-6.56-5.46,6.7,6.7,0,0,1,13.16-2.49h0a6.72,6.72,0,0,1-6.6,7.95Zm0-13.33a6.41,6.41,0,0,0-1.23.12,6.63,6.63,0,1,0,7.74,5.28h0A6.64,6.64,0,0,0,427.28,330.73Z"/><path class="cls-12" d="M75.77,520.49c-11.06-16.93-10.64-41.67,2.58-57,4.1-4.75,9.83-8.88,16.09-8.34s11.56,6,13.51,12.16,1.27,12.77.13,19.09c-1.6,8.86-4.29,17.92-10.43,24.49s-14,13.9-21.88,9.58"/><path class="cls-13" d="M80.7,601.41a25.31,25.31,0,0,1,7.06-28.73c2.54-2.07,5.87-3.68,9-2.84s5.41,4.16,5.86,7.49-.5,6.69-1.66,9.85c-1.63,4.41-3.83,8.84-7.59,11.67s-9,5.5-12.71,2.56"/><path class="cls-12" d="M54,595.6c3-15-4.87-31.57-18.45-38.63-4.22-2.2-9.41-3.5-13.66-1.37s-6.44,7.49-6.1,12.35,2.68,9.33,5.26,13.46c3.61,5.78,8,11.4,14.2,14.3s14.4,5.13,18.75-.11"/><path class="cls-13" d="M55.93,555c5.3-17.1-3.68-37.83-18.65-47.64-4.65-3.05-10.54-5.17-15.73-3.19s-8.37,8-8.54,13.64,2,11.17,4.54,16.28c3.52,7.14,8,14.2,14.83,18.3s17.88,8.2,23.55,2.61"/><path class="cls-8" d="M66.58,638.59a3,3,0,0,1-.18-.83c-.09-.62-.21-1.41-.35-2.38-.08-.53-.16-1.1-.24-1.72s-.25-1.31-.39-2c-.28-1.46-.57-3.12-1-4.93l-.69-2.85c-.29-1-.58-2-.89-3.05-.57-2.13-1.42-4.32-2.2-6.66A128.27,128.27,0,0,0,54,599.5a127.78,127.78,0,0,0-8.55-13.6c-1.51-1.95-2.87-3.87-4.33-5.51-.7-.84-1.39-1.65-2-2.44s-1.36-1.46-2-2.15c-1.24-1.39-2.47-2.55-3.53-3.59l-1.48-1.45c-.47-.42-.91-.8-1.3-1.16L29,568a4.53,4.53,0,0,1-.59-.6,3.63,3.63,0,0,1,.69.49l1.88,1.51,1.35,1.11,1.53,1.41c1.09,1,2.35,2.16,3.62,3.54l2,2.13L41.56,580c1.49,1.64,2.88,3.55,4.41,5.51a122.1,122.1,0,0,1,8.65,13.64,122.64,122.64,0,0,1,6.59,14.75c.78,2.36,1.61,4.58,2.15,6.72.3,1.06.59,2.09.86,3.08s.44,2,.65,2.87c.45,1.83.7,3.51.94,5,.12.73.24,1.42.34,2.05s.12,1.21.18,1.74c.09,1,.16,1.78.22,2.41A4.44,4.44,0,0,1,66.58,638.59Z"/><path class="cls-8" d="M66.18,641.67a1.35,1.35,0,0,1,0-.35c0-.26,0-.59.07-1,.08-.93.2-2.19.35-3.8.08-.83.17-1.74.27-2.74s.1-2.1.16-3.27c.09-2.35.32-5,.23-8,0-1.48,0-3,0-4.64s-.17-3.29-.25-5c-.12-3.48-.59-7.17-1-11A173.81,173.81,0,0,0,60.75,577a174.05,174.05,0,0,0-9.16-23.71c-1.77-3.49-3.38-6.84-5.18-9.82-.88-1.5-1.67-3-2.53-4.35s-1.71-2.66-2.52-3.9c-1.54-2.53-3.18-4.65-4.54-6.57-.69-1-1.31-1.85-1.92-2.65l-1.72-2.15-2.37-3-.6-.79a1.34,1.34,0,0,1-.18-.28s.09.07.24.23l.66.75,2.47,2.91,1.77,2.12c.63.79,1.27,1.68,2,2.62,1.39,1.9,3.06,4,4.64,6.52l2.56,3.9c.88,1.36,1.68,2.84,2.58,4.34,1.83,3,3.47,6.34,5.26,9.83a169.1,169.1,0,0,1,9.25,23.79,168.62,168.62,0,0,1,5.21,25c.41,3.91.86,7.61.95,11.11.07,1.74.21,3.42.21,5s0,3.18,0,4.66c0,3-.22,5.65-.34,8-.08,1.18-.13,2.28-.23,3.28l-.33,2.74c-.21,1.6-.37,2.87-.49,3.79-.06.4-.1.72-.14,1S66.2,641.67,66.18,641.67Z"/><path class="cls-8" d="M95,475.61a1.33,1.33,0,0,1-.15.32c-.12.24-.28.53-.47.89-.46.82-1.1,1.95-1.89,3.37-.41.74-.9,1.53-1.37,2.44s-1,1.91-1.48,3L87.93,489c-.57,1.22-1.12,2.54-1.73,3.91s-1.26,2.81-1.87,4.33-1.2,3.12-1.84,4.76l-1,2.52c-.29.86-.58,1.74-.89,2.63-.6,1.78-1.21,3.62-1.85,5.5-2.34,7.58-4.57,16-6.44,25s-3.1,17.63-4,25.51-1.4,15-1.56,21c-.16,3-.19,5.71-.2,8.1s0,4.44,0,6.12,0,2.93.06,3.87c0,.41,0,.74,0,1a1.35,1.35,0,0,1,0,.35s0-.12,0-.34,0-.6-.07-1c0-.94-.11-2.24-.19-3.87s-.13-3.74-.13-6.13,0-5.11.08-8.12c.1-6,.65-13.18,1.42-21.1s2.16-16.58,4-25.59,4.13-17.46,6.52-25.06L80,507l.91-2.64c.34-.85.67-1.69,1-2.51l1.88-4.77c.63-1.52,1.31-2.94,1.92-4.32s1.19-2.68,1.79-3.9l1.76-3.41,1.54-2.95c.49-.9,1-1.69,1.42-2.42l2-3.31.54-.85C94.92,475.7,95,475.6,95,475.61Z"/><path class="cls-8" d="M91.24,579.48a14.84,14.84,0,0,1-1.18,2.06c-.81,1.3-1.92,3.21-3.22,5.6s-2.75,5.31-4.2,8.6-2.82,7-4.06,11a114.84,114.84,0,0,0-2.84,11.36c-.66,3.54-1.13,6.76-1.39,9.47s-.44,4.92-.5,6.44a15.69,15.69,0,0,1-.19,2.37,14.89,14.89,0,0,1-.09-2.38c0-1.53.06-3.75.27-6.48s.61-6,1.24-9.54a98.13,98.13,0,0,1,7-22.49,94.1,94.1,0,0,1,4.36-8.59c1.36-2.37,2.55-4.25,3.43-5.5A13,13,0,0,1,91.24,579.48Z"/><polygon class="cls-10" points="44.84 630.97 93.45 630.97 87.57 680.63 50.9 680.63 44.84 630.97"/><polygon class="cls-8" points="46.61 675.27 50.74 680.63 87.57 680.63 91.82 675.44 46.61 675.27"/><path class="cls-1" d="M91.56,645.58c0,.2-10.09.36-22.53.36s-22.53-.16-22.53-.36,10.08-.37,22.53-.37S91.56,645.38,91.56,645.58Z"/><path class="cls-1" d="M91.56,648.88c0,.2-10.09.36-22.53.36s-22.53-.16-22.53-.36,10.08-.36,22.53-.36S91.56,648.68,91.56,648.88Z"/><path class="cls-1" d="M91,652.08c0,.2-9.73.37-21.74.37s-21.74-.17-21.74-.37,9.73-.36,21.74-.36S91,651.88,91,652.08Z"/><path class="cls-8" d="M52.27,524a2.53,2.53,0,0,1,0,.48c0,.36-.06.81-.11,1.35-.13,1.24-.29,2.91-.5,4.94-.44,4.18-1.09,9.94-1.83,16.3,0,.25-.06.49-.09.71l0,.22h-.22c-6.24.1-11.86.16-15.92.18H28.76l-1.3,0a1.42,1.42,0,0,1-.45,0,1.33,1.33,0,0,1,.45-.06l1.3-.06,4.8-.16c4.06-.1,9.68-.22,15.92-.32l-.24.22.09-.71c.74-6.37,1.44-12.12,2-16.29.27-2,.5-3.69.66-4.93.08-.53.15-1,.2-1.33A1.89,1.89,0,0,1,52.27,524Z"/><path class="cls-8" d="M41.21,509.12a1.61,1.61,0,0,1,0,.48c0,.38,0,.84,0,1.4,0,1.28,0,3,0,5.12-.06,4.33-.18,10.3-.34,16.9,0,.27,0,.53,0,.78v.26l-.26,0a152.22,152.22,0,0,0-16.34-.37c-2.09.06-3.77.15-4.93.21l-1.34.06a1.53,1.53,0,0,1-.47,0,2.56,2.56,0,0,1,.46-.08l1.33-.16c1.16-.12,2.85-.25,4.93-.36a126.9,126.9,0,0,1,16.4.22l-.26.24c0-.25,0-.52,0-.78.17-6.6.34-12.57.49-16.9.08-2.1.15-3.84.2-5.12,0-.56.06-1,.08-1.39A3,3,0,0,1,41.21,509.12Z"/><path class="cls-8" d="M28.28,504.06a9.73,9.73,0,0,1,.3,1.42c.18,1,.43,2.32.72,3.91.63,3.3,1.61,7.85,3,12.83l.15.52L32,522.5l-.59-.28a42,42,0,0,0-12.95-3.79c-1.73-.21-3.14-.29-4.11-.32A10.19,10.19,0,0,1,12.8,518a1.69,1.69,0,0,1,.39,0c.26,0,.63-.05,1.12-.06a35.83,35.83,0,0,1,4.14.18,39.26,39.26,0,0,1,13.14,3.69l.59.28-.35.29A126.64,126.64,0,0,1,29,509.45c-.27-1.66-.46-3-.57-3.94A6.84,6.84,0,0,1,28.28,504.06Z"/><path class="cls-8" d="M96.93,594.58c0,.07-1.41-.07-3.68-.16a61.3,61.3,0,0,0-8.84.29c-.7.07-1.38.16-2,.25l-.23,0,0-.23c-.52-2.94-1-5.53-1.26-7.39a20.83,20.83,0,0,1-.38-3,19.75,19.75,0,0,1,.69,2.94c.38,1.85.88,4.43,1.43,7.36l-.28-.2c.66-.09,1.35-.18,2.06-.25a48.63,48.63,0,0,1,8.91-.15c1.14.09,2,.2,2.68.3A3.58,3.58,0,0,1,96.93,594.58Z"/><path class="cls-8" d="M101.52,585.45c0,.08-1.36-.24-3.56-.51a38.48,38.48,0,0,0-8.63-.08c-.52,0-1,.12-1.52.19l-.26,0,0-.25c-.31-3-.56-5.7-.71-7.63a20.83,20.83,0,0,1-.16-3.1,21.63,21.63,0,0,1,.48,3.07c.24,1.92.55,4.59.87,7.61l-.28-.22c.5-.07,1-.14,1.55-.19a33.53,33.53,0,0,1,8.72.23c1.11.18,2,.38,2.6.54A3.91,3.91,0,0,1,101.52,585.45Z"/><path class="cls-8" d="M104.81,499a2.62,2.62,0,0,1-.48.25l-1.42.63-5.26,2.24-17.41,7.21-.94.39-.23.09-.09-.22L71.62,493l-2.17-5c-.22-.56-.41-1-.56-1.37a3.76,3.76,0,0,1-.17-.49s.11.14.26.45.38.79.65,1.33l2.3,5c1.94,4.27,4.57,10.08,7.5,16.55l-.32-.13.94-.38,17.47-7.08,5.32-2.1,1.45-.54A2,2,0,0,1,104.81,499Z"/><path class="cls-8" d="M109.07,478a2.42,2.42,0,0,1-.43.31l-1.27.83-4.75,3-15.83,9.65-.26.16-.1-.28c-.09-.25-.19-.51-.29-.77-2.58-7-4.92-13.26-6.63-17.9-.81-2.25-1.48-4.1-2-5.45-.21-.6-.38-1.09-.51-1.49a3.06,3.06,0,0,1-.15-.53,2.31,2.31,0,0,1,.24.5l.6,1.46,2.1,5.39c1.76,4.62,4.14,10.91,6.77,17.85l.29.77-.36-.13,15.91-9.53,4.83-2.82,1.32-.75A3.06,3.06,0,0,1,109.07,478Z"/><path class="cls-8" d="M107.67,466.81a6.49,6.49,0,0,1-1,.62c-.68.38-1.67.93-2.87,1.68A51.32,51.32,0,0,0,95,476l-.61.6.2-.83c.22-.87.41-1.79.56-2.73a31.67,31.67,0,0,0-.68-13,37.07,37.07,0,0,0-1.25-3.76,11,11,0,0,1-.52-1.37,6.82,6.82,0,0,1,.7,1.29,28.33,28.33,0,0,1,1.4,3.75,30.29,30.29,0,0,1,.84,13.13c-.15.95-.35,1.89-.57,2.77l-.41-.24a46.79,46.79,0,0,1,9-6.82c1.23-.71,2.25-1.22,3-1.55A7.29,7.29,0,0,1,107.67,466.81Z"/><path class="cls-8" d="M52.2,575.82a6,6,0,0,1-.22,1.25c-.17.81-.41,2-.68,3.42A84.1,84.1,0,0,0,50,592v.22l-.23,0-1.09.06c-4.82.29-9.18.53-12.34.68l-3.75.14a7.26,7.26,0,0,1-1.37,0,8.37,8.37,0,0,1,1.36-.18l3.74-.3c3.15-.24,7.51-.53,12.34-.82l1.08-.06-.23.23A71.05,71.05,0,0,1,51,580.42c.31-1.44.6-2.6.83-3.39A5.9,5.9,0,0,1,52.2,575.82Z"/><path class="cls-8" d="M42.65,562.12a7.09,7.09,0,0,1-.08,1.27c-.1.9-.24,2.06-.39,3.45-.36,2.93-.88,7-1.49,11.54l0,.2h-.2l-1.57.11c-4.94.33-9.39.84-12.61,1.26l-3.81.51a7.26,7.26,0,0,1-1.4.14,7.82,7.82,0,0,1,1.37-.33c.89-.18,2.19-.41,3.79-.66,3.21-.51,7.68-1.08,12.63-1.42l1.57-.1-.23.22c.62-4.56,1.21-8.61,1.65-11.52.22-1.39.4-2.54.54-3.44A7.33,7.33,0,0,1,42.65,562.12Z"/><path class="cls-8" d="M31.4,556.22c.08,0-.22,1.34-.57,3.51a63.12,63.12,0,0,0-.78,8.6v.27l-.28,0-.81-.11a76,76,0,0,0-9.18-.54L17,568a5.24,5.24,0,0,1-1,0,3.52,3.52,0,0,1,1-.17c.66-.07,1.62-.14,2.8-.19A58.41,58.41,0,0,1,29,568l.82.1-.28.24a50.5,50.5,0,0,1,.94-8.65c.22-1.09.43-1.95.6-2.54A3.49,3.49,0,0,1,31.4,556.22Z"/><path class="cls-8" d="M95.45,569.92a44.33,44.33,0,0,1-2.17,4.93,41.15,41.15,0,0,1-2.34,4.85,23.12,23.12,0,0,1,1.9-5.06A22.63,22.63,0,0,1,95.45,569.92Z"/><path class="cls-8" d="M101.56,576.39A48.48,48.48,0,0,0,96,577.51a50.64,50.64,0,0,0-5.19,2.2,15.38,15.38,0,0,1,10.71-3.32Z"/><path class="cls-13" d="M942.92,628c6-3.1,13.09-3.51,19.76-2.4,3.59.59,7.33,1.66,9.77,4.36s2.9,7.43.1,9.74c-1.67,1.38-4,1.59-6.16,1.56-5.22-.06-11-1-15.19,2.16-2.38,1.8-4,4.78-6.81,5.66s-5.93-.78-7.41-3.29a11.49,11.49,0,0,1-.84-8.49A13,13,0,0,1,942.92,628Z"/><path class="cls-13" d="M929.15,601.43c3.68,5.25,10.82,3.52,14.13.31s4.72-7.85,6-12.27c2.91-10.12,5.85-20.74,3.68-31a17.34,17.34,0,0,0-4-8.44c-2.17-2.29-5.5-3.65-8.54-2.84-3.6,1-5.84,4.48-7.46,7.83a74.13,74.13,0,0,0-7.31,31.75c0,5.12.59,10.48,3.47,14.7"/><path class="cls-13" d="M919.06,609c4-4.74,4.75-11.65,3-17.58s-5.79-11-10.41-15.1a56.08,56.08,0,0,0-18.64-11,19.89,19.89,0,0,0-8.39-1.43,8.79,8.79,0,0,0-7,4.26c-2,3.74-.08,8.28,2,12a141.28,141.28,0,0,0,12.24,18.65c3.68,4.73,7.88,9.4,13.47,11.54s11.41,1.88,14.37-2"/><path class="cls-8" d="M928.9,680.62a11.4,11.4,0,0,0,.34-2.38c.16-1.74.38-3.92.63-6.51a93.26,93.26,0,0,1,1.46-9.55,74.38,74.38,0,0,1,3.47-11.27,41.55,41.55,0,0,1,5.76-10.2,21.53,21.53,0,0,1,7.27-6.05,20.59,20.59,0,0,1,6.13-1.91,11.06,11.06,0,0,0,2.38-.34,11.07,11.07,0,0,0-2.42,0,18.71,18.71,0,0,0-6.39,1.67,21.35,21.35,0,0,0-7.67,6.1,40.4,40.4,0,0,0-6,10.4A69.71,69.71,0,0,0,930.44,662a80,80,0,0,0-1.26,9.67c-.21,2.77-.29,5-.33,6.55A12.22,12.22,0,0,0,928.9,680.62Z"/><path class="cls-8" d="M929.35,675.61a4.1,4.1,0,0,0,.07-1.1c0-.84,0-1.88,0-3.17,0-2.75,0-6.72.14-11.63.24-9.82,1.09-20.38,2.72-35.28,1.55-14,3.62-30.3,5.81-40.9.47-2.41.94-4.58,1.39-6.48s.78-3.55,1.13-4.87.55-2.27.74-3.08a5.16,5.16,0,0,0,.2-1.09,4.64,4.64,0,0,0-.39,1c-.24.79-.54,1.8-.92,3s-.82,2.95-1.3,4.84-1,4.06-1.53,6.46a359.22,359.22,0,0,0-6.11,38c-1.64,14.92-2.37,28.52-2.44,38.36-.06,4.92,0,8.9.17,11.65.08,1.29.15,2.33.2,3.16A4.73,4.73,0,0,0,929.35,675.61Z"/><path class="cls-8" d="M929.42,649.4a21.47,21.47,0,0,0,0-3.31c-.12-2.12-.41-5.19-1-9a117.77,117.77,0,0,0-2.91-13.06A107.75,107.75,0,0,0,920,608.64c-4.53-10.74-10.68-19.52-16-24.95a39,39,0,0,0-3.77-3.51c-.58-.49-1.09-1-1.61-1.36l-1.46-1a20.32,20.32,0,0,0-2.78-1.78c-.16.21,3.94,2.63,9.12,8.14A86.47,86.47,0,0,1,919.11,609a123.42,123.42,0,0,1,5.49,15.3c1.43,4.8,2.38,9.21,3.1,12.92s1.07,6.77,1.31,8.87A21.19,21.19,0,0,0,929.42,649.4Z"/><path class="cls-8" d="M762.41,261.46c0,8.57,11.28,14.13,10.86,22.69-.18,3.67-2.56,6.9-3.13,10.54-.76,4.88,1.83,9.6,2.69,14.47,1.77,10-4.37,20.36-13.14,25.54s-19.6,5.87-29.64,4.17"/><path class="cls-8" d="M693.56,257.15c.19,4.6-3,8.61-6.14,12s-6.69,6.83-7.5,11.37c-1.43,8,6.24,15.81,4.35,23.76-1,4.26-4.63,7.59-5.4,11.9s1.38,8.34,4.06,11.62,5.92,2.92,8.27,6.44A34.64,34.64,0,0,0,701.57,344c8.72,5.14,19.59-1.54,23.9-2.67"/><path class="cls-8" d="M764,266.45c.26-4.17-3.49-7.51-7.33-9.16s-8.12-2.37-11.5-4.81c-3-2.16-5-5.44-7.46-8.15a25.69,25.69,0,0,0-43.55,10.39c-1.68,5.88-.89,12.93,3.66,17,5.29,4.75,13.37,4,20.38,2.79s14.92-2.35,20.6,1.93c3.42,2.57,5.3,6.65,7.32,10.42s4.59,7.66,8.6,9.18,9.58-.7,9.88-5"/><path class="cls-14" d="M748.14,264.91l-36.69-10.63c-11.81-1.66-20.2,12.67-21.35,24.53-1.29,13.19-2.34,29.34-1.12,39.26,2.47,19.93,17.58,23,17.58,23s-.17,5.8-.38,12.88a21.31,21.31,0,0,0,20.27,21.9h0a21.29,21.29,0,0,0,22.27-19.9l5.41-83.73A7,7,0,0,0,748.14,264.91Z"/><path class="cls-8" d="M692.63,293.29a2.54,2.54,0,0,0,2.37,2.65,2.43,2.43,0,0,0,2.7-2.2,2.55,2.55,0,0,0-2.36-2.65A2.45,2.45,0,0,0,692.63,293.29Z"/><path class="cls-8" d="M692.69,289.21c.3.34,2.28-1,5-.92s4.7,1.54,5,1.22c.15-.14-.15-.75-1-1.42a7,7,0,0,0-4-1.38,6.7,6.7,0,0,0-4,1.14C692.84,288.47,692.54,289.06,692.69,289.21Z"/><path class="cls-8" d="M719.32,294a2.56,2.56,0,0,0,2.37,2.65,2.44,2.44,0,0,0,2.7-2.2A2.56,2.56,0,0,0,722,291.8,2.45,2.45,0,0,0,719.32,294Z"/><path class="cls-8" d="M719.57,290.65c.3.34,2.28-1,5-.92s4.7,1.54,5,1.21c.15-.14-.15-.75-1-1.42a7,7,0,0,0-4-1.38,6.63,6.63,0,0,0-4,1.15C719.72,289.9,719.42,290.49,719.57,290.65Z"/><path class="cls-8" d="M708.94,310.6c0-.16-1.67-.51-4.42-1-.69-.09-1.35-.26-1.45-.74a3.56,3.56,0,0,1,.53-2q1.08-2.5,2.25-5.25c3.13-7.48,5.43-13.64,5.12-13.76s-3.08,5.84-6.21,13.32q-1.14,2.76-2.16,5.28a4,4,0,0,0-.46,2.73,1.76,1.76,0,0,0,1.11,1.06,5.36,5.36,0,0,0,1.18.21C707.2,310.68,708.92,310.75,708.94,310.6Z"/><path class="cls-15" d="M706.56,341.05a48,48,0,0,0,26.53-5.9c-.23,0-7.76,13.55-26.69,10.86Z"/><path class="cls-3" d="M709.87,317.23a4.94,4.94,0,0,1,4.48-1.68,4.47,4.47,0,0,1,3,1.78,2.85,2.85,0,0,1,.11,3.27,3.31,3.31,0,0,1-3.62.78,10.4,10.4,0,0,1-3.43-2.21,3.11,3.11,0,0,1-.75-.83.92.92,0,0,1,0-1"/><path class="cls-8" d="M716.93,312.77c-.45,0-.56,2.93-3.17,5s-5.77,1.58-5.8,2c-.05.18.68.6,2,.68a7.45,7.45,0,0,0,4.84-1.5,6.44,6.44,0,0,0,2.46-4.16C717.44,313.5,717.13,312.76,716.93,312.77Z"/><path class="cls-8" d="M718.5,285.81c.24.76,3,.5,6.19,1s5.76,1.47,6.21.81c.2-.31-.23-1-1.25-1.78a10.31,10.31,0,0,0-4.56-1.78,10.48,10.48,0,0,0-4.89.41C719,284.89,718.4,285.46,718.5,285.81Z"/><path class="cls-8" d="M694,281.33c.46.63,2.36.05,4.63.1s4.17.56,4.64-.07c.2-.31-.08-.94-.9-1.56a6.71,6.71,0,0,0-7.47,0C694.05,280.38,693.76,281,694,281.33Z"/><path class="cls-8" d="M753.77,333.38c-5.49.93-5.89-1.86-9.84-5.78a18,18,0,0,1-5-15.29c.78-4.85,3.56-9.72,2-14.38-2-6.17-10.52-8.32-12.59-14.47-1.2-3.58.11-7.68-1.27-11.19-1.3-3.3-4.66-5.29-8-6.6s-6.85-2.26-9.58-4.53-4.34-6.43-2.44-9.42a187.57,187.57,0,0,1,43,11.92c3.2,1.31,6.55,2.87,8.37,5.81,1.93,3.11,1.71,7,1.42,10.69q-2.1,26.66-4.21,53.33"/><path class="cls-8" d="M767.54,293.33a15.22,15.22,0,0,1,29-4.34c2.58,5.69,1.41,12.47-1.35,18.08-3.28,6.66-9.74,12.63-17.14,12.06-7-.54-12.37-6.85-14.17-13.6s-.75-13.88.3-20.78"/><path class="cls-10" d="M770.55,320.61a3.36,3.36,0,0,0,1.08-1.11,9.82,9.82,0,0,0,1.6-3.92,19,19,0,0,0,0-6.27c-.33-2.35-1-4.82-1.53-7.44a18.56,18.56,0,0,1-.2-7.35c.48-2.19,1.58-4,2.09-5.76a7.5,7.5,0,0,0,.26-4.24,2.55,2.55,0,0,0-.73-1.38c-.07,0,.24.51.4,1.45a7.84,7.84,0,0,1-.51,4c-.55,1.63-1.72,3.42-2.29,5.79a18.52,18.52,0,0,0,.12,7.69c.5,2.66,1.23,5.12,1.59,7.39a19.84,19.84,0,0,1,.17,6A12.54,12.54,0,0,1,770.55,320.61Z"/><path class="cls-10" d="M771.61,296.81c-.08.05.82,1.46,2.94,3.08a17.44,17.44,0,0,0,19.59,1,9.47,9.47,0,0,0,3.23-2.77c-.1-.11-1.27,1-3.54,2.23a18.12,18.12,0,0,1-18.92-.94C772.77,298,771.72,296.71,771.61,296.81Z"/><path class="cls-10" d="M772.49,300a9,9,0,0,0,1.58,3.17,21.66,21.66,0,0,0,14.09,9.1,9.14,9.14,0,0,0,3.54.14,33.25,33.25,0,0,0-3.42-.74,25.52,25.52,0,0,1-7.61-3.27,25.07,25.07,0,0,1-6.1-5.59A32.8,32.8,0,0,0,772.49,300Z"/><path class="cls-10" d="M766.62,327.13s.08-.07.22-.24a6.13,6.13,0,0,0,.57-.77,10.41,10.41,0,0,0,1.42-3.43,12.08,12.08,0,0,0-.13-5.86,11.2,11.2,0,0,0-4.41-6.36c-2.3-1.73-5.33-3-7.19-5.69a6,6,0,0,1-.93-4.69,27.08,27.08,0,0,1,1.89-5.09,14.78,14.78,0,0,0,.13-11.85,13,13,0,0,0-3.86-5.12,15.71,15.71,0,0,0-6-2.72c-2.14-.56-4.27-.91-6.24-1.58a12.13,12.13,0,0,1-5.16-3,8.76,8.76,0,0,1-2.12-5.28,42.82,42.82,0,0,0-.74-5.79,20,20,0,0,0-5.05-9.56,15.79,15.79,0,0,0-8.29-4.45,12.58,12.58,0,0,0-7.71.92,12,12,0,0,0-4.55,3.69,10,10,0,0,0-1.66,3.32,5,5,0,0,0-.24,1.27,12.77,12.77,0,0,1,2.16-4.38,12,12,0,0,1,11.88-4.21,15.08,15.08,0,0,1,7.89,4.35,19.23,19.23,0,0,1,4.78,9.22,45.6,45.6,0,0,1,.71,5.72,9.53,9.53,0,0,0,2.31,5.76,12.9,12.9,0,0,0,5.52,3.28c2.06.7,4.2,1.05,6.29,1.6a14.85,14.85,0,0,1,5.68,2.56,12,12,0,0,1,3.61,4.78,14,14,0,0,1-.08,11.2,27.13,27.13,0,0,0-1.9,5.26,6.71,6.71,0,0,0,1.08,5.24c2.07,2.91,5.19,4.12,7.42,5.78a10.71,10.71,0,0,1,4.31,6,12,12,0,0,1,.27,5.66A13.28,13.28,0,0,1,766.62,327.13Z"/><path class="cls-10" d="M767.07,271.73a2.06,2.06,0,0,0,.27-.91,4.22,4.22,0,0,0-.57-2.65,6.72,6.72,0,0,0-3.23-2.85,10.37,10.37,0,0,0-5.68-.37c-2.1.32-4.28,1.08-6.65,1.46s-5.1.35-7.14-1.36-3-4.48-4-7.27a29.72,29.72,0,0,0-4.32-8.31A27.42,27.42,0,0,0,721,239.28a15.79,15.79,0,0,0-7.93-.05,12.29,12.29,0,0,0-5.92,3.57,9.27,9.27,0,0,0-1.85,9.45,6.94,6.94,0,0,0,1.42,2.31c.43.46.7.64.72.62a9.45,9.45,0,0,1-1.82-3,9,9,0,0,1-.35-4.1,8.73,8.73,0,0,1,2.34-4.83,11.75,11.75,0,0,1,5.65-3.28,15.14,15.14,0,0,1,7.55.13A26.91,26.91,0,0,1,735,250a29,29,0,0,1,4.21,8.08c1,2.77,2,5.74,4.32,7.61a7.58,7.58,0,0,0,3.87,1.6,13.56,13.56,0,0,0,3.89-.15c2.46-.43,4.61-1.22,6.63-1.58a10.07,10.07,0,0,1,5.4.22,6.52,6.52,0,0,1,3.12,2.57,4.3,4.3,0,0,1,.69,2.47C767.15,271.41,767,271.71,767.07,271.73Z"/><path class="cls-14" d="M607.58,427.07s-11-17.17-12.91-18.6-19-7.36-20.4-6.89-21.91,4.33-19.51,6.73,16.67-.48,16.67-.48l1.94.92s-12.34,2.18-14.92,3.73c-2.37,1.42-1.5,4.34.76,4.07s13-2.53,13.62-2.1-11.64,3.09-13,3.9c-1.77,1.09-1.9,4.26.35,4.07,1.33-.11,12.91-3.31,12.91-3.31s-9.16,3.71-10,4.53c-1.37,1.34-.23,3.33,1.76,2.86,1.36-.33,7.82-3.54,9.65-4,0,0,1.73.43,3.34,3.87.75,1.61,4.23,11.66,10.28,11.43,5.36-.21,10.69,4.12,10.69,4.12Z"/><path class="cls-15" d="M554.8,408.36c0,.11,1.36.67,3.76,1a22,22,0,0,0,4.23.11c1.57-.2,3.28-.47,5.08-.75l3.82-.62-.23,0c5.09,1.72,8.82,2.83,8.9,2.63s-3.54-1.67-8.6-3.5l-.11,0-.13,0-3.79.57-5,.82a26.5,26.5,0,0,1-4.1.1C556.28,408.53,554.84,408.22,554.8,408.36Z"/><path class="cls-16" d="M706.21,365.09s-11.63,7.05-15.91,15.76S663.68,448,663.68,448l-56.12-27.88-14.07,24,52.91,42.06A34.93,34.93,0,0,0,670,491h0c12.65-1.9,18.87-2.2,23.22-14.23l14.08-39-3-71.43"/><g class="cls-4"><path d="M690.44,399.18C677.51,418,675.35,426.78,674,449.54c-.45,7.55,0,15.7,4.5,21.75,1.66,2.2,4.87,4.08,7,2.33s.59-4.89-.09-7.5c-4-15.3-5.47-27.09-2.6-40.55s2.11-13.24,7.66-25.83"/></g><path class="cls-8" d="M670.47,471.31c-.25,0-.16-5.59-2.16-12.1s-5.1-11.16-4.89-11.28a12.45,12.45,0,0,1,2.11,3,38.07,38.07,0,0,1,5.05,16.75A12.65,12.65,0,0,1,670.47,471.31Z"/><path class="cls-16" d="M689.05,539.09l-8.21,141.08H815.31s-4-70.67-9-100.86c-5.23-53.36-21.88-61.26-33.56-87l6.59-124.84L750.89,354.3l-1.15-6.56-44.19,5.35c0,.07-1.31,13.29-1.31,13.29s-4,11.72-6.34,17.77C690.77,403,681,425.44,682.46,441.88c.65,7.45,10.86,57,10.86,57L689.38,539Z"/><path class="cls-8" d="M699.53,377.38a5.33,5.33,0,0,1-.35,1.09L698,381.53c-1,2.65-2.57,6.45-4.5,11.15s-4.21,10.28-6.26,16.65a120.09,120.09,0,0,0-4.8,21.19,68.94,68.94,0,0,0,.23,21.62c1.14,6.58,2.9,12.38,4,17.33s1.91,9,2.37,11.79c.17,1.35.31,2.43.41,3.25a7.33,7.33,0,0,1,.1,1.13,5.94,5.94,0,0,1-.25-1.11l-.55-3.22c-.55-2.78-1.32-6.81-2.6-11.71s-3-10.7-4.21-17.34a68.77,68.77,0,0,1-.3-21.84,117.67,117.67,0,0,1,4.89-21.31c2.09-6.39,4.45-12,6.43-16.64s3.57-8.37,4.72-11.05l1.27-3A7.59,7.59,0,0,1,699.53,377.38Z"/><g class="cls-4"><path d="M694.09,507.11c-1.4,6.91,4.18,13.7,10.8,16.15s13.92,1.66,20.93.83l48.81-5.75c2.57-.3,5.57-.9,6.68-3.24a6,6,0,0,0,.05-4.17c-1.21-4-4.47-7.17-8.22-9.05a34.6,34.6,0,0,0-12.13-3c-16.8-1.69-33.67,1.3-50.29,4.28"/></g><path class="cls-14" d="M656,482.37l12.41,1.13,5.43,2.74s-1.3-1.38-2.43-2.82-5.51-4.57-5.51-4.57l-9.24-1s-5.19-.39-5.52-4l7.05-.68s-7.3-.51-7.14-4.16l5.35-.95a1.68,1.68,0,0,1-1.68-1.95l14.74-1.64,14.1,10,13.62,12,3.06.13,1.08,19.67s-12.09-1.48-15.38-3.11-18-14.86-18-14.86-7.67-.68-9.79-2.5A5.59,5.59,0,0,1,656,482.37Z"/><path class="cls-15" d="M704.33,506.68h-.19l-.57,0-2.21-.25c-1.94-.23-4.79-.59-8.42-1.2a52,52,0,0,1-6-1.32,10.33,10.33,0,0,1-3.07-1.7c-1-.72-2-1.48-3-2.3-4-3.24-8.43-7.07-13.21-11.33l.17.07a42.93,42.93,0,0,1-6.94-1.19,13.82,13.82,0,0,1-1.77-.62,7.71,7.71,0,0,1-.85-.45l-.42-.3-.35-.32a7.63,7.63,0,0,1-1.24-1.52,4.77,4.77,0,0,1-.71-1.91l0-.37.39,0,12.41,1.11h.06l.05,0,5.44,2.74-.4.53-1.73-2-.88-1a11.75,11.75,0,0,0-.94-.92c-1.35-1.19-2.83-2.31-4.34-3.4l.17.06-5.55-.57-2.85-.29c-.48-.06-1-.08-1.47-.17a10.69,10.69,0,0,1-1.46-.35,6.74,6.74,0,0,1-2.45-1.33,3.9,3.9,0,0,1-1.3-2.52l0-.34.34,0,7.05-.68v.69a16.15,16.15,0,0,1-4.52-1,6.29,6.29,0,0,1-2-1.24,2.92,2.92,0,0,1-.92-2.25v-.28l.27,0,5.67-.82,0,.66a2.83,2.83,0,0,1-1.58-.69,2,2,0,0,1-.6-1.64l0-.27.27,0,14.62-1.71h.12l.1.06,14.07,10h0c5.23,4.66,9.78,8.71,13.57,12.1l-.12-.05,12.56.7,3.33.21.86.07.29,0H713l-3.34-.11-12.57-.52H697l-.06-.05-13.66-12,0,0-14.12-10,.22.06-14.63,1.76.29-.31a1.37,1.37,0,0,0,.41,1.12,2.11,2.11,0,0,0,1.18.51l2.41.31-2.39.35-5.67.83.29-.32a2.24,2.24,0,0,0,.73,1.73,5.34,5.34,0,0,0,1.79,1.1,15.18,15.18,0,0,0,4.31,1v.69l-7.06.68.31-.37a3.12,3.12,0,0,0,1.08,2.06,5.69,5.69,0,0,0,2.19,1.19,9.11,9.11,0,0,0,1.37.33c.45.08.93.1,1.41.16l2.86.29,5.55.58H666l.07.05c1.52,1.11,3,2.23,4.39,3.45a13.19,13.19,0,0,1,1,1l.89,1,1.7,2,1.12,1.3-1.52-.77-5.42-2.75.12,0-12.41-1.15.34-.32a4.21,4.21,0,0,0,.62,1.62,6.88,6.88,0,0,0,1.13,1.39,7.07,7.07,0,0,0,3.13,1.56A41.35,41.35,0,0,0,668,488H668l.07.06c4.75,4.29,9.14,8.14,13.12,11.41,1,.81,2,1.58,2.92,2.3a9.69,9.69,0,0,0,2.94,1.67,52.48,52.48,0,0,0,5.91,1.38c3.61.65,6.45,1.06,8.38,1.35l2.2.33.56.09Z"/><path class="cls-15" d="M676.22,479.26a12.93,12.93,0,0,1-2.53-1.58c-1.5-1-3.56-2.52-5.8-4.19-.22-.15-.43-.31-.62-.46l.22.07c-2.62.11-5,.17-6.65.18a11.3,11.3,0,0,1-2.72-.12,11.35,11.35,0,0,1,2.7-.36c1.68-.13,4-.27,6.64-.39h.12l.1.07.62.46c2.24,1.67,4.25,3.21,5.69,4.35A12.66,12.66,0,0,1,676.22,479.26Z"/><path class="cls-15" d="M674.65,472.68a10.54,10.54,0,0,1-2.31-1.43c-1.39-1-3.29-2.33-5.4-3.89l.24.07-.82.08c-2.8.29-5.34.52-7.18.65a13.72,13.72,0,0,1-3,.06,12.54,12.54,0,0,1,3-.55c1.82-.25,4.36-.55,7.16-.84l.82-.09h.14l.1.08c2.1,1.57,3.95,3,5.27,4.06A11.73,11.73,0,0,1,674.65,472.68Z"/><path class="cls-16" d="M803.24,494.5a34.86,34.86,0,0,0,5.37-23.73l-10.74-63.14c-1.22-10.55-2.72-25-10-32.67-5-5.3-11.15-9.93-17.16-9.87l-12.89,36.57,4.84,70.67L697.2,484v28.68s50-1.65,77.8-2.42a34.86,34.86,0,0,0,28.24-15.8Z"/><path class="cls-8" d="M803.24,494.5a3.25,3.25,0,0,1-.29.48l-.92,1.37a34.21,34.21,0,0,1-12.48,10.53,34.91,34.91,0,0,1-13,3.58c-20,.77-47.83,1.62-79.38,2.63h-.38v-.38c0-6.06,0-12.42,0-18.88q0-4.95,0-9.8v-.31l.3-.05L762.57,472l-.25.34c-1.72-16.33-3.14-29.78-4.14-39.18-.47-4.66-.84-8.31-1.09-10.84q-.18-1.83-.27-2.85c-.05-.64-.06-1-.06-1s.07.32.15,1,.2,1.62.36,2.84c.29,2.52.72,6.17,1.26,10.82,1.05,9.4,2.56,22.84,4.39,39.15l0,.28-.28.05-65.41,11.78.3-.37q0,4.84,0,9.8c0,6.46,0,12.82,0,18.88l-.38-.37L776.56,510a34.88,34.88,0,0,0,12.82-3.42,35.79,35.79,0,0,0,8.27-5.62,38.21,38.21,0,0,0,4.27-4.66c.42-.56.74-1,1-1.32A5,5,0,0,1,803.24,494.5Z"/><path class="cls-8" d="M777.94,367.46c.06.15-2.21,1-5.46,3.08a38.39,38.39,0,0,0-5.34,4.16,39.34,39.34,0,0,0-9.39,13.51,38.79,38.79,0,0,0-2,6.45c-.82,3.77-.83,6.19-1,6.19a7.85,7.85,0,0,1,0-1.7,13.81,13.81,0,0,1,.13-2,24.92,24.92,0,0,1,.38-2.61,34.79,34.79,0,0,1,1.92-6.6,40.69,40.69,0,0,1,4-7.42,40.16,40.16,0,0,1,5.57-6.33,34.53,34.53,0,0,1,5.52-4.11,22.9,22.9,0,0,1,2.31-1.26,14.63,14.63,0,0,1,1.82-.82A8,8,0,0,1,777.94,367.46Z"/><path class="cls-8" d="M751.1,354.1a5.36,5.36,0,0,1-1.59,1.09,48.35,48.35,0,0,1-4.86,2c-4.11,1.56-9.53,4.31-15.72,7s-12.24,4.23-16.69,4.35a24.92,24.92,0,0,1-5.25-.28,13.59,13.59,0,0,1-1.4-.29c-.31-.08-.48-.13-.47-.16a46.8,46.8,0,0,0,7.09.2c4.37-.26,10.28-1.83,16.43-4.52s11.64-5.37,15.83-6.81c2.09-.74,3.8-1.22,4.91-1.73S751.06,354.05,751.1,354.1Z"/><polygon class="cls-9" points="593.49 463.25 586.99 412.29 542.61 414.47 545.7 465.62 593.49 463.25"/><path class="cls-14" d="M599.53,425.15c-1.24,1.18-3.3.93-4.77.07s-2.63-2.19-4-3.15c-4.22-2.87-10.22-2.07-14.3-5.14-.57-.43-1.14-1.14-.84-1.78s1.08-.68,1.74-.68l16.91.13"/><path class="cls-15" d="M594.23,414.6a6.35,6.35,0,0,0-1.83-.2c-1.17-.07-2.88-.14-5-.2l-7.4-.15-2.14,0a3.4,3.4,0,0,0-2.47.56,1.42,1.42,0,0,0-.25,1.58,2.83,2.83,0,0,0,.86,1.08,10.85,10.85,0,0,0,2.15,1.27c3.07,1.36,6.19,1.57,8.8,2.36a13.13,13.13,0,0,1,3.5,1.52c1,.66,1.83,1.46,2.67,2.11a6,6,0,0,0,4.78,1.61c1.25-.27,1.65-1,1.61-1a4.88,4.88,0,0,1-1.66.57,5.73,5.73,0,0,1-4.3-1.76c-.79-.66-1.6-1.5-2.66-2.24a13.24,13.24,0,0,0-3.68-1.71c-2.71-.86-5.82-1.12-8.66-2.38a10,10,0,0,1-1.94-1.15c-.56-.43-.84-1-.54-1.25s1.06-.31,1.78-.29H580l7.4-.05c2.11,0,3.81-.07,5-.12A7.32,7.32,0,0,0,594.23,414.6Z"/><path class="cls-7" d="M581.21,429.46a5.51,5.51,0,0,1-1.26.61,30.15,30.15,0,0,1-3.61,1.28,15.84,15.84,0,0,1-5.7.61,10.78,10.78,0,0,1-3.33-.83,14,14,0,0,1-3-2,2.75,2.75,0,0,0-1.47-.59,2.06,2.06,0,0,0-1.36.54,11.45,11.45,0,0,0-1.88,2.61,3.49,3.49,0,0,1-2.65,1.78,3.78,3.78,0,0,1-2.62-.94,6.45,6.45,0,0,1-1.88-3.39,4.91,4.91,0,0,1-.23-1.39,5.57,5.57,0,0,1,.51,1.3,6.74,6.74,0,0,0,1.93,3.07,3.31,3.31,0,0,0,2.24.73A2.91,2.91,0,0,0,559,431.3a11.29,11.29,0,0,1,2-2.79,2.69,2.69,0,0,1,1.85-.72,3.35,3.35,0,0,1,1.87.71,14.1,14.1,0,0,0,2.91,1.95,10.11,10.11,0,0,0,3.1.82,16.19,16.19,0,0,0,5.5-.44C579.3,430.06,581.17,429.32,581.21,429.46Z"/><path class="cls-7" d="M583.3,437.08c0,.21-6.7.67-15,1s-15,.49-15,.28,6.7-.67,15-1S583.29,436.88,583.3,437.08Z"/><path class="cls-7" d="M580.22,444.41a15.48,15.48,0,0,1-3.37.88c-2.11.45-5,1-8.27,1.49s-6.2.86-8.34,1.07a15.55,15.55,0,0,1-3.48.17,17.18,17.18,0,0,1,3.41-.7l8.29-1.28,8.3-1.27A15.93,15.93,0,0,1,580.22,444.41Z"/><path class="cls-1" d="M756,430.07a4.3,4.3,0,0,1-.61.56l-1.86,1.48c-1.63,1.26-4,3.08-7.1,5.08a42.19,42.19,0,0,1-11.78,5.44,24.83,24.83,0,0,1-15.77-.53c-5.33-2.16-9.43-5.78-13.38-8.56A29.78,29.78,0,0,0,694.11,428a14.8,14.8,0,0,0-8.47.42,23.06,23.06,0,0,0-2.8,1.47,8.4,8.4,0,0,1,2.69-1.74,14.63,14.63,0,0,1,8.68-.67,29.67,29.67,0,0,1,11.73,5.5c4,2.77,8.09,6.34,13.25,8.42a24.35,24.35,0,0,0,15.32.56,43.43,43.43,0,0,0,11.68-5.22c3.12-1.92,5.53-3.68,7.21-4.87l1.93-1.36A3.31,3.31,0,0,1,756,430.07Z"/><path class="cls-1" d="M797.14,401.56c0,.13-2.21-.53-5.83-1.06a49,49,0,0,0-6.38-.51,52.87,52.87,0,0,0-7.81.5,53.68,53.68,0,0,0-7.63,1.73,49.13,49.13,0,0,0-6,2.3c-3.32,1.53-5.22,2.78-5.3,2.66a7.23,7.23,0,0,1,1.29-1,31.65,31.65,0,0,1,3.78-2.18,43,43,0,0,1,6-2.48A46,46,0,0,1,785,399.3a43,43,0,0,1,6.45.68,31.67,31.67,0,0,1,4.24,1A6,6,0,0,1,797.14,401.56Z"/><path class="cls-1" d="M805.23,453.93a15.42,15.42,0,0,0-6.69.72,38.93,38.93,0,0,0-6.66,3.15,31.2,31.2,0,0,1-8.47,3.56,24.13,24.13,0,0,1-16.3-2.25,22.42,22.42,0,0,1-4.15-2.88,7.24,7.24,0,0,1-1.27-1.35,35.52,35.52,0,0,0,5.66,3.76,24.59,24.59,0,0,0,15.9,2,32.15,32.15,0,0,0,8.3-3.43,36.2,36.2,0,0,1,6.84-3.06,13.8,13.8,0,0,1,5-.6A4.74,4.74,0,0,1,805.23,453.93Z"/><path class="cls-1" d="M746.19,511.33c-.13-.05.82-1.89,1.66-5.08a30.11,30.11,0,0,0-4.1-24.57c-1.83-2.75-3.33-4.18-3.23-4.28a5.1,5.1,0,0,1,1.11,1,26.38,26.38,0,0,1,2.56,3,28.6,28.6,0,0,1,4.17,25,23.92,23.92,0,0,1-1.44,3.69A4.51,4.51,0,0,1,746.19,511.33Z"/><path class="cls-1" d="M690.83,394.65c-.19.09-.85-1.14-2.28-1.92s-2.79-.74-2.82-1,1.53-.65,3.19.3S691,394.62,690.83,394.65Z"/><path class="cls-1" d="M767.68,363.72c0,.09-1.09-.14-3,0a17.69,17.69,0,0,0-7.6,2.83,31.56,31.56,0,0,0-4.46,3.48c-1.49,1.39-3,3-4.52,4.71-3.11,3.36-6.55,7.36-11.49,9.77a29.82,29.82,0,0,1-14.82,2.64,50.42,50.42,0,0,1-12.09-2.38c-3.35-1.05-6-2.09-7.81-2.81l-2.08-.86a2.71,2.71,0,0,1-.71-.35,3.48,3.48,0,0,1,.76.21l2.14.73c1.84.63,4.5,1.6,7.85,2.57a52.44,52.44,0,0,0,12,2.2,29.49,29.49,0,0,0,14.45-2.63c4.76-2.31,8.17-6.21,11.31-9.56,1.57-1.7,3.08-3.31,4.61-4.7a30.33,30.33,0,0,1,4.6-3.47,17.12,17.12,0,0,1,7.86-2.67,10.59,10.59,0,0,1,2.27.09A3.5,3.5,0,0,1,767.68,363.72Z"/><path class="cls-1" d="M748.49,350.49a7.33,7.33,0,0,1-1.56.77c-1,.46-2.52,1.07-4.4,1.76A109.34,109.34,0,0,1,712,359.45c-2,.13-3.62.18-4.74.17a7.7,7.7,0,0,1-1.74-.08,7.56,7.56,0,0,1,1.73-.21c1.11-.08,2.72-.22,4.71-.41a139.45,139.45,0,0,0,15.39-2.33,141.82,141.82,0,0,0,15-4.07c1.89-.63,3.42-1.15,4.47-1.53A7.54,7.54,0,0,1,748.49,350.49Z"/><path class="cls-1" d="M631.68,474.3a1.09,1.09,0,0,1-.16-.4,7.47,7.47,0,0,1-.27-1.19,13.07,13.07,0,0,1,.17-4.49,23.78,23.78,0,0,1,2.29-6.25c1.13-2.24,2.64-4.53,4.06-7a26.92,26.92,0,0,0,3.13-7.29,15.07,15.07,0,0,0,.13-6.42,21.81,21.81,0,0,0-2.12-5.6,5.09,5.09,0,0,1,1,1.32,14.6,14.6,0,0,1,1.66,4.17,15,15,0,0,1,0,6.68,26.65,26.65,0,0,1-3.15,7.52c-1.44,2.49-3,4.76-4.11,6.94a25.29,25.29,0,0,0-2.39,6A17.33,17.33,0,0,0,631.68,474.3Z"/><path class="cls-1" d="M794.43,529.52a5.44,5.44,0,0,1-1-.51,29,29,0,0,0-2.83-1.42,32.21,32.21,0,0,0-11.29-2.48,55,55,0,0,0-17.05,2.15c-6.27,1.71-12.92,4.45-20.06,6.91s-14.23,4.21-20.83,4.27a49.56,49.56,0,0,1-17.15-2.81,47.48,47.48,0,0,1-10.5-5.2c-1.15-.77-2-1.4-2.58-1.87a6.78,6.78,0,0,1-.85-.72c.05-.07,1.25.9,3.59,2.35a50.55,50.55,0,0,0,27.47,7.56c6.5-.1,13.52-1.82,20.61-4.3s13.78-5.17,20.12-6.86a54,54,0,0,1,17.26-2,31,31,0,0,1,11.38,2.74,23.32,23.32,0,0,1,2.79,1.56A6.86,6.86,0,0,1,794.43,529.52Z"/><path class="cls-1" d="M804.62,582.5a20.4,20.4,0,0,1-4,2.86,32.33,32.33,0,0,1-12.64,4,45.85,45.85,0,0,1-9.2.11,62.47,62.47,0,0,1-10.39-1.89c-7.21-1.86-14.76-5-22.81-7.79s-16-4.77-23.39-4.73a38.8,38.8,0,0,0-10.3,1.37c-3.16.86-6.07,1.88-8.83,2.49-5.5,1.4-10.33.49-13.05-1.13a9.34,9.34,0,0,1-2.79-2.31,5.42,5.42,0,0,1-.71-1.05s.27.35.82,1a9.92,9.92,0,0,0,2.82,2.16c2.7,1.49,7.39,2.3,12.79.86,2.71-.63,5.6-1.68,8.78-2.57a39.51,39.51,0,0,1,10.47-1.47c7.49-.07,15.57,1.9,23.64,4.72s15.6,5.95,22.74,7.84a63.51,63.51,0,0,0,10.27,1.93,46.53,46.53,0,0,0,9.08,0,33.22,33.22,0,0,0,12.56-3.72,17.89,17.89,0,0,0,1.78-1.05,12.29,12.29,0,0,0,1.26-.85A7.32,7.32,0,0,1,804.62,582.5Z"/><path class="cls-1" d="M811.19,625a1.06,1.06,0,0,1-.32-.16l-.87-.51a32.63,32.63,0,0,0-3.42-1.82,42.22,42.22,0,0,0-13.71-3.62,71,71,0,0,0-21,1.39c-7.82,1.56-16.21,4.2-25.2,6.37a107.7,107.7,0,0,1-13.29,2.42,89.88,89.88,0,0,1-12.57.47,88.93,88.93,0,0,1-21-3.18,85.09,85.09,0,0,1-13.46-4.93c-1.55-.7-2.7-1.33-3.49-1.75l-.89-.48-.29-.19a1.25,1.25,0,0,1,.33.12l.92.42c.81.37,2,1,3.54,1.61a92.5,92.5,0,0,0,13.48,4.69,91.72,91.72,0,0,0,33.37,2.49,109.29,109.29,0,0,0,13.2-2.42c8.94-2.16,17.36-4.78,25.23-6.32a69.82,69.82,0,0,1,21.22-1.24,41,41,0,0,1,13.78,3.88A25.53,25.53,0,0,1,811.19,625Z"/><path class="cls-1" d="M735.73,476.56c-.07.14-2.51-1.22-6.73-2.69a54.28,54.28,0,0,0-7.57-2,59.47,59.47,0,0,0-9.54-.9,58.73,58.73,0,0,0-9.54.83,53.69,53.69,0,0,0-7.59,1.94c-4.23,1.43-6.68,2.78-6.74,2.64a8.59,8.59,0,0,1,1.68-1,19.36,19.36,0,0,1,2.07-1c.82-.35,1.74-.8,2.82-1.15a48.14,48.14,0,0,1,7.64-2.12,50.42,50.42,0,0,1,19.33.07,48.9,48.9,0,0,1,7.62,2.17c1.07.36,2,.82,2.81,1.17a19.79,19.79,0,0,1,2.06,1A9.33,9.33,0,0,1,735.73,476.56Z"/><path class="cls-1" d="M811.6,669.86a.86.86,0,0,1-.31-.14l-.87-.47c-.37-.22-.85-.47-1.42-.74s-1.22-.61-2-.93a47,47,0,0,0-13.4-3.55,81.47,81.47,0,0,0-20.58.41c-7.73,1-16.13,2.74-25.09,3.79a148.42,148.42,0,0,1-46-1.86,137,137,0,0,1-13.57-3.4c-1.58-.47-2.79-.91-3.61-1.18l-.93-.34-.31-.13s.12,0,.33.06l1,.26c.83.23,2,.63,3.64,1.05,3.18.89,7.8,2.07,13.59,3.16a153,153,0,0,0,45.79,1.63c8.92-1,17.33-2.8,25.09-3.72a79.8,79.8,0,0,1,20.74-.26,45.38,45.38,0,0,1,13.45,3.81c.75.34,1.4.68,2,1s1,.57,1.39.81l.83.54A1.57,1.57,0,0,1,811.6,669.86Z"/><path class="cls-8" d="M239,680.18l2.91-131.76-102.37-8.54s-5.45,52.74-5.32,59.79c.06,3.37,15.43,36.17,15.43,36.17l-.16,44.34Z"/><path class="cls-10" d="M204.23,564.1a10.36,10.36,0,0,1-.85,1.91c-.6,1.2-1.51,2.92-2.74,5a56.75,56.75,0,0,1-11.88,14.52,33.77,33.77,0,0,1-17,7.78,23.78,23.78,0,0,1-5.72.1,13.14,13.14,0,0,1-1.53-.24c-.35-.06-.53-.11-.52-.14a37.78,37.78,0,0,0,7.69-.24,34.7,34.7,0,0,0,16.57-7.84,60.68,60.68,0,0,0,11.92-14.22c1.27-2,2.25-3.69,2.93-4.85A12.06,12.06,0,0,1,204.23,564.1Z"/><path class="cls-17" d="M166.1,346.42l46.22,12,1.56-40.25s19.52-2.19,20.59-21.56-.4-64-.4-64h0a67.42,67.42,0,0,0-68,5.62l-3,2.09Z"/><path class="cls-18" d="M213.93,317.92s-12.29.47-25-8.26c0,0,5.38,14.2,24.8,13.28Z"/><path class="cls-17" d="M164.58,260.5c-.32-.16-13.15-4.51-13.29,8.76s13.21,10.68,13.24,10.3S164.58,260.5,164.58,260.5Z"/><path class="cls-18" d="M160.53,274.49c-.06-.05-.24.16-.63.33a2.35,2.35,0,0,1-1.73,0c-1.39-.53-2.55-2.77-2.59-5.16a7.8,7.8,0,0,1,.68-3.31,2.69,2.69,0,0,1,1.76-1.75,1.17,1.17,0,0,1,1.36.65c.17.37.09.63.16.66s.28-.22.18-.77a1.45,1.45,0,0,0-.51-.84,1.75,1.75,0,0,0-1.28-.35,3.24,3.24,0,0,0-2.43,2,7.78,7.78,0,0,0-.84,3.69c.05,2.68,1.39,5.19,3.31,5.77a2.49,2.49,0,0,0,2.12-.33C160.5,274.81,160.57,274.51,160.53,274.49Z"/><path class="cls-8" d="M228.52,262.47a2.78,2.78,0,0,1-2.79,2.68,2.66,2.66,0,0,1-2.75-2.62,2.78,2.78,0,0,1,2.79-2.68A2.65,2.65,0,0,1,228.52,262.47Z"/><path class="cls-8" d="M229.24,259.72c-.36.35-2.39-1.29-5.37-1.41s-5.23,1.27-5.53.9c-.15-.17.22-.81,1.2-1.46a7.68,7.68,0,0,1,4.45-1.17,7.3,7.3,0,0,1,4.26,1.58C229.13,258.9,229.41,259.57,229.24,259.72Z"/><path class="cls-8" d="M199.3,262.26a2.77,2.77,0,0,1-2.79,2.68,2.64,2.64,0,0,1-2.74-2.62,2.77,2.77,0,0,1,2.78-2.68A2.66,2.66,0,0,1,199.3,262.26Z"/><path class="cls-8" d="M199.94,259c-.36.34-2.4-1.3-5.37-1.42s-5.23,1.28-5.54.9c-.15-.17.23-.8,1.21-1.45a7.58,7.58,0,0,1,4.45-1.17,7.27,7.27,0,0,1,4.25,1.58C199.83,258.21,200.11,258.87,199.94,259Z"/><path class="cls-8" d="M209.8,281.58c0-.17,1.86-.41,4.88-.67.76,0,1.49-.16,1.64-.68a3.88,3.88,0,0,0-.41-2.27c-.64-1.87-1.3-3.84-2-5.89-2.78-8.38-4.75-15.26-4.41-15.37s2.86,6.6,5.63,15c.67,2.06,1.3,4,1.91,5.92a4.44,4.44,0,0,1,.27,3,1.92,1.92,0,0,1-1.3,1.06,4.79,4.79,0,0,1-1.3.12C211.68,281.82,209.81,281.75,209.8,281.58Z"/><path class="cls-8" d="M201.2,247.39c-.33.79-3.28.28-6.8.56s-6.38,1.1-6.81.35c-.19-.35.33-1.09,1.51-1.83a11.92,11.92,0,0,1,10.37-.7C200.73,246.34,201.35,247,201.2,247.39Z"/><path class="cls-8" d="M228.51,251.05c-.55.66-2.57-.13-5-.27s-4.58.26-5-.47c-.19-.35.17-1,1.11-1.62a7.32,7.32,0,0,1,8.11.6C228.5,250,228.76,250.73,228.51,251.05Z"/><path class="cls-8" d="M244,220.78a7.18,7.18,0,0,0-2.37-6.51,5.1,5.1,0,0,0-6.6.21,5.93,5.93,0,0,0-4.79-7.4c-3.15-.33-5.95,1.94-9,2.65s-6.18-.16-9-1.43-5.43-3-8.29-4.17a24.81,24.81,0,0,0-32.33,13.2c-4.18-1.51-9.09.44-11.85,3.92s-3.64,8.16-3.31,12.6a40.34,40.34,0,0,0,1.84,8.79c0,.25,0,.49-.05.74-.25,10.67.42,23.24,5,23.5,7.92.46,6.67-14.55,6.67-14.55,9.89-3.35,6.89-18.07,9.41-20.18s7.84-7,27.76,4.25c7.73,4.38,18.25,4.7,24,3.64.17,0,.34,0,.51-.08l.12,0a1.15,1.15,0,0,0,.17-.06,18.35,18.35,0,0,0,5.31-2,10.34,10.34,0,0,0,4.51-4.6,5.65,5.65,0,0,0-.85-6.12A12.45,12.45,0,0,0,244,220.78Z"/><path class="cls-18" d="M211.37,290.83a13.36,13.36,0,0,1-1.88,3.31,4.49,4.49,0,0,1-3.27,1.72,4.06,4.06,0,0,1-3.34-2,6.49,6.49,0,0,1-.78-3.92c.11-1.22.73-2.66,2-2.75a3,3,0,0,1,1.46.39l6.29,2.86"/><path class="cls-8" d="M208.59,296c0-.2-1.45.31-3.39-.57a4.87,4.87,0,0,1-2.48-2.45,5.15,5.15,0,0,1,.09-4.19,4.94,4.94,0,0,1,.6-.93c.27-.25.22-.24.49-.19s.67.29,1,.44l1,.48c1.35.61,2.56,1.14,3.59,1.58,2.06.87,3.37,1.34,3.44,1.2s-1.12-.87-3.09-1.93c-1-.53-2.16-1.14-3.48-1.8l-1-.51a10.74,10.74,0,0,0-1.15-.53,1.45,1.45,0,0,0-.95,0,1.83,1.83,0,0,0-.73.52,5.7,5.7,0,0,0-.77,1.18,6.05,6.05,0,0,0,0,5.13,5.46,5.46,0,0,0,3.13,2.76,5.27,5.27,0,0,0,2.77.23C208.3,296.25,208.61,296,208.59,296Z"/><path class="cls-10" d="M178.15,230.29a12.65,12.65,0,0,1,.09-2.35,9.16,9.16,0,0,1,3.27-5.31,12.33,12.33,0,0,1,8.85-2.51c3.58.18,7.34,1.52,11.23,3a59.73,59.73,0,0,0,5.79,2A30.42,30.42,0,0,0,213,226a30.94,30.94,0,0,0,9.6-.84,29.8,29.8,0,0,0,6.09-2.28c.68-.35,1.2-.65,1.54-.87a3.43,3.43,0,0,0,.51-.34c0-.06-.76.38-2.15,1a33.17,33.17,0,0,1-6.08,2.08,31.42,31.42,0,0,1-9.47.72,31,31,0,0,1-5.53-.95c-1.89-.51-3.79-1.21-5.74-1.94-3.88-1.5-7.72-2.86-11.41-3a12.63,12.63,0,0,0-9.14,2.72,9.2,9.2,0,0,0-3.22,5.59A5.37,5.37,0,0,0,178.15,230.29Z"/><path class="cls-10" d="M161.68,262.41a1.94,1.94,0,0,0,.28-.4c.16-.27.38-.68.65-1.21a25,25,0,0,0,1.75-4.75,26.55,26.55,0,0,0,.82-7.47,65.47,65.47,0,0,0-1.35-9.08,17.67,17.67,0,0,1,.37-8.91,8.88,8.88,0,0,1,2-3.3,6.9,6.9,0,0,1,2.86-1.71,6.36,6.36,0,0,1,4.78.33,7.9,7.9,0,0,1,1.44,1.11,3.64,3.64,0,0,0-1.33-1.3,6.42,6.42,0,0,0-5-.53,7.23,7.23,0,0,0-3.09,1.77,9.39,9.39,0,0,0-2.16,3.45,17.86,17.86,0,0,0-.43,9.18,71,71,0,0,1,1.38,9A27.36,27.36,0,0,1,164,256a30,30,0,0,1-1.56,4.76C162,261.8,161.64,262.38,161.68,262.41Z"/><path class="cls-10" d="M176.36,228.65a3.6,3.6,0,0,0,0-.78c0-.57,0-1.31,0-2.23a25.9,25.9,0,0,1,1.23-8,14.39,14.39,0,0,1,2.8-4.78,10.05,10.05,0,0,1,5.35-3.21,13,13,0,0,1,6.92.58,31.74,31.74,0,0,1,6.8,3.44,58.4,58.4,0,0,0,6.73,3.83,21.07,21.07,0,0,0,7,1.73,22.64,22.64,0,0,0,6.52-.52,24.92,24.92,0,0,0,5.36-1.95,21.45,21.45,0,0,0,6.47-5.06,14,14,0,0,0,1.34-1.78,3.64,3.64,0,0,0,.4-.67,4.86,4.86,0,0,0-.5.6,17.16,17.16,0,0,1-1.41,1.71,22.29,22.29,0,0,1-6.48,4.84,24.76,24.76,0,0,1-5.28,1.84,22.19,22.19,0,0,1-6.39.46,20.66,20.66,0,0,1-6.83-1.71,58,58,0,0,1-6.66-3.81,32.53,32.53,0,0,0-6.92-3.48,13.7,13.7,0,0,0-7.22-.57,10.46,10.46,0,0,0-5.58,3.41,14.59,14.59,0,0,0-2.83,5,24.79,24.79,0,0,0-1.08,8.14c0,1,.06,1.72.1,2.23A4.08,4.08,0,0,0,176.36,228.65Z"/><path class="cls-17" d="M263.68,398.92,322,333.42l8.28-11.58s20.18-25,21.81-27.61c1.89-3.06,3.82-2.88,4.9-2.11,1.68,1.2,1.58,4.13.05,6.81-.54.92-9.51,15.16-9.51,15.16a39.13,39.13,0,0,1,5.16-2.15c3.78-1.36,9.69.18,14.69,3.51s6.11,4.69,4.91,6.69a3,3,0,0,1-2.19,1.31,8.53,8.53,0,0,1-4.81-1.14c-9.88-5.9-12.26-2-12.26-2l-1.32,1.47s7.4-.43,10.43,3.52a5.65,5.65,0,0,1,1,1.95,7.52,7.52,0,0,1-.36,13c-1.12.61-2.64.88-3.56,0a4,4,0,0,1-.91-1.77,5.66,5.66,0,0,0-.39-1l-3.63,3.81s-8.61,8.14-11.95,12.11l-51.52,64.36c-6.69,9.71-16.82,17.75-26.42,10.89h0C254,421.18,254.82,408.2,263.68,398.92Z"/><path class="cls-17" d="M325,333.89c1.24,1.34,3.46,1.19,5.09.37s2.94-2.18,4.51-3.13c4.69-2.81,11.06-1.6,15.61-4.63.63-.43,1.28-1.15,1-1.86s-1.11-.79-1.82-.83l-18.09-.88"/><path class="cls-18" d="M331.28,322.93a7.09,7.09,0,0,1,2-.11c1.27,0,3.09,0,5.35.1l7.92.28,2.29.09a3.62,3.62,0,0,1,2.61.75,1.52,1.52,0,0,1,.17,1.7,3.12,3.12,0,0,1-1,1.1,12.17,12.17,0,0,1-2.37,1.24c-3.37,1.26-6.72,1.3-9.56,2a13.58,13.58,0,0,0-3.83,1.41c-1.1.64-2,1.45-3,2.1a6.37,6.37,0,0,1-5.21,1.42c-1.31-.35-1.7-1.11-1.65-1.11a5.3,5.3,0,0,0,1.73.72,6.16,6.16,0,0,0,4.7-1.62c.89-.67,1.81-1.51,3-2.24a14,14,0,0,1,4.05-1.61c2.94-.76,6.29-.84,9.4-2A10.61,10.61,0,0,0,350,326c.62-.43.95-1.05.65-1.31s-1.12-.39-1.89-.42l-2.29-.13-7.91-.5c-2.25-.16-4.07-.3-5.33-.42A7.47,7.47,0,0,1,331.28,322.93Z"/><path class="cls-18" d="M351.73,321.79a7.43,7.43,0,0,1,2.64-2.17,5.8,5.8,0,0,1,3.61-.27,15,15,0,0,1,4.21,1.84,23,23,0,0,0,4.26,2.15,7.6,7.6,0,0,0,3.93.36,3,3,0,0,0,2.12-1.62,1.68,1.68,0,0,0,.21-.95c-.06,0-.14.32-.44.83a2.83,2.83,0,0,1-2,1.28,7.62,7.62,0,0,1-3.64-.48,26.49,26.49,0,0,1-4.13-2.15,14.26,14.26,0,0,0-4.42-1.86,6,6,0,0,0-3.93.44,5.37,5.37,0,0,0-2,1.72C351.79,321.43,351.69,321.77,351.73,321.79Z"/><path class="cls-18" d="M357.63,297.89a19.2,19.2,0,0,0-1.8,2.82l-4.17,6.89-4.27,6.83a18.73,18.73,0,0,0-1.7,2.88,14.66,14.66,0,0,0,2.09-2.62c1.21-1.68,2.8-4.05,4.45-6.74s3.06-5.18,4-7A14.78,14.78,0,0,0,357.63,297.89Z"/><path class="cls-18" d="M353,327a4.29,4.29,0,0,0,1,.2,3.14,3.14,0,0,1,2.27,1.25,1.69,1.69,0,0,1,0,1.65,9.3,9.3,0,0,1-1.28,1.77,3.74,3.74,0,0,0-1.05,2.45,3.23,3.23,0,0,0,1.48,2.48,3.6,3.6,0,0,0,2.84.41,4.56,4.56,0,0,0,2.29-1.33,14.53,14.53,0,0,0,2.21-3.7,8.5,8.5,0,0,0,.73-2.8,1.88,1.88,0,0,0-.15-1.06,10,10,0,0,0-.11,1,10.11,10.11,0,0,1-.9,2.64,15.88,15.88,0,0,1-2.23,3.48,3.62,3.62,0,0,1-4.32.77,2.58,2.58,0,0,1-1.18-1.95,3.15,3.15,0,0,1,.87-2,9.13,9.13,0,0,0,1.31-1.93,2.18,2.18,0,0,0-.12-2.12A3.2,3.2,0,0,0,354,327,2.68,2.68,0,0,0,353,327Z"/><path class="cls-18" d="M358.28,336.65s-.29.23-.42.85a3,3,0,0,0,.75,2.5,3.91,3.91,0,0,0,3.74,1,6.38,6.38,0,0,0,3.73-2.9,7.7,7.7,0,0,0,1.14-4.57,7.32,7.32,0,0,0-1.29-3.63,6.78,6.78,0,0,0-1.82-1.83,2.05,2.05,0,0,0-.85-.42,12.42,12.42,0,0,1,2.28,2.5,7.14,7.14,0,0,1,0,7.6,5.93,5.93,0,0,1-3.31,2.66,3.47,3.47,0,0,1-3.25-.71,2.77,2.77,0,0,1-.83-2.13C358.16,337,358.34,336.67,358.28,336.65Z"/><path class="cls-18" d="M342.51,340.11c0-.05-.42-.47-1.38-.83a6.3,6.3,0,0,0-4.09,0l.39.44a17.16,17.16,0,0,0,.86-2.11c1.46-4.19.91-7.85.75-7.79s0,3.54-1.38,7.58a20.65,20.65,0,0,1-.81,2l-.31.7.71-.26a6.6,6.6,0,0,1,3.77-.17C342,339.89,342.46,340.18,342.51,340.11Z"/><path class="cls-18" d="M357.86,315.92c-.18,0-.26,1.35.66,2.67s2.23,1.72,2.27,1.55-.93-.77-1.72-1.93S358.05,315.9,357.86,315.92Z"/><path class="cls-16" d="M205.59,339.73l54.14,53.55,39.63-40.77,7.55-3.31,10-10,23.09,26-48.93,64a45.79,45.79,0,0,1-25.39,16.64h0a45.82,45.82,0,0,1-43.06-11.76L181,393.23"/><path class="cls-8" d="M265,424.39a35.19,35.19,0,0,1-.12-4.67,80.43,80.43,0,0,0-.88-11.16,65.77,65.77,0,0,0-2.74-10.85,40.91,40.91,0,0,1-1.48-4.43,4.59,4.59,0,0,1,.62,1.1c.36.73.83,1.8,1.36,3.14a52.87,52.87,0,0,1,3,10.92,61.15,61.15,0,0,1,.67,11.28c-.06,1.45-.13,2.62-.21,3.42A4.23,4.23,0,0,1,265,424.39Z"/><g class="cls-4"><path d="M222.08,357.3c8.56,8.17,10.7,18.75,15.47,29.58,5.62,12.76,15.75,25.15,19.65,38.54,1.16,4,1.56,8.36.15,12.28s-5.53,8.61-9.68,8.91L239,444.32Z"/></g><path class="cls-8" d="M329,379.34c-.16.13-5.17-6-11.17-13.6s-10.75-13.93-10.59-14.06,5.17,6,11.18,13.6S329.17,379.21,329,379.34Z"/><polygon class="cls-10" points="306.88 486.8 291.09 534.93 332.8 516.01 346.33 471.98 306.88 486.8"/><path class="cls-16" d="M165.06,311.81,159,326.59S151,343.4,142.2,354.9c-9.61,12.49-11.9,52.89-11.9,52.89l9.12,124-3.12,6c-1.43,2.76-.69,12.85,2.42,13l102.73,4.77c2.48.13,4.13-8.57,4-11L237.17,394.8,220.51,354l-5.35-8L215,335.85l-35.75-11.06a22.64,22.64,0,0,1-14.23-13Z"/><g class="cls-4"><path d="M141.36,502.61c15.6,9.95,31.35,20,48.69,26.44s36.94,9,54.76,4l-.57-12.89-98.17-27.24Z"/></g><path class="cls-16" d="M169.52,358.28S141.41,355.85,135.6,391s3.55,111.24,6.26,111.88c0,0,50.27,21.45,102.57,26.56l36.71-6.73-4.37-34.88-27,1.42s-1.19-6.74-11.36-9.58c-14.68-4.1-44.21-10.9-44.21-10.9s1.32-35,1.59-45.26,3.84-54.85-19.6-63.19"/><path class="cls-8" d="M220.51,354a6.42,6.42,0,0,1,.52,1c.33.77.78,1.78,1.33,3.06l4.79,11.29c2,4.81,4.38,10.49,7,16.79.65,1.58,1.33,3.2,2,4.86a27,27,0,0,1,1.74,5.26,35,35,0,0,1,.59,5.7q.15,2.88.32,5.84c.92,15.78,1.76,30.07,2.16,40.42.2,5.18.32,9.37.36,12.27,0,1.39,0,2.5,0,3.33a6.57,6.57,0,0,1,0,1.17,6.24,6.24,0,0,1-.1-1.16c0-.83-.09-1.94-.16-3.33-.14-3-.34-7.14-.59-12.25-.61-10.41-1.45-24.66-2.38-40.4-.11-2-.21-3.93-.32-5.85a32.79,32.79,0,0,0-.56-5.59,26.43,26.43,0,0,0-1.68-5.14l-2-4.86-6.86-16.85-4.57-11.39-1.2-3.11A7.57,7.57,0,0,1,220.51,354Z"/><path class="cls-8" d="M214.81,335.78a8.53,8.53,0,0,1-.31,1.5c-.25,1-.64,2.36-1.23,4.11a72.92,72.92,0,0,1-6.35,13.82l-.2.33-.3-.25c-4-3.37-9.46-6.19-15.44-8.62-4.95-2-9.77-3.78-14-5.77a52.61,52.61,0,0,1-10.62-6.38,29.4,29.4,0,0,1-5.82-6,17,17,0,0,1-1.22-1.92,3.18,3.18,0,0,1-.36-.71c.08,0,.6.92,1.82,2.45a32.08,32.08,0,0,0,5.9,5.75,54.63,54.63,0,0,0,10.59,6.17c4.21,1.94,9,3.66,14,5.7,6,2.44,11.52,5.34,15.58,8.81l-.49.08a78.85,78.85,0,0,0,6.55-13.6c.64-1.73,1.09-3.1,1.4-4A8.3,8.3,0,0,1,214.81,335.78Z"/><path class="cls-8" d="M176.18,360.27s.66.24,1.94.76c.63.29,1.37.71,2.26,1.21a23.89,23.89,0,0,1,2.84,2.12,28.42,28.42,0,0,1,6.06,7.77,51.67,51.67,0,0,1,4.56,12.6c2.33,9.83,2.94,22.2,2.28,36.31-.48,14.13-1,30.13-1.62,47.69l-.24-.31c9,2.08,18.42,4.32,28.29,6.76,4.94,1.22,10,2.49,15.09,3.88a19.05,19.05,0,0,1,12.44,10l-.34-.21,27-1.44h.34l0,.33c1.4,11.12,2.87,22.88,4.38,34.88l0,.35-.35.06-34.15,6.27-2.55.47h-.1c-9.42-1-18.67-2.35-27.71-4.13s-17.87-3.83-26.45-6.18a419,419,0,0,1-48.51-16.31l.05,0a.84.84,0,0,1-.27-.16.58.58,0,0,1-.13-.15,1,1,0,0,1-.17-.3A3.37,3.37,0,0,1,141,502c-.13-.37-.24-.73-.35-1.1-.2-.74-.37-1.48-.53-2.21-.31-1.48-.58-2.95-.83-4.41-.5-2.94-.92-5.85-1.31-8.73-.77-5.77-1.4-11.44-1.94-17-1.07-11.08-1.79-21.65-2.19-31.63s-.47-19.36-.12-28.06,1.09-16.71,3-23.77a40.46,40.46,0,0,1,9-17.09,30,30,0,0,1,12-7.91,31.5,31.5,0,0,1,8.79-1.84c1-.06,1.8-.07,2.32,0a7.69,7.69,0,0,1,.78.06h-.78c-.52,0-1.29,0-2.31.11a32.42,32.42,0,0,0-8.72,1.92,30.21,30.21,0,0,0-11.81,7.93,40.18,40.18,0,0,0-8.84,17c-1.83,7-2.49,15-2.86,23.68s-.22,18.06.19,28,1.17,20.53,2.26,31.58c.55,5.53,1.18,11.19,2,16.95.39,2.88.82,5.78,1.32,8.7.25,1.46.52,2.92.83,4.38.16.73.33,1.46.52,2.17.1.36.21.72.33,1.06.07.16.13.34.21.48a.56.56,0,0,0,.11.19l0,.07s0,0,0,0a.35.35,0,0,0-.06.18l.1-.16a420.8,420.8,0,0,0,48.43,16.23c8.57,2.34,17.4,4.35,26.4,6.16S235.08,528,244.47,529h-.1l2.55-.47,34.15-6.26-.3.41-4.36-34.88.38.32-27,1.41h-.23l-.11-.21a18.37,18.37,0,0,0-12-9.63c-5.1-1.39-10.13-2.67-15.06-3.9-9.87-2.45-19.33-4.71-28.28-6.8l-.24-.06v-.25c.64-17.56,1.22-33.56,1.74-47.69.69-14.09.13-26.42-2.13-36.21A51.34,51.34,0,0,0,189,372.26a28.53,28.53,0,0,0-5.94-7.76,25.46,25.46,0,0,0-2.79-2.15c-.88-.5-1.61-.94-2.23-1.24C176.82,360.57,176.18,360.27,176.18,360.27Z"/><path class="cls-8" d="M247.86,525.66c-.21,0,.14-7.36.78-16.4s1.32-16.36,1.53-16.34-.14,7.35-.78,16.4S248.07,525.68,247.86,525.66Z"/><path class="cls-8" d="M171.43,487.62a3.52,3.52,0,0,1,.34-1.15,18.35,18.35,0,0,1,1.49-2.92,28.5,28.5,0,0,1,7.44-7.79A56.59,56.59,0,0,1,190,470.4a23.77,23.77,0,0,1,4.11-1.7,27.61,27.61,0,0,1-3.87,2.17,73.08,73.08,0,0,0-9.12,5.5,31.38,31.38,0,0,0-7.44,7.47C172.17,486.08,171.56,487.67,171.43,487.62Z"/><path class="cls-8" d="M212.62,537.79a2.67,2.67,0,0,1-.7.16l-2,.33c-1.76.29-4.33.58-7.51.84s-7,.4-11.22.37-8.87-.31-13.72-.85-9.42-1.39-13.55-2.28-7.8-1.94-10.84-2.92-5.48-1.84-7.13-2.52l-1.9-.78a3.62,3.62,0,0,1-.65-.32,3,3,0,0,1,.7.18l2,.65c1.68.59,4.13,1.38,7.18,2.28s6.73,1.86,10.83,2.75,8.68,1.64,13.5,2.21,9.44.81,13.64.91,8,0,11.17-.21,5.75-.4,7.52-.6l2-.19A2.47,2.47,0,0,1,212.62,537.79Z"/><path class="cls-17" d="M338.86,481.65c-1.08-1.55-2.89-1.31-4.41-.2l-5.11,3.39a21.08,21.08,0,0,1-4.52,1.89l-2.16.39a16.56,16.56,0,0,1-12.24-2.6l-.87-.59s14-3.17,16.09-5l.06-.05c2.12-1.89.29-5.41-2.51-5l-17.61,2.7a36.1,36.1,0,0,0-15.95,6.64c-4.43,3.28-11.94,8.18-12.41,8.13l3.06,26.67,5-1.24,9.12.8a32.73,32.73,0,0,0,17.81-3.53c3.39-1.75,6.57-3.5,6.9-4.09a50.81,50.81,0,0,0,2.1-6.64s3.45-2.16,3.59-3.63a23.24,23.24,0,0,0-.28-4.13s8.85-5.25,11.15-7.07C339.79,485.26,339.84,483,338.86,481.65Z"/><path class="cls-18" d="M314.15,500.81a19.09,19.09,0,0,0,5.7-2,18.75,18.75,0,0,0,5.07-3.3c-.09-.14-2.36,1.32-5.33,2.78S314.1,500.65,314.15,500.81Z"/><path class="cls-18" d="M316,505.93a8.4,8.4,0,0,0,5.69-2.88,21.52,21.52,0,0,0-2.82,1.48A21.84,21.84,0,0,0,316,505.93Z"/><path class="cls-18" d="M306.89,482.35a9.78,9.78,0,0,0,2.12,1.51,29.45,29.45,0,0,0,5.68,2.71,19.74,19.74,0,0,0,6.22,1,8.63,8.63,0,0,0,2.6-.24c0-.22-4,.23-8.63-1.34a39.06,39.06,0,0,1-5.67-2.52A14,14,0,0,0,306.89,482.35Z"/><g class="cls-4"><path d="M163,331.17c3.95,6.59,9.94,11.6,16.29,15.94s13.29,7.73,20.22,11.07c3.18,1.53,6.56,3.09,10.08,2.81a4.61,4.61,0,0,0,2.67-.95,5.78,5.78,0,0,0,1.52-3.64,118.39,118.39,0,0,0,1-20.62,74.11,74.11,0,0,1-8.27,19.41s-5.56-4.84-22.76-11.79C166.32,336.34,163,331.17,163,331.17Z"/></g><path class="cls-10" d="M184.14,635.84c-.21,0-.48-10.46-.61-23.37s-.06-23.37.15-23.37.48,10.46.6,23.37S184.35,635.84,184.14,635.84Z"/><path class="cls-8" d="M986.57,680.63c0,.2-219.56.37-490.33.37s-490.38-.17-490.38-.37,219.51-.38,490.38-.38S986.57,680.42,986.57,680.63Z"/></svg>