<svg xmlns="http://www.w3.org/2000/svg" xmlns:xlink="http://www.w3.org/1999/xlink" viewBox="0 0 4350.31 2279.46"><defs><style>.cls-1{fill:url(#Gradiente_sem_nome_53);}.cls-2{fill:url(#Gradiente_sem_nome_53-2);}.cls-3{fill:url(#Gradiente_sem_nome_53-3);}.cls-4{fill:url(#Gradiente_sem_nome_53-4);}.cls-5{fill:url(#Gradiente_sem_nome_53-5);}.cls-6{fill:url(#Gradiente_sem_nome_53-6);}.cls-7{fill:url(#linear-gradient);}.cls-8{fill:url(#Gradiente_sem_nome_32);}.cls-9{fill:url(#Gradiente_sem_nome_110);}.cls-10{fill:url(#Gradiente_sem_nome_140);}</style><linearGradient id="Gradiente_sem_nome_53" x1="515.87" y1="884.91" x2="1404.97" y2="884.91" gradientUnits="userSpaceOnUse"><stop offset="0" stop-color="#fdff58"/><stop offset="0.43" stop-color="#c6ff00"/><stop offset="1" stop-color="#90cc00"/></linearGradient><linearGradient id="Gradiente_sem_nome_53-2" x1="1009.4" y1="166.11" x2="1080.03" y2="166.11" xlink:href="#Gradiente_sem_nome_53"/><linearGradient id="Gradiente_sem_nome_53-3" x1="1066.21" y1="345.34" x2="1167.86" y2="345.34" xlink:href="#Gradiente_sem_nome_53"/><linearGradient id="Gradiente_sem_nome_53-4" x1="1216.27" y1="236.47" x2="1391.6" y2="236.47" xlink:href="#Gradiente_sem_nome_53"/><linearGradient id="Gradiente_sem_nome_53-5" x1="-454.73" y1="6608.33" x2="-353.08" y2="6608.33" gradientTransform="matrix(0.86, 0.51, -0.51, 0.86, 4921.43, -5408.46)" xlink:href="#Gradiente_sem_nome_53"/><linearGradient id="Gradiente_sem_nome_53-6" x1="1216.27" y1="454.27" x2="1345.15" y2="454.27" xlink:href="#Gradiente_sem_nome_53"/><linearGradient id="linear-gradient" y1="1495.25" x2="889.1" y2="1495.25" gradientUnits="userSpaceOnUse"><stop offset="0" stop-color="#3d0056"/><stop offset="1" stop-color="#ff0ba2"/></linearGradient><linearGradient id="Gradiente_sem_nome_32" x1="428.76" y1="1293.95" x2="951.91" y2="2012.85" gradientUnits="userSpaceOnUse"><stop offset="0" stop-color="#170060"/><stop offset="0.62" stop-color="#4c2a8e"/><stop offset="0.98" stop-color="#7d55bf"/></linearGradient><linearGradient id="Gradiente_sem_nome_110" x1="381.05" y1="631.04" x2="1143.87" y2="1087.78" gradientUnits="userSpaceOnUse"><stop offset="0.73" stop-color="#fff" stop-opacity="0"/><stop offset="1" stop-color="#84ff00" stop-opacity="0.4"/></linearGradient><linearGradient id="Gradiente_sem_nome_140" x1="428.76" y1="1293.95" x2="951.91" y2="2012.85" gradientUnits="userSpaceOnUse"><stop offset="0" stop-color="#7d55bf" stop-opacity="0.2"/><stop offset="0.33" stop-color="#bba6de" stop-opacity="0.1"/><stop offset="0.63" stop-color="#fff" stop-opacity="0"/></linearGradient></defs><g id="Camada_2" data-name="Camada 2"><g id="Camada_1-2" data-name="Camada 1"><path class="cls-1" d="M1382.8,1040.89,1177.39,639.3l-50.74,30.47-63.85-35.41-1.27-73,58.14-34.9-46.3-90.52L1025,465,936.83,416l-1.75-100.86L993.62,280,961,216.27a211.83,211.83,0,0,0-43.26-57.67l-25.64,42.81L836,200.49l-27.25-49,24.91-41.64a211.93,211.93,0,0,0-61.58-9.13H515.87l527,1030.27L779.35,1669.13h310.24a121.51,121.51,0,0,0,109.12-68.07l185.67-379.24A202.16,202.16,0,0,0,1382.8,1040.89ZM849.21,255.94l35.32,19.59.71,40.38-34.63,20.78-35.32-19.58-.68-40.37Zm17.2,303.13-50.83-28.18-1-58.1,49.79-29.93,50.83,28.19,1,58.11Z"/><polygon class="cls-2" points="1045.39 206.48 1080.03 185.69 1079.31 145.32 1043.99 125.73 1009.4 146.53 1010.07 186.9 1045.39 206.48"/><polygon class="cls-3" points="1115.99 287.23 1066.21 317.16 1067.18 375.26 1118.01 403.45 1167.86 373.53 1166.83 315.42 1115.99 287.23"/><polygon class="cls-4" points="1302.15 136.24 1216.27 187.86 1217.94 288.07 1305.62 336.69 1391.6 285.09 1389.82 184.86 1302.15 136.24"/><polygon class="cls-5" points="1204.18 0 1146.09 0.05 1117.03 50.37 1146.12 100.69 1204.25 100.68 1233.27 50.32 1204.18 0"/><polygon class="cls-6" points="1279.4 380.6 1216.27 418.54 1217.5 492.21 1281.95 527.95 1345.15 490.02 1343.85 416.34 1279.4 380.6"/><path class="cls-7" d="M632.9,2279.46H889.1l-527-1030.26L625.62,711H315.38A121.48,121.48,0,0,0,206.27,779.1L20.59,1158.34a202.14,202.14,0,0,0,1.58,180.92L444,2163.89A212.23,212.23,0,0,0,632.9,2279.46Z"/><path class="cls-8" d="M632.9,2279.46H889.1l-527-1030.26L625.62,711H315.38A121.48,121.48,0,0,0,206.27,779.1L20.59,1158.34a202.14,202.14,0,0,0,1.58,180.92L444,2163.89A212.23,212.23,0,0,0,632.9,2279.46Z"/><path class="cls-9" d="M772.07,100.69H515.87l527,1030.27L779.35,1669.13h310.24a121.51,121.51,0,0,0,109.12-68.07l185.67-379.24a202.16,202.16,0,0,0-1.58-180.93L961,216.27A212.24,212.24,0,0,0,772.07,100.69Z"/><path class="cls-10" d="M632.9,2279.46H889.1l-527-1030.26L625.62,711H315.38A121.48,121.48,0,0,0,206.27,779.1L20.59,1158.34a202.14,202.14,0,0,0,1.58,180.92L444,2163.89A212.23,212.23,0,0,0,632.9,2279.46Z"/><path d="M3363.44,884.1h35.16V1463h153.7l-6.44,32.26H3363.44Z"/><path d="M3794.08,1431.38c0,33.77.9,54.52,1.83,63.87h-34.09c-2.72-13.62-3.69-31.94-3.71-41-13.77,40-45.66,48.34-74.19,48.34-63.3,0-88.09-53.34-88.09-125.6v-8.23c0-93.83,51.82-137.46,132.44-137.46H3758V1144c0-47.34-9.94-80-54.42-80s-58,33.59-58,77.19v17.18h-35.13v-17.14c0-61.46,24.74-111.11,94.13-111.11,70.9,0,89.49,51.22,89.49,111.95ZM3759,1263.25H3729.1c-62.69,0-97.32,28.1-97.32,103.67v8.21c0,50,13.69,93.43,57.29,93.43,54.39,0,69.9-47,69.9-122.69Z"/><path d="M3887.67,856.67h35.16v226.4c10.19-28.39,33.2-52.94,82.38-52.94,63.28,0,89.86,51.38,89.86,126.63v196c0,82-21,148-99.06,148-41.28,0-65.89-21.08-76-53,0,20.08,0,32-1.87,47.46h-31.39c.93-20.39.91-61.58.91-124.38ZM4059,1357.59v-196c0-62.73-18.06-97.37-61.76-97.37-68,0-75.33,70.47-75.33,145v128.72c0,88.85,20.87,128.78,72.58,128.78C4037.2,1466.72,4059,1432.18,4059,1357.59Z"/><path d="M4187.3,1366.72V1386c0,61.49,27.92,84.42,64.38,84.42,45.31,0,62.55-29,62.55-83.37,0-59.73-18.09-81.67-66.77-114.69-59.59-40.29-86.23-71.47-86.23-132.91,0-57.23,23.31-109.31,93.12-109.31,75.34,0,90.43,55.67,90.43,108.57v23.68h-35.09v-22.11c0-46.36-11.88-78-57.11-78-39,0-55.3,26.32-55.3,73.4,0,46.23,13.61,66.18,63.78,100.79,53.71,36.94,89.25,68.1,89.25,144.07,0,78-30.53,122-101.37,122-75.71,0-97.72-54.25-97.72-114.79v-21Z"/><path d="M1930.1,1466.57a107.05,107.05,0,0,1-35.68-61.3l-97.89-531.54a47.36,47.36,0,0,1,7.32-33.85,51,51,0,0,1,29.28-19.22h8.23q15.54,0,28.36,10.52t15.55,26.08l95.15,513.25q1.83,13.73,15.55,13.72a15.73,15.73,0,0,0,10.07-3.66,15.12,15.12,0,0,0,5.49-10.06l95.14-513.25a44.59,44.59,0,0,1,43.92-36.6h8.23a51,51,0,0,1,29.28,19.22,47.46,47.46,0,0,1,7.32,33.85l-98.81,532.46q-5.49,35.68-34.76,60.38A112.16,112.16,0,0,1,2031.2,1484a98.58,98.58,0,0,1-35.23,6.41Q1959.37,1490.36,1930.1,1466.57Z"/><path d="M2319.38,1477.09q-13.27,13.28-31.56,13.27t-31.57-13.27q-13.27-13.24-13.26-32.48V865.49q0-18.29,13.26-31.56t31.57-13.27q18.29,0,31.56,13.27t13.27,31.56v579.12Q2332.65,1463.83,2319.38,1477.09Z"/><path d="M2452.48,820.66q18.3,0,31.57,13.27t13.26,31.56v518.74a14.91,14.91,0,0,0,4.58,11c3,3.06,7,4.57,11.89,4.57h113.45q18.29,0,31.56,13.27t13.27,31.56q0,19.22-13.27,32.48t-31.56,13.27H2452.48q-18.3,0-32-13.27a43.4,43.4,0,0,1-13.72-32.48V865.49q0-18.29,13.72-31.56T2452.48,820.66Z"/><path d="M3115.18,1441.22q-27.45-145.47-48.49-261.66-9.17-49.41-17.84-97T3033.29,997q-6.86-37.95-11.43-61.75t-4.58-26.54q-7.34-37.5-35.68-60.38-28.36-23.77-65.87-23.78-36.6,0-64.95,23.78-28.38,22.89-35.68,60.38-.93,2.76-5.49,27T2798.17,998q-6.86,38-15.55,85.54t-17.84,97q-21.06,116.19-47.58,260.74-4.59,18.3,7.32,32.93,10.07,16.47,28.36,19.21a27.43,27.43,0,0,0,8.24.92,43.06,43.06,0,0,0,28.82-10.52,48.22,48.22,0,0,0,16-27l46.44-255.46s1.19-5.11,1.75-7.58c1.19-5.26,1.74-9,2.12-11.43s4.26-26.2,13.27-73.64q6.87-36.14,12.81-67.7t10.52-56.73q4.57-25.15,7.32-40.71,2.75-12.79,15.55-12.81t16.47,12.81q2.75,15.57,7.32,40.71T2950,1041q5.94,31.56,12.35,67.7s11.51,56.09,13.72,73.64c.09.65.71,5.61,1.62,12.37.64,4.74,1.19,8.64,1.57,11.29l47.13,250.81a48.11,48.11,0,0,0,16,27,43.06,43.06,0,0,0,28.82,10.52,27.43,27.43,0,0,0,8.24-.92q18.28-2.73,28.36-19.21Q3119.74,1459.53,3115.18,1441.22Z"/></g></g></svg>